<?xml version="1.0" encoding="UTF-8"?>
<svg id="Calque_1" data-name="Calque 1" xmlns="http://www.w3.org/2000/svg" viewBox="0 0 1500 1500">
  <defs>
    <style>
      .cls-1 {
        fill: #f2f2f2;
        opacity: .5;
      }
    </style>
  </defs>
  <path class="cls-1" d="m750,684.35C750,306.39,443.61,0,65.65,0H0v65.65c0,377.96,306.4,684.35,684.35,684.35h65.66v-65.65Z"/>
  <path class="cls-1" d="m750,815.65c0,377.96,306.39,684.35,684.35,684.35h65.65v-65.65c0-377.96-306.4-684.35-684.35-684.35h-65.65v65.65Z"/>
  <path class="cls-1" d="m1500,65.65V0h-65.65C1056.39,0,750,306.39,750,684.35v65.65h65.65c377.95,0,684.35-306.39,684.35-684.35Z"/>
  <path class="cls-1" d="m684.35,750C306.4,750,0,1056.39,0,1434.35v65.65h65.65c377.96,0,684.35-306.39,684.35-684.35v-65.65h-65.66Z"/>
</svg>