<?xml version="1.0" encoding="UTF-8"?><svg id="Calque_1" xmlns="http://www.w3.org/2000/svg" viewBox="0 0 3229 1500"><defs><style>.cls-1,.cls-2{fill:#4d4d4d;}.cls-1,.cls-2,.cls-3,.cls-4{stroke-width:0px;}.cls-5,.cls-2,.cls-3{isolation:isolate;}.cls-2,.cls-3{opacity:.3;}.cls-3,.cls-4{fill:#fff;}</style></defs><path class="cls-3" d="M1432.39,420.43c-50.6-11.72-103.24-18.11-157.41-18.11h0c0,54.16,6.4,106.8,18.11,157.41,37.8-11.53,76.1-19.85,114.57-24.73,4.88-38.47,13.2-76.77,24.73-114.57h0Z"/><path class="cls-3" d="M1812.95,1079.57c50.6,11.72,103.24,18.11,157.41,18.11h0c0-54.16-6.4-106.8-18.11-157.41-37.8,11.53-76.1,19.85-114.57,24.73-4.88,38.47-13.2,76.77-24.73,114.57h0Z"/><path class="cls-3" d="M2003.23,750c-26.97,28.88-55.98,55.24-86.86,78.7,15.01,35.75,26.96,73.08,35.87,111.58,49.68-15.16,98.47-35.94,145.37-63.02h0c-27.08-46.91-58.94-89.3-94.39-127.26h.01Z"/><path class="cls-3" d="M1328.97,671c-15.01-35.75-26.96-73.08-35.87-111.58-49.68,15.15-98.47,35.93-145.37,63.02h0c27.08,46.91,58.94,89.3,94.39,127.26,26.97-28.88,55.98-55.24,86.86-78.7h-.01Z"/><path class="cls-3" d="M1402.33,623c-.03-29.23,1.63-58.54,5.33-87.79-38.47,4.88-76.77,13.2-114.57,24.73,8.91,38.5,20.86,75.83,35.87,111.58,23.48-17.83,48.04-33.93,73.36-48.52h.01Z"/><path class="cls-3" d="M1402.33,623c-.03-29.23,1.63-58.54,5.33-87.79-38.47,4.88-76.77,13.2-114.57,24.73,8.91,38.5,20.86,75.83,35.87,111.58,23.48-17.83,48.04-33.93,73.36-48.52h.01Z"/><path class="cls-3" d="M1843.01,877c.03,29.23-1.63,58.54-5.33,87.79,38.47-4.88,76.77-13.2,114.57-24.73-8.91-38.5-20.86-75.83-35.87-111.58-23.48,17.84-48.04,33.93-73.36,48.52h-.01Z"/><path class="cls-3" d="M1843.01,877c.03,29.23-1.63,58.54-5.33,87.79,38.47-4.88,76.77-13.2,114.57-24.73-8.91-38.5-20.86-75.83-35.87-111.58-23.48,17.84-48.04,33.93-73.36,48.52h-.01Z"/><path class="cls-3" d="M2003.23,750c35.45-37.96,67.31-80.35,94.39-127.26h0c-46.91-27.08-95.69-47.86-145.37-63.02-8.91,38.5-20.86,75.83-35.87,111.58,30.88,23.46,59.89,49.81,86.86,78.7h-.01,0Z"/><path class="cls-3" d="M1242.11,750c-35.45,37.96-67.31,80.35-94.39,127.26h0c46.91,27.08,95.69,47.86,145.37,63.02,8.91-38.5,20.86-75.83,35.87-111.58-30.88-23.46-59.89-49.81-86.86-78.7h.01Z"/><path class="cls-3" d="M1328.97,828.7c11.41-27.18,24.64-53.4,39.28-78.7-14.64-25.3-27.86-51.51-39.28-78.7-30.88,23.46-59.89,49.82-86.86,78.7,26.97,28.88,55.98,55.24,86.86,78.7Z"/><path class="cls-3" d="M1328.97,828.7c11.41-27.18,24.64-53.4,39.28-78.7-14.64-25.3-27.86-51.51-39.28-78.7-30.88,23.46-59.89,49.82-86.86,78.7,26.97,28.88,55.98,55.24,86.86,78.7Z"/><path class="cls-3" d="M1916.37,671.3c-11.41,27.18-24.64,53.4-39.28,78.7,14.64,25.3,27.86,51.51,39.28,78.7,30.88-23.46,59.89-49.82,86.86-78.7-26.97-28.88-55.98-55.24-86.86-78.7Z"/><path class="cls-3" d="M1916.37,671.3c-11.41,27.18-24.64,53.4-39.28,78.7,14.64,25.3,27.86,51.51,39.28,78.7,30.88-23.46,59.89-49.82,86.86-78.7-26.97-28.88-55.98-55.24-86.86-78.7Z"/><path class="cls-3" d="M1402,622.99c-25.33,14.59-49.89,30.68-73.36,48.52,11.41,27.18,24.64,53.4,39.28,78.7,11.59-20.02,24.12-39.41,37.59-58.1-2.31-22.92-3.48-45.98-3.5-69.11h-.01Z"/><path class="cls-3" d="M1402,622.99c-25.33,14.59-49.89,30.68-73.36,48.52,11.41,27.18,24.64,53.4,39.28,78.7,11.59-20.02,24.12-39.41,37.59-58.1-2.31-22.92-3.48-45.98-3.5-69.11h-.01Z"/><path class="cls-3" d="M1402,622.99c-25.33,14.59-49.89,30.68-73.36,48.52,11.41,27.18,24.64,53.4,39.28,78.7,11.59-20.02,24.12-39.41,37.59-58.1-2.31-22.92-3.48-45.98-3.5-69.11h-.01Z"/><path class="cls-3" d="M1840,808.01c2.31,22.92,3.48,45.98,3.5,69.11,25.33-14.59,49.89-30.68,73.36-48.52-11.41-27.18-24.64-53.4-39.28-78.7-11.59,20.02-24.12,39.41-37.59,58.1h.01Z"/><path class="cls-3" d="M1840,808.01c2.31,22.92,3.48,45.98,3.5,69.11,25.33-14.59,49.89-30.68,73.36-48.52-11.41-27.18-24.64-53.4-39.28-78.7-11.59,20.02-24.12,39.41-37.59,58.1h.01Z"/><path class="cls-3" d="M1840,808.01c2.31,22.92,3.48,45.98,3.5,69.11,25.33-14.59,49.89-30.68,73.36-48.52-11.41-27.18-24.64-53.4-39.28-78.7-11.59,20.02-24.12,39.41-37.59,58.1h.01Z"/><path class="cls-3" d="M1293.1,940.28c-11.72,50.6-18.11,103.24-18.11,157.41h0c54.16,0,106.8-6.4,157.41-18.11-11.53-37.8-19.85-76.1-24.73-114.57-38.47-4.88-76.77-13.2-114.57-24.73h0Z"/><path class="cls-3" d="M1952,559.72c11.72-50.6,18.11-103.24,18.11-157.41h0c-54.16,0-106.8,6.4-157.41,18.11,11.53,37.8,19.85,76.1,24.73,114.57,38.47,4.87,76.77,13.2,114.57,24.72h0Z"/><path class="cls-3" d="M1843.01,623c25.33,14.59,49.89,30.68,73.36,48.51,15.01-35.75,26.96-73.08,35.87-111.58-37.8-11.53-76.1-19.85-114.57-24.72,3.71,29.25,5.36,58.56,5.33,87.79h.01Z"/><path class="cls-3" d="M1843.01,623c25.33,14.59,49.89,30.68,73.36,48.51,15.01-35.75,26.96-73.08,35.87-111.58-37.8-11.53-76.1-19.85-114.57-24.72,3.71,29.25,5.36,58.56,5.33,87.79h.01Z"/><path class="cls-3" d="M1402,876.99c-25.33-14.59-49.89-30.68-73.36-48.51-15.01,35.75-26.96,73.08-35.87,111.58,37.8,11.53,76.1,19.85,114.57,24.73-3.71-29.25-5.36-58.56-5.33-87.79h-.01Z"/><path class="cls-3" d="M1402,876.99c-25.33-14.59-49.89-30.68-73.36-48.51-15.01,35.75-26.96,73.08-35.87,111.58,37.8,11.53,76.1,19.85,114.57,24.73-3.71-29.25-5.36-58.56-5.33-87.79h-.01Z"/><path class="cls-3" d="M1839.51,692c13.46,18.69,26,38.08,37.59,58.1,14.64-25.3,27.86-51.51,39.28-78.7-23.48-17.84-48.04-33.93-73.36-48.51-.02,23.13-1.19,46.19-3.5,69.11h-.01Z"/><path class="cls-3" d="M1839.51,692c13.46,18.69,26,38.08,37.59,58.1,14.64-25.3,27.86-51.51,39.28-78.7-23.48-17.84-48.04-33.93-73.36-48.51-.02,23.13-1.19,46.19-3.5,69.11h-.01Z"/><path class="cls-3" d="M1839.51,692c13.46,18.69,26,38.08,37.59,58.1,14.64-25.3,27.86-51.51,39.28-78.7-23.48-17.84-48.04-33.93-73.36-48.51-.02,23.13-1.19,46.19-3.5,69.11h-.01Z"/><path class="cls-3" d="M1405.83,808c-13.46-18.69-26-38.08-37.59-58.1-14.64,25.3-27.86,51.51-39.28,78.7,23.48,17.84,48.04,33.93,73.36,48.51.02-23.13,1.19-46.19,3.5-69.11h.01Z"/><path class="cls-3" d="M1405.83,808c-13.46-18.69-26-38.08-37.59-58.1-14.64,25.3-27.86,51.51-39.28,78.7,23.48,17.84,48.04,33.93,73.36,48.51.02-23.13,1.19-46.19,3.5-69.11h.01Z"/><path class="cls-3" d="M1405.83,808c-13.46-18.69-26-38.08-37.59-58.1-14.64,25.3-27.86,51.51-39.28,78.7,23.48,17.84,48.04,33.93,73.36,48.51.02-23.13,1.19-46.19,3.5-69.11h.01Z"/><path class="cls-3" d="M1414.17,750c-3.59-19.23-6.37-38.6-8.34-58.1-13.46,18.69-26,38.08-37.59,58.1,11.59,20.02,24.12,39.41,37.59,58.1,1.97-19.5,4.75-38.87,8.34-58.1Z"/><path class="cls-3" d="M1414.17,750c-3.59-19.23-6.37-38.6-8.34-58.1-13.46,18.69-26,38.08-37.59,58.1,11.59,20.02,24.12,39.41,37.59,58.1,1.97-19.5,4.75-38.87,8.34-58.1Z"/><path class="cls-3" d="M1414.17,750c-3.59-19.23-6.37-38.6-8.34-58.1-13.46,18.69-26,38.08-37.59,58.1,11.59,20.02,24.12,39.41,37.59,58.1,1.97-19.5,4.75-38.87,8.34-58.1Z"/><path class="cls-3" d="M1414.17,750c-3.59-19.23-6.37-38.6-8.34-58.1-13.46,18.69-26,38.08-37.59,58.1,11.59,20.02,24.12,39.41,37.59,58.1,1.97-19.5,4.75-38.87,8.34-58.1Z"/><path class="cls-3" d="M1831.17,750c3.59,19.23,6.37,38.6,8.34,58.1,13.46-18.69,26-38.08,37.59-58.1-11.59-20.02-24.13-39.41-37.59-58.1-1.97,19.5-4.75,38.87-8.34,58.1Z"/><path class="cls-3" d="M1831.17,750c3.59,19.23,6.37,38.6,8.34,58.1,13.46-18.69,26-38.08,37.59-58.1-11.59-20.02-24.13-39.41-37.59-58.1-1.97,19.5-4.75,38.87-8.34,58.1Z"/><path class="cls-3" d="M1831.17,750c3.59,19.23,6.37,38.6,8.34,58.1,13.46-18.69,26-38.08,37.59-58.1-11.59-20.02-24.13-39.41-37.59-58.1-1.97,19.5-4.75,38.87-8.34,58.1Z"/><path class="cls-3" d="M1831.17,750c3.59,19.23,6.37,38.6,8.34,58.1,13.46-18.69,26-38.08,37.59-58.1-11.59-20.02-24.13-39.41-37.59-58.1-1.97,19.5-4.75,38.87-8.34,58.1Z"/><path class="cls-3" d="M1543.97,1043.7c-35.75,15.01-73.08,26.96-111.58,35.87,15.15,49.68,35.94,98.47,63.02,145.37h0c46.91-27.08,89.3-58.94,127.26-94.39-28.88-26.97-55.24-55.98-78.7-86.85h0Z"/><path class="cls-3" d="M1701.37,456.3c35.75-15.01,73.08-26.96,111.58-35.87-15.15-49.68-35.94-98.46-63.02-145.37h0c-46.91,27.08-89.3,58.94-127.26,94.39,28.88,26.97,55.24,55.98,78.7,86.85h0Z"/><path class="cls-3" d="M1495,970.34c-29.23.03-58.54-1.63-87.79-5.33,4.88,38.47,13.2,76.77,24.73,114.57,38.5-8.91,75.83-20.86,111.58-35.87-17.83-23.48-33.93-48.04-48.52-73.36h0Z"/><path class="cls-3" d="M1495,970.34c-29.23.03-58.54-1.63-87.79-5.33,4.88,38.47,13.2,76.77,24.73,114.57,38.5-8.91,75.83-20.86,111.58-35.87-17.83-23.48-33.93-48.04-48.52-73.36h0Z"/><path class="cls-3" d="M1750,529.66c29.23-.03,58.54,1.63,87.79,5.33-4.88-38.47-13.2-76.77-24.73-114.57-38.5,8.91-75.83,20.86-111.58,35.87,17.83,23.48,33.93,48.04,48.52,73.36h0Z"/><path class="cls-3" d="M1750,529.66c29.23-.03,58.54,1.63,87.79,5.33-4.88-38.47-13.2-76.77-24.73-114.57-38.5,8.91-75.83,20.86-111.58,35.87,17.83,23.48,33.93,48.04,48.52,73.36h0Z"/><path class="cls-3" d="M1843.01,622.79c.03-29.23-1.63-58.54-5.33-87.79-29.25-3.71-58.56-5.36-87.79-5.33,11.55,20.05,22.07,40.6,31.52,61.6,21.01,9.46,41.56,19.98,61.6,31.52Z"/><path class="cls-3" d="M1843.01,622.79c.03-29.23-1.63-58.54-5.33-87.79-29.25-3.71-58.56-5.36-87.79-5.33,11.55,20.05,22.07,40.6,31.52,61.6,21.01,9.46,41.56,19.98,61.6,31.52Z"/><path class="cls-3" d="M1843.01,622.79c.03-29.23-1.63-58.54-5.33-87.79-29.25-3.71-58.56-5.36-87.79-5.33,11.55,20.05,22.07,40.6,31.52,61.6,21.01,9.46,41.56,19.98,61.6,31.52Z"/><path class="cls-3" d="M1402.33,877.21c-.03,29.23,1.63,58.54,5.33,87.79,29.25,3.71,58.56,5.36,87.79,5.33-11.55-20.04-22.07-40.6-31.52-61.6-21.01-9.46-41.56-19.98-61.6-31.52Z"/><path class="cls-3" d="M1402.33,877.21c-.03,29.23,1.63,58.54,5.33,87.79,29.25,3.71,58.56,5.36,87.79,5.33-11.55-20.04-22.07-40.6-31.52-61.6-21.01-9.46-41.56-19.98-61.6-31.52Z"/><path class="cls-3" d="M1402.33,877.21c-.03,29.23,1.63,58.54,5.33,87.79,29.25,3.71,58.56,5.36,87.79,5.33-11.55-20.04-22.07-40.6-31.52-61.6-21.01-9.46-41.56-19.98-61.6-31.52Z"/><path class="cls-3" d="M1442,854.25c-12.72-14.86-24.82-30.25-36.27-46.15-2.31,22.92-3.48,45.98-3.5,69.11,20.05,11.55,40.6,22.06,61.6,31.52-8.05-17.87-15.33-36.04-21.83-54.49h0Z"/><path class="cls-3" d="M1442,854.25c-12.72-14.86-24.82-30.25-36.27-46.15-2.31,22.92-3.48,45.98-3.5,69.11,20.05,11.55,40.6,22.06,61.6,31.52-8.05-17.87-15.33-36.04-21.83-54.49h0Z"/><path class="cls-3" d="M1442,854.25c-12.72-14.86-24.82-30.25-36.27-46.15-2.31,22.92-3.48,45.98-3.5,69.11,20.05,11.55,40.6,22.06,61.6,31.52-8.05-17.87-15.33-36.04-21.83-54.49h0Z"/><path class="cls-3" d="M1442,854.25c-12.72-14.86-24.82-30.25-36.27-46.15-2.31,22.92-3.48,45.98-3.5,69.11,20.05,11.55,40.6,22.06,61.6,31.52-8.05-17.87-15.33-36.04-21.83-54.49h0Z"/><path class="cls-3" d="M1803,645.75c12.72,14.86,24.82,30.25,36.27,46.15,2.31-22.92,3.48-45.98,3.5-69.11-20.05-11.55-40.6-22.06-61.6-31.52,8.05,17.87,15.33,36.04,21.83,54.49h0Z"/><path class="cls-3" d="M1803,645.75c12.72,14.86,24.82,30.25,36.27,46.15,2.31-22.92,3.48-45.98,3.5-69.11-20.05-11.55-40.6-22.06-61.6-31.52,8.05,17.87,15.33,36.04,21.83,54.49h0Z"/><path class="cls-3" d="M1803,645.75c12.72,14.86,24.82,30.25,36.27,46.15,2.31-22.92,3.48-45.98,3.5-69.11-20.05-11.55-40.6-22.06-61.6-31.52,8.05,17.87,15.33,36.04,21.83,54.49h0Z"/><path class="cls-3" d="M1803,645.75c12.72,14.86,24.82,30.25,36.27,46.15,2.31-22.92,3.48-45.98,3.5-69.11-20.05-11.55-40.6-22.06-61.6-31.52,8.05,17.87,15.33,36.04,21.83,54.49h0Z"/><path class="cls-3" d="M1405.83,808.1c11.45,15.9,23.55,31.29,36.27,46.15-11.98-33.98-21.32-68.83-27.93-104.25-3.59,19.23-6.37,38.6-8.34,58.1Z"/><path class="cls-3" d="M1405.83,808.1c11.45,15.9,23.55,31.29,36.27,46.15-11.98-33.98-21.32-68.83-27.93-104.25-3.59,19.23-6.37,38.6-8.34,58.1Z"/><path class="cls-3" d="M1405.83,808.1c11.45,15.9,23.55,31.29,36.27,46.15-11.98-33.98-21.32-68.83-27.93-104.25-3.59,19.23-6.37,38.6-8.34,58.1Z"/><path class="cls-3" d="M1405.83,808.1c11.45,15.9,23.55,31.29,36.27,46.15-11.98-33.98-21.32-68.83-27.93-104.25-3.59,19.23-6.37,38.6-8.34,58.1Z"/><path class="cls-3" d="M1405.83,808.1c11.45,15.9,23.55,31.29,36.27,46.15-11.98-33.98-21.32-68.83-27.93-104.25-3.59,19.23-6.37,38.6-8.34,58.1Z"/><path class="cls-3" d="M1839.51,691.9c-11.45-15.9-23.55-31.29-36.27-46.15,11.98,33.98,21.32,68.83,27.93,104.25,3.59-19.23,6.37-38.6,8.34-58.1Z"/><path class="cls-3" d="M1839.51,691.9c-11.45-15.9-23.55-31.29-36.27-46.15,11.98,33.98,21.32,68.83,27.93,104.25,3.59-19.23,6.37-38.6,8.34-58.1Z"/><path class="cls-3" d="M1839.51,691.9c-11.45-15.9-23.55-31.29-36.27-46.15,11.98,33.98,21.32,68.83,27.93,104.25,3.59-19.23,6.37-38.6,8.34-58.1Z"/><path class="cls-3" d="M1839.51,691.9c-11.45-15.9-23.55-31.29-36.27-46.15,11.98,33.98,21.32,68.83,27.93,104.25,3.59-19.23,6.37-38.6,8.34-58.1Z"/><path class="cls-3" d="M1839.51,691.9c-11.45-15.9-23.55-31.29-36.27-46.15,11.98,33.98,21.32,68.83,27.93,104.25,3.59-19.23,6.37-38.6,8.34-58.1Z"/><path class="cls-3" d="M1623,369.44c-37.96-35.45-80.35-67.31-127.26-94.39h0c-27.08,46.91-47.86,95.69-63.02,145.37,38.5,8.91,75.83,20.86,111.58,35.87,23.46-30.88,49.81-59.89,78.7-86.86h0Z"/><path class="cls-3" d="M1623,1130.56c37.96,35.45,80.35,67.31,127.26,94.39h0c27.08-46.91,47.86-95.69,63.02-145.37-38.5-8.91-75.83-20.86-111.58-35.87-23.46,30.88-49.81,59.89-78.7,86.86h0Z"/><path class="cls-3" d="M1750,970.34c-14.59,25.33-30.68,49.89-48.52,73.36,35.75,15.01,73.08,26.96,111.58,35.87,11.53-37.8,19.85-76.1,24.73-114.57-29.25,3.71-58.56,5.36-87.79,5.33h0Z"/><path class="cls-3" d="M1750,970.34c-14.59,25.33-30.68,49.89-48.52,73.36,35.75,15.01,73.08,26.96,111.58,35.87,11.53-37.8,19.85-76.1,24.73-114.57-29.25,3.71-58.56,5.36-87.79,5.33h0Z"/><path class="cls-3" d="M1495,529.66c14.59-25.33,30.68-49.89,48.52-73.36-35.75-15.01-73.08-26.96-111.58-35.87-11.53,37.8-19.85,76.1-24.73,114.57,29.25-3.71,58.56-5.36,87.79-5.33h0Z"/><path class="cls-3" d="M1495,529.66c14.59-25.33,30.68-49.89,48.52-73.36-35.75-15.01-73.08-26.96-111.58-35.87-11.53,37.8-19.85,76.1-24.73,114.57,29.25-3.71,58.56-5.36,87.79-5.33h0Z"/><path class="cls-3" d="M1749.88,970.34c29.23.03,58.54-1.63,87.79-5.33,3.71-29.25,5.36-58.56,5.33-87.79-20.05,11.55-40.6,22.06-61.6,31.52-9.46,21.01-19.98,41.56-31.52,61.6Z"/><path class="cls-3" d="M1749.88,970.34c29.23.03,58.54-1.63,87.79-5.33,3.71-29.25,5.36-58.56,5.33-87.79-20.05,11.55-40.6,22.06-61.6,31.52-9.46,21.01-19.98,41.56-31.52,61.6Z"/><path class="cls-3" d="M1749.88,970.34c29.23.03,58.54-1.63,87.79-5.33,3.71-29.25,5.36-58.56,5.33-87.79-20.05,11.55-40.6,22.06-61.6,31.52-9.46,21.01-19.98,41.56-31.52,61.6Z"/><path class="cls-3" d="M1495.46,529.66c-29.23-.03-58.54,1.63-87.79,5.33-3.71,29.25-5.36,58.56-5.33,87.79,20.05-11.55,40.6-22.07,61.6-31.52,9.46-21.01,19.98-41.56,31.52-61.6Z"/><path class="cls-3" d="M1495.46,529.66c-29.23-.03-58.54,1.63-87.79,5.33-3.71,29.25-5.36,58.56-5.33,87.79,20.05-11.55,40.6-22.07,61.6-31.52,9.46-21.01,19.98-41.56,31.52-61.6Z"/><path class="cls-3" d="M1495.46,529.66c-29.23-.03-58.54,1.63-87.79,5.33-3.71,29.25-5.36,58.56-5.33,87.79,20.05-11.55,40.6-22.07,61.6-31.52,9.46-21.01,19.98-41.56,31.52-61.6Z"/><path class="cls-3" d="M1406,691.9c11.45-15.9,23.55-31.29,36.27-46.15,6.51-18.45,13.78-36.62,21.83-54.49-21.01,9.46-41.56,19.98-61.6,31.52.02,23.13,1.19,46.19,3.5,69.11h0Z"/><path class="cls-3" d="M1406,691.9c11.45-15.9,23.55-31.29,36.27-46.15,6.51-18.45,13.78-36.62,21.83-54.49-21.01,9.46-41.56,19.98-61.6,31.52.02,23.13,1.19,46.19,3.5,69.11h0Z"/><path class="cls-3" d="M1406,691.9c11.45-15.9,23.55-31.29,36.27-46.15,6.51-18.45,13.78-36.62,21.83-54.49-21.01,9.46-41.56,19.98-61.6,31.52.02,23.13,1.19,46.19,3.5,69.11h0Z"/><path class="cls-3" d="M1406,691.9c11.45-15.9,23.55-31.29,36.27-46.15,6.51-18.45,13.78-36.62,21.83-54.49-21.01,9.46-41.56,19.98-61.6,31.52.02,23.13,1.19,46.19,3.5,69.11h0Z"/><path class="cls-3" d="M1840,808.1c-11.45,15.9-23.55,31.29-36.27,46.15-6.51,18.45-13.78,36.62-21.83,54.49,21.01-9.46,41.56-19.98,61.6-31.52-.02-23.13-1.19-46.19-3.5-69.11h0Z"/><path class="cls-3" d="M1840,808.1c-11.45,15.9-23.55,31.29-36.27,46.15-6.51,18.45-13.78,36.62-21.83,54.49,21.01-9.46,41.56-19.98,61.6-31.52-.02-23.13-1.19-46.19-3.5-69.11h0Z"/><path class="cls-3" d="M1840,808.1c-11.45,15.9-23.55,31.29-36.27,46.15-6.51,18.45-13.78,36.62-21.83,54.49,21.01-9.46,41.56-19.98,61.6-31.52-.02-23.13-1.19-46.19-3.5-69.11h0Z"/><path class="cls-3" d="M1840,808.1c-11.45,15.9-23.55,31.29-36.27,46.15-6.51,18.45-13.78,36.62-21.83,54.49,21.01-9.46,41.56-19.98,61.6-31.52-.02-23.13-1.19-46.19-3.5-69.11h0Z"/><path class="cls-3" d="M1803.24,854.25c12.72-14.86,24.82-30.25,36.27-46.15-1.97-19.5-4.75-38.88-8.34-58.1-6.61,35.42-15.95,70.27-27.93,104.25Z"/><path class="cls-3" d="M1803.24,854.25c12.72-14.86,24.82-30.25,36.27-46.15-1.97-19.5-4.75-38.88-8.34-58.1-6.61,35.42-15.95,70.27-27.93,104.25Z"/><path class="cls-3" d="M1803.24,854.25c12.72-14.86,24.82-30.25,36.27-46.15-1.97-19.5-4.75-38.88-8.34-58.1-6.61,35.42-15.95,70.27-27.93,104.25Z"/><path class="cls-3" d="M1803.24,854.25c12.72-14.86,24.82-30.25,36.27-46.15-1.97-19.5-4.75-38.88-8.34-58.1-6.61,35.42-15.95,70.27-27.93,104.25Z"/><path class="cls-3" d="M1803.24,854.25c12.72-14.86,24.82-30.25,36.27-46.15-1.97-19.5-4.75-38.88-8.34-58.1-6.61,35.42-15.95,70.27-27.93,104.25Z"/><path class="cls-3" d="M1405.83,691.9c1.97,19.5,4.75,38.87,8.34,58.1,6.61-35.42,15.95-70.27,27.93-104.25-12.72,14.86-24.82,30.25-36.27,46.15Z"/><path class="cls-3" d="M1405.83,691.9c1.97,19.5,4.75,38.87,8.34,58.1,6.61-35.42,15.95-70.27,27.93-104.25-12.72,14.86-24.82,30.25-36.27,46.15Z"/><path class="cls-3" d="M1405.83,691.9c1.97,19.5,4.75,38.87,8.34,58.1,6.61-35.42,15.95-70.27,27.93-104.25-12.72,14.86-24.82,30.25-36.27,46.15Z"/><path class="cls-3" d="M1405.83,691.9c1.97,19.5,4.75,38.87,8.34,58.1,6.61-35.42,15.95-70.27,27.93-104.25-12.72,14.86-24.82,30.25-36.27,46.15Z"/><path class="cls-3" d="M1405.83,691.9c1.97,19.5,4.75,38.87,8.34,58.1,6.61-35.42,15.95-70.27,27.93-104.25-12.72,14.86-24.82,30.25-36.27,46.15Z"/><path class="cls-3" d="M1544,456.3c27.18,11.41,53.4,24.64,78.7,39.28,25.3-14.64,51.51-27.86,78.7-39.28-23.46-30.88-49.82-59.89-78.7-86.85-28.88,26.97-55.24,55.98-78.7,86.86h0Z"/><path class="cls-3" d="M1544,456.3c27.18,11.41,53.4,24.64,78.7,39.28,25.3-14.64,51.51-27.86,78.7-39.28-23.46-30.88-49.82-59.89-78.7-86.85-28.88,26.97-55.24,55.98-78.7,86.86h0Z"/><path class="cls-3" d="M1701,1043.7c-27.18-11.41-53.4-24.64-78.7-39.28-25.3,14.64-51.51,27.86-78.7,39.28,23.46,30.88,49.82,59.89,78.7,86.85,28.88-26.97,55.24-55.98,78.7-86.86h0Z"/><path class="cls-3" d="M1701,1043.7c-27.18-11.41-53.4-24.64-78.7-39.28-25.3,14.64-51.51,27.86-78.7,39.28,23.46,30.88,49.82,59.89,78.7,86.85,28.88-26.97,55.24-55.98,78.7-86.86h0Z"/><path class="cls-3" d="M1681,966.99c-18.69,13.46-38.08,26-58.1,37.59,25.3,14.64,51.51,27.86,78.7,39.28,17.83-23.48,33.93-48.04,48.52-73.36-23.13-.02-46.19-1.19-69.11-3.5h-.01Z"/><path class="cls-3" d="M1681,966.99c-18.69,13.46-38.08,26-58.1,37.59,25.3,14.64,51.51,27.86,78.7,39.28,17.83-23.48,33.93-48.04,48.52-73.36-23.13-.02-46.19-1.19-69.11-3.5h-.01Z"/><path class="cls-3" d="M1681,966.99c-18.69,13.46-38.08,26-58.1,37.59,25.3,14.64,51.51,27.86,78.7,39.28,17.83-23.48,33.93-48.04,48.52-73.36-23.13-.02-46.19-1.19-69.11-3.5h-.01Z"/><path class="cls-3" d="M1565,533.01c18.69-13.46,38.08-26,58.1-37.59-25.3-14.64-51.51-27.86-78.7-39.28-17.83,23.48-33.93,48.04-48.52,73.36,23.13.02,46.19,1.19,69.11,3.5h.01Z"/><path class="cls-3" d="M1565,533.01c18.69-13.46,38.08-26,58.1-37.59-25.3-14.64-51.51-27.86-78.7-39.28-17.83,23.48-33.93,48.04-48.52,73.36,23.13.02,46.19,1.19,69.11,3.5h.01Z"/><path class="cls-3" d="M1565,533.01c18.69-13.46,38.08-26,58.1-37.59-25.3-14.64-51.51-27.86-78.7-39.28-17.83,23.48-33.93,48.04-48.52,73.36,23.13.02,46.19,1.19,69.11,3.5h.01Z"/><path class="cls-3" d="M1518.42,569c14.86-12.72,30.25-24.82,46.15-36.27-22.92-2.31-45.98-3.48-69.11-3.5-11.55,20.04-22.06,40.6-31.52,61.6,17.87-8.05,36.04-15.33,54.49-21.83h-.01Z"/><path class="cls-3" d="M1518.42,569c14.86-12.72,30.25-24.82,46.15-36.27-22.92-2.31-45.98-3.48-69.11-3.5-11.55,20.04-22.06,40.6-31.52,61.6,17.87-8.05,36.04-15.33,54.49-21.83h-.01Z"/><path class="cls-3" d="M1518.42,569c14.86-12.72,30.25-24.82,46.15-36.27-22.92-2.31-45.98-3.48-69.11-3.5-11.55,20.04-22.06,40.6-31.52,61.6,17.87-8.05,36.04-15.33,54.49-21.83h-.01Z"/><path class="cls-3" d="M1518.42,569c14.86-12.72,30.25-24.82,46.15-36.27-22.92-2.31-45.98-3.48-69.11-3.5-11.55,20.04-22.06,40.6-31.52,61.6,17.87-8.05,36.04-15.33,54.49-21.83h-.01Z"/><path class="cls-3" d="M1726.92,931c-14.86,12.72-30.25,24.82-46.15,36.27,22.92,2.31,45.98,3.48,69.11,3.5,11.55-20.05,22.06-40.6,31.52-61.6-17.87,8.05-36.04,15.33-54.49,21.83h.01Z"/><path class="cls-3" d="M1726.92,931c-14.86,12.72-30.25,24.82-46.15,36.27,22.92,2.31,45.98,3.48,69.11,3.5,11.55-20.05,22.06-40.6,31.52-61.6-17.87,8.05-36.04,15.33-54.49,21.83h.01Z"/><path class="cls-3" d="M1726.92,931c-14.86,12.72-30.25,24.82-46.15,36.27,22.92,2.31,45.98,3.48,69.11,3.5,11.55-20.05,22.06-40.6,31.52-61.6-17.87,8.05-36.04,15.33-54.49,21.83h.01Z"/><path class="cls-3" d="M1726.92,931c-14.86,12.72-30.25,24.82-46.15,36.27,22.92,2.31,45.98,3.48,69.11,3.5,11.55-20.05,22.06-40.6,31.52-61.6-17.87,8.05-36.04,15.33-54.49,21.83h.01Z"/><path class="cls-3" d="M1518.42,569.43c-18.45,6.51-36.62,13.78-54.49,21.83-8.05,17.87-15.33,36.04-21.83,54.49,23.44-27.37,48.95-52.88,76.32-76.32Z"/><path class="cls-3" d="M1518.42,569.43c-18.45,6.51-36.62,13.78-54.49,21.83-8.05,17.87-15.33,36.04-21.83,54.49,23.44-27.37,48.95-52.88,76.32-76.32Z"/><path class="cls-3" d="M1518.42,569.43c-18.45,6.51-36.62,13.78-54.49,21.83-8.05,17.87-15.33,36.04-21.83,54.49,23.44-27.37,48.95-52.88,76.32-76.32Z"/><path class="cls-3" d="M1518.42,569.43c-18.45,6.51-36.62,13.78-54.49,21.83-8.05,17.87-15.33,36.04-21.83,54.49,23.44-27.37,48.95-52.88,76.32-76.32Z"/><path class="cls-3" d="M1518.42,569.43c-18.45,6.51-36.62,13.78-54.49,21.83-8.05,17.87-15.33,36.04-21.83,54.49,23.44-27.37,48.95-52.88,76.32-76.32Z"/><path class="cls-3" d="M1726.92,930.57c18.45-6.51,36.62-13.78,54.49-21.83,8.05-17.87,15.33-36.04,21.83-54.49-23.44,27.37-48.95,52.88-76.32,76.32Z"/><path class="cls-3" d="M1726.92,930.57c18.45-6.51,36.62-13.78,54.49-21.83,8.05-17.87,15.33-36.04,21.83-54.49-23.44,27.37-48.95,52.88-76.32,76.32Z"/><path class="cls-3" d="M1726.92,930.57c18.45-6.51,36.62-13.78,54.49-21.83,8.05-17.87,15.33-36.04,21.83-54.49-23.44,27.37-48.95,52.88-76.32,76.32Z"/><path class="cls-3" d="M1726.92,930.57c18.45-6.51,36.62-13.78,54.49-21.83,8.05-17.87,15.33-36.04,21.83-54.49-23.44,27.37-48.95,52.88-76.32,76.32Z"/><path class="cls-3" d="M1726.92,930.57c18.45-6.51,36.62-13.78,54.49-21.83,8.05-17.87,15.33-36.04,21.83-54.49-23.44,27.37-48.95,52.88-76.32,76.32Z"/><path class="cls-3" d="M1495,970.01c14.59,25.33,30.68,49.89,48.52,73.36,27.18-11.41,53.4-24.64,78.7-39.28-20.02-11.59-39.41-24.12-58.1-37.59-22.92,2.31-45.98,3.48-69.11,3.5h-.01Z"/><path class="cls-3" d="M1495,970.01c14.59,25.33,30.68,49.89,48.52,73.36,27.18-11.41,53.4-24.64,78.7-39.28-20.02-11.59-39.41-24.12-58.1-37.59-22.92,2.31-45.98,3.48-69.11,3.5h-.01Z"/><path class="cls-3" d="M1495,970.01c14.59,25.33,30.68,49.89,48.52,73.36,27.18-11.41,53.4-24.64,78.7-39.28-20.02-11.59-39.41-24.12-58.1-37.59-22.92,2.31-45.98,3.48-69.11,3.5h-.01Z"/><path class="cls-3" d="M1750,529.99c-14.59-25.33-30.68-49.89-48.52-73.36-27.18,11.41-53.4,24.64-78.7,39.28,20.02,11.59,39.41,24.13,58.1,37.59,22.92-2.31,45.98-3.48,69.11-3.5h.01Z"/><path class="cls-3" d="M1750,529.99c-14.59-25.33-30.68-49.89-48.52-73.36-27.18,11.41-53.4,24.64-78.7,39.28,20.02,11.59,39.41,24.13,58.1,37.59,22.92-2.31,45.98-3.48,69.11-3.5h.01Z"/><path class="cls-3" d="M1750,529.99c-14.59-25.33-30.68-49.89-48.52-73.36-27.18,11.41-53.4,24.64-78.7,39.28,20.02,11.59,39.41,24.13,58.1,37.59,22.92-2.31,45.98-3.48,69.11-3.5h.01Z"/><path class="cls-3" d="M1622.67,958.5c-19.23,3.59-38.6,6.37-58.1,8.34,18.69,13.46,38.08,26,58.1,37.59,20.02-11.59,39.41-24.12,58.1-37.59-19.5-1.97-38.87-4.75-58.1-8.34Z"/><path class="cls-3" d="M1622.67,958.5c-19.23,3.59-38.6,6.37-58.1,8.34,18.69,13.46,38.08,26,58.1,37.59,20.02-11.59,39.41-24.12,58.1-37.59-19.5-1.97-38.87-4.75-58.1-8.34Z"/><path class="cls-3" d="M1622.67,958.5c-19.23,3.59-38.6,6.37-58.1,8.34,18.69,13.46,38.08,26,58.1,37.59,20.02-11.59,39.41-24.12,58.1-37.59-19.5-1.97-38.87-4.75-58.1-8.34Z"/><path class="cls-3" d="M1622.67,958.5c-19.23,3.59-38.6,6.37-58.1,8.34,18.69,13.46,38.08,26,58.1,37.59,20.02-11.59,39.41-24.12,58.1-37.59-19.5-1.97-38.87-4.75-58.1-8.34Z"/><path class="cls-3" d="M1622.67,541.5c19.23-3.59,38.6-6.37,58.1-8.34-18.69-13.46-38.08-26-58.1-37.59-20.02,11.59-39.41,24.13-58.1,37.59,19.5,1.97,38.87,4.75,58.1,8.34Z"/><path class="cls-3" d="M1622.67,541.5c19.23-3.59,38.6-6.37,58.1-8.34-18.69-13.46-38.08-26-58.1-37.59-20.02,11.59-39.41,24.13-58.1,37.59,19.5,1.97,38.87,4.75,58.1,8.34Z"/><path class="cls-3" d="M1622.67,541.5c19.23-3.59,38.6-6.37,58.1-8.34-18.69-13.46-38.08-26-58.1-37.59-20.02,11.59-39.41,24.13-58.1,37.59,19.5,1.97,38.87,4.75,58.1,8.34Z"/><path class="cls-3" d="M1622.67,541.5c19.23-3.59,38.6-6.37,58.1-8.34-18.69-13.46-38.08-26-58.1-37.59-20.02,11.59-39.41,24.13-58.1,37.59,19.5,1.97,38.87,4.75,58.1,8.34Z"/><path class="cls-3" d="M1564.57,533.16c-15.9,11.45-31.29,23.55-46.15,36.27,33.98-11.98,68.83-21.32,104.25-27.93-19.23-3.59-38.6-6.37-58.1-8.34Z"/><path class="cls-3" d="M1564.57,533.16c-15.9,11.45-31.29,23.55-46.15,36.27,33.98-11.98,68.83-21.32,104.25-27.93-19.23-3.59-38.6-6.37-58.1-8.34Z"/><path class="cls-3" d="M1564.57,533.16c-15.9,11.45-31.29,23.55-46.15,36.27,33.98-11.98,68.83-21.32,104.25-27.93-19.23-3.59-38.6-6.37-58.1-8.34Z"/><path class="cls-3" d="M1564.57,533.16c-15.9,11.45-31.29,23.55-46.15,36.27,33.98-11.98,68.83-21.32,104.25-27.93-19.23-3.59-38.6-6.37-58.1-8.34Z"/><path class="cls-3" d="M1564.57,533.16c-15.9,11.45-31.29,23.55-46.15,36.27,33.98-11.98,68.83-21.32,104.25-27.93-19.23-3.59-38.6-6.37-58.1-8.34Z"/><path class="cls-3" d="M1680.77,966.84c15.9-11.45,31.29-23.55,46.15-36.27-33.98,11.98-68.83,21.32-104.25,27.93,19.23,3.59,38.6,6.37,58.1,8.34Z"/><path class="cls-3" d="M1680.77,966.84c15.9-11.45,31.29-23.55,46.15-36.27-33.98,11.98-68.83,21.32-104.25,27.93,19.23,3.59,38.6,6.37,58.1,8.34Z"/><path class="cls-3" d="M1680.77,966.84c15.9-11.45,31.29-23.55,46.15-36.27-33.98,11.98-68.83,21.32-104.25,27.93,19.23,3.59,38.6,6.37,58.1,8.34Z"/><path class="cls-3" d="M1680.77,966.84c15.9-11.45,31.29-23.55,46.15-36.27-33.98,11.98-68.83,21.32-104.25,27.93,19.23,3.59,38.6,6.37,58.1,8.34Z"/><path class="cls-3" d="M1680.77,966.84c15.9-11.45,31.29-23.55,46.15-36.27-33.98,11.98-68.83,21.32-104.25,27.93,19.23,3.59,38.6,6.37,58.1,8.34Z"/><path class="cls-3" d="M1680.77,533c15.9,11.45,31.29,23.55,46.15,36.27,18.45,6.51,36.62,13.78,54.49,21.83-9.46-21-19.98-41.56-31.52-61.6-23.13.02-46.19,1.19-69.11,3.5h-.01Z"/><path class="cls-3" d="M1680.77,533c15.9,11.45,31.29,23.55,46.15,36.27,18.45,6.51,36.62,13.78,54.49,21.83-9.46-21-19.98-41.56-31.52-61.6-23.13.02-46.19,1.19-69.11,3.5h-.01Z"/><path class="cls-3" d="M1680.77,533c15.9,11.45,31.29,23.55,46.15,36.27,18.45,6.51,36.62,13.78,54.49,21.83-9.46-21-19.98-41.56-31.52-61.6-23.13.02-46.19,1.19-69.11,3.5h-.01Z"/><path class="cls-3" d="M1680.77,533c15.9,11.45,31.29,23.55,46.15,36.27,18.45,6.51,36.62,13.78,54.49,21.83-9.46-21-19.98-41.56-31.52-61.6-23.13.02-46.19,1.19-69.11,3.5h-.01Z"/><path class="cls-3" d="M1564.57,967c-15.9-11.45-31.29-23.55-46.15-36.27-18.45-6.51-36.62-13.78-54.49-21.83,9.46,21.01,19.98,41.56,31.52,61.6,23.13-.02,46.19-1.19,69.11-3.5h.01Z"/><path class="cls-3" d="M1564.57,967c-15.9-11.45-31.29-23.55-46.15-36.27-18.45-6.51-36.62-13.78-54.49-21.83,9.46,21.01,19.98,41.56,31.52,61.6,23.13-.02,46.19-1.19,69.11-3.5h.01Z"/><path class="cls-3" d="M1564.57,967c-15.9-11.45-31.29-23.55-46.15-36.27-18.45-6.51-36.62-13.78-54.49-21.83,9.46,21.01,19.98,41.56,31.52,61.6,23.13-.02,46.19-1.19,69.11-3.5h.01Z"/><path class="cls-3" d="M1564.57,967c-15.9-11.45-31.29-23.55-46.15-36.27-18.45-6.51-36.62-13.78-54.49-21.83,9.46,21.01,19.98,41.56,31.52,61.6,23.13-.02,46.19-1.19,69.11-3.5h.01Z"/><path class="cls-3" d="M1564.57,966.84c19.5-1.97,38.87-4.75,58.1-8.34-35.42-6.61-70.27-15.95-104.25-27.93,14.86,12.72,30.25,24.82,46.15,36.27Z"/><path class="cls-3" d="M1564.57,966.84c19.5-1.97,38.87-4.75,58.1-8.34-35.42-6.61-70.27-15.95-104.25-27.93,14.86,12.72,30.25,24.82,46.15,36.27Z"/><path class="cls-3" d="M1564.57,966.84c19.5-1.97,38.87-4.75,58.1-8.34-35.42-6.61-70.27-15.95-104.25-27.93,14.86,12.72,30.25,24.82,46.15,36.27Z"/><path class="cls-3" d="M1564.57,966.84c19.5-1.97,38.87-4.75,58.1-8.34-35.42-6.61-70.27-15.95-104.25-27.93,14.86,12.72,30.25,24.82,46.15,36.27Z"/><path class="cls-3" d="M1564.57,966.84c19.5-1.97,38.87-4.75,58.1-8.34-35.42-6.61-70.27-15.95-104.25-27.93,14.86,12.72,30.25,24.82,46.15,36.27Z"/><path class="cls-3" d="M1680.77,533.16c-19.5,1.97-38.87,4.75-58.1,8.34,35.42,6.61,70.27,15.95,104.25,27.93-14.86-12.72-30.25-24.82-46.15-36.27Z"/><path class="cls-3" d="M1680.77,533.16c-19.5,1.97-38.87,4.75-58.1,8.34,35.42,6.61,70.27,15.95,104.25,27.93-14.86-12.72-30.25-24.82-46.15-36.27Z"/><path class="cls-3" d="M1680.77,533.16c-19.5,1.97-38.87,4.75-58.1,8.34,35.42,6.61,70.27,15.95,104.25,27.93-14.86-12.72-30.25-24.82-46.15-36.27Z"/><path class="cls-3" d="M1680.77,533.16c-19.5,1.97-38.87,4.75-58.1,8.34,35.42,6.61,70.27,15.95,104.25,27.93-14.86-12.72-30.25-24.82-46.15-36.27Z"/><path class="cls-3" d="M1680.77,533.16c-19.5,1.97-38.87,4.75-58.1,8.34,35.42,6.61,70.27,15.95,104.25,27.93-14.86-12.72-30.25-24.82-46.15-36.27Z"/><path class="cls-3" d="M1442.1,854.25c6.51,18.45,13.78,36.62,21.83,54.49,17.87,8.05,36.04,15.33,54.49,21.83-27.37-23.44-52.88-48.95-76.32-76.32Z"/><path class="cls-3" d="M1442.1,854.25c6.51,18.45,13.78,36.62,21.83,54.49,17.87,8.05,36.04,15.33,54.49,21.83-27.37-23.44-52.88-48.95-76.32-76.32Z"/><path class="cls-3" d="M1442.1,854.25c6.51,18.45,13.78,36.62,21.83,54.49,17.87,8.05,36.04,15.33,54.49,21.83-27.37-23.44-52.88-48.95-76.32-76.32Z"/><path class="cls-3" d="M1442.1,854.25c6.51,18.45,13.78,36.62,21.83,54.49,17.87,8.05,36.04,15.33,54.49,21.83-27.37-23.44-52.88-48.95-76.32-76.32Z"/><path class="cls-3" d="M1442.1,854.25c6.51,18.45,13.78,36.62,21.83,54.49,17.87,8.05,36.04,15.33,54.49,21.83-27.37-23.44-52.88-48.95-76.32-76.32Z"/><path class="cls-3" d="M1803.24,645.75c-6.51-18.45-13.78-36.62-21.83-54.49-17.87-8.05-36.04-15.32-54.49-21.83,27.37,23.44,52.88,48.95,76.32,76.32Z"/><path class="cls-3" d="M1803.24,645.75c-6.51-18.45-13.78-36.62-21.83-54.49-17.87-8.05-36.04-15.32-54.49-21.83,27.37,23.44,52.88,48.95,76.32,76.32Z"/><path class="cls-3" d="M1803.24,645.75c-6.51-18.45-13.78-36.62-21.83-54.49-17.87-8.05-36.04-15.32-54.49-21.83,27.37,23.44,52.88,48.95,76.32,76.32Z"/><path class="cls-3" d="M1803.24,645.75c-6.51-18.45-13.78-36.62-21.83-54.49-17.87-8.05-36.04-15.32-54.49-21.83,27.37,23.44,52.88,48.95,76.32,76.32Z"/><path class="cls-3" d="M1803.24,645.75c-6.51-18.45-13.78-36.62-21.83-54.49-17.87-8.05-36.04-15.32-54.49-21.83,27.37,23.44,52.88,48.95,76.32,76.32Z"/><path class="cls-3" d="M1803.24,645.75c-23.44-27.37-48.95-52.88-76.32-76.32-33.98-11.98-68.83-21.32-104.25-27.93-35.42,6.61-70.27,15.95-104.25,27.93-27.37,23.44-52.88,48.95-76.32,76.32-11.98,33.98-21.32,68.83-27.93,104.25,6.61,35.42,15.95,70.27,27.93,104.25,23.44,27.37,48.95,52.88,76.32,76.32,33.98,11.98,68.83,21.32,104.25,27.93,35.42-6.61,70.27-15.95,104.25-27.93,27.37-23.44,52.88-48.95,76.32-76.32,11.98-33.98,21.32-68.83,27.93-104.25-6.61-35.42-15.95-70.27-27.93-104.25Z"/><path class="cls-3" d="M1803.24,645.75c-23.44-27.37-48.95-52.88-76.32-76.32-33.98-11.98-68.83-21.32-104.25-27.93-35.42,6.61-70.27,15.95-104.25,27.93-27.37,23.44-52.88,48.95-76.32,76.32-11.98,33.98-21.32,68.83-27.93,104.25,6.61,35.42,15.95,70.27,27.93,104.25,23.44,27.37,48.95,52.88,76.32,76.32,33.98,11.98,68.83,21.32,104.25,27.93,35.42-6.61,70.27-15.95,104.25-27.93,27.37-23.44,52.88-48.95,76.32-76.32,11.98-33.98,21.32-68.83,27.93-104.25-6.61-35.42-15.95-70.27-27.93-104.25Z"/><path class="cls-3" d="M1803.24,645.75c-23.44-27.37-48.95-52.88-76.32-76.32-33.98-11.98-68.83-21.32-104.25-27.93-35.42,6.61-70.27,15.95-104.25,27.93-27.37,23.44-52.88,48.95-76.32,76.32-11.98,33.98-21.32,68.83-27.93,104.25,6.61,35.42,15.95,70.27,27.93,104.25,23.44,27.37,48.95,52.88,76.32,76.32,33.98,11.98,68.83,21.32,104.25,27.93,35.42-6.61,70.27-15.95,104.25-27.93,27.37-23.44,52.88-48.95,76.32-76.32,11.98-33.98,21.32-68.83,27.93-104.25-6.61-35.42-15.95-70.27-27.93-104.25Z"/><path class="cls-3" d="M1803.24,645.75c-23.44-27.37-48.95-52.88-76.32-76.32-33.98-11.98-68.83-21.32-104.25-27.93-35.42,6.61-70.27,15.95-104.25,27.93-27.37,23.44-52.88,48.95-76.32,76.32-11.98,33.98-21.32,68.83-27.93,104.25,6.61,35.42,15.95,70.27,27.93,104.25,23.44,27.37,48.95,52.88,76.32,76.32,33.98,11.98,68.83,21.32,104.25,27.93,35.42-6.61,70.27-15.95,104.25-27.93,27.37-23.44,52.88-48.95,76.32-76.32,11.98-33.98,21.32-68.83,27.93-104.25-6.61-35.42-15.95-70.27-27.93-104.25Z"/><path class="cls-3" d="M1803.24,645.75c-23.44-27.37-48.95-52.88-76.32-76.32-33.98-11.98-68.83-21.32-104.25-27.93-35.42,6.61-70.27,15.95-104.25,27.93-27.37,23.44-52.88,48.95-76.32,76.32-11.98,33.98-21.32,68.83-27.93,104.25,6.61,35.42,15.95,70.27,27.93,104.25,23.44,27.37,48.95,52.88,76.32,76.32,33.98,11.98,68.83,21.32,104.25,27.93,35.42-6.61,70.27-15.95,104.25-27.93,27.37-23.44,52.88-48.95,76.32-76.32,11.98-33.98,21.32-68.83,27.93-104.25-6.61-35.42-15.95-70.27-27.93-104.25Z"/><path class="cls-3" d="M1803.24,645.75c-23.44-27.37-48.95-52.88-76.32-76.32-33.98-11.98-68.83-21.32-104.25-27.93-35.42,6.61-70.27,15.95-104.25,27.93-27.37,23.44-52.88,48.95-76.32,76.32-11.98,33.98-21.32,68.83-27.93,104.25,6.61,35.42,15.95,70.27,27.93,104.25,23.44,27.37,48.95,52.88,76.32,76.32,33.98,11.98,68.83,21.32,104.25,27.93,35.42-6.61,70.27-15.95,104.25-27.93,27.37-23.44,52.88-48.95,76.32-76.32,11.98-33.98,21.32-68.83,27.93-104.25-6.61-35.42-15.95-70.27-27.93-104.25Z"/><circle class="cls-4" cx="1622.67" cy="750" r="215"/><path class="cls-2" d="M1321,229.57c-79.8-18.5-162.81-28.6-248.23-28.6h0c0,85.53,10.09,168.66,28.56,248.56,59.61-18.21,120.01-31.35,180.68-39.05,7.69-60.75,20.81-121.23,38.99-180.92h0Z"/><path class="cls-2" d="M1921,1270.43c79.8,18.5,162.81,28.6,248.23,28.6h0c0-85.53-10.09-168.66-28.56-248.56-59.61,18.21-120.01,31.35-180.68,39.05-7.69,60.75-20.81,121.23-38.99,180.92h0Z"/><path class="cls-2" d="M2221.24,750c-42.53,45.61-88.28,87.23-136.98,124.28,23.68,56.46,42.51,115.41,56.56,176.2,78.35-23.93,155.28-56.75,229.25-99.51h0c-42.71-74.07-92.96-141.01-148.85-200.96h.02Z"/><path class="cls-2" d="M1157.92,626c-23.68-56.46-42.51-115.41-56.56-176.2-78.36,23.93-155.29,56.74-229.26,99.51h0c42.71,74.07,92.96,141.01,148.85,200.96,42.52-45.61,88.28-87.23,136.98-124.27h0Z"/><path class="cls-2" d="M1273.62,549c-.05-46.15,2.57-92.45,8.41-138.64-60.67,7.7-121.07,20.84-180.68,39.05,14.06,60.79,32.9,119.74,56.56,176.2,37.02-28.16,75.76-53.58,115.7-76.61h0Z"/><path class="cls-2" d="M1273.62,549c-.05-46.15,2.57-92.45,8.41-138.64-60.67,7.7-121.07,20.84-180.68,39.05,14.06,60.79,32.9,119.74,56.56,176.2,37.02-28.16,75.76-53.58,115.7-76.61h0Z"/><path class="cls-2" d="M1968.57,950.88c.05,46.15-2.57,92.45-8.41,138.63,60.67-7.7,121.07-20.84,180.68-39.05-14.05-60.79-32.9-119.74-56.56-176.2-37.02,28.16-75.76,53.58-115.7,76.61h0Z"/><path class="cls-2" d="M1968.57,950.88c.05,46.15-2.57,92.45-8.41,138.63,60.67-7.7,121.07-20.84,180.68-39.05-14.05-60.79-32.9-119.74-56.56-176.2-37.02,28.16-75.76,53.58-115.7,76.61h0Z"/><path class="cls-2" d="M2221.24,750c55.9-59.95,106.14-126.89,148.85-200.96h0c-73.97-42.77-150.91-75.58-229.25-99.51-14.05,60.79-32.9,119.74-56.56,176.2,48.69,37.04,94.44,78.66,136.98,124.27h-.02Z"/><path class="cls-2" d="M1020.95,750c-55.9,59.95-106.14,126.89-148.85,200.96h0c73.97,42.77,150.91,75.58,229.25,99.51,14.05-60.79,32.9-119.74,56.56-176.2-48.69-37.04-94.44-78.66-136.98-124.27h.02Z"/><path class="cls-2" d="M1157.92,874.27c18-42.93,38.86-84.32,61.94-124.27-23.09-39.95-43.94-81.35-61.94-124.27-48.69,37.04-94.44,78.66-136.98,124.27,42.53,45.61,88.28,87.23,136.98,124.27Z"/><path class="cls-2" d="M1157.92,874.27c18-42.93,38.86-84.32,61.94-124.27-23.09-39.95-43.94-81.35-61.94-124.27-48.69,37.04-94.44,78.66-136.98,124.27,42.53,45.61,88.28,87.23,136.98,124.27Z"/><path class="cls-2" d="M2084,625.72c-18,42.93-38.85,84.33-61.94,124.27,23.09,39.95,43.94,81.35,61.94,124.27,48.69-37.04,94.44-78.67,136.98-124.28-42.53-45.61-88.28-87.23-136.98-124.27h0Z"/><path class="cls-2" d="M2084,625.72c-18,42.93-38.85,84.33-61.94,124.27,23.09,39.95,43.94,81.35,61.94,124.27,48.69-37.04,94.44-78.67,136.98-124.28-42.53-45.61-88.28-87.23-136.98-124.27h0Z"/><path class="cls-2" d="M1273.62,549c-39.94,23.04-78.67,48.45-115.7,76.61,18,42.93,38.86,84.32,61.94,124.27,18.28-31.62,38.05-62.23,59.27-91.75-3.65-36.2-5.48-72.61-5.52-109.13h.01Z"/><path class="cls-2" d="M1273.62,549c-39.94,23.04-78.67,48.45-115.7,76.61,18,42.93,38.86,84.32,61.94,124.27,18.28-31.62,38.05-62.23,59.27-91.75-3.65-36.2-5.48-72.61-5.52-109.13h.01Z"/><path class="cls-2" d="M1273.62,549c-39.94,23.04-78.67,48.45-115.7,76.61,18,42.93,38.86,84.32,61.94,124.27,18.28-31.62,38.05-62.23,59.27-91.75-3.65-36.2-5.48-72.61-5.52-109.13h.01Z"/><path class="cls-2" d="M1963.06,842c3.65,36.19,5.48,72.6,5.52,109.13,39.95-23.04,78.67-48.45,115.7-76.61-18-42.93-38.86-84.32-61.94-124.27-18.28,31.62-38.05,62.23-59.27,91.75h-.01Z"/><path class="cls-2" d="M1963.06,842c3.65,36.19,5.48,72.6,5.52,109.13,39.95-23.04,78.67-48.45,115.7-76.61-18-42.93-38.86-84.32-61.94-124.27-18.28,31.62-38.05,62.23-59.27,91.75h-.01Z"/><path class="cls-2" d="M1963.06,842c3.65,36.19,5.48,72.6,5.52,109.13,39.95-23.04,78.67-48.45,115.7-76.61-18-42.93-38.86-84.32-61.94-124.27-18.28,31.62-38.05,62.23-59.27,91.75h-.01Z"/><path class="cls-2" d="M1101.36,1050.48c-18.48,79.91-28.56,163.03-28.56,248.56h0c85.42,0,168.44-10.1,248.23-28.6-18.19-59.69-31.31-120.17-39-180.92-60.67-7.7-121.07-20.84-180.68-39.05h.01Z"/><path class="cls-2" d="M2140.84,450c18.48-79.91,28.56-163.03,28.56-248.56h0c-85.42,0-168.44,10.1-248.23,28.6,18.19,59.69,31.31,120.17,39,180.92,60.67,7.7,121.07,20.84,180.68,39.04h-.01Z"/><path class="cls-2" d="M1968.57,549c39.95,23.04,78.67,48.45,115.7,76.61,23.68-56.46,42.51-115.41,56.56-176.2-59.61-18.21-120.01-31.35-180.68-39.04,5.84,46.19,8.46,92.48,8.41,138.63h0Z"/><path class="cls-2" d="M1968.57,549c39.95,23.04,78.67,48.45,115.7,76.61,23.68-56.46,42.51-115.41,56.56-176.2-59.61-18.21-120.01-31.35-180.68-39.04,5.84,46.19,8.46,92.48,8.41,138.63h0Z"/><path class="cls-2" d="M1273.62,951c-39.95-23.04-78.67-48.45-115.7-76.61-23.68,56.46-42.51,115.41-56.56,176.2,59.61,18.21,120.01,31.35,180.68,39.05-5.84-46.19-8.46-92.48-8.41-138.64h-.01Z"/><path class="cls-2" d="M1273.62,951c-39.95-23.04-78.67-48.45-115.7-76.61-23.68,56.46-42.51,115.41-56.56,176.2,59.61,18.21,120.01,31.35,180.68,39.05-5.84-46.19-8.46-92.48-8.41-138.64h-.01Z"/><path class="cls-2" d="M1963.06,658.25c21.23,29.52,41.01,60.13,59.27,91.75,23.09-39.95,43.94-81.35,61.94-124.27-37.02-28.16-75.76-53.57-115.7-76.61-.04,36.53-1.88,72.94-5.52,109.14h.01Z"/><path class="cls-2" d="M1963.06,658.25c21.23,29.52,41.01,60.13,59.27,91.75,23.09-39.95,43.94-81.35,61.94-124.27-37.02-28.16-75.76-53.57-115.7-76.61-.04,36.53-1.88,72.94-5.52,109.14h.01Z"/><path class="cls-2" d="M1963.06,658.25c21.23,29.52,41.01,60.13,59.27,91.75,23.09-39.95,43.94-81.35,61.94-124.27-37.02-28.16-75.76-53.57-115.7-76.61-.04,36.53-1.88,72.94-5.52,109.14h.01Z"/><path class="cls-2" d="M1279.13,842c-21.23-29.52-41.01-60.13-59.27-91.75-23.09,39.95-43.94,81.35-61.94,124.27,37.02,28.16,75.76,53.57,115.7,76.61.04-36.53,1.88-72.94,5.52-109.13h-.01Z"/><path class="cls-2" d="M1279.13,842c-21.23-29.52-41.01-60.13-59.27-91.75-23.09,39.95-43.94,81.35-61.94,124.27,37.02,28.16,75.76,53.57,115.7,76.61.04-36.53,1.88-72.94,5.52-109.13h-.01Z"/><path class="cls-2" d="M1279.13,842c-21.23-29.52-41.01-60.13-59.27-91.75-23.09,39.95-43.94,81.35-61.94,124.27,37.02,28.16,75.76,53.57,115.7,76.61.04-36.53,1.88-72.94,5.52-109.13h-.01Z"/><path class="cls-2" d="M1292.28,750c-5.66-30.36-10.05-60.96-13.15-91.75-21.23,29.52-41.01,60.13-59.27,91.75,18.28,31.62,38.05,62.23,59.27,91.75,3.1-30.79,7.49-61.39,13.15-91.75Z"/><path class="cls-2" d="M1292.28,750c-5.66-30.36-10.05-60.96-13.15-91.75-21.23,29.52-41.01,60.13-59.27,91.75,18.28,31.62,38.05,62.23,59.27,91.75,3.1-30.79,7.49-61.39,13.15-91.75Z"/><path class="cls-2" d="M1292.28,750c-5.66-30.36-10.05-60.96-13.15-91.75-21.23,29.52-41.01,60.13-59.27,91.75,18.28,31.62,38.05,62.23,59.27,91.75,3.1-30.79,7.49-61.39,13.15-91.75Z"/><path class="cls-2" d="M1292.28,750c-5.66-30.36-10.05-60.96-13.15-91.75-21.23,29.52-41.01,60.13-59.27,91.75,18.28,31.62,38.05,62.23,59.27,91.75,3.1-30.79,7.49-61.39,13.15-91.75Z"/><path class="cls-2" d="M1949.91,750c5.66,30.36,10.05,60.96,13.15,91.75,21.23-29.52,41.01-60.13,59.27-91.75-18.28-31.62-38.05-62.23-59.27-91.75-3.1,30.79-7.49,61.39-13.15,91.75Z"/><path class="cls-2" d="M1949.91,750c5.66,30.36,10.05,60.96,13.15,91.75,21.23-29.52,41.01-60.13,59.27-91.75-18.28-31.62-38.05-62.23-59.27-91.75-3.1,30.79-7.49,61.39-13.15,91.75Z"/><path class="cls-2" d="M1949.91,750c5.66,30.36,10.05,60.96,13.15,91.75,21.23-29.52,41.01-60.13,59.27-91.75-18.28-31.62-38.05-62.23-59.27-91.75-3.1,30.79-7.49,61.39-13.15,91.75Z"/><path class="cls-2" d="M1949.91,750c5.66,30.36,10.05,60.96,13.15,91.75,21.23-29.52,41.01-60.13,59.27-91.75-18.28-31.62-38.05-62.23-59.27-91.75-3.1,30.79-7.49,61.39-13.15,91.75Z"/><path class="cls-2" d="M1496.99,1213.79c-56.38,23.71-115.26,42.57-175.97,56.64,23.9,78.45,56.67,155.49,99.38,229.56h0c73.97-42.77,140.82-93.08,200.69-149.05-45.55-42.58-87.11-88.39-124.1-137.15h0Z"/><path class="cls-2" d="M1745,286.21c56.38-23.71,115.26-42.57,175.97-56.64-23.9-78.46-56.66-155.5-99.38-229.57h0c-73.97,42.76-140.82,93.08-200.69,149.05,45.55,42.58,87.11,88.39,124.1,137.15h0Z"/><path class="cls-2" d="M1420.48,1097.94c-46.1.05-92.33-2.57-138.45-8.42,7.69,60.75,20.81,121.23,39,180.92,60.71-14.08,119.58-32.94,175.97-56.64-28.12-37.07-53.51-75.86-76.51-115.85h-.01Z"/><path class="cls-2" d="M1420.48,1097.94c-46.1.05-92.33-2.57-138.45-8.42,7.69,60.75,20.81,121.23,39,180.92,60.71-14.08,119.58-32.94,175.97-56.64-28.12-37.07-53.51-75.86-76.51-115.85h-.01Z"/><path class="cls-2" d="M1822,402.01c46.1-.05,92.33,2.57,138.45,8.42-7.69-60.75-20.81-121.23-39-180.92-60.71,14.08-119.58,32.94-175.97,56.64,28.12,37.07,53.51,75.85,76.51,115.85h.01Z"/><path class="cls-2" d="M1822,402.01c46.1-.05,92.33,2.57,138.45,8.42-7.69-60.75-20.81-121.23-39-180.92-60.71,14.08-119.58,32.94-175.97,56.64,28.12,37.07,53.51,75.85,76.51,115.85h.01Z"/><path class="cls-2" d="M1969,549.11c.05-46.15-2.57-92.45-8.41-138.63-46.13-5.85-92.36-8.47-138.45-8.42,18.21,31.65,34.79,64.11,49.71,97.28,33.13,14.94,65.53,31.55,97.15,49.78h0Z"/><path class="cls-2" d="M1969,549.11c.05-46.15-2.57-92.45-8.41-138.63-46.13-5.85-92.36-8.47-138.45-8.42,18.21,31.65,34.79,64.11,49.71,97.28,33.13,14.94,65.53,31.55,97.15,49.78h0Z"/><path class="cls-2" d="M1969,549.11c.05-46.15-2.57-92.45-8.41-138.63-46.13-5.85-92.36-8.47-138.45-8.42,18.21,31.65,34.79,64.11,49.71,97.28,33.13,14.94,65.53,31.55,97.15,49.78h0Z"/><path class="cls-2" d="M1273.62,950.89c-.05,46.15,2.57,92.45,8.41,138.64,46.13,5.85,92.36,8.47,138.45,8.42-18.21-31.65-34.79-64.11-49.71-97.28-33.13-14.94-65.53-31.55-97.15-49.78h0Z"/><path class="cls-2" d="M1273.62,950.89c-.05,46.15,2.57,92.45,8.41,138.64,46.13,5.85,92.36,8.47,138.45,8.42-18.21-31.65-34.79-64.11-49.71-97.28-33.13-14.94-65.53-31.55-97.15-49.78h0Z"/><path class="cls-2" d="M1273.62,950.89c-.05,46.15,2.57,92.45,8.41,138.64,46.13,5.85,92.36,8.47,138.45,8.42-18.21-31.65-34.79-64.11-49.71-97.28-33.13-14.94-65.53-31.55-97.15-49.78h0Z"/><path class="cls-2" d="M1336.34,915c-20.06-23.46-39.14-47.76-57.2-72.87-3.65,36.2-5.48,72.61-5.52,109.13,31.61,18.23,64.02,34.84,97.15,49.78-12.69-28.22-24.17-56.91-34.42-86.04h-.01Z"/><path class="cls-2" d="M1336.34,915c-20.06-23.46-39.14-47.76-57.2-72.87-3.65,36.2-5.48,72.61-5.52,109.13,31.61,18.23,64.02,34.84,97.15,49.78-12.69-28.22-24.17-56.91-34.42-86.04h-.01Z"/><path class="cls-2" d="M1336.34,915c-20.06-23.46-39.14-47.76-57.2-72.87-3.65,36.2-5.48,72.61-5.52,109.13,31.61,18.23,64.02,34.84,97.15,49.78-12.69-28.22-24.17-56.91-34.42-86.04h-.01Z"/><path class="cls-2" d="M1336.34,915c-20.06-23.46-39.14-47.76-57.2-72.87-3.65,36.2-5.48,72.61-5.52,109.13,31.61,18.23,64.02,34.84,97.15,49.78-12.69-28.22-24.17-56.91-34.42-86.04h-.01Z"/><path class="cls-2" d="M1905.86,585c20.06,23.46,39.14,47.76,57.2,72.88,3.65-36.2,5.48-72.61,5.52-109.14-31.61-18.23-64.02-34.84-97.15-49.78,12.69,28.22,24.17,56.91,34.42,86.04h.01Z"/><path class="cls-2" d="M1905.86,585c20.06,23.46,39.14,47.76,57.2,72.88,3.65-36.2,5.48-72.61,5.52-109.14-31.61-18.23-64.02-34.84-97.15-49.78,12.69,28.22,24.17,56.91,34.42,86.04h.01Z"/><path class="cls-2" d="M1905.86,585c20.06,23.46,39.14,47.76,57.2,72.88,3.65-36.2,5.48-72.61,5.52-109.14-31.61-18.23-64.02-34.84-97.15-49.78,12.69,28.22,24.17,56.91,34.42,86.04h.01Z"/><path class="cls-2" d="M1905.86,585c20.06,23.46,39.14,47.76,57.2,72.88,3.65-36.2,5.48-72.61,5.52-109.14-31.61-18.23-64.02-34.84-97.15-49.78,12.69,28.22,24.17,56.91,34.42,86.04h.01Z"/><path class="cls-2" d="M1279.13,841.75c18.06,25.11,37.14,49.41,57.2,72.87-18.89-53.66-33.63-108.69-44.05-164.62-5.66,30.36-10.05,60.96-13.15,91.75h0Z"/><path class="cls-2" d="M1279.13,841.75c18.06,25.11,37.14,49.41,57.2,72.87-18.89-53.66-33.63-108.69-44.05-164.62-5.66,30.36-10.05,60.96-13.15,91.75h0Z"/><path class="cls-2" d="M1279.13,841.75c18.06,25.11,37.14,49.41,57.2,72.87-18.89-53.66-33.63-108.69-44.05-164.62-5.66,30.36-10.05,60.96-13.15,91.75h0Z"/><path class="cls-2" d="M1279.13,841.75c18.06,25.11,37.14,49.41,57.2,72.87-18.89-53.66-33.63-108.69-44.05-164.62-5.66,30.36-10.05,60.96-13.15,91.75h0Z"/><path class="cls-2" d="M1279.13,841.75c18.06,25.11,37.14,49.41,57.2,72.87-18.89-53.66-33.63-108.69-44.05-164.62-5.66,30.36-10.05,60.96-13.15,91.75h0Z"/><path class="cls-2" d="M1963.06,658.25c-18.06-25.11-37.14-49.41-57.2-72.88,18.89,53.66,33.63,108.69,44.05,164.63,5.66-30.36,10.05-60.96,13.15-91.75h0Z"/><path class="cls-2" d="M1963.06,658.25c-18.06-25.11-37.14-49.41-57.2-72.88,18.89,53.66,33.63,108.69,44.05,164.63,5.66-30.36,10.05-60.96,13.15-91.75h0Z"/><path class="cls-2" d="M1963.06,658.25c-18.06-25.11-37.14-49.41-57.2-72.88,18.89,53.66,33.63,108.69,44.05,164.63,5.66-30.36,10.05-60.96,13.15-91.75h0Z"/><path class="cls-2" d="M1963.06,658.25c-18.06-25.11-37.14-49.41-57.2-72.88,18.89,53.66,33.63,108.69,44.05,164.63,5.66-30.36,10.05-60.96,13.15-91.75h0Z"/><path class="cls-2" d="M1963.06,658.25c-18.06-25.11-37.14-49.41-57.2-72.88,18.89,53.66,33.63,108.69,44.05,164.63,5.66-30.36,10.05-60.96,13.15-91.75h0Z"/><path class="cls-2" d="M1621,149.05C1561.13,93.08,1494.28,42.77,1420.31,0h0c-42.71,74.07-75.48,151.11-99.38,229.56,60.71,14.08,119.58,32.94,175.97,56.64,36.99-48.76,78.56-94.57,124.1-137.16h0Z"/><path class="cls-2" d="M1621,1350.95c59.87,55.97,126.72,106.28,200.69,149.05h0c42.71-74.07,75.48-151.11,99.38-229.56-60.71-14.07-119.58-32.94-175.97-56.64-36.99,48.76-78.56,94.57-124.1,137.16h0Z"/><path class="cls-2" d="M1822,1097.94c-23.01,40-48.39,78.78-76.51,115.85,56.38,23.71,115.26,42.57,175.97,56.64,18.19-59.69,31.31-120.17,38.99-180.92-46.13,5.85-92.36,8.47-138.45,8.42h0Z"/><path class="cls-2" d="M1822,1097.94c-23.01,40-48.39,78.78-76.51,115.85,56.38,23.71,115.26,42.57,175.97,56.64,18.19-59.69,31.31-120.17,38.99-180.92-46.13,5.85-92.36,8.47-138.45,8.42h0Z"/><path class="cls-2" d="M1420,402.06c23.01-40,48.39-78.78,76.51-115.85-56.38-23.71-115.26-42.57-175.97-56.64-18.19,59.69-31.31,120.17-38.99,180.92,46.13-5.85,92.36-8.47,138.45-8.42h0Z"/><path class="cls-2" d="M1420,402.06c23.01-40,48.39-78.78,76.51-115.85-56.38-23.71-115.26-42.57-175.97-56.64-18.19,59.69-31.31,120.17-38.99,180.92,46.13-5.85,92.36-8.47,138.45-8.42h0Z"/><path class="cls-2" d="M1822,1097.94c46.1.05,92.33-2.57,138.45-8.42,5.84-46.19,8.46-92.48,8.41-138.63-31.61,18.23-64.02,34.84-97.15,49.78-14.92,33.17-31.51,65.62-49.71,97.28h0Z"/><path class="cls-2" d="M1822,1097.94c46.1.05,92.33-2.57,138.45-8.42,5.84-46.19,8.46-92.48,8.41-138.63-31.61,18.23-64.02,34.84-97.15,49.78-14.92,33.17-31.51,65.62-49.71,97.28h0Z"/><path class="cls-2" d="M1822,1097.94c46.1.05,92.33-2.57,138.45-8.42,5.84-46.19,8.46-92.48,8.41-138.63-31.61,18.23-64.02,34.84-97.15,49.78-14.92,33.17-31.51,65.62-49.71,97.28h0Z"/><path class="cls-2" d="M1420.47,402.06c-46.09-.05-92.33,2.57-138.45,8.42-5.84,46.19-8.46,92.48-8.41,138.64,31.61-18.23,64.02-34.84,97.15-49.78,14.92-33.17,31.51-65.62,49.71-97.28h0Z"/><path class="cls-2" d="M1420.47,402.06c-46.09-.05-92.33,2.57-138.45,8.42-5.84,46.19-8.46,92.48-8.41,138.64,31.61-18.23,64.02-34.84,97.15-49.78,14.92-33.17,31.51-65.62,49.71-97.28h0Z"/><path class="cls-2" d="M1420.47,402.06c-46.09-.05-92.33,2.57-138.45,8.42-5.84,46.19-8.46,92.48-8.41,138.64,31.61-18.23,64.02-34.84,97.15-49.78,14.92-33.17,31.51-65.62,49.71-97.28h0Z"/><path class="cls-2" d="M1279.13,658c18.06-25.11,37.14-49.41,57.2-72.87,10.26-29.13,21.74-57.82,34.42-86.04-33.13,14.94-65.53,31.55-97.15,49.78.04,36.53,1.88,72.94,5.52,109.13h.01Z"/><path class="cls-2" d="M1279.13,658c18.06-25.11,37.14-49.41,57.2-72.87,10.26-29.13,21.74-57.82,34.42-86.04-33.13,14.94-65.53,31.55-97.15,49.78.04,36.53,1.88,72.94,5.52,109.13h.01Z"/><path class="cls-2" d="M1279.13,658c18.06-25.11,37.14-49.41,57.2-72.87,10.26-29.13,21.74-57.82,34.42-86.04-33.13,14.94-65.53,31.55-97.15,49.78.04,36.53,1.88,72.94,5.52,109.13h.01Z"/><path class="cls-2" d="M1279.13,658c18.06-25.11,37.14-49.41,57.2-72.87,10.26-29.13,21.74-57.82,34.42-86.04-33.13,14.94-65.53,31.55-97.15,49.78.04,36.53,1.88,72.94,5.52,109.13h.01Z"/><path class="cls-2" d="M1963.06,842c-18.06,25.11-37.14,49.41-57.2,72.87-10.26,29.13-21.74,57.82-34.42,86.04,33.13-14.94,65.53-31.55,97.15-49.78-.04-36.53-1.88-72.94-5.52-109.13h-.01Z"/><path class="cls-2" d="M1963.06,842c-18.06,25.11-37.14,49.41-57.2,72.87-10.26,29.13-21.74,57.82-34.42,86.04,33.13-14.94,65.53-31.55,97.15-49.78-.04-36.53-1.88-72.94-5.52-109.13h-.01Z"/><path class="cls-2" d="M1963.06,842c-18.06,25.11-37.14,49.41-57.2,72.87-10.26,29.13-21.74,57.82-34.42,86.04,33.13-14.94,65.53-31.55,97.15-49.78-.04-36.53-1.88-72.94-5.52-109.13h-.01Z"/><path class="cls-2" d="M1963.06,842c-18.06,25.11-37.14,49.41-57.2,72.87-10.26,29.13-21.74,57.82-34.42,86.04,33.13-14.94,65.53-31.55,97.15-49.78-.04-36.53-1.88-72.94-5.52-109.13h-.01Z"/><path class="cls-2" d="M1905.86,914.62c20.06-23.46,39.14-47.76,57.2-72.87-3.1-30.79-7.49-61.39-13.15-91.75-10.43,55.93-25.16,110.96-44.05,164.62h0Z"/><path class="cls-2" d="M1905.86,914.62c20.06-23.46,39.14-47.76,57.2-72.87-3.1-30.79-7.49-61.39-13.15-91.75-10.43,55.93-25.16,110.96-44.05,164.62h0Z"/><path class="cls-2" d="M1905.86,914.62c20.06-23.46,39.14-47.76,57.2-72.87-3.1-30.79-7.49-61.39-13.15-91.75-10.43,55.93-25.16,110.96-44.05,164.62h0Z"/><path class="cls-2" d="M1905.86,914.62c20.06-23.46,39.14-47.76,57.2-72.87-3.1-30.79-7.49-61.39-13.15-91.75-10.43,55.93-25.16,110.96-44.05,164.62h0Z"/><path class="cls-2" d="M1905.86,914.62c20.06-23.46,39.14-47.76,57.2-72.87-3.1-30.79-7.49-61.39-13.15-91.75-10.43,55.93-25.16,110.96-44.05,164.62h0Z"/><path class="cls-2" d="M1279.13,658.25c3.1,30.79,7.49,61.39,13.15,91.75,10.43-55.93,25.16-110.96,44.05-164.62-20.06,23.46-39.14,47.76-57.2,72.87h0Z"/><path class="cls-2" d="M1279.13,658.25c3.1,30.79,7.49,61.39,13.15,91.75,10.43-55.93,25.16-110.96,44.05-164.62-20.06,23.46-39.14,47.76-57.2,72.87h0Z"/><path class="cls-2" d="M1279.13,658.25c3.1,30.79,7.49,61.39,13.15,91.75,10.43-55.93,25.16-110.96,44.05-164.62-20.06,23.46-39.14,47.76-57.2,72.87h0Z"/><path class="cls-2" d="M1279.13,658.25c3.1,30.79,7.49,61.39,13.15,91.75,10.43-55.93,25.16-110.96,44.05-164.62-20.06,23.46-39.14,47.76-57.2,72.87h0Z"/><path class="cls-2" d="M1279.13,658.25c3.1,30.79,7.49,61.39,13.15,91.75,10.43-55.93,25.16-110.96,44.05-164.62-20.06,23.46-39.14,47.76-57.2,72.87h0Z"/><path class="cls-2" d="M1497,286.21c42.87,18.02,84.22,38.9,124.1,62.02,39.9-23.12,81.23-44,124.1-62.02-36.99-48.76-78.56-94.57-124.1-137.15-45.55,42.58-87.11,88.4-124.1,137.16h0Z"/><path class="cls-2" d="M1497,286.21c42.87,18.02,84.22,38.9,124.1,62.02,39.9-23.12,81.23-44,124.1-62.02-36.99-48.76-78.56-94.57-124.1-137.15-45.55,42.58-87.11,88.4-124.1,137.16h0Z"/><path class="cls-2" d="M1745,1213.79c-42.87-18.03-84.21-38.91-124.1-62.02-39.9,23.12-81.24,44-124.1,62.02,36.99,48.76,78.56,94.57,124.1,137.15,45.55-42.58,87.11-88.4,124.1-137.16h0Z"/><path class="cls-2" d="M1745,1213.79c-42.87-18.03-84.21-38.91-124.1-62.02-39.9,23.12-81.24,44-124.1,62.02,36.99,48.76,78.56,94.57,124.1,137.15,45.55-42.58,87.11-88.4,124.1-137.16h0Z"/><path class="cls-2" d="M1712.72,1092.41c-29.48,21.26-60.05,41.06-91.63,59.35,39.9,23.12,81.24,44,124.1,62.02,28.12-37.07,53.5-75.85,76.51-115.85-36.48-.04-72.84-1.88-108.99-5.53h.01Z"/><path class="cls-2" d="M1712.72,1092.41c-29.48,21.26-60.05,41.06-91.63,59.35,39.9,23.12,81.24,44,124.1,62.02,28.12-37.07,53.5-75.85,76.51-115.85-36.48-.04-72.84-1.88-108.99-5.53h.01Z"/><path class="cls-2" d="M1712.72,1092.41c-29.48,21.26-60.05,41.06-91.63,59.35,39.9,23.12,81.24,44,124.1,62.02,28.12-37.07,53.5-75.85,76.51-115.85-36.48-.04-72.84-1.88-108.99-5.53h.01Z"/><path class="cls-2" d="M1529.47,407.58c29.48-21.26,60.05-41.06,91.63-59.35-39.9-23.12-81.24-44-124.1-62.02-28.12,37.07-53.5,75.85-76.51,115.85,36.48.04,72.84,1.88,108.99,5.53h-.01Z"/><path class="cls-2" d="M1529.47,407.58c29.48-21.26,60.05-41.06,91.63-59.35-39.9-23.12-81.24-44-124.1-62.02-28.12,37.07-53.5,75.85-76.51,115.85,36.48.04,72.84,1.88,108.99,5.53h-.01Z"/><path class="cls-2" d="M1529.47,407.58c29.48-21.26,60.05-41.06,91.63-59.35-39.9-23.12-81.24-44-124.1-62.02-28.12,37.07-53.5,75.85-76.51,115.85,36.48.04,72.84,1.88,108.99,5.53h-.01Z"/><path class="cls-2" d="M1456.69,464.86c23.43-20.09,47.7-39.19,72.77-57.28-36.15-3.65-72.51-5.49-108.99-5.53-18.21,31.65-34.79,64.11-49.71,97.28,28.18-12.71,56.83-24.2,85.93-34.47h0Z"/><path class="cls-2" d="M1456.69,464.86c23.43-20.09,47.7-39.19,72.77-57.28-36.15-3.65-72.51-5.49-108.99-5.53-18.21,31.65-34.79,64.11-49.71,97.28,28.18-12.71,56.83-24.2,85.93-34.47h0Z"/><path class="cls-2" d="M1456.69,464.86c23.43-20.09,47.7-39.19,72.77-57.28-36.15-3.65-72.51-5.49-108.99-5.53-18.21,31.65-34.79,64.11-49.71,97.28,28.18-12.71,56.83-24.2,85.93-34.47h0Z"/><path class="cls-2" d="M1456.69,464.86c23.43-20.09,47.7-39.19,72.77-57.28-36.15-3.65-72.51-5.49-108.99-5.53-18.21,31.65-34.79,64.11-49.71,97.28,28.18-12.71,56.83-24.2,85.93-34.47h0Z"/><path class="cls-2" d="M1785.51,1035c-23.43,20.09-47.7,39.19-72.77,57.28,36.15,3.65,72.51,5.49,108.99,5.53,18.21-31.65,34.79-64.11,49.71-97.28-28.18,12.71-56.83,24.2-85.93,34.47h-.01.01Z"/><path class="cls-2" d="M1785.51,1035c-23.43,20.09-47.7,39.19-72.77,57.28,36.15,3.65,72.51,5.49,108.99,5.53,18.21-31.65,34.79-64.11,49.71-97.28-28.18,12.71-56.83,24.2-85.93,34.47h-.01.01Z"/><path class="cls-2" d="M1785.51,1035c-23.43,20.09-47.7,39.19-72.77,57.28,36.15,3.65,72.51,5.49,108.99,5.53,18.21-31.65,34.79-64.11,49.71-97.28-28.18,12.71-56.83,24.2-85.93,34.47h-.01.01Z"/><path class="cls-2" d="M1785.51,1035c-23.43,20.09-47.7,39.19-72.77,57.28,36.15,3.65,72.51,5.49,108.99,5.53,18.21-31.65,34.79-64.11,49.71-97.28-28.18,12.71-56.83,24.2-85.93,34.47h-.01.01Z"/><path class="cls-2" d="M1456.69,464.86c-29.09,10.27-57.74,21.77-85.93,34.47-12.69,28.22-24.17,56.91-34.42,86.04,36.96-43.22,77.2-83.51,120.35-120.51h0Z"/><path class="cls-2" d="M1456.69,464.86c-29.09,10.27-57.74,21.77-85.93,34.47-12.69,28.22-24.17,56.91-34.42,86.04,36.96-43.22,77.2-83.51,120.35-120.51h0Z"/><path class="cls-2" d="M1456.69,464.86c-29.09,10.27-57.74,21.77-85.93,34.47-12.69,28.22-24.17,56.91-34.42,86.04,36.96-43.22,77.2-83.51,120.35-120.51h0Z"/><path class="cls-2" d="M1456.69,464.86c-29.09,10.27-57.74,21.77-85.93,34.47-12.69,28.22-24.17,56.91-34.42,86.04,36.96-43.22,77.2-83.51,120.35-120.51h0Z"/><path class="cls-2" d="M1456.69,464.86c-29.09,10.27-57.74,21.77-85.93,34.47-12.69,28.22-24.17,56.91-34.42,86.04,36.96-43.22,77.2-83.51,120.35-120.51h0Z"/><path class="cls-2" d="M1785.51,1035.14c29.09-10.27,57.74-21.77,85.93-34.47,12.69-28.22,24.17-56.91,34.42-86.04-36.96,43.22-77.19,83.5-120.35,120.51h0Z"/><path class="cls-2" d="M1785.51,1035.14c29.09-10.27,57.74-21.77,85.93-34.47,12.69-28.22,24.17-56.91,34.42-86.04-36.96,43.22-77.19,83.5-120.35,120.51h0Z"/><path class="cls-2" d="M1785.51,1035.14c29.09-10.27,57.74-21.77,85.93-34.47,12.69-28.22,24.17-56.91,34.42-86.04-36.96,43.22-77.19,83.5-120.35,120.51h0Z"/><path class="cls-2" d="M1785.51,1035.14c29.09-10.27,57.74-21.77,85.93-34.47,12.69-28.22,24.17-56.91,34.42-86.04-36.96,43.22-77.19,83.5-120.35,120.51h0Z"/><path class="cls-2" d="M1785.51,1035.14c29.09-10.27,57.74-21.77,85.93-34.47,12.69-28.22,24.17-56.91,34.42-86.04-36.96,43.22-77.19,83.5-120.35,120.51h0Z"/><path class="cls-2" d="M1420,1097.94c23.01,40,48.39,78.78,76.51,115.85,42.87-18.03,84.21-38.91,124.1-62.02-31.58-18.3-62.15-38.09-91.63-59.35-36.15,3.65-72.51,5.49-108.98,5.53h0Z"/><path class="cls-2" d="M1420,1097.94c23.01,40,48.39,78.78,76.51,115.85,42.87-18.03,84.21-38.91,124.1-62.02-31.58-18.3-62.15-38.09-91.63-59.35-36.15,3.65-72.51,5.49-108.98,5.53h0Z"/><path class="cls-2" d="M1420,1097.94c23.01,40,48.39,78.78,76.51,115.85,42.87-18.03,84.21-38.91,124.1-62.02-31.58-18.3-62.15-38.09-91.63-59.35-36.15,3.65-72.51,5.49-108.98,5.53h0Z"/><path class="cls-2" d="M1822,402.06c-23.01-40-48.39-78.78-76.51-115.85-42.87,18.03-84.21,38.9-124.1,62.02,31.58,18.3,62.15,38.1,91.63,59.35,36.15-3.65,72.51-5.49,108.98-5.53h0Z"/><path class="cls-2" d="M1822,402.06c-23.01-40-48.39-78.78-76.51-115.85-42.87,18.03-84.21,38.9-124.1,62.02,31.58,18.3,62.15,38.1,91.63,59.35,36.15-3.65,72.51-5.49,108.98-5.53h0Z"/><path class="cls-2" d="M1822,402.06c-23.01-40-48.39-78.78-76.51-115.85-42.87,18.03-84.21,38.9-124.1,62.02,31.58,18.3,62.15,38.1,91.63,59.35,36.15-3.65,72.51-5.49,108.98-5.53h0Z"/><path class="cls-2" d="M1621.1,1079.25c-30.32,5.67-60.88,10.06-91.63,13.17,29.48,21.26,60.05,41.06,91.63,59.35,31.58-18.3,62.15-38.09,91.63-59.35-30.75-3.1-61.31-7.5-91.63-13.17Z"/><path class="cls-2" d="M1621.1,1079.25c-30.32,5.67-60.88,10.06-91.63,13.17,29.48,21.26,60.05,41.06,91.63,59.35,31.58-18.3,62.15-38.09,91.63-59.35-30.75-3.1-61.31-7.5-91.63-13.17Z"/><path class="cls-2" d="M1621.1,1079.25c-30.32,5.67-60.88,10.06-91.63,13.17,29.48,21.26,60.05,41.06,91.63,59.35,31.58-18.3,62.15-38.09,91.63-59.35-30.75-3.1-61.31-7.5-91.63-13.17Z"/><path class="cls-2" d="M1621.1,1079.25c-30.32,5.67-60.88,10.06-91.63,13.17,29.48,21.26,60.05,41.06,91.63,59.35,31.58-18.3,62.15-38.09,91.63-59.35-30.75-3.1-61.31-7.5-91.63-13.17Z"/><path class="cls-2" d="M1621.1,420.75c30.32-5.67,60.88-10.06,91.63-13.17-29.48-21.26-60.05-41.06-91.63-59.35-31.58,18.3-62.15,38.1-91.63,59.35,30.75,3.11,61.31,7.5,91.63,13.17Z"/><path class="cls-2" d="M1621.1,420.75c30.32-5.67,60.88-10.06,91.63-13.17-29.48-21.26-60.05-41.06-91.63-59.35-31.58,18.3-62.15,38.1-91.63,59.35,30.75,3.11,61.31,7.5,91.63,13.17Z"/><path class="cls-2" d="M1621.1,420.75c30.32-5.67,60.88-10.06,91.63-13.17-29.48-21.26-60.05-41.06-91.63-59.35-31.58,18.3-62.15,38.1-91.63,59.35,30.75,3.11,61.31,7.5,91.63,13.17Z"/><path class="cls-2" d="M1621.1,420.75c30.32-5.67,60.88-10.06,91.63-13.17-29.48-21.26-60.05-41.06-91.63-59.35-31.58,18.3-62.15,38.1-91.63,59.35,30.75,3.11,61.31,7.5,91.63,13.17Z"/><path class="cls-2" d="M1529.47,407.58c-25.08,18.08-49.34,37.19-72.77,57.28,53.59-18.93,108.55-33.67,164.4-44.11-30.32-5.67-60.88-10.06-91.63-13.17Z"/><path class="cls-2" d="M1529.47,407.58c-25.08,18.08-49.34,37.19-72.77,57.28,53.59-18.93,108.55-33.67,164.4-44.11-30.32-5.67-60.88-10.06-91.63-13.17Z"/><path class="cls-2" d="M1529.47,407.58c-25.08,18.08-49.34,37.19-72.77,57.28,53.59-18.93,108.55-33.67,164.4-44.11-30.32-5.67-60.88-10.06-91.63-13.17Z"/><path class="cls-2" d="M1529.47,407.58c-25.08,18.08-49.34,37.19-72.77,57.28,53.59-18.93,108.55-33.67,164.4-44.11-30.32-5.67-60.88-10.06-91.63-13.17Z"/><path class="cls-2" d="M1529.47,407.58c-25.08,18.08-49.34,37.19-72.77,57.28,53.59-18.93,108.55-33.67,164.4-44.11-30.32-5.67-60.88-10.06-91.63-13.17Z"/><path class="cls-2" d="M1712.72,1092.41c25.08-18.08,49.34-37.19,72.77-57.28-53.59,18.92-108.55,33.67-164.4,44.11,30.32,5.67,60.88,10.06,91.63,13.17Z"/><path class="cls-2" d="M1712.72,1092.41c25.08-18.08,49.34-37.19,72.77-57.28-53.59,18.92-108.55,33.67-164.4,44.11,30.32,5.67,60.88,10.06,91.63,13.17Z"/><path class="cls-2" d="M1712.72,1092.41c25.08-18.08,49.34-37.19,72.77-57.28-53.59,18.92-108.55,33.67-164.4,44.11,30.32,5.67,60.88,10.06,91.63,13.17Z"/><path class="cls-2" d="M1712.72,1092.41c25.08-18.08,49.34-37.19,72.77-57.28-53.59,18.92-108.55,33.67-164.4,44.11,30.32,5.67,60.88,10.06,91.63,13.17Z"/><path class="cls-2" d="M1712.72,1092.41c25.08-18.08,49.34-37.19,72.77-57.28-53.59,18.92-108.55,33.67-164.4,44.11,30.32,5.67,60.88,10.06,91.63,13.17Z"/><path class="cls-2" d="M1712.72,408c25.08,18.08,49.34,37.19,72.77,57.28,29.09,10.27,57.74,21.77,85.93,34.47-14.92-33.17-31.51-65.62-49.71-97.28-36.48.04-72.84,1.88-108.98,5.53h-.01Z"/><path class="cls-2" d="M1712.72,408c25.08,18.08,49.34,37.19,72.77,57.28,29.09,10.27,57.74,21.77,85.93,34.47-14.92-33.17-31.51-65.62-49.71-97.28-36.48.04-72.84,1.88-108.98,5.53h-.01Z"/><path class="cls-2" d="M1712.72,408c25.08,18.08,49.34,37.19,72.77,57.28,29.09,10.27,57.74,21.77,85.93,34.47-14.92-33.17-31.51-65.62-49.71-97.28-36.48.04-72.84,1.88-108.98,5.53h-.01Z"/><path class="cls-2" d="M1712.72,408c25.08,18.08,49.34,37.19,72.77,57.28,29.09,10.27,57.74,21.77,85.93,34.47-14.92-33.17-31.51-65.62-49.71-97.28-36.48.04-72.84,1.88-108.98,5.53h-.01Z"/><path class="cls-2" d="M1529.47,1092c-25.08-18.08-49.34-37.19-72.77-57.28-29.09-10.27-57.74-21.77-85.93-34.47,14.92,33.17,31.51,65.62,49.71,97.28,36.48-.04,72.84-1.88,108.98-5.53h.01Z"/><path class="cls-2" d="M1529.47,1092c-25.08-18.08-49.34-37.19-72.77-57.28-29.09-10.27-57.74-21.77-85.93-34.47,14.92,33.17,31.51,65.62,49.71,97.28,36.48-.04,72.84-1.88,108.98-5.53h.01Z"/><path class="cls-2" d="M1529.47,1092c-25.08-18.08-49.34-37.19-72.77-57.28-29.09-10.27-57.74-21.77-85.93-34.47,14.92,33.17,31.51,65.62,49.71,97.28,36.48-.04,72.84-1.88,108.98-5.53h.01Z"/><path class="cls-2" d="M1529.47,1092c-25.08-18.08-49.34-37.19-72.77-57.28-29.09-10.27-57.74-21.77-85.93-34.47,14.92,33.17,31.51,65.62,49.71,97.28,36.48-.04,72.84-1.88,108.98-5.53h.01Z"/><path class="cls-2" d="M1529.47,1092.42c30.75-3.1,61.31-7.5,91.63-13.17-55.86-10.44-110.81-25.19-164.4-44.11,23.43,20.09,47.7,39.19,72.77,57.28Z"/><path class="cls-2" d="M1529.47,1092.42c30.75-3.1,61.31-7.5,91.63-13.17-55.86-10.44-110.81-25.19-164.4-44.11,23.43,20.09,47.7,39.19,72.77,57.28Z"/><path class="cls-2" d="M1529.47,1092.42c30.75-3.1,61.31-7.5,91.63-13.17-55.86-10.44-110.81-25.19-164.4-44.11,23.43,20.09,47.7,39.19,72.77,57.28Z"/><path class="cls-2" d="M1529.47,1092.42c30.75-3.1,61.31-7.5,91.63-13.17-55.86-10.44-110.81-25.19-164.4-44.11,23.43,20.09,47.7,39.19,72.77,57.28Z"/><path class="cls-2" d="M1529.47,1092.42c30.75-3.1,61.31-7.5,91.63-13.17-55.86-10.44-110.81-25.19-164.4-44.11,23.43,20.09,47.7,39.19,72.77,57.28Z"/><path class="cls-2" d="M1712.72,407.58c-30.75,3.1-61.31,7.5-91.63,13.17,55.86,10.44,110.81,25.19,164.4,44.11-23.43-20.09-47.7-39.19-72.77-57.28Z"/><path class="cls-2" d="M1712.72,407.58c-30.75,3.1-61.31,7.5-91.63,13.17,55.86,10.44,110.81,25.19,164.4,44.11-23.43-20.09-47.7-39.19-72.77-57.28Z"/><path class="cls-2" d="M1712.72,407.58c-30.75,3.1-61.31,7.5-91.63,13.17,55.86,10.44,110.81,25.19,164.4,44.11-23.43-20.09-47.7-39.19-72.77-57.28Z"/><path class="cls-2" d="M1712.72,407.58c-30.75,3.1-61.31,7.5-91.63,13.17,55.86,10.44,110.81,25.19,164.4,44.11-23.43-20.09-47.7-39.19-72.77-57.28Z"/><path class="cls-2" d="M1712.72,407.58c-30.75,3.1-61.31,7.5-91.63,13.17,55.86,10.44,110.81,25.19,164.4,44.11-23.43-20.09-47.7-39.19-72.77-57.28Z"/><path class="cls-2" d="M1336.34,914.62c10.26,29.13,21.74,57.82,34.42,86.04,28.18,12.71,56.83,24.2,85.93,34.47-43.16-37.01-83.39-77.29-120.35-120.51h0Z"/><path class="cls-2" d="M1336.34,914.62c10.26,29.13,21.74,57.82,34.42,86.04,28.18,12.71,56.83,24.2,85.93,34.47-43.16-37.01-83.39-77.29-120.35-120.51h0Z"/><path class="cls-2" d="M1336.34,914.62c10.26,29.13,21.74,57.82,34.42,86.04,28.18,12.71,56.83,24.2,85.93,34.47-43.16-37.01-83.39-77.29-120.35-120.51h0Z"/><path class="cls-2" d="M1336.34,914.62c10.26,29.13,21.74,57.82,34.42,86.04,28.18,12.71,56.83,24.2,85.93,34.47-43.16-37.01-83.39-77.29-120.35-120.51h0Z"/><path class="cls-2" d="M1336.34,914.62c10.26,29.13,21.74,57.82,34.42,86.04,28.18,12.71,56.83,24.2,85.93,34.47-43.16-37.01-83.39-77.29-120.35-120.51h0Z"/><path class="cls-2" d="M1905.86,585.37c-10.26-29.13-21.74-57.82-34.42-86.04-28.18-12.71-56.83-24.2-85.93-34.47,43.16,37.01,83.39,77.29,120.35,120.51h0Z"/><path class="cls-2" d="M1905.86,585.37c-10.26-29.13-21.74-57.82-34.42-86.04-28.18-12.71-56.83-24.2-85.93-34.47,43.16,37.01,83.39,77.29,120.35,120.51h0Z"/><path class="cls-2" d="M1905.86,585.37c-10.26-29.13-21.74-57.82-34.42-86.04-28.18-12.71-56.83-24.2-85.93-34.47,43.16,37.01,83.39,77.29,120.35,120.51h0Z"/><path class="cls-2" d="M1905.86,585.37c-10.26-29.13-21.74-57.82-34.42-86.04-28.18-12.71-56.83-24.2-85.93-34.47,43.16,37.01,83.39,77.29,120.35,120.51h0Z"/><path class="cls-2" d="M1905.86,585.37c-10.26-29.13-21.74-57.82-34.42-86.04-28.18-12.71-56.83-24.2-85.93-34.47,43.16,37.01,83.39,77.29,120.35,120.51h0Z"/><path class="cls-2" d="M1906,585.37c-36.96-43.22-77.2-83.5-120.35-120.51-53.59-18.92-108.55-33.67-164.4-44.11-55.86,10.44-110.81,25.19-164.4,44.11-43.16,37.01-83.39,77.29-120.35,120.51-18.89,53.66-33.63,108.69-44.05,164.62,10.43,55.93,25.16,110.96,44.05,164.62,36.96,43.22,77.2,83.5,120.35,120.51,53.59,18.92,108.55,33.67,164.4,44.11,55.86-10.44,110.81-25.19,164.4-44.11,43.16-37.01,83.39-77.3,120.35-120.51,18.89-53.66,33.63-108.69,44.05-164.62-10.43-55.93-25.16-110.96-44.05-164.63h0Z"/><path class="cls-2" d="M1906,585.37c-36.96-43.22-77.2-83.5-120.35-120.51-53.59-18.92-108.55-33.67-164.4-44.11-55.86,10.44-110.81,25.19-164.4,44.11-43.16,37.01-83.39,77.29-120.35,120.51-18.89,53.66-33.63,108.69-44.05,164.62,10.43,55.93,25.16,110.96,44.05,164.62,36.96,43.22,77.2,83.5,120.35,120.51,53.59,18.92,108.55,33.67,164.4,44.11,55.86-10.44,110.81-25.19,164.4-44.11,43.16-37.01,83.39-77.3,120.35-120.51,18.89-53.66,33.63-108.69,44.05-164.62-10.43-55.93-25.16-110.96-44.05-164.63h0Z"/><path class="cls-2" d="M1906,585.37c-36.96-43.22-77.2-83.5-120.35-120.51-53.59-18.92-108.55-33.67-164.4-44.11-55.86,10.44-110.81,25.19-164.4,44.11-43.16,37.01-83.39,77.29-120.35,120.51-18.89,53.66-33.63,108.69-44.05,164.62,10.43,55.93,25.16,110.96,44.05,164.62,36.96,43.22,77.2,83.5,120.35,120.51,53.59,18.92,108.55,33.67,164.4,44.11,55.86-10.44,110.81-25.19,164.4-44.11,43.16-37.01,83.39-77.3,120.35-120.51,18.89-53.66,33.63-108.69,44.05-164.62-10.43-55.93-25.16-110.96-44.05-164.63h0Z"/><path class="cls-2" d="M1906,585.37c-36.96-43.22-77.2-83.5-120.35-120.51-53.59-18.92-108.55-33.67-164.4-44.11-55.86,10.44-110.81,25.19-164.4,44.11-43.16,37.01-83.39,77.29-120.35,120.51-18.89,53.66-33.63,108.69-44.05,164.62,10.43,55.93,25.16,110.96,44.05,164.62,36.96,43.22,77.2,83.5,120.35,120.51,53.59,18.92,108.55,33.67,164.4,44.11,55.86-10.44,110.81-25.19,164.4-44.11,43.16-37.01,83.39-77.3,120.35-120.51,18.89-53.66,33.63-108.69,44.05-164.62-10.43-55.93-25.16-110.96-44.05-164.63h0Z"/><path class="cls-2" d="M1906,585.37c-36.96-43.22-77.2-83.5-120.35-120.51-53.59-18.92-108.55-33.67-164.4-44.11-55.86,10.44-110.81,25.19-164.4,44.11-43.16,37.01-83.39,77.29-120.35,120.51-18.89,53.66-33.63,108.69-44.05,164.62,10.43,55.93,25.16,110.96,44.05,164.62,36.96,43.22,77.2,83.5,120.35,120.51,53.59,18.92,108.55,33.67,164.4,44.11,55.86-10.44,110.81-25.19,164.4-44.11,43.16-37.01,83.39-77.3,120.35-120.51,18.89-53.66,33.63-108.69,44.05-164.62-10.43-55.93-25.16-110.96-44.05-164.63h0Z"/><path class="cls-2" d="M1906,585.37c-36.96-43.22-77.2-83.5-120.35-120.51-53.59-18.92-108.55-33.67-164.4-44.11-55.86,10.44-110.81,25.19-164.4,44.11-43.16,37.01-83.39,77.29-120.35,120.51-18.89,53.66-33.63,108.69-44.05,164.62,10.43,55.93,25.16,110.96,44.05,164.62,36.96,43.22,77.2,83.5,120.35,120.51,53.59,18.92,108.55,33.67,164.4,44.11,55.86-10.44,110.81-25.19,164.4-44.11,43.16-37.01,83.39-77.3,120.35-120.51,18.89-53.66,33.63-108.69,44.05-164.62-10.43-55.93-25.16-110.96-44.05-164.63h0Z"/><ellipse class="cls-1" cx="1621.1" cy="750" rx="339.07" ry="339.52"/><g class="cls-5"><g class="cls-5"><path class="cls-1" d="M382.8,1151.77v-623.7l133.11,1.11-290.41,354.19-36.3-41.8h524.7v174.91H102.3L14.3,851.47l400.41-478.5h178.2v778.8h-210.11Z"/></g></g><g class="cls-5"><g class="cls-5"><path class="cls-1" d="M2862.7,1143.84v-623.7l133.11,1.11-290.41,354.19-36.3-41.8h524.7v174.91h-611.61l-88-165,400.41-478.5h178.2v778.8h-210.11Z"/></g></g></svg>