<?xml version="1.0" encoding="utf-8"?>
<!-- Generator: Adobe Illustrator 27.4.1, SVG Export Plug-In . SVG Version: 6.00 Build 0)  -->
<svg version="1.1" id="Calque_1" xmlns="http://www.w3.org/2000/svg" xmlns:xlink="http://www.w3.org/1999/xlink" x="0px" y="0px"
	 viewBox="0 0 2000 433.7" style="enable-background:new 0 0 2000 433.7;" xml:space="preserve">
<style type="text/css">
	.st0{opacity:0.3;fill:#FFFFFF;enable-background:new    ;}
	.st1{fill:#FFFFFF;}
	.st2{enable-background:new    ;}
</style>
<g>
	<g>
		<g>
			<path class="st0" d="M135.5,90.8c-17.7-4.1-36.2-6.3-55.2-6.3l0,0c0,19,2.2,37.4,6.3,55.2c13.2-4,26.7-7,40.1-8.7
				C128.5,117.5,131.4,104,135.5,90.8z"/>
			<path class="st0" d="M268.8,321.8c17.7,4.1,36.2,6.4,55.1,6.4l0,0c0-19-2.2-37.4-6.4-55.1c-13.2,4-26.7,7-40.1,8.7
				C275.8,295.1,272.9,308.5,268.8,321.8L268.8,321.8z"/>
			<path class="st0" d="M335.5,206.3c-9.5,10.1-19.6,19.4-30.4,27.6c5.3,12.5,9.5,25.6,12.6,39.1c17.4-5.3,34.5-12.6,50.9-22.1l0,0
				C359.1,234.4,347.9,219.6,335.5,206.3L335.5,206.3z"/>
			<path class="st0" d="M99.2,178.7c-5.3-12.5-9.4-25.6-12.6-39.1c-17.4,5.3-34.5,12.6-50.9,22.1l0,0l0,0
				c9.5,16.4,20.6,31.3,33.1,44.6C78.2,196.2,88.4,186.9,99.2,178.7L99.2,178.7z"/>
			<path class="st0" d="M124.9,161.7c0-10.2,0.6-20.5,1.9-30.8c-13.5,1.7-26.9,4.6-40.1,8.7c3.1,13.5,7.3,26.6,12.6,39.1
				C107.5,172.5,116.1,166.8,124.9,161.7L124.9,161.7z"/>
			<path class="st0" d="M124.9,161.7c0-10.2,0.6-20.5,1.9-30.8c-13.5,1.7-26.9,4.6-40.1,8.7c3.1,13.5,7.3,26.6,12.6,39.1
				C107.5,172.5,116.1,166.8,124.9,161.7L124.9,161.7z"/>
			<path class="st0" d="M279.4,250.9c0,10.2-0.6,20.5-1.9,30.8c13.5-1.7,26.9-4.6,40.1-8.7c-3.1-13.5-7.3-26.6-12.6-39.1
				C296.8,240.1,288.2,245.7,279.4,250.9L279.4,250.9z"/>
			<path class="st0" d="M279.4,250.9c0,10.2-0.6,20.5-1.9,30.8c13.5-1.7,26.9-4.6,40.1-8.7c-3.1-13.5-7.3-26.6-12.6-39.1
				C296.8,240.1,288.2,245.7,279.4,250.9L279.4,250.9z"/>
			<path class="st0" d="M335.5,206.3c12.4-13.3,23.6-28.1,33.1-44.6l0,0l0,0c-16.4-9.5-33.5-16.8-50.9-22.1
				c-3.1,13.5-7.3,26.6-12.6,39.1C315.9,186.9,326,196.2,335.5,206.3L335.5,206.3z"/>
			<path class="st0" d="M68.8,206.3c-12.4,13.3-23.6,28.1-33.1,44.6l0,0l0,0c16.4,9.5,33.5,16.8,50.9,22.1
				c3.1-13.5,7.3-26.6,12.6-39.1C88.4,225.6,78.3,216.4,68.8,206.3L68.8,206.3z"/>
			<path class="st0" d="M99.2,233.9c4-9.5,8.6-18.7,13.8-27.6c-5.1-8.9-9.8-18.1-13.8-27.6c-10.8,8.2-21,17.4-30.4,27.6
				C78.3,216.4,88.4,225.7,99.2,233.9L99.2,233.9z"/>
			<path class="st0" d="M99.2,233.9c4-9.5,8.6-18.7,13.8-27.6c-5.1-8.9-9.8-18.1-13.8-27.6c-10.8,8.2-21,17.4-30.4,27.6
				C78.3,216.4,88.4,225.7,99.2,233.9L99.2,233.9z"/>
			<path class="st0" d="M305.1,178.7c-4,9.5-8.6,18.7-13.8,27.6c5.1,8.9,9.8,18.1,13.8,27.6c10.8-8.2,21-17.4,30.4-27.6
				C326,196.2,315.9,186.9,305.1,178.7L305.1,178.7z"/>
			<path class="st0" d="M305.1,178.7c-4,9.5-8.6,18.7-13.8,27.6c5.1,8.9,9.8,18.1,13.8,27.6c10.8-8.2,21-17.4,30.4-27.6
				C326,196.2,315.9,186.9,305.1,178.7L305.1,178.7z"/>
			<path class="st0" d="M124.9,161.7c-8.9,5.1-17.5,10.8-25.7,17c4,9.5,8.6,18.7,13.8,27.6c4.1-7,8.4-13.8,13.2-20.4
				C125.4,177.9,124.9,169.8,124.9,161.7L124.9,161.7z"/>
			<path class="st0" d="M124.9,161.7c-8.9,5.1-17.5,10.8-25.7,17c4,9.5,8.6,18.7,13.8,27.6c4.1-7,8.4-13.8,13.2-20.4
				C125.4,177.9,124.9,169.8,124.9,161.7L124.9,161.7z"/>
			<path class="st0" d="M124.9,161.7c-8.9,5.1-17.5,10.8-25.7,17c4,9.5,8.6,18.7,13.8,27.6c4.1-7,8.4-13.8,13.2-20.4
				C125.4,177.9,124.9,169.8,124.9,161.7L124.9,161.7z"/>
			<path class="st0" d="M278.1,226.6c0.8,8,1.2,16.1,1.2,24.2c8.9-5.1,17.5-10.8,25.7-17c-4-9.5-8.6-18.7-13.8-27.6
				C287.2,213.3,282.9,220.1,278.1,226.6L278.1,226.6z"/>
			<path class="st0" d="M278.1,226.6c0.8,8,1.2,16.1,1.2,24.2c8.9-5.1,17.5-10.8,25.7-17c-4-9.5-8.6-18.7-13.8-27.6
				C287.2,213.3,282.9,220.1,278.1,226.6L278.1,226.6z"/>
			<path class="st0" d="M278.1,226.6c0.8,8,1.2,16.1,1.2,24.2c8.9-5.1,17.5-10.8,25.7-17c-4-9.5-8.6-18.7-13.8-27.6
				C287.2,213.3,282.9,220.1,278.1,226.6L278.1,226.6z"/>
			<path class="st0" d="M86.7,273c-4.1,17.7-6.3,36.2-6.3,55.1l0,0c19,0,37.4-2.2,55.2-6.4c-4-13.2-7-26.7-8.7-40.1
				C113.3,279.9,99.9,277,86.7,273L86.7,273z"/>
			<path class="st0" d="M317.6,139.6c4.1-17.7,6.4-36.2,6.4-55.2l0,0l0,0c-19,0-37.4,2.2-55.1,6.3c4,13.2,7,26.7,8.7,40.1
				C291,132.7,304.4,135.6,317.6,139.6z"/>
			<path class="st0" d="M279.4,161.7c8.9,5.1,17.5,10.8,25.7,17c5.3-12.5,9.5-25.6,12.6-39.1c-13.2-4-26.7-7-40.1-8.7
				C278.8,141.2,279.4,151.5,279.4,161.7L279.4,161.7z"/>
			<path class="st0" d="M279.4,161.7c8.9,5.1,17.5,10.8,25.7,17c5.3-12.5,9.5-25.6,12.6-39.1c-13.2-4-26.7-7-40.1-8.7
				C278.8,141.2,279.4,151.5,279.4,161.7L279.4,161.7z"/>
			<path class="st0" d="M124.9,250.9c-8.9-5.1-17.5-10.8-25.7-17c-5.3,12.5-9.4,25.6-12.6,39.1c13.2,4,26.7,7,40.1,8.7
				C125.5,271.4,124.9,261.1,124.9,250.9L124.9,250.9z"/>
			<path class="st0" d="M124.9,250.9c-8.9-5.1-17.5-10.8-25.7-17c-5.3,12.5-9.4,25.6-12.6,39.1c13.2,4,26.7,7,40.1,8.7
				C125.5,271.4,124.9,261.1,124.9,250.9L124.9,250.9z"/>
			<path class="st0" d="M278.1,185.9c4.7,6.6,9.1,13.3,13.2,20.4c5.1-8.9,9.8-18.1,13.8-27.6c-8.2-6.2-16.8-11.9-25.7-17
				C279.4,169.8,278.9,177.9,278.1,185.9L278.1,185.9z"/>
			<path class="st0" d="M278.1,185.9c4.7,6.6,9.1,13.3,13.2,20.4c5.1-8.9,9.8-18.1,13.8-27.6c-8.2-6.2-16.8-11.9-25.7-17
				C279.4,169.8,278.9,177.9,278.1,185.9L278.1,185.9z"/>
			<path class="st0" d="M278.1,185.9c4.7,6.6,9.1,13.3,13.2,20.4c5.1-8.9,9.8-18.1,13.8-27.6c-8.2-6.2-16.8-11.9-25.7-17
				C279.4,169.8,278.9,177.9,278.1,185.9L278.1,185.9z"/>
			<path class="st0" d="M126.2,226.6c-4.7-6.6-9.1-13.3-13.2-20.4c-5.1,8.9-9.8,18.1-13.8,27.6c8.2,6.2,16.8,11.9,25.7,17
				C124.9,242.7,125.4,234.7,126.2,226.6L126.2,226.6z"/>
			<path class="st0" d="M126.2,226.6c-4.7-6.6-9.1-13.3-13.2-20.4c-5.1,8.9-9.8,18.1-13.8,27.6c8.2,6.2,16.8,11.9,25.7,17
				C124.9,242.7,125.4,234.7,126.2,226.6L126.2,226.6z"/>
			<path class="st0" d="M126.2,226.6c-4.7-6.6-9.1-13.3-13.2-20.4c-5.1,8.9-9.8,18.1-13.8,27.6c8.2,6.2,16.8,11.9,25.7,17
				C124.9,242.7,125.4,234.7,126.2,226.6L126.2,226.6z"/>
			<path class="st0" d="M129.1,206.3c-1.3-6.7-2.2-13.5-2.9-20.4c-4.7,6.6-9.1,13.3-13.2,20.4c4.1,7,8.4,13.8,13.2,20.4
				C126.9,219.8,127.8,213,129.1,206.3z"/>
			<path class="st0" d="M129.1,206.3c-1.3-6.7-2.2-13.5-2.9-20.4c-4.7,6.6-9.1,13.3-13.2,20.4c4.1,7,8.4,13.8,13.2,20.4
				C126.9,219.8,127.8,213,129.1,206.3z"/>
			<path class="st0" d="M129.1,206.3c-1.3-6.7-2.2-13.5-2.9-20.4c-4.7,6.6-9.1,13.3-13.2,20.4c4.1,7,8.4,13.8,13.2,20.4
				C126.9,219.8,127.8,213,129.1,206.3z"/>
			<path class="st0" d="M129.1,206.3c-1.3-6.7-2.2-13.5-2.9-20.4c-4.7,6.6-9.1,13.3-13.2,20.4c4.1,7,8.4,13.8,13.2,20.4
				C126.9,219.8,127.8,213,129.1,206.3z"/>
			<path class="st0" d="M275.2,206.3c1.3,6.7,2.2,13.5,2.9,20.4c4.7-6.6,9.1-13.3,13.2-20.4c-4.1-7-8.5-13.8-13.2-20.4
				C277.4,192.8,276.5,199.5,275.2,206.3z"/>
			<path class="st0" d="M275.2,206.3c1.3,6.7,2.2,13.5,2.9,20.4c4.7-6.6,9.1-13.3,13.2-20.4c-4.1-7-8.5-13.8-13.2-20.4
				C277.4,192.8,276.5,199.5,275.2,206.3z"/>
			<path class="st0" d="M275.2,206.3c1.3,6.7,2.2,13.5,2.9,20.4c4.7-6.6,9.1-13.3,13.2-20.4c-4.1-7-8.5-13.8-13.2-20.4
				C277.4,192.8,276.5,199.5,275.2,206.3z"/>
			<path class="st0" d="M275.2,206.3c1.3,6.7,2.2,13.5,2.9,20.4c4.7-6.6,9.1-13.3,13.2-20.4c-4.1-7-8.5-13.8-13.2-20.4
				C277.4,192.8,276.5,199.5,275.2,206.3z"/>
			<path class="st0" d="M174.6,309.2c-12.5,5.3-25.6,9.4-39.1,12.6c5.3,17.4,12.6,34.5,22.1,50.9l0,0l0,0
				c16.4-9.5,31.3-20.6,44.6-33.1C192,330.2,182.8,320,174.6,309.2L174.6,309.2z"/>
			<path class="st0" d="M229.7,103.4c12.5-5.3,25.6-9.4,39.1-12.6c-5.3-17.4-12.6-34.5-22.1-50.9l0,0l0,0
				c-16.4,9.5-31.3,20.6-44.6,33.1C212.3,82.4,221.5,92.5,229.7,103.4L229.7,103.4z"/>
			<path class="st0" d="M157.6,283.5c-10.2,0-20.5-0.6-30.8-1.9c1.7,13.5,4.6,26.9,8.7,40.1c13.5-3.1,26.6-7.3,39.1-12.6
				C168.3,300.9,162.7,292.4,157.6,283.5L157.6,283.5z"/>
			<path class="st0" d="M157.6,283.5c-10.2,0-20.5-0.6-30.8-1.9c1.7,13.5,4.6,26.9,8.7,40.1c13.5-3.1,26.6-7.3,39.1-12.6
				C168.3,300.9,162.7,292.4,157.6,283.5L157.6,283.5z"/>
			<path class="st0" d="M246.7,129.1c10.2,0,20.5,0.6,30.8,1.9c-1.7-13.5-4.6-26.9-8.7-40.1c-13.5,3.1-26.6,7.3-39.1,12.6
				C236,111.6,241.6,120.2,246.7,129.1L246.7,129.1z"/>
			<path class="st0" d="M246.7,129.1c10.2,0,20.5,0.6,30.8,1.9c-1.7-13.5-4.6-26.9-8.7-40.1c-13.5,3.1-26.6,7.3-39.1,12.6
				C236,111.6,241.6,120.2,246.7,129.1L246.7,129.1z"/>
			<path class="st0" d="M279.4,161.7c0-10.2-0.6-20.5-1.9-30.8c-10.2-1.3-20.5-1.9-30.8-1.9c4.1,7,7.7,14.2,11.1,21.6
				C265.1,154,272.3,157.7,279.4,161.7L279.4,161.7z"/>
			<path class="st0" d="M279.4,161.7c0-10.2-0.6-20.5-1.9-30.8c-10.2-1.3-20.5-1.9-30.8-1.9c4.1,7,7.7,14.2,11.1,21.6
				C265.1,154,272.3,157.7,279.4,161.7L279.4,161.7z"/>
			<path class="st0" d="M279.4,161.7c0-10.2-0.6-20.5-1.9-30.8c-10.2-1.3-20.5-1.9-30.8-1.9c4.1,7,7.7,14.2,11.1,21.6
				C265.1,154,272.3,157.7,279.4,161.7L279.4,161.7z"/>
			<path class="st0" d="M124.9,250.9c0,10.2,0.6,20.5,1.9,30.8c10.3,1.3,20.5,1.9,30.8,1.9c-4.1-7-7.7-14.2-11.1-21.6
				C139.2,258.6,132,254.9,124.9,250.9L124.9,250.9z"/>
			<path class="st0" d="M124.9,250.9c0,10.2,0.6,20.5,1.9,30.8c10.3,1.3,20.5,1.9,30.8,1.9c-4.1-7-7.7-14.2-11.1-21.6
				C139.2,258.6,132,254.9,124.9,250.9L124.9,250.9z"/>
			<path class="st0" d="M124.9,250.9c0,10.2,0.6,20.5,1.9,30.8c10.3,1.3,20.5,1.9,30.8,1.9c-4.1-7-7.7-14.2-11.1-21.6
				C139.2,258.6,132,254.9,124.9,250.9L124.9,250.9z"/>
			<path class="st0" d="M138.9,242.8c-4.5-5.2-8.7-10.6-12.7-16.2c-0.8,8-1.2,16.1-1.2,24.2c7,4.1,14.2,7.7,21.6,11.1
				C143.7,255.7,141.2,249.3,138.9,242.8L138.9,242.8z"/>
			<path class="st0" d="M138.9,242.8c-4.5-5.2-8.7-10.6-12.7-16.2c-0.8,8-1.2,16.1-1.2,24.2c7,4.1,14.2,7.7,21.6,11.1
				C143.7,255.7,141.2,249.3,138.9,242.8L138.9,242.8z"/>
			<path class="st0" d="M138.9,242.8c-4.5-5.2-8.7-10.6-12.7-16.2c-0.8,8-1.2,16.1-1.2,24.2c7,4.1,14.2,7.7,21.6,11.1
				C143.7,255.7,141.2,249.3,138.9,242.8L138.9,242.8z"/>
			<path class="st0" d="M138.9,242.8c-4.5-5.2-8.7-10.6-12.7-16.2c-0.8,8-1.2,16.1-1.2,24.2c7,4.1,14.2,7.7,21.6,11.1
				C143.7,255.7,141.2,249.3,138.9,242.8L138.9,242.8z"/>
			<path class="st0" d="M265.4,169.8c4.5,5.2,8.7,10.6,12.7,16.2c0.8-8,1.2-16.1,1.2-24.2c-7-4.1-14.2-7.7-21.6-11.1
				C260.6,156.9,263.2,163.3,265.4,169.8L265.4,169.8z"/>
			<path class="st0" d="M265.4,169.8c4.5,5.2,8.7,10.6,12.7,16.2c0.8-8,1.2-16.1,1.2-24.2c-7-4.1-14.2-7.7-21.6-11.1
				C260.6,156.9,263.2,163.3,265.4,169.8L265.4,169.8z"/>
			<path class="st0" d="M265.4,169.8c4.5,5.2,8.7,10.6,12.7,16.2c0.8-8,1.2-16.1,1.2-24.2c-7-4.1-14.2-7.7-21.6-11.1
				C260.6,156.9,263.2,163.3,265.4,169.8L265.4,169.8z"/>
			<path class="st0" d="M265.4,169.8c4.5,5.2,8.7,10.6,12.7,16.2c0.8-8,1.2-16.1,1.2-24.2c-7-4.1-14.2-7.7-21.6-11.1
				C260.6,156.9,263.2,163.3,265.4,169.8L265.4,169.8z"/>
			<path class="st0" d="M126.2,226.6c4,5.6,8.2,11,12.7,16.2c-4.2-11.9-7.5-24.1-9.8-36.5C127.8,213,126.9,219.8,126.2,226.6
				L126.2,226.6z"/>
			<path class="st0" d="M126.2,226.6c4,5.6,8.2,11,12.7,16.2c-4.2-11.9-7.5-24.1-9.8-36.5C127.8,213,126.9,219.8,126.2,226.6
				L126.2,226.6z"/>
			<path class="st0" d="M126.2,226.6c4,5.6,8.2,11,12.7,16.2c-4.2-11.9-7.5-24.1-9.8-36.5C127.8,213,126.9,219.8,126.2,226.6
				L126.2,226.6z"/>
			<path class="st0" d="M126.2,226.6c4,5.6,8.2,11,12.7,16.2c-4.2-11.9-7.5-24.1-9.8-36.5C127.8,213,126.9,219.8,126.2,226.6
				L126.2,226.6z"/>
			<path class="st0" d="M126.2,226.6c4,5.6,8.2,11,12.7,16.2c-4.2-11.9-7.5-24.1-9.8-36.5C127.8,213,126.9,219.8,126.2,226.6
				L126.2,226.6z"/>
			<path class="st0" d="M278.1,185.9c-4-5.6-8.2-11-12.7-16.2c4.2,11.9,7.5,24.1,9.8,36.5C276.5,199.5,277.4,192.8,278.1,185.9
				L278.1,185.9z"/>
			<path class="st0" d="M278.1,185.9c-4-5.6-8.2-11-12.7-16.2c4.2,11.9,7.5,24.1,9.8,36.5C276.5,199.5,277.4,192.8,278.1,185.9
				L278.1,185.9z"/>
			<path class="st0" d="M278.1,185.9c-4-5.6-8.2-11-12.7-16.2c4.2,11.9,7.5,24.1,9.8,36.5C276.5,199.5,277.4,192.8,278.1,185.9
				L278.1,185.9z"/>
			<path class="st0" d="M278.1,185.9c-4-5.6-8.2-11-12.7-16.2c4.2,11.9,7.5,24.1,9.8,36.5C276.5,199.5,277.4,192.8,278.1,185.9
				L278.1,185.9z"/>
			<path class="st0" d="M278.1,185.9c-4-5.6-8.2-11-12.7-16.2c4.2,11.9,7.5,24.1,9.8,36.5C276.5,199.5,277.4,192.8,278.1,185.9
				L278.1,185.9z"/>
			<path class="st0" d="M202.1,72.9c-13.3-12.4-28.1-23.6-44.6-33.1l0,0c-9.5,16.4-16.8,33.5-22.1,50.9c13.5,3.1,26.6,7.3,39.1,12.6
				C182.8,92.6,192,82.4,202.1,72.9L202.1,72.9z"/>
			<path class="st0" d="M202.1,339.6c13.3,12.4,28.1,23.6,44.6,33.1l0,0c9.5-16.4,16.8-33.5,22.1-50.9c-13.5-3.1-26.6-7.3-39.1-12.6
				C221.5,320,212.3,330.2,202.1,339.6L202.1,339.6z"/>
			<path class="st0" d="M246.7,283.5c-5.1,8.9-10.8,17.5-17,25.7c12.5,5.3,25.6,9.4,39.1,12.6c4-13.2,7-26.7,8.7-40.1
				C267.2,282.9,257,283.5,246.7,283.5L246.7,283.5z"/>
			<path class="st0" d="M246.7,283.5c-5.1,8.9-10.8,17.5-17,25.7c12.5,5.3,25.6,9.4,39.1,12.6c4-13.2,7-26.7,8.7-40.1
				C267.2,282.9,257,283.5,246.7,283.5L246.7,283.5z"/>
			<path class="st0" d="M157.6,129.1c5.1-8.9,10.8-17.5,17-25.7c-12.5-5.3-25.6-9.4-39.1-12.6c-4,13.2-7,26.7-8.7,40.1
				C137.1,129.6,147.3,129.1,157.6,129.1L157.6,129.1z"/>
			<path class="st0" d="M157.6,129.1c5.1-8.9,10.8-17.5,17-25.7c-12.5-5.3-25.6-9.4-39.1-12.6c-4,13.2-7,26.7-8.7,40.1
				C137.1,129.6,147.3,129.1,157.6,129.1L157.6,129.1z"/>
			<path class="st0" d="M246.7,283.5c10.2,0,20.5-0.6,30.8-1.9c1.3-10.2,1.9-20.5,1.9-30.8c-7,4.1-14.2,7.7-21.6,11.1
				C254.5,269.3,250.8,276.5,246.7,283.5L246.7,283.5z"/>
			<path class="st0" d="M246.7,283.5c10.2,0,20.5-0.6,30.8-1.9c1.3-10.2,1.9-20.5,1.9-30.8c-7,4.1-14.2,7.7-21.6,11.1
				C254.5,269.3,250.8,276.5,246.7,283.5L246.7,283.5z"/>
			<path class="st0" d="M246.7,283.5c10.2,0,20.5-0.6,30.8-1.9c1.3-10.2,1.9-20.5,1.9-30.8c-7,4.1-14.2,7.7-21.6,11.1
				C254.5,269.3,250.8,276.5,246.7,283.5L246.7,283.5z"/>
			<path class="st0" d="M157.6,129.1c-10.2,0-20.5,0.6-30.8,1.9c-1.3,10.2-1.9,20.5-1.9,30.8c7-4.1,14.2-7.7,21.6-11.1
				C149.8,143.3,153.5,136.1,157.6,129.1L157.6,129.1z"/>
			<path class="st0" d="M157.6,129.1c-10.2,0-20.5,0.6-30.8,1.9c-1.3,10.2-1.9,20.5-1.9,30.8c7-4.1,14.2-7.7,21.6-11.1
				C149.8,143.3,153.5,136.1,157.6,129.1L157.6,129.1z"/>
			<path class="st0" d="M157.6,129.1c-10.2,0-20.5,0.6-30.8,1.9c-1.3,10.2-1.9,20.5-1.9,30.8c7-4.1,14.2-7.7,21.6-11.1
				C149.8,143.3,153.5,136.1,157.6,129.1L157.6,129.1z"/>
			<path class="st0" d="M126.2,185.9c4-5.6,8.2-11,12.7-16.2c2.3-6.5,4.8-12.8,7.6-19.1c-7.4,3.3-14.6,7-21.6,11.1
				C124.9,169.8,125.4,177.9,126.2,185.9L126.2,185.9z"/>
			<path class="st0" d="M126.2,185.9c4-5.6,8.2-11,12.7-16.2c2.3-6.5,4.8-12.8,7.6-19.1c-7.4,3.3-14.6,7-21.6,11.1
				C124.9,169.8,125.4,177.9,126.2,185.9L126.2,185.9z"/>
			<path class="st0" d="M126.2,185.9c4-5.6,8.2-11,12.7-16.2c2.3-6.5,4.8-12.8,7.6-19.1c-7.4,3.3-14.6,7-21.6,11.1
				C124.9,169.8,125.4,177.9,126.2,185.9L126.2,185.9z"/>
			<path class="st0" d="M126.2,185.9c4-5.6,8.2-11,12.7-16.2c2.3-6.5,4.8-12.8,7.6-19.1c-7.4,3.3-14.6,7-21.6,11.1
				C124.9,169.8,125.4,177.9,126.2,185.9L126.2,185.9z"/>
			<path class="st0" d="M278.1,226.6c-4,5.6-8.2,11-12.7,16.2c-2.3,6.5-4.8,12.8-7.6,19.1c7.4-3.3,14.6-7,21.6-11.1
				C279.4,242.7,278.9,234.7,278.1,226.6L278.1,226.6z"/>
			<path class="st0" d="M278.1,226.6c-4,5.6-8.2,11-12.7,16.2c-2.3,6.5-4.8,12.8-7.6,19.1c7.4-3.3,14.6-7,21.6-11.1
				C279.4,242.7,278.9,234.7,278.1,226.6L278.1,226.6z"/>
			<path class="st0" d="M278.1,226.6c-4,5.6-8.2,11-12.7,16.2c-2.3,6.5-4.8,12.8-7.6,19.1c7.4-3.3,14.6-7,21.6-11.1
				C279.4,242.7,278.9,234.7,278.1,226.6L278.1,226.6z"/>
			<path class="st0" d="M278.1,226.6c-4,5.6-8.2,11-12.7,16.2c-2.3,6.5-4.8,12.8-7.6,19.1c7.4-3.3,14.6-7,21.6-11.1
				C279.4,242.7,278.9,234.7,278.1,226.6L278.1,226.6z"/>
			<path class="st0" d="M265.4,242.8c4.5-5.2,8.7-10.6,12.7-16.2c-0.7-6.8-1.7-13.6-2.9-20.4C272.9,218.7,269.6,230.9,265.4,242.8
				L265.4,242.8z"/>
			<path class="st0" d="M265.4,242.8c4.5-5.2,8.7-10.6,12.7-16.2c-0.7-6.8-1.7-13.6-2.9-20.4C272.9,218.7,269.6,230.9,265.4,242.8
				L265.4,242.8z"/>
			<path class="st0" d="M265.4,242.8c4.5-5.2,8.7-10.6,12.7-16.2c-0.7-6.8-1.7-13.6-2.9-20.4C272.9,218.7,269.6,230.9,265.4,242.8
				L265.4,242.8z"/>
			<path class="st0" d="M265.4,242.8c4.5-5.2,8.7-10.6,12.7-16.2c-0.7-6.8-1.7-13.6-2.9-20.4C272.9,218.7,269.6,230.9,265.4,242.8
				L265.4,242.8z"/>
			<path class="st0" d="M265.4,242.8c4.5-5.2,8.7-10.6,12.7-16.2c-0.7-6.8-1.7-13.6-2.9-20.4C272.9,218.7,269.6,230.9,265.4,242.8
				L265.4,242.8z"/>
			<path class="st0" d="M126.2,185.9c0.7,6.8,1.7,13.6,2.9,20.4c2.3-12.4,5.6-24.6,9.8-36.5C134.4,175,130.2,180.4,126.2,185.9z"/>
			<path class="st0" d="M126.2,185.9c0.7,6.8,1.7,13.6,2.9,20.4c2.3-12.4,5.6-24.6,9.8-36.5C134.4,175,130.2,180.4,126.2,185.9z"/>
			<path class="st0" d="M126.2,185.9c0.7,6.8,1.7,13.6,2.9,20.4c2.3-12.4,5.6-24.6,9.8-36.5C134.4,175,130.2,180.4,126.2,185.9z"/>
			<path class="st0" d="M126.2,185.9c0.7,6.8,1.7,13.6,2.9,20.4c2.3-12.4,5.6-24.6,9.8-36.5C134.4,175,130.2,180.4,126.2,185.9z"/>
			<path class="st0" d="M126.2,185.9c0.7,6.8,1.7,13.6,2.9,20.4c2.3-12.4,5.6-24.6,9.8-36.5C134.4,175,130.2,180.4,126.2,185.9z"/>
			<path class="st0" d="M174.6,103.4c9.5,4,18.7,8.6,27.6,13.8c8.9-5.1,18.1-9.8,27.6-13.8c-8.2-10.8-17.4-21-27.6-30.4
				C192,82.4,182.8,92.6,174.6,103.4L174.6,103.4z"/>
			<path class="st0" d="M174.6,103.4c9.5,4,18.7,8.6,27.6,13.8c8.9-5.1,18.1-9.8,27.6-13.8c-8.2-10.8-17.4-21-27.6-30.4
				C192,82.4,182.8,92.6,174.6,103.4L174.6,103.4z"/>
			<path class="st0" d="M229.7,309.2c-9.5-4-18.7-8.6-27.6-13.8c-8.9,5.1-18.1,9.8-27.6,13.8c8.2,10.8,17.4,21,27.6,30.4
				C212.3,330.2,221.5,320,229.7,309.2z"/>
			<path class="st0" d="M229.7,309.2c-9.5-4-18.7-8.6-27.6-13.8c-8.9,5.1-18.1,9.8-27.6,13.8c8.2,10.8,17.4,21,27.6,30.4
				C212.3,330.2,221.5,320,229.7,309.2z"/>
			<path class="st0" d="M222.5,282.3c-6.6,4.7-13.3,9.1-20.4,13.2c8.9,5.1,18.1,9.8,27.6,13.8c6.2-8.2,11.9-16.8,17-25.7
				C238.6,283.5,230.5,283.1,222.5,282.3L222.5,282.3z"/>
			<path class="st0" d="M222.5,282.3c-6.6,4.7-13.3,9.1-20.4,13.2c8.9,5.1,18.1,9.8,27.6,13.8c6.2-8.2,11.9-16.8,17-25.7
				C238.6,283.5,230.5,283.1,222.5,282.3L222.5,282.3z"/>
			<path class="st0" d="M222.5,282.3c-6.6,4.7-13.3,9.1-20.4,13.2c8.9,5.1,18.1,9.8,27.6,13.8c6.2-8.2,11.9-16.8,17-25.7
				C238.6,283.5,230.5,283.1,222.5,282.3L222.5,282.3z"/>
			<path class="st0" d="M181.8,130.3c6.6-4.7,13.3-9.1,20.4-13.2c-8.9-5.1-18.1-9.8-27.6-13.8c-6.2,8.2-11.9,16.8-17,25.7
				C165.7,129.1,173.8,129.5,181.8,130.3L181.8,130.3z"/>
			<path class="st0" d="M181.8,130.3c6.6-4.7,13.3-9.1,20.4-13.2c-8.9-5.1-18.1-9.8-27.6-13.8c-6.2,8.2-11.9,16.8-17,25.7
				C165.7,129.1,173.8,129.5,181.8,130.3L181.8,130.3z"/>
			<path class="st0" d="M181.8,130.3c6.6-4.7,13.3-9.1,20.4-13.2c-8.9-5.1-18.1-9.8-27.6-13.8c-6.2,8.2-11.9,16.8-17,25.7
				C165.7,129.1,173.8,129.5,181.8,130.3L181.8,130.3z"/>
			<path class="st0" d="M165.6,143c5.2-4.5,10.6-8.7,16.2-12.7c-8-0.8-16.1-1.2-24.2-1.2c-4.1,7-7.7,14.2-11.1,21.6
				C152.8,147.8,159.1,145.3,165.6,143L165.6,143z"/>
			<path class="st0" d="M165.6,143c5.2-4.5,10.6-8.7,16.2-12.7c-8-0.8-16.1-1.2-24.2-1.2c-4.1,7-7.7,14.2-11.1,21.6
				C152.8,147.8,159.1,145.3,165.6,143L165.6,143z"/>
			<path class="st0" d="M165.6,143c5.2-4.5,10.6-8.7,16.2-12.7c-8-0.8-16.1-1.2-24.2-1.2c-4.1,7-7.7,14.2-11.1,21.6
				C152.8,147.8,159.1,145.3,165.6,143L165.6,143z"/>
			<path class="st0" d="M165.6,143c5.2-4.5,10.6-8.7,16.2-12.7c-8-0.8-16.1-1.2-24.2-1.2c-4.1,7-7.7,14.2-11.1,21.6
				C152.8,147.8,159.1,145.3,165.6,143L165.6,143z"/>
			<path class="st0" d="M238.7,269.5c-5.2,4.5-10.6,8.7-16.2,12.7c8,0.8,16.1,1.2,24.2,1.2c4.1-7,7.7-14.2,11.1-21.6
				C251.5,264.7,245.1,267.3,238.7,269.5L238.7,269.5z"/>
			<path class="st0" d="M238.7,269.5c-5.2,4.5-10.6,8.7-16.2,12.7c8,0.8,16.1,1.2,24.2,1.2c4.1-7,7.7-14.2,11.1-21.6
				C251.5,264.7,245.1,267.3,238.7,269.5L238.7,269.5z"/>
			<path class="st0" d="M238.7,269.5c-5.2,4.5-10.6,8.7-16.2,12.7c8,0.8,16.1,1.2,24.2,1.2c4.1-7,7.7-14.2,11.1-21.6
				C251.5,264.7,245.1,267.3,238.7,269.5L238.7,269.5z"/>
			<path class="st0" d="M238.7,269.5c-5.2,4.5-10.6,8.7-16.2,12.7c8,0.8,16.1,1.2,24.2,1.2c4.1-7,7.7-14.2,11.1-21.6
				C251.5,264.7,245.1,267.3,238.7,269.5L238.7,269.5z"/>
			<path class="st0" d="M165.6,143c-6.5,2.3-12.8,4.8-19.1,7.6c-2.8,6.3-5.4,12.6-7.6,19.1C147.1,160.2,156,151.2,165.6,143
				L165.6,143z"/>
			<path class="st0" d="M165.6,143c-6.5,2.3-12.8,4.8-19.1,7.6c-2.8,6.3-5.4,12.6-7.6,19.1C147.1,160.2,156,151.2,165.6,143
				L165.6,143z"/>
			<path class="st0" d="M165.6,143c-6.5,2.3-12.8,4.8-19.1,7.6c-2.8,6.3-5.4,12.6-7.6,19.1C147.1,160.2,156,151.2,165.6,143
				L165.6,143z"/>
			<path class="st0" d="M165.6,143c-6.5,2.3-12.8,4.8-19.1,7.6c-2.8,6.3-5.4,12.6-7.6,19.1C147.1,160.2,156,151.2,165.6,143
				L165.6,143z"/>
			<path class="st0" d="M165.6,143c-6.5,2.3-12.8,4.8-19.1,7.6c-2.8,6.3-5.4,12.6-7.6,19.1C147.1,160.2,156,151.2,165.6,143
				L165.6,143z"/>
			<path class="st0" d="M238.7,269.5c6.5-2.3,12.8-4.8,19.1-7.6c2.8-6.3,5.4-12.6,7.6-19.1C257.2,252.4,248.3,261.3,238.7,269.5
				L238.7,269.5z"/>
			<path class="st0" d="M238.7,269.5c6.5-2.3,12.8-4.8,19.1-7.6c2.8-6.3,5.4-12.6,7.6-19.1C257.2,252.4,248.3,261.3,238.7,269.5
				L238.7,269.5z"/>
			<path class="st0" d="M238.7,269.5c6.5-2.3,12.8-4.8,19.1-7.6c2.8-6.3,5.4-12.6,7.6-19.1C257.2,252.4,248.3,261.3,238.7,269.5
				L238.7,269.5z"/>
			<path class="st0" d="M238.7,269.5c6.5-2.3,12.8-4.8,19.1-7.6c2.8-6.3,5.4-12.6,7.6-19.1C257.2,252.4,248.3,261.3,238.7,269.5
				L238.7,269.5z"/>
			<path class="st0" d="M238.7,269.5c6.5-2.3,12.8-4.8,19.1-7.6c2.8-6.3,5.4-12.6,7.6-19.1C257.2,252.4,248.3,261.3,238.7,269.5
				L238.7,269.5z"/>
			<path class="st0" d="M157.6,283.5c5.1,8.9,10.8,17.5,17,25.7c9.5-4,18.7-8.6,27.6-13.8c-7-4.1-13.8-8.5-20.4-13.2
				C173.8,283.1,165.7,283.5,157.6,283.5L157.6,283.5z"/>
			<path class="st0" d="M157.6,283.5c5.1,8.9,10.8,17.5,17,25.7c9.5-4,18.7-8.6,27.6-13.8c-7-4.1-13.8-8.5-20.4-13.2
				C173.8,283.1,165.7,283.5,157.6,283.5L157.6,283.5z"/>
			<path class="st0" d="M157.6,283.5c5.1,8.9,10.8,17.5,17,25.7c9.5-4,18.7-8.6,27.6-13.8c-7-4.1-13.8-8.5-20.4-13.2
				C173.8,283.1,165.7,283.5,157.6,283.5L157.6,283.5z"/>
			<path class="st0" d="M246.7,129.1c-5.1-8.9-10.8-17.5-17-25.7c-9.5,4-18.7,8.6-27.6,13.8c7,4.1,13.8,8.4,20.4,13.2
				C230.5,129.5,238.6,129.1,246.7,129.1L246.7,129.1z"/>
			<path class="st0" d="M246.7,129.1c-5.1-8.9-10.8-17.5-17-25.7c-9.5,4-18.7,8.6-27.6,13.8c7,4.1,13.8,8.4,20.4,13.2
				C230.5,129.5,238.6,129.1,246.7,129.1L246.7,129.1z"/>
			<path class="st0" d="M246.7,129.1c-5.1-8.9-10.8-17.5-17-25.7c-9.5,4-18.7,8.6-27.6,13.8c7,4.1,13.8,8.4,20.4,13.2
				C230.5,129.5,238.6,129.1,246.7,129.1L246.7,129.1z"/>
			<path class="st0" d="M202.1,279.3c-6.7,1.3-13.5,2.2-20.4,2.9c6.6,4.7,13.3,9.1,20.4,13.2c7-4.1,13.8-8.5,20.4-13.2
				C215.7,281.6,208.9,280.6,202.1,279.3z"/>
			<path class="st0" d="M202.1,279.3c-6.7,1.3-13.5,2.2-20.4,2.9c6.6,4.7,13.3,9.1,20.4,13.2c7-4.1,13.8-8.5,20.4-13.2
				C215.7,281.6,208.9,280.6,202.1,279.3z"/>
			<path class="st0" d="M202.1,279.3c-6.7,1.3-13.5,2.2-20.4,2.9c6.6,4.7,13.3,9.1,20.4,13.2c7-4.1,13.8-8.5,20.4-13.2
				C215.7,281.6,208.9,280.6,202.1,279.3z"/>
			<path class="st0" d="M202.1,279.3c-6.7,1.3-13.5,2.2-20.4,2.9c6.6,4.7,13.3,9.1,20.4,13.2c7-4.1,13.8-8.5,20.4-13.2
				C215.7,281.6,208.9,280.6,202.1,279.3z"/>
			<path class="st0" d="M202.1,133.2c6.7-1.3,13.5-2.2,20.4-2.9c-6.6-4.7-13.3-9.1-20.4-13.2c-7,4.1-13.8,8.4-20.4,13.2
				C188.6,131,195.4,132,202.1,133.2z"/>
			<path class="st0" d="M202.1,133.2c6.7-1.3,13.5-2.2,20.4-2.9c-6.6-4.7-13.3-9.1-20.4-13.2c-7,4.1-13.8,8.4-20.4,13.2
				C188.6,131,195.4,132,202.1,133.2z"/>
			<path class="st0" d="M202.1,133.2c6.7-1.3,13.5-2.2,20.4-2.9c-6.6-4.7-13.3-9.1-20.4-13.2c-7,4.1-13.8,8.4-20.4,13.2
				C188.6,131,195.4,132,202.1,133.2z"/>
			<path class="st0" d="M202.1,133.2c6.7-1.3,13.5-2.2,20.4-2.9c-6.6-4.7-13.3-9.1-20.4-13.2c-7,4.1-13.8,8.4-20.4,13.2
				C188.6,131,195.4,132,202.1,133.2z"/>
			<path class="st0" d="M181.8,130.3c-5.6,4-11,8.2-16.2,12.7c11.9-4.2,24.1-7.5,36.5-9.8C195.4,132,188.6,131,181.8,130.3
				L181.8,130.3z"/>
			<path class="st0" d="M181.8,130.3c-5.6,4-11,8.2-16.2,12.7c11.9-4.2,24.1-7.5,36.5-9.8C195.4,132,188.6,131,181.8,130.3
				L181.8,130.3z"/>
			<path class="st0" d="M181.8,130.3c-5.6,4-11,8.2-16.2,12.7c11.9-4.2,24.1-7.5,36.5-9.8C195.4,132,188.6,131,181.8,130.3
				L181.8,130.3z"/>
			<path class="st0" d="M181.8,130.3c-5.6,4-11,8.2-16.2,12.7c11.9-4.2,24.1-7.5,36.5-9.8C195.4,132,188.6,131,181.8,130.3
				L181.8,130.3z"/>
			<path class="st0" d="M181.8,130.3c-5.6,4-11,8.2-16.2,12.7c11.9-4.2,24.1-7.5,36.5-9.8C195.4,132,188.6,131,181.8,130.3
				L181.8,130.3z"/>
			<path class="st0" d="M222.5,282.3c5.6-4,11-8.2,16.2-12.7c-11.9,4.2-24.1,7.5-36.5,9.8C208.9,280.6,215.7,281.6,222.5,282.3
				L222.5,282.3z"/>
			<path class="st0" d="M222.5,282.3c5.6-4,11-8.2,16.2-12.7c-11.9,4.2-24.1,7.5-36.5,9.8C208.9,280.6,215.7,281.6,222.5,282.3
				L222.5,282.3z"/>
			<path class="st0" d="M222.5,282.3c5.6-4,11-8.2,16.2-12.7c-11.9,4.2-24.1,7.5-36.5,9.8C208.9,280.6,215.7,281.6,222.5,282.3
				L222.5,282.3z"/>
			<path class="st0" d="M222.5,282.3c5.6-4,11-8.2,16.2-12.7c-11.9,4.2-24.1,7.5-36.5,9.8C208.9,280.6,215.7,281.6,222.5,282.3
				L222.5,282.3z"/>
			<path class="st0" d="M222.5,282.3c5.6-4,11-8.2,16.2-12.7c-11.9,4.2-24.1,7.5-36.5,9.8C208.9,280.6,215.7,281.6,222.5,282.3
				L222.5,282.3z"/>
			<path class="st0" d="M222.5,130.3c5.6,4,11,8.2,16.2,12.7c6.5,2.3,12.8,4.8,19.1,7.6c-3.3-7.4-7-14.6-11.1-21.6
				C238.6,129.1,230.5,129.5,222.5,130.3L222.5,130.3z"/>
			<path class="st0" d="M222.5,130.3c5.6,4,11,8.2,16.2,12.7c6.5,2.3,12.8,4.8,19.1,7.6c-3.3-7.4-7-14.6-11.1-21.6
				C238.6,129.1,230.5,129.5,222.5,130.3L222.5,130.3z"/>
			<path class="st0" d="M222.5,130.3c5.6,4,11,8.2,16.2,12.7c6.5,2.3,12.8,4.8,19.1,7.6c-3.3-7.4-7-14.6-11.1-21.6
				C238.6,129.1,230.5,129.5,222.5,130.3L222.5,130.3z"/>
			<path class="st0" d="M222.5,130.3c5.6,4,11,8.2,16.2,12.7c6.5,2.3,12.8,4.8,19.1,7.6c-3.3-7.4-7-14.6-11.1-21.6
				C238.6,129.1,230.5,129.5,222.5,130.3L222.5,130.3z"/>
			<path class="st0" d="M181.8,282.3c-5.6-4-11-8.2-16.2-12.7c-6.5-2.3-12.8-4.8-19.1-7.6c3.3,7.4,7,14.6,11.1,21.6
				C165.7,283.5,173.8,283.1,181.8,282.3L181.8,282.3z"/>
			<path class="st0" d="M181.8,282.3c-5.6-4-11-8.2-16.2-12.7c-6.5-2.3-12.8-4.8-19.1-7.6c3.3,7.4,7,14.6,11.1,21.6
				C165.7,283.5,173.8,283.1,181.8,282.3L181.8,282.3z"/>
			<path class="st0" d="M181.8,282.3c-5.6-4-11-8.2-16.2-12.7c-6.5-2.3-12.8-4.8-19.1-7.6c3.3,7.4,7,14.6,11.1,21.6
				C165.7,283.5,173.8,283.1,181.8,282.3L181.8,282.3z"/>
			<path class="st0" d="M181.8,282.3c-5.6-4-11-8.2-16.2-12.7c-6.5-2.3-12.8-4.8-19.1-7.6c3.3,7.4,7,14.6,11.1,21.6
				C165.7,283.5,173.8,283.1,181.8,282.3L181.8,282.3z"/>
			<path class="st0" d="M181.8,282.3c6.8-0.7,13.6-1.7,20.4-2.9c-12.4-2.3-24.6-5.6-36.5-9.8C170.8,274,176.2,278.2,181.8,282.3
				L181.8,282.3z"/>
			<path class="st0" d="M181.8,282.3c6.8-0.7,13.6-1.7,20.4-2.9c-12.4-2.3-24.6-5.6-36.5-9.8C170.8,274,176.2,278.2,181.8,282.3
				L181.8,282.3z"/>
			<path class="st0" d="M181.8,282.3c6.8-0.7,13.6-1.7,20.4-2.9c-12.4-2.3-24.6-5.6-36.5-9.8C170.8,274,176.2,278.2,181.8,282.3
				L181.8,282.3z"/>
			<path class="st0" d="M181.8,282.3c6.8-0.7,13.6-1.7,20.4-2.9c-12.4-2.3-24.6-5.6-36.5-9.8C170.8,274,176.2,278.2,181.8,282.3
				L181.8,282.3z"/>
			<path class="st0" d="M181.8,282.3c6.8-0.7,13.6-1.7,20.4-2.9c-12.4-2.3-24.6-5.6-36.5-9.8C170.8,274,176.2,278.2,181.8,282.3
				L181.8,282.3z"/>
			<path class="st0" d="M222.5,130.3c-6.8,0.7-13.6,1.7-20.4,2.9c12.4,2.3,24.6,5.6,36.5,9.8C233.5,138.6,228.1,134.3,222.5,130.3
				L222.5,130.3z"/>
			<path class="st0" d="M222.5,130.3c-6.8,0.7-13.6,1.7-20.4,2.9c12.4,2.3,24.6,5.6,36.5,9.8C233.5,138.6,228.1,134.3,222.5,130.3
				L222.5,130.3z"/>
			<path class="st0" d="M222.5,130.3c-6.8,0.7-13.6,1.7-20.4,2.9c12.4,2.3,24.6,5.6,36.5,9.8C233.5,138.6,228.1,134.3,222.5,130.3
				L222.5,130.3z"/>
			<path class="st0" d="M222.5,130.3c-6.8,0.7-13.6,1.7-20.4,2.9c12.4,2.3,24.6,5.6,36.5,9.8C233.5,138.6,228.1,134.3,222.5,130.3
				L222.5,130.3z"/>
			<path class="st0" d="M222.5,130.3c-6.8,0.7-13.6,1.7-20.4,2.9c12.4,2.3,24.6,5.6,36.5,9.8C233.5,138.6,228.1,134.3,222.5,130.3
				L222.5,130.3z"/>
			<path class="st0" d="M138.9,242.8c2.3,6.5,4.8,12.8,7.6,19.1c6.3,2.8,12.6,5.4,19.1,7.6C156,261.3,147.1,252.4,138.9,242.8
				L138.9,242.8z"/>
			<path class="st0" d="M138.9,242.8c2.3,6.5,4.8,12.8,7.6,19.1c6.3,2.8,12.6,5.4,19.1,7.6C156,261.3,147.1,252.4,138.9,242.8
				L138.9,242.8z"/>
			<path class="st0" d="M138.9,242.8c2.3,6.5,4.8,12.8,7.6,19.1c6.3,2.8,12.6,5.4,19.1,7.6C156,261.3,147.1,252.4,138.9,242.8
				L138.9,242.8z"/>
			<path class="st0" d="M138.9,242.8c2.3,6.5,4.8,12.8,7.6,19.1c6.3,2.8,12.6,5.4,19.1,7.6C156,261.3,147.1,252.4,138.9,242.8
				L138.9,242.8z"/>
			<path class="st0" d="M138.9,242.8c2.3,6.5,4.8,12.8,7.6,19.1c6.3,2.8,12.6,5.4,19.1,7.6C156,261.3,147.1,252.4,138.9,242.8
				L138.9,242.8z"/>
			<path class="st0" d="M265.4,169.8c-2.3-6.5-4.8-12.8-7.6-19.1c-6.3-2.8-12.6-5.4-19.1-7.6C248.3,151.2,257.2,160.2,265.4,169.8
				L265.4,169.8z"/>
			<path class="st0" d="M265.4,169.8c-2.3-6.5-4.8-12.8-7.6-19.1c-6.3-2.8-12.6-5.4-19.1-7.6C248.3,151.2,257.2,160.2,265.4,169.8
				L265.4,169.8z"/>
			<path class="st0" d="M265.4,169.8c-2.3-6.5-4.8-12.8-7.6-19.1c-6.3-2.8-12.6-5.4-19.1-7.6C248.3,151.2,257.2,160.2,265.4,169.8
				L265.4,169.8z"/>
			<path class="st0" d="M265.4,169.8c-2.3-6.5-4.8-12.8-7.6-19.1c-6.3-2.8-12.6-5.4-19.1-7.6C248.3,151.2,257.2,160.2,265.4,169.8
				L265.4,169.8z"/>
			<path class="st0" d="M265.4,169.8c-2.3-6.5-4.8-12.8-7.6-19.1c-6.3-2.8-12.6-5.4-19.1-7.6C248.3,151.2,257.2,160.2,265.4,169.8
				L265.4,169.8z"/>
			<path class="st0" d="M265.4,169.8c-8.2-9.6-17.1-18.5-26.7-26.7c-11.9-4.2-24.1-7.5-36.5-9.8c-12.4,2.3-24.6,5.6-36.5,9.8
				c-9.6,8.2-18.5,17.1-26.7,26.7c-4.2,11.9-7.5,24.1-9.8,36.5c2.3,12.4,5.6,24.6,9.8,36.5c8.2,9.6,17.1,18.5,26.7,26.7
				c11.9,4.2,24.1,7.5,36.5,9.8c12.4-2.3,24.6-5.6,36.5-9.8c9.6-8.2,18.5-17.1,26.7-26.7c4.2-11.9,7.5-24.1,9.8-36.5
				C272.9,193.9,269.6,181.7,265.4,169.8L265.4,169.8z"/>
			<path class="st0" d="M265.4,169.8c-8.2-9.6-17.1-18.5-26.7-26.7c-11.9-4.2-24.1-7.5-36.5-9.8c-12.4,2.3-24.6,5.6-36.5,9.8
				c-9.6,8.2-18.5,17.1-26.7,26.7c-4.2,11.9-7.5,24.1-9.8,36.5c2.3,12.4,5.6,24.6,9.8,36.5c8.2,9.6,17.1,18.5,26.7,26.7
				c11.9,4.2,24.1,7.5,36.5,9.8c12.4-2.3,24.6-5.6,36.5-9.8c9.6-8.2,18.5-17.1,26.7-26.7c4.2-11.9,7.5-24.1,9.8-36.5
				C272.9,193.9,269.6,181.7,265.4,169.8L265.4,169.8z"/>
			<path class="st0" d="M265.4,169.8c-8.2-9.6-17.1-18.5-26.7-26.7c-11.9-4.2-24.1-7.5-36.5-9.8c-12.4,2.3-24.6,5.6-36.5,9.8
				c-9.6,8.2-18.5,17.1-26.7,26.7c-4.2,11.9-7.5,24.1-9.8,36.5c2.3,12.4,5.6,24.6,9.8,36.5c8.2,9.6,17.1,18.5,26.7,26.7
				c11.9,4.2,24.1,7.5,36.5,9.8c12.4-2.3,24.6-5.6,36.5-9.8c9.6-8.2,18.5-17.1,26.7-26.7c4.2-11.9,7.5-24.1,9.8-36.5
				C272.9,193.9,269.6,181.7,265.4,169.8L265.4,169.8z"/>
			<path class="st0" d="M265.4,169.8c-8.2-9.6-17.1-18.5-26.7-26.7c-11.9-4.2-24.1-7.5-36.5-9.8c-12.4,2.3-24.6,5.6-36.5,9.8
				c-9.6,8.2-18.5,17.1-26.7,26.7c-4.2,11.9-7.5,24.1-9.8,36.5c2.3,12.4,5.6,24.6,9.8,36.5c8.2,9.6,17.1,18.5,26.7,26.7
				c11.9,4.2,24.1,7.5,36.5,9.8c12.4-2.3,24.6-5.6,36.5-9.8c9.6-8.2,18.5-17.1,26.7-26.7c4.2-11.9,7.5-24.1,9.8-36.5
				C272.9,193.9,269.6,181.7,265.4,169.8L265.4,169.8z"/>
			<path class="st0" d="M265.4,169.8c-8.2-9.6-17.1-18.5-26.7-26.7c-11.9-4.2-24.1-7.5-36.5-9.8c-12.4,2.3-24.6,5.6-36.5,9.8
				c-9.6,8.2-18.5,17.1-26.7,26.7c-4.2,11.9-7.5,24.1-9.8,36.5c2.3,12.4,5.6,24.6,9.8,36.5c8.2,9.6,17.1,18.5,26.7,26.7
				c11.9,4.2,24.1,7.5,36.5,9.8c12.4-2.3,24.6-5.6,36.5-9.8c9.6-8.2,18.5-17.1,26.7-26.7c4.2-11.9,7.5-24.1,9.8-36.5
				C272.9,193.9,269.6,181.7,265.4,169.8L265.4,169.8z"/>
			<path class="st0" d="M265.4,169.8c-8.2-9.6-17.1-18.5-26.7-26.7c-11.9-4.2-24.1-7.5-36.5-9.8c-12.4,2.3-24.6,5.6-36.5,9.8
				c-9.6,8.2-18.5,17.1-26.7,26.7c-4.2,11.9-7.5,24.1-9.8,36.5c2.3,12.4,5.6,24.6,9.8,36.5c8.2,9.6,17.1,18.5,26.7,26.7
				c11.9,4.2,24.1,7.5,36.5,9.8c12.4-2.3,24.6-5.6,36.5-9.8c9.6-8.2,18.5-17.1,26.7-26.7c4.2-11.9,7.5-24.1,9.8-36.5
				C272.9,193.9,269.6,181.7,265.4,169.8L265.4,169.8z"/>
		</g>
		<circle class="st1" cx="202.1" cy="206.3" r="75.3"/>
	</g>
	<g>
		<g class="st2">
			<path class="st1" d="M456.7,316.6V95.9h33.4l80.4,130.8l-16.1-0.3l81.3-130.5h31.5v220.7h-34v-90.5c0-18.9,0.5-35.9,1.4-51.1
				s2.6-30.2,4.9-45.1l4.4,11.7l-72.2,111.6H551l-70-110.3l3.5-12.9c2.3,14.1,3.9,28.5,4.9,43.3c0.9,14.8,1.4,32.4,1.4,52.8v90.5
				L456.7,316.6L456.7,316.6z"/>
			<path class="st1" d="M795,319.7c-17,0-32.1-3.6-45.2-10.9c-13.1-7.3-23.4-17.2-30.9-29.8c-7.5-12.6-11.2-27.1-11.2-43.5
				c0-13,2.1-24.9,6.3-35.6c4.2-10.7,10-20,17.5-27.9s16.4-14,26.8-18.3c10.4-4.3,21.7-6.5,33.9-6.5c10.7,0,20.7,2,29.9,6.1
				s17.3,9.7,24.1,16.9c6.8,7.1,12.1,15.6,15.8,25.4c3.7,9.8,5.4,20.4,5.2,32l-0.3,13.9H731.6l-7.3-25.9h114.4L834,221v-7.6
				c-0.6-6.9-2.9-13.1-6.9-18.6s-9-9.8-15.1-12.9c-6.1-3.2-12.7-4.7-19.9-4.7c-11.3,0-20.9,2.2-28.7,6.5s-13.7,10.6-17.7,18.9
				c-4,8.3-6,18.6-6,30.7c0,11.6,2.4,21.6,7.3,30.1c4.8,8.5,11.7,15.1,20.5,19.7s19,6.9,30.6,6.9c8.2,0,15.8-1.4,22.9-4.1
				c7-2.7,14.7-7.7,22.9-14.8l16.4,23c-5,5-11.2,9.5-18.4,13.2s-14.9,6.8-23,9C810.7,318.6,802.8,319.7,795,319.7z"/>
		</g>
	</g>
	<g>
		<g class="st2">
			<path class="st1" d="M968.4,319.7c-15.1,0-28.6-3.7-40.5-11.2s-21.3-17.7-28.2-30.6s-10.4-27.7-10.4-44.3s3.4-31.4,10.2-44.3
				c6.8-12.9,16.1-23.1,27.9-30.6c11.8-7.5,25.1-11.2,40-11.2c8.2,0,16.1,1.3,23.8,3.9c7.7,2.6,14.6,6.2,20.6,10.7
				c6.1,4.5,10.9,9.5,14.3,14.8c3.4,5.3,5.2,10.8,5.2,16.2l-9.5,0.6V83.3h32.5v233.3H1022v-39.4h6.3c0,5-1.7,10-5,15
				c-3.4,4.9-7.8,9.5-13.4,13.7c-5.6,4.2-12,7.6-19.2,10.1C983.3,318.5,975.9,319.7,968.4,319.7z M972.8,291.7
				c9.9,0,18.6-2.5,26.2-7.6c7.6-5,13.5-11.9,17.8-20.6c4.3-8.7,6.5-18.6,6.5-29.8c0-11.1-2.2-21.1-6.5-29.8s-10.2-15.6-17.8-20.7
				c-7.6-5-16.3-7.6-26.2-7.6s-18.6,2.5-26.2,7.6c-7.6,5-13.5,11.9-17.8,20.7c-4.3,8.7-6.5,18.7-6.5,29.8s2.2,21.1,6.5,29.8
				c4.3,8.7,10.2,15.6,17.8,20.6S962.9,291.7,972.8,291.7z"/>
			<path class="st1" d="M1120.3,114.5c-6.9,0-12.3-1.8-16.1-5.4c-3.8-3.6-5.7-8.6-5.7-15.1c0-6.1,1.9-11,5.8-14.8s9.2-5.7,15.9-5.7
				c6.9,0,12.3,1.8,16.1,5.4c3.8,3.6,5.7,8.6,5.7,15.1c0,6.1-1.9,11-5.8,14.8C1132.4,112.6,1127,114.5,1120.3,114.5z M1104.6,316.6
				V151.1h32.5v165.5H1104.6z"/>
			<path class="st1" d="M1257.1,319.7c-15.3,0-29.1-3.8-41.1-11.3c-12.1-7.6-21.6-17.9-28.7-30.9c-7-13-10.6-27.6-10.6-43.8
				s3.5-30.8,10.6-43.8c7-13,16.6-23.3,28.7-30.9c12.1-7.6,25.8-11.3,41.1-11.3c14.7,0,28.1,3,40.2,9s21.3,14.1,27.6,24.4l-18,22.1
				c-3.4-4.8-7.7-9.2-12.9-13.2c-5.3-4-10.8-7.1-16.7-9.5c-5.9-2.3-11.6-3.5-17-3.5c-10.1,0-19.1,2.5-27,7.4s-14.1,11.7-18.8,20.3
				c-4.6,8.6-6.9,18.3-6.9,29s2.4,20.3,7.3,28.8c4.8,8.5,11.2,15.3,19.2,20.3s16.8,7.6,26.5,7.6c5.7,0,11.2-0.9,16.6-2.8
				s10.6-4.7,15.6-8.5s9.8-8.4,14.2-13.9l18,22.1c-6.7,9.5-16.3,17.2-28.8,23.3C1283.6,316.7,1270.6,319.7,1257.1,319.7z"/>
		</g>
	</g>
	<g>
		<g class="st2">
			<path class="st1" d="M1332.2,182.6v-31.5h105.3v31.5H1332.2z M1366.5,316.6V108.8h32.5v207.8H1366.5z"/>
		</g>
	</g>
	<g>
		<g class="st2">
			<path class="st1" d="M1526.1,319.7c-13.7,0-26.1-3.8-37.4-11.3c-11.2-7.6-20.2-17.9-27-30.9c-6.7-13-10.1-27.7-10.1-44.1
				c0-16.6,3.4-31.4,10.2-44.3c6.8-12.9,16.1-23.1,27.7-30.4c11.7-7.4,24.7-11,39.2-11c8.6,0,16.5,1.3,23.6,3.8s13.4,6,18.8,10.6
				c5.4,4.5,9.8,9.7,13.2,15.6c3.5,5.9,5.6,12.2,6.5,18.9l-7.2-2.5v-42.9h32.8v165.5h-32.8v-39.4l7.6-2.2
				c-1.3,5.7-3.8,11.2-7.7,16.6c-3.9,5.4-8.8,10.1-14.8,14.3c-6,4.2-12.6,7.6-19.9,10.1C1541.7,318.5,1534,319.7,1526.1,319.7z
				 M1534.6,289.8c9.9,0,18.6-2.4,26.2-7.3c7.6-4.8,13.5-11.5,17.8-20s6.5-18.2,6.5-29.2c0-10.7-2.2-20.3-6.5-28.7
				s-10.2-15-17.8-19.9c-7.6-4.8-16.3-7.3-26.2-7.3c-9.7,0-18.2,2.4-25.7,7.3c-7.5,4.8-13.3,11.5-17.7,19.9
				c-4.3,8.4-6.5,18-6.5,28.7c0,10.9,2.2,20.6,6.5,29.2c4.3,8.5,10.2,15.2,17.7,20C1516.3,287.4,1524.9,289.8,1534.6,289.8z"/>
		</g>
	</g>
	<g>
		<g class="st2">
			<path class="st1" d="M1644.9,182.6v-31.5h105.3v31.5H1644.9z M1679.3,316.6V108.8h32.5v207.8H1679.3z"/>
		</g>
	</g>
	<g>
		<g class="st2">
			<path class="st1" d="M1852.3,319.7c-17,0-32.1-3.6-45.2-10.9s-23.4-17.2-30.9-29.8c-7.5-12.6-11.2-27.1-11.2-43.5
				c0-13,2.1-24.9,6.3-35.6c4.2-10.7,10-20,17.5-27.9s16.4-14,26.8-18.3s21.7-6.5,33.9-6.5c10.7,0,20.7,2,29.9,6.1
				c9.2,4.1,17.3,9.7,24.1,16.9c6.8,7.1,12.1,15.6,15.8,25.4c3.7,9.8,5.4,20.4,5.2,32l-0.3,13.9H1789l-7.3-25.9h114.4l-4.7,5.4v-7.6
				c-0.6-6.9-2.9-13.1-6.9-18.6s-9-9.8-15.1-12.9c-6.1-3.2-12.7-4.7-19.9-4.7c-11.3,0-20.9,2.2-28.7,6.5
				c-7.8,4.3-13.7,10.6-17.7,18.9c-4,8.3-6,18.6-6,30.7c0,11.6,2.4,21.6,7.3,30.1c4.8,8.5,11.7,15.1,20.5,19.7s19,6.9,30.6,6.9
				c8.2,0,15.8-1.4,22.9-4.1c7-2.7,14.7-7.7,22.9-14.8l16.4,23c-5,5-11.2,9.5-18.4,13.2s-14.9,6.8-23,9
				C1868,318.6,1860.1,319.7,1852.3,319.7z"/>
		</g>
	</g>
</g>
</svg>
