<?xml version="1.0" encoding="UTF-8"?>
<svg id="Calque_1" data-name="Calque 1" xmlns="http://www.w3.org/2000/svg" viewBox="0 0 2000 433.68">
  <defs>
    <style>
      .cls-1, .cls-2, .cls-3 {
        fill: #fff;
      }

      .cls-4, .cls-5, .cls-6, .cls-7, .cls-8, .cls-9 {
        fill: #bf6a8c;
      }

      .cls-10, .cls-7 {
        letter-spacing: -.01em;
      }

      .cls-11, .cls-8 {
        letter-spacing: -.01em;
      }

      .cls-12 {
        fill: #628468;
      }

      .cls-12, .cls-5, .cls-13 {
        letter-spacing: -.01em;
      }

      .cls-6, .cls-14 {
        letter-spacing: 0em;
      }

      .cls-2, .cls-15 {
        font-family: Lexend-SemiBold, Lexend;
        font-size: 315.26px;
        font-variation-settings: 'wght' 600;
        font-weight: 600;
      }

      .cls-9, .cls-3 {
        opacity: .3;
      }
    </style>
  </defs>
  <g>
    <g>
      <g>
        <path class="cls-3" d="m135.48,90.81c-17.73-4.1-36.17-6.35-55.15-6.35h0c0,18.98,2.24,37.42,6.35,55.15,13.24-4.04,26.66-6.96,40.14-8.66,1.71-13.48,4.62-26.9,8.66-40.14Z"/>
        <path class="cls-3" d="m268.82,321.76c17.73,4.1,36.17,6.35,55.15,6.35h0c0-18.98-2.24-37.42-6.35-55.15-13.24,4.04-26.66,6.96-40.14,8.66-1.71,13.48-4.62,26.9-8.66,40.14Z"/>
        <path class="cls-3" d="m335.49,206.28c-9.45,10.12-19.61,19.36-30.43,27.57,5.26,12.53,9.45,25.61,12.57,39.1,17.41-5.31,34.5-12.59,50.94-22.08h0c-9.49-16.44-20.65-31.29-33.07-44.59Z"/>
        <path class="cls-3" d="m99.24,178.71c-5.26-12.53-9.45-25.61-12.57-39.1-17.41,5.31-34.5,12.59-50.94,22.08h0,0c9.49,16.44,20.65,31.29,33.07,44.59,9.45-10.12,19.61-19.36,30.43-27.57Z"/>
        <path class="cls-3" d="m124.95,161.71c-.01-10.24.57-20.51,1.87-30.76-13.48,1.71-26.9,4.62-40.14,8.66,3.12,13.49,7.31,26.57,12.57,39.1,8.23-6.25,16.83-11.89,25.71-17Z"/>
        <path class="cls-3" d="m124.95,161.71c-.01-10.24.57-20.51,1.87-30.76-13.48,1.71-26.9,4.62-40.14,8.66,3.12,13.49,7.31,26.57,12.57,39.1,8.23-6.25,16.83-11.89,25.71-17Z"/>
        <path class="cls-3" d="m279.35,250.85c.01,10.24-.57,20.51-1.87,30.76,13.48-1.71,26.9-4.62,40.14-8.66-3.12-13.49-7.31-26.57-12.57-39.1-8.23,6.25-16.83,11.89-25.71,17Z"/>
        <path class="cls-3" d="m279.35,250.85c.01,10.24-.57,20.51-1.87,30.76,13.48-1.71,26.9-4.62,40.14-8.66-3.12-13.49-7.31-26.57-12.57-39.1-8.23,6.25-16.83,11.89-25.71,17Z"/>
        <path class="cls-3" d="m335.49,206.28c12.42-13.3,23.58-28.15,33.07-44.59h0,0c-16.44-9.49-33.53-16.77-50.94-22.08-3.12,13.49-7.31,26.57-12.57,39.1,10.82,8.22,20.98,17.45,30.43,27.57Z"/>
        <path class="cls-3" d="m68.81,206.28c-12.42,13.3-23.58,28.15-33.07,44.59h0,0c16.44,9.49,33.53,16.77,50.94,22.08,3.12-13.49,7.31-26.57,12.57-39.1-10.82-8.22-20.98-17.45-30.43-27.57Z"/>
        <path class="cls-3" d="m99.24,233.86c4-9.52,8.63-18.71,13.76-27.57-5.13-8.86-9.76-18.05-13.76-27.57-10.82,8.22-20.98,17.45-30.43,27.57,9.45,10.12,19.61,19.36,30.43,27.57Z"/>
        <path class="cls-3" d="m99.24,233.86c4-9.52,8.63-18.71,13.76-27.57-5.13-8.86-9.76-18.05-13.76-27.57-10.82,8.22-20.98,17.45-30.43,27.57,9.45,10.12,19.61,19.36,30.43,27.57Z"/>
        <path class="cls-3" d="m305.06,178.71c-4,9.52-8.63,18.71-13.76,27.57,5.13,8.86,9.76,18.05,13.76,27.57,10.82-8.22,20.98-17.45,30.43-27.57-9.45-10.12-19.61-19.36-30.43-27.57Z"/>
        <path class="cls-3" d="m305.06,178.71c-4,9.52-8.63,18.71-13.76,27.57,5.13,8.86,9.76,18.05,13.76,27.57,10.82-8.22,20.98-17.45,30.43-27.57-9.45-10.12-19.61-19.36-30.43-27.57Z"/>
        <path class="cls-3" d="m124.95,161.71c-8.87,5.11-17.48,10.75-25.71,17,4,9.52,8.63,18.71,13.76,27.57,4.06-7.02,8.45-13.81,13.17-20.36-.81-8.03-1.22-16.11-1.23-24.22Z"/>
        <path class="cls-3" d="m124.95,161.71c-8.87,5.11-17.48,10.75-25.71,17,4,9.52,8.63,18.71,13.76,27.57,4.06-7.02,8.45-13.81,13.17-20.36-.81-8.03-1.22-16.11-1.23-24.22Z"/>
        <path class="cls-3" d="m124.95,161.71c-8.87,5.11-17.48,10.75-25.71,17,4,9.52,8.63,18.71,13.76,27.57,4.06-7.02,8.45-13.81,13.17-20.36-.81-8.03-1.22-16.11-1.23-24.22Z"/>
        <path class="cls-3" d="m278.13,226.64c.81,8.03,1.22,16.11,1.23,24.22,8.87-5.11,17.48-10.75,25.71-17-4-9.52-8.63-18.71-13.76-27.57-4.06,7.02-8.45,13.81-13.17,20.36Z"/>
        <path class="cls-3" d="m278.13,226.64c.81,8.03,1.22,16.11,1.23,24.22,8.87-5.11,17.48-10.75,25.71-17-4-9.52-8.63-18.71-13.76-27.57-4.06,7.02-8.45,13.81-13.17,20.36Z"/>
        <path class="cls-3" d="m278.13,226.64c.81,8.03,1.22,16.11,1.23,24.22,8.87-5.11,17.48-10.75,25.71-17-4-9.52-8.63-18.71-13.76-27.57-4.06,7.02-8.45,13.81-13.17,20.36Z"/>
        <path class="cls-3" d="m86.68,272.95c-4.1,17.73-6.35,36.17-6.35,55.15h0c18.98,0,37.42-2.24,55.15-6.35-4.04-13.24-6.96-26.66-8.66-40.14-13.48-1.71-26.9-4.62-40.14-8.66Z"/>
        <path class="cls-3" d="m317.63,139.61c4.1-17.73,6.35-36.17,6.35-55.15h0s0,0,0,0c-18.98,0-37.42,2.24-55.15,6.35,4.04,13.24,6.96,26.66,8.66,40.14,13.48,1.71,26.9,4.62,40.14,8.66Z"/>
        <path class="cls-3" d="m279.35,161.71c8.87,5.11,17.48,10.75,25.71,17,5.26-12.53,9.45-25.61,12.57-39.1-13.24-4.04-26.66-6.96-40.14-8.66,1.3,10.25,1.88,20.52,1.87,30.76Z"/>
        <path class="cls-3" d="m279.35,161.71c8.87,5.11,17.48,10.75,25.71,17,5.26-12.53,9.45-25.61,12.57-39.1-13.24-4.04-26.66-6.96-40.14-8.66,1.3,10.25,1.88,20.52,1.87,30.76Z"/>
        <path class="cls-3" d="m124.95,250.85c-8.87-5.11-17.48-10.75-25.71-17-5.26,12.53-9.44,25.61-12.57,39.1,13.24,4.04,26.66,6.96,40.14,8.66-1.3-10.25-1.88-20.52-1.87-30.76Z"/>
        <path class="cls-3" d="m124.95,250.85c-8.87-5.11-17.48-10.75-25.71-17-5.26,12.53-9.44,25.61-12.57,39.1,13.24,4.04,26.66,6.96,40.14,8.66-1.3-10.25-1.88-20.52-1.87-30.76Z"/>
        <path class="cls-3" d="m278.13,185.92c4.72,6.55,9.11,13.34,13.17,20.36,5.13-8.86,9.76-18.05,13.76-27.57-8.23-6.25-16.83-11.89-25.71-17,0,8.11-.42,16.18-1.23,24.22Z"/>
        <path class="cls-3" d="m278.13,185.92c4.72,6.55,9.11,13.34,13.17,20.36,5.13-8.86,9.76-18.05,13.76-27.57-8.23-6.25-16.83-11.89-25.71-17,0,8.11-.42,16.18-1.23,24.22Z"/>
        <path class="cls-3" d="m278.13,185.92c4.72,6.55,9.11,13.34,13.17,20.36,5.13-8.86,9.76-18.05,13.76-27.57-8.23-6.25-16.83-11.89-25.71-17,0,8.11-.42,16.18-1.23,24.22Z"/>
        <path class="cls-3" d="m126.17,226.64c-4.72-6.55-9.11-13.34-13.17-20.36-5.13,8.86-9.76,18.05-13.76,27.57,8.23,6.25,16.83,11.89,25.71,17,0-8.11.42-16.18,1.23-24.22Z"/>
        <path class="cls-3" d="m126.17,226.64c-4.72-6.55-9.11-13.34-13.17-20.36-5.13,8.86-9.76,18.05-13.76,27.57,8.23,6.25,16.83,11.89,25.71,17,0-8.11.42-16.18,1.23-24.22Z"/>
        <path class="cls-3" d="m126.17,226.64c-4.72-6.55-9.11-13.34-13.17-20.36-5.13,8.86-9.76,18.05-13.76,27.57,8.23,6.25,16.83,11.89,25.71,17,0-8.11.42-16.18,1.23-24.22Z"/>
        <path class="cls-3" d="m129.1,206.28c-1.26-6.74-2.23-13.53-2.92-20.36-4.72,6.55-9.11,13.34-13.17,20.36,4.06,7.02,8.45,13.81,13.17,20.36.69-6.83,1.66-13.62,2.92-20.36Z"/>
        <path class="cls-3" d="m129.1,206.28c-1.26-6.74-2.23-13.53-2.92-20.36-4.72,6.55-9.11,13.34-13.17,20.36,4.06,7.02,8.45,13.81,13.17,20.36.69-6.83,1.66-13.62,2.92-20.36Z"/>
        <path class="cls-3" d="m129.1,206.28c-1.26-6.74-2.23-13.53-2.92-20.36-4.72,6.55-9.11,13.34-13.17,20.36,4.06,7.02,8.45,13.81,13.17,20.36.69-6.83,1.66-13.62,2.92-20.36Z"/>
        <path class="cls-3" d="m129.1,206.28c-1.26-6.74-2.23-13.53-2.92-20.36-4.72,6.55-9.11,13.34-13.17,20.36,4.06,7.02,8.45,13.81,13.17,20.36.69-6.83,1.66-13.62,2.92-20.36Z"/>
        <path class="cls-3" d="m275.21,206.28c1.26,6.74,2.23,13.53,2.92,20.36,4.72-6.55,9.11-13.34,13.17-20.36-4.06-7.02-8.45-13.81-13.17-20.36-.69,6.83-1.66,13.62-2.92,20.36Z"/>
        <path class="cls-3" d="m275.21,206.28c1.26,6.74,2.23,13.53,2.92,20.36,4.72-6.55,9.11-13.34,13.17-20.36-4.06-7.02-8.45-13.81-13.17-20.36-.69,6.83-1.66,13.62-2.92,20.36Z"/>
        <path class="cls-3" d="m275.21,206.28c1.26,6.74,2.23,13.53,2.92,20.36,4.72-6.55,9.11-13.34,13.17-20.36-4.06-7.02-8.45-13.81-13.17-20.36-.69,6.83-1.66,13.62-2.92,20.36Z"/>
        <path class="cls-3" d="m275.21,206.28c1.26,6.74,2.23,13.53,2.92,20.36,4.72-6.55,9.11-13.34,13.17-20.36-4.06-7.02-8.45-13.81-13.17-20.36-.69,6.83-1.66,13.62-2.92,20.36Z"/>
        <path class="cls-3" d="m174.58,309.19c-12.53,5.26-25.61,9.44-39.1,12.57,5.31,17.41,12.59,34.5,22.08,50.94h0s0,0,0,0c16.44-9.49,31.29-20.65,44.59-33.07-10.12-9.45-19.36-19.61-27.57-30.43Z"/>
        <path class="cls-3" d="m229.72,103.37c12.53-5.26,25.61-9.45,39.1-12.57-5.31-17.41-12.59-34.5-22.08-50.94h0s0,0,0,0c-16.44,9.49-31.29,20.65-44.59,33.07,10.12,9.45,19.36,19.61,27.57,30.43Z"/>
        <path class="cls-3" d="m157.58,283.48c-10.24.01-20.51-.57-30.76-1.87,1.71,13.48,4.62,26.9,8.66,40.14,13.49-3.12,26.57-7.31,39.1-12.57-6.25-8.23-11.89-16.83-17-25.71Z"/>
        <path class="cls-3" d="m157.58,283.48c-10.24.01-20.51-.57-30.76-1.87,1.71,13.48,4.62,26.9,8.66,40.14,13.49-3.12,26.57-7.31,39.1-12.57-6.25-8.23-11.89-16.83-17-25.71Z"/>
        <path class="cls-3" d="m246.72,129.08c10.24-.01,20.51.57,30.76,1.87-1.71-13.48-4.62-26.9-8.66-40.14-13.49,3.12-26.57,7.31-39.1,12.57,6.25,8.23,11.89,16.83,17,25.71Z"/>
        <path class="cls-3" d="m246.72,129.08c10.24-.01,20.51.57,30.76,1.87-1.71-13.48-4.62-26.9-8.66-40.14-13.49,3.12-26.57,7.31-39.1,12.57,6.25,8.23,11.89,16.83,17,25.71Z"/>
        <path class="cls-3" d="m279.35,161.71c.01-10.24-.57-20.51-1.87-30.76-10.25-1.3-20.52-1.88-30.76-1.87,4.05,7.02,7.73,14.22,11.05,21.58,7.36,3.31,14.56,7,21.58,11.05Z"/>
        <path class="cls-3" d="m279.35,161.71c.01-10.24-.57-20.51-1.87-30.76-10.25-1.3-20.52-1.88-30.76-1.87,4.05,7.02,7.73,14.22,11.05,21.58,7.36,3.31,14.56,7,21.58,11.05Z"/>
        <path class="cls-3" d="m279.35,161.71c.01-10.24-.57-20.51-1.87-30.76-10.25-1.3-20.52-1.88-30.76-1.87,4.05,7.02,7.73,14.22,11.05,21.58,7.36,3.31,14.56,7,21.58,11.05Z"/>
        <path class="cls-3" d="m124.95,250.85c-.01,10.24.57,20.51,1.87,30.76,10.25,1.3,20.52,1.88,30.76,1.87-4.05-7.02-7.73-14.22-11.05-21.58-7.36-3.31-14.56-7-21.58-11.05Z"/>
        <path class="cls-3" d="m124.95,250.85c-.01,10.24.57,20.51,1.87,30.76,10.25,1.3,20.52,1.88,30.76,1.87-4.05-7.02-7.73-14.22-11.05-21.58-7.36-3.31-14.56-7-21.58-11.05Z"/>
        <path class="cls-3" d="m124.95,250.85c-.01,10.24.57,20.51,1.87,30.76,10.25,1.3,20.52,1.88,30.76,1.87-4.05-7.02-7.73-14.22-11.05-21.58-7.36-3.31-14.56-7-21.58-11.05Z"/>
        <path class="cls-3" d="m138.88,242.81c-4.46-5.21-8.7-10.6-12.71-16.17-.81,8.03-1.22,16.11-1.23,24.22,7.02,4.05,14.22,7.73,21.58,11.05-2.82-6.26-5.37-12.63-7.65-19.09Z"/>
        <path class="cls-3" d="m138.88,242.81c-4.46-5.21-8.7-10.6-12.71-16.17-.81,8.03-1.22,16.11-1.23,24.22,7.02,4.05,14.22,7.73,21.58,11.05-2.82-6.26-5.37-12.63-7.65-19.09Z"/>
        <path class="cls-3" d="m138.88,242.81c-4.46-5.21-8.7-10.6-12.71-16.17-.81,8.03-1.22,16.11-1.23,24.22,7.02,4.05,14.22,7.73,21.58,11.05-2.82-6.26-5.37-12.63-7.65-19.09Z"/>
        <path class="cls-3" d="m138.88,242.81c-4.46-5.21-8.7-10.6-12.71-16.17-.81,8.03-1.22,16.11-1.23,24.22,7.02,4.05,14.22,7.73,21.58,11.05-2.82-6.26-5.37-12.63-7.65-19.09Z"/>
        <path class="cls-3" d="m265.42,169.75c4.46,5.21,8.7,10.6,12.71,16.17.81-8.03,1.22-16.11,1.23-24.22-7.02-4.05-14.22-7.73-21.58-11.05,2.82,6.26,5.37,12.63,7.65,19.09Z"/>
        <path class="cls-3" d="m265.42,169.75c4.46,5.21,8.7,10.6,12.71,16.17.81-8.03,1.22-16.11,1.23-24.22-7.02-4.05-14.22-7.73-21.58-11.05,2.82,6.26,5.37,12.63,7.65,19.09Z"/>
        <path class="cls-3" d="m265.42,169.75c4.46,5.21,8.7,10.6,12.71,16.17.81-8.03,1.22-16.11,1.23-24.22-7.02-4.05-14.22-7.73-21.58-11.05,2.82,6.26,5.37,12.63,7.65,19.09Z"/>
        <path class="cls-3" d="m265.42,169.75c4.46,5.21,8.7,10.6,12.71,16.17.81-8.03,1.22-16.11,1.23-24.22-7.02-4.05-14.22-7.73-21.58-11.05,2.82,6.26,5.37,12.63,7.65,19.09Z"/>
        <path class="cls-3" d="m126.17,226.64c4.01,5.57,8.25,10.96,12.71,16.17-4.2-11.91-7.47-24.12-9.79-36.53-1.26,6.74-2.23,13.53-2.92,20.36Z"/>
        <path class="cls-3" d="m126.17,226.64c4.01,5.57,8.25,10.96,12.71,16.17-4.2-11.91-7.47-24.12-9.79-36.53-1.26,6.74-2.23,13.53-2.92,20.36Z"/>
        <path class="cls-3" d="m126.17,226.64c4.01,5.57,8.25,10.96,12.71,16.17-4.2-11.91-7.47-24.12-9.79-36.53-1.26,6.74-2.23,13.53-2.92,20.36Z"/>
        <path class="cls-3" d="m126.17,226.64c4.01,5.57,8.25,10.96,12.71,16.17-4.2-11.91-7.47-24.12-9.79-36.53-1.26,6.74-2.23,13.53-2.92,20.36Z"/>
        <path class="cls-3" d="m126.17,226.64c4.01,5.57,8.25,10.96,12.71,16.17-4.2-11.91-7.47-24.12-9.79-36.53-1.26,6.74-2.23,13.53-2.92,20.36Z"/>
        <path class="cls-3" d="m278.13,185.92c-4.01-5.57-8.25-10.96-12.71-16.17,4.2,11.91,7.47,24.12,9.79,36.53,1.26-6.74,2.23-13.53,2.92-20.36Z"/>
        <path class="cls-3" d="m278.13,185.92c-4.01-5.57-8.25-10.96-12.71-16.17,4.2,11.91,7.47,24.12,9.79,36.53,1.26-6.74,2.23-13.53,2.92-20.36Z"/>
        <path class="cls-3" d="m278.13,185.92c-4.01-5.57-8.25-10.96-12.71-16.17,4.2,11.91,7.47,24.12,9.79,36.53,1.26-6.74,2.23-13.53,2.92-20.36Z"/>
        <path class="cls-3" d="m278.13,185.92c-4.01-5.57-8.25-10.96-12.71-16.17,4.2,11.91,7.47,24.12,9.79,36.53,1.26-6.74,2.23-13.53,2.92-20.36Z"/>
        <path class="cls-3" d="m278.13,185.92c-4.01-5.57-8.25-10.96-12.71-16.17,4.2,11.91,7.47,24.12,9.79,36.53,1.26-6.74,2.23-13.53,2.92-20.36Z"/>
        <path class="cls-3" d="m202.15,72.94c-13.3-12.42-28.15-23.58-44.59-33.07h0c-9.49,16.44-16.77,33.53-22.08,50.94,13.49,3.12,26.57,7.31,39.1,12.57,8.22-10.82,17.45-20.98,27.57-30.43Z"/>
        <path class="cls-3" d="m202.15,339.62c13.3,12.42,28.15,23.58,44.59,33.07h0c9.49-16.44,16.77-33.53,22.08-50.94-13.49-3.12-26.57-7.31-39.1-12.57-8.22,10.82-17.45,20.98-27.57,30.43Z"/>
        <path class="cls-3" d="m246.72,283.48c-5.11,8.87-10.75,17.48-17,25.71,12.53,5.26,25.61,9.44,39.1,12.57,4.04-13.24,6.96-26.66,8.66-40.14-10.25,1.3-20.52,1.88-30.76,1.87Z"/>
        <path class="cls-3" d="m246.72,283.48c-5.11,8.87-10.75,17.48-17,25.71,12.53,5.26,25.61,9.44,39.1,12.57,4.04-13.24,6.96-26.66,8.66-40.14-10.25,1.3-20.52,1.88-30.76,1.87Z"/>
        <path class="cls-3" d="m157.58,129.08c5.11-8.87,10.75-17.48,17-25.71-12.53-5.26-25.61-9.44-39.1-12.57-4.04,13.24-6.96,26.66-8.66,40.14,10.25-1.3,20.52-1.88,30.76-1.87Z"/>
        <path class="cls-3" d="m157.58,129.08c5.11-8.87,10.75-17.48,17-25.71-12.53-5.26-25.61-9.44-39.1-12.57-4.04,13.24-6.96,26.66-8.66,40.14,10.25-1.3,20.52-1.88,30.76-1.87Z"/>
        <path class="cls-3" d="m246.72,283.48c10.24.01,20.51-.57,30.76-1.87,1.3-10.25,1.88-20.52,1.87-30.76-7.02,4.05-14.22,7.73-21.58,11.05-3.31,7.36-7,14.56-11.05,21.58Z"/>
        <path class="cls-3" d="m246.72,283.48c10.24.01,20.51-.57,30.76-1.87,1.3-10.25,1.88-20.52,1.87-30.76-7.02,4.05-14.22,7.73-21.58,11.05-3.31,7.36-7,14.56-11.05,21.58Z"/>
        <path class="cls-3" d="m246.72,283.48c10.24.01,20.51-.57,30.76-1.87,1.3-10.25,1.88-20.52,1.87-30.76-7.02,4.05-14.22,7.73-21.58,11.05-3.31,7.36-7,14.56-11.05,21.58Z"/>
        <path class="cls-3" d="m157.58,129.08c-10.24-.01-20.51.57-30.76,1.87-1.3,10.25-1.88,20.52-1.87,30.76,7.02-4.05,14.22-7.73,21.58-11.05,3.31-7.36,7-14.56,11.05-21.58Z"/>
        <path class="cls-3" d="m157.58,129.08c-10.24-.01-20.51.57-30.76,1.87-1.3,10.25-1.88,20.52-1.87,30.76,7.02-4.05,14.22-7.73,21.58-11.05,3.31-7.36,7-14.56,11.05-21.58Z"/>
        <path class="cls-3" d="m157.58,129.08c-10.24-.01-20.51.57-30.76,1.87-1.3,10.25-1.88,20.52-1.87,30.76,7.02-4.05,14.22-7.73,21.58-11.05,3.31-7.36,7-14.56,11.05-21.58Z"/>
        <path class="cls-3" d="m126.17,185.92c4.01-5.57,8.25-10.96,12.71-16.17,2.28-6.46,4.83-12.83,7.65-19.09-7.36,3.31-14.56,7-21.58,11.05,0,8.11.42,16.18,1.23,24.22Z"/>
        <path class="cls-3" d="m126.17,185.92c4.01-5.57,8.25-10.96,12.71-16.17,2.28-6.46,4.83-12.83,7.65-19.09-7.36,3.31-14.56,7-21.58,11.05,0,8.11.42,16.18,1.23,24.22Z"/>
        <path class="cls-3" d="m126.17,185.92c4.01-5.57,8.25-10.96,12.71-16.17,2.28-6.46,4.83-12.83,7.65-19.09-7.36,3.31-14.56,7-21.58,11.05,0,8.11.42,16.18,1.23,24.22Z"/>
        <path class="cls-3" d="m126.17,185.92c4.01-5.57,8.25-10.96,12.71-16.17,2.28-6.46,4.83-12.83,7.65-19.09-7.36,3.31-14.56,7-21.58,11.05,0,8.11.42,16.18,1.23,24.22Z"/>
        <path class="cls-3" d="m278.13,226.64c-4.01,5.57-8.25,10.96-12.71,16.17-2.28,6.46-4.83,12.83-7.65,19.09,7.36-3.31,14.56-7,21.58-11.05,0-8.11-.42-16.18-1.23-24.22Z"/>
        <path class="cls-3" d="m278.13,226.64c-4.01,5.57-8.25,10.96-12.71,16.17-2.28,6.46-4.83,12.83-7.65,19.09,7.36-3.31,14.56-7,21.58-11.05,0-8.11-.42-16.18-1.23-24.22Z"/>
        <path class="cls-3" d="m278.13,226.64c-4.01,5.57-8.25,10.96-12.71,16.17-2.28,6.46-4.83,12.83-7.65,19.09,7.36-3.31,14.56-7,21.58-11.05,0-8.11-.42-16.18-1.23-24.22Z"/>
        <path class="cls-3" d="m278.13,226.64c-4.01,5.57-8.25,10.96-12.71,16.17-2.28,6.46-4.83,12.83-7.65,19.09,7.36-3.31,14.56-7,21.58-11.05,0-8.11-.42-16.18-1.23-24.22Z"/>
        <path class="cls-3" d="m265.42,242.81c4.46-5.21,8.7-10.6,12.71-16.17-.69-6.83-1.66-13.62-2.92-20.36-2.32,12.41-5.59,24.62-9.79,36.53Z"/>
        <path class="cls-3" d="m265.42,242.81c4.46-5.21,8.7-10.6,12.71-16.17-.69-6.83-1.66-13.62-2.92-20.36-2.32,12.41-5.59,24.62-9.79,36.53Z"/>
        <path class="cls-3" d="m265.42,242.81c4.46-5.21,8.7-10.6,12.71-16.17-.69-6.83-1.66-13.62-2.92-20.36-2.32,12.41-5.59,24.62-9.79,36.53Z"/>
        <path class="cls-3" d="m265.42,242.81c4.46-5.21,8.7-10.6,12.71-16.17-.69-6.83-1.66-13.62-2.92-20.36-2.32,12.41-5.59,24.62-9.79,36.53Z"/>
        <path class="cls-3" d="m265.42,242.81c4.46-5.21,8.7-10.6,12.71-16.17-.69-6.83-1.66-13.62-2.92-20.36-2.32,12.41-5.59,24.62-9.79,36.53Z"/>
        <path class="cls-3" d="m126.17,185.92c.69,6.83,1.66,13.62,2.92,20.36,2.32-12.41,5.59-24.62,9.79-36.53-4.46,5.21-8.7,10.6-12.71,16.17Z"/>
        <path class="cls-3" d="m126.17,185.92c.69,6.83,1.66,13.62,2.92,20.36,2.32-12.41,5.59-24.62,9.79-36.53-4.46,5.21-8.7,10.6-12.71,16.17Z"/>
        <path class="cls-3" d="m126.17,185.92c.69,6.83,1.66,13.62,2.92,20.36,2.32-12.41,5.59-24.62,9.79-36.53-4.46,5.21-8.7,10.6-12.71,16.17Z"/>
        <path class="cls-3" d="m126.17,185.92c.69,6.83,1.66,13.62,2.92,20.36,2.32-12.41,5.59-24.62,9.79-36.53-4.46,5.21-8.7,10.6-12.71,16.17Z"/>
        <path class="cls-3" d="m126.17,185.92c.69,6.83,1.66,13.62,2.92,20.36,2.32-12.41,5.59-24.62,9.79-36.53-4.46,5.21-8.7,10.6-12.71,16.17Z"/>
        <path class="cls-3" d="m174.58,103.37c9.52,4,18.71,8.63,27.57,13.76,8.86-5.13,18.05-9.76,27.57-13.76-8.22-10.82-17.45-20.98-27.57-30.43-10.12,9.45-19.36,19.61-27.57,30.43Z"/>
        <path class="cls-3" d="m174.58,103.37c9.52,4,18.71,8.63,27.57,13.76,8.86-5.13,18.05-9.76,27.57-13.76-8.22-10.82-17.45-20.98-27.57-30.43-10.12,9.45-19.36,19.61-27.57,30.43Z"/>
        <path class="cls-3" d="m229.73,309.19c-9.52-4-18.71-8.63-27.57-13.76-8.86,5.13-18.05,9.76-27.57,13.76,8.22,10.82,17.45,20.98,27.57,30.43,10.12-9.45,19.36-19.61,27.57-30.43Z"/>
        <path class="cls-3" d="m229.73,309.19c-9.52-4-18.71-8.63-27.57-13.76-8.86,5.13-18.05,9.76-27.57,13.76,8.22,10.82,17.45,20.98,27.57,30.43,10.12-9.45,19.36-19.61,27.57-30.43Z"/>
        <path class="cls-3" d="m222.51,282.26c-6.55,4.72-13.34,9.11-20.36,13.17,8.86,5.13,18.05,9.76,27.57,13.76,6.25-8.23,11.89-16.83,17-25.71-8.11,0-16.18-.42-24.22-1.23Z"/>
        <path class="cls-3" d="m222.51,282.26c-6.55,4.72-13.34,9.11-20.36,13.17,8.86,5.13,18.05,9.76,27.57,13.76,6.25-8.23,11.89-16.83,17-25.71-8.11,0-16.18-.42-24.22-1.23Z"/>
        <path class="cls-3" d="m222.51,282.26c-6.55,4.72-13.34,9.11-20.36,13.17,8.86,5.13,18.05,9.76,27.57,13.76,6.25-8.23,11.89-16.83,17-25.71-8.11,0-16.18-.42-24.22-1.23Z"/>
        <path class="cls-3" d="m181.79,130.31c6.55-4.72,13.34-9.11,20.36-13.17-8.86-5.13-18.05-9.76-27.57-13.76-6.25,8.23-11.89,16.83-17,25.71,8.11,0,16.18.42,24.22,1.23Z"/>
        <path class="cls-3" d="m181.79,130.31c6.55-4.72,13.34-9.11,20.36-13.17-8.86-5.13-18.05-9.76-27.57-13.76-6.25,8.23-11.89,16.83-17,25.71,8.11,0,16.18.42,24.22,1.23Z"/>
        <path class="cls-3" d="m181.79,130.31c6.55-4.72,13.34-9.11,20.36-13.17-8.86-5.13-18.05-9.76-27.57-13.76-6.25,8.23-11.89,16.83-17,25.71,8.11,0,16.18.42,24.22,1.23Z"/>
        <path class="cls-3" d="m165.62,143.01c5.21-4.46,10.6-8.7,16.17-12.71-8.03-.81-16.11-1.22-24.22-1.23-4.05,7.02-7.73,14.22-11.05,21.58,6.26-2.82,12.63-5.37,19.09-7.65Z"/>
        <path class="cls-3" d="m165.62,143.01c5.21-4.46,10.6-8.7,16.17-12.71-8.03-.81-16.11-1.22-24.22-1.23-4.05,7.02-7.73,14.22-11.05,21.58,6.26-2.82,12.63-5.37,19.09-7.65Z"/>
        <path class="cls-3" d="m165.62,143.01c5.21-4.46,10.6-8.7,16.17-12.71-8.03-.81-16.11-1.22-24.22-1.23-4.05,7.02-7.73,14.22-11.05,21.58,6.26-2.82,12.63-5.37,19.09-7.65Z"/>
        <path class="cls-3" d="m165.62,143.01c5.21-4.46,10.6-8.7,16.17-12.71-8.03-.81-16.11-1.22-24.22-1.23-4.05,7.02-7.73,14.22-11.05,21.58,6.26-2.82,12.63-5.37,19.09-7.65Z"/>
        <path class="cls-3" d="m238.68,269.55c-5.21,4.46-10.6,8.7-16.17,12.71,8.03.81,16.11,1.22,24.22,1.23,4.05-7.02,7.73-14.22,11.05-21.58-6.26,2.82-12.63,5.37-19.09,7.65Z"/>
        <path class="cls-3" d="m238.68,269.55c-5.21,4.46-10.6,8.7-16.17,12.71,8.03.81,16.11,1.22,24.22,1.23,4.05-7.02,7.73-14.22,11.05-21.58-6.26,2.82-12.63,5.37-19.09,7.65Z"/>
        <path class="cls-3" d="m238.68,269.55c-5.21,4.46-10.6,8.7-16.17,12.71,8.03.81,16.11,1.22,24.22,1.23,4.05-7.02,7.73-14.22,11.05-21.58-6.26,2.82-12.63,5.37-19.09,7.65Z"/>
        <path class="cls-3" d="m238.68,269.55c-5.21,4.46-10.6,8.7-16.17,12.71,8.03.81,16.11,1.22,24.22,1.23,4.05-7.02,7.73-14.22,11.05-21.58-6.26,2.82-12.63,5.37-19.09,7.65Z"/>
        <path class="cls-3" d="m165.62,143.01c-6.46,2.28-12.83,4.83-19.09,7.65-2.82,6.26-5.37,12.63-7.65,19.09,8.21-9.59,17.15-18.53,26.74-26.74Z"/>
        <path class="cls-3" d="m165.62,143.01c-6.46,2.28-12.83,4.83-19.09,7.65-2.82,6.26-5.37,12.63-7.65,19.09,8.21-9.59,17.15-18.53,26.74-26.74Z"/>
        <path class="cls-3" d="m165.62,143.01c-6.46,2.28-12.83,4.83-19.09,7.65-2.82,6.26-5.37,12.63-7.65,19.09,8.21-9.59,17.15-18.53,26.74-26.74Z"/>
        <path class="cls-3" d="m165.62,143.01c-6.46,2.28-12.83,4.83-19.09,7.65-2.82,6.26-5.37,12.63-7.65,19.09,8.21-9.59,17.15-18.53,26.74-26.74Z"/>
        <path class="cls-3" d="m165.62,143.01c-6.46,2.28-12.83,4.83-19.09,7.65-2.82,6.26-5.37,12.63-7.65,19.09,8.21-9.59,17.15-18.53,26.74-26.74Z"/>
        <path class="cls-3" d="m238.68,269.55c6.46-2.28,12.83-4.83,19.09-7.65,2.82-6.26,5.37-12.63,7.65-19.09-8.21,9.59-17.15,18.53-26.74,26.74Z"/>
        <path class="cls-3" d="m238.68,269.55c6.46-2.28,12.83-4.83,19.09-7.65,2.82-6.26,5.37-12.63,7.65-19.09-8.21,9.59-17.15,18.53-26.74,26.74Z"/>
        <path class="cls-3" d="m238.68,269.55c6.46-2.28,12.83-4.83,19.09-7.65,2.82-6.26,5.37-12.63,7.65-19.09-8.21,9.59-17.15,18.53-26.74,26.74Z"/>
        <path class="cls-3" d="m238.68,269.55c6.46-2.28,12.83-4.83,19.09-7.65,2.82-6.26,5.37-12.63,7.65-19.09-8.21,9.59-17.15,18.53-26.74,26.74Z"/>
        <path class="cls-3" d="m238.68,269.55c6.46-2.28,12.83-4.83,19.09-7.65,2.82-6.26,5.37-12.63,7.65-19.09-8.21,9.59-17.15,18.53-26.74,26.74Z"/>
        <path class="cls-3" d="m157.58,283.48c5.11,8.87,10.75,17.48,17,25.71,9.52-4,18.71-8.63,27.57-13.76-7.02-4.06-13.81-8.45-20.36-13.17-8.03.81-16.11,1.22-24.22,1.23Z"/>
        <path class="cls-3" d="m157.58,283.48c5.11,8.87,10.75,17.48,17,25.71,9.52-4,18.71-8.63,27.57-13.76-7.02-4.06-13.81-8.45-20.36-13.17-8.03.81-16.11,1.22-24.22,1.23Z"/>
        <path class="cls-3" d="m157.58,283.48c5.11,8.87,10.75,17.48,17,25.71,9.52-4,18.71-8.63,27.57-13.76-7.02-4.06-13.81-8.45-20.36-13.17-8.03.81-16.11,1.22-24.22,1.23Z"/>
        <path class="cls-3" d="m246.72,129.08c-5.11-8.87-10.75-17.48-17-25.71-9.52,4-18.71,8.63-27.57,13.76,7.02,4.06,13.81,8.45,20.36,13.17,8.03-.81,16.11-1.22,24.22-1.23Z"/>
        <path class="cls-3" d="m246.72,129.08c-5.11-8.87-10.75-17.48-17-25.71-9.52,4-18.71,8.63-27.57,13.76,7.02,4.06,13.81,8.45,20.36,13.17,8.03-.81,16.11-1.22,24.22-1.23Z"/>
        <path class="cls-3" d="m246.72,129.08c-5.11-8.87-10.75-17.48-17-25.71-9.52,4-18.71,8.63-27.57,13.76,7.02,4.06,13.81,8.45,20.36,13.17,8.03-.81,16.11-1.22,24.22-1.23Z"/>
        <path class="cls-3" d="m202.15,279.34c-6.74,1.26-13.53,2.23-20.36,2.92,6.55,4.72,13.34,9.11,20.36,13.17,7.02-4.06,13.81-8.45,20.36-13.17-6.83-.69-13.62-1.66-20.36-2.92Z"/>
        <path class="cls-3" d="m202.15,279.34c-6.74,1.26-13.53,2.23-20.36,2.92,6.55,4.72,13.34,9.11,20.36,13.17,7.02-4.06,13.81-8.45,20.36-13.17-6.83-.69-13.62-1.66-20.36-2.92Z"/>
        <path class="cls-3" d="m202.15,279.34c-6.74,1.26-13.53,2.23-20.36,2.92,6.55,4.72,13.34,9.11,20.36,13.17,7.02-4.06,13.81-8.45,20.36-13.17-6.83-.69-13.62-1.66-20.36-2.92Z"/>
        <path class="cls-3" d="m202.15,279.34c-6.74,1.26-13.53,2.23-20.36,2.92,6.55,4.72,13.34,9.11,20.36,13.17,7.02-4.06,13.81-8.45,20.36-13.17-6.83-.69-13.62-1.66-20.36-2.92Z"/>
        <path class="cls-3" d="m202.15,133.23c6.74-1.26,13.53-2.23,20.36-2.92-6.55-4.72-13.34-9.11-20.36-13.17-7.02,4.06-13.81,8.45-20.36,13.17,6.83.69,13.62,1.66,20.36,2.92Z"/>
        <path class="cls-3" d="m202.15,133.23c6.74-1.26,13.53-2.23,20.36-2.92-6.55-4.72-13.34-9.11-20.36-13.17-7.02,4.06-13.81,8.45-20.36,13.17,6.83.69,13.62,1.66,20.36,2.92Z"/>
        <path class="cls-3" d="m202.15,133.23c6.74-1.26,13.53-2.23,20.36-2.92-6.55-4.72-13.34-9.11-20.36-13.17-7.02,4.06-13.81,8.45-20.36,13.17,6.83.69,13.62,1.66,20.36,2.92Z"/>
        <path class="cls-3" d="m202.15,133.23c6.74-1.26,13.53-2.23,20.36-2.92-6.55-4.72-13.34-9.11-20.36-13.17-7.02,4.06-13.81,8.45-20.36,13.17,6.83.69,13.62,1.66,20.36,2.92Z"/>
        <path class="cls-3" d="m181.79,130.31c-5.57,4.01-10.96,8.25-16.17,12.71,11.91-4.2,24.12-7.47,36.53-9.79-6.74-1.26-13.53-2.23-20.36-2.92Z"/>
        <path class="cls-3" d="m181.79,130.31c-5.57,4.01-10.96,8.25-16.17,12.71,11.91-4.2,24.12-7.47,36.53-9.79-6.74-1.26-13.53-2.23-20.36-2.92Z"/>
        <path class="cls-3" d="m181.79,130.31c-5.57,4.01-10.96,8.25-16.17,12.71,11.91-4.2,24.12-7.47,36.53-9.79-6.74-1.26-13.53-2.23-20.36-2.92Z"/>
        <path class="cls-3" d="m181.79,130.31c-5.57,4.01-10.96,8.25-16.17,12.71,11.91-4.2,24.12-7.47,36.53-9.79-6.74-1.26-13.53-2.23-20.36-2.92Z"/>
        <path class="cls-3" d="m181.79,130.31c-5.57,4.01-10.96,8.25-16.17,12.71,11.91-4.2,24.12-7.47,36.53-9.79-6.74-1.26-13.53-2.23-20.36-2.92Z"/>
        <path class="cls-3" d="m222.51,282.26c5.57-4.01,10.96-8.25,16.17-12.71-11.91,4.2-24.12,7.47-36.53,9.79,6.74,1.26,13.53,2.23,20.36,2.92Z"/>
        <path class="cls-3" d="m222.51,282.26c5.57-4.01,10.96-8.25,16.17-12.71-11.91,4.2-24.12,7.47-36.53,9.79,6.74,1.26,13.53,2.23,20.36,2.92Z"/>
        <path class="cls-3" d="m222.51,282.26c5.57-4.01,10.96-8.25,16.17-12.71-11.91,4.2-24.12,7.47-36.53,9.79,6.74,1.26,13.53,2.23,20.36,2.92Z"/>
        <path class="cls-3" d="m222.51,282.26c5.57-4.01,10.96-8.25,16.17-12.71-11.91,4.2-24.12,7.47-36.53,9.79,6.74,1.26,13.53,2.23,20.36,2.92Z"/>
        <path class="cls-3" d="m222.51,282.26c5.57-4.01,10.96-8.25,16.17-12.71-11.91,4.2-24.12,7.47-36.53,9.79,6.74,1.26,13.53,2.23,20.36,2.92Z"/>
        <path class="cls-3" d="m222.51,130.31c5.57,4.01,10.96,8.25,16.17,12.71,6.46,2.28,12.83,4.83,19.09,7.65-3.31-7.36-7-14.56-11.05-21.58-8.11,0-16.18.42-24.22,1.23Z"/>
        <path class="cls-3" d="m222.51,130.31c5.57,4.01,10.96,8.25,16.17,12.71,6.46,2.28,12.83,4.83,19.09,7.65-3.31-7.36-7-14.56-11.05-21.58-8.11,0-16.18.42-24.22,1.23Z"/>
        <path class="cls-3" d="m222.51,130.31c5.57,4.01,10.96,8.25,16.17,12.71,6.46,2.28,12.83,4.83,19.09,7.65-3.31-7.36-7-14.56-11.05-21.58-8.11,0-16.18.42-24.22,1.23Z"/>
        <path class="cls-3" d="m222.51,130.31c5.57,4.01,10.96,8.25,16.17,12.71,6.46,2.28,12.83,4.83,19.09,7.65-3.31-7.36-7-14.56-11.05-21.58-8.11,0-16.18.42-24.22,1.23Z"/>
        <path class="cls-3" d="m181.79,282.26c-5.57-4.01-10.96-8.25-16.17-12.71-6.46-2.28-12.83-4.83-19.09-7.65,3.31,7.36,7,14.56,11.05,21.58,8.11,0,16.18-.42,24.22-1.23Z"/>
        <path class="cls-3" d="m181.79,282.26c-5.57-4.01-10.96-8.25-16.17-12.71-6.46-2.28-12.83-4.83-19.09-7.65,3.31,7.36,7,14.56,11.05,21.58,8.11,0,16.18-.42,24.22-1.23Z"/>
        <path class="cls-3" d="m181.79,282.26c-5.57-4.01-10.96-8.25-16.17-12.71-6.46-2.28-12.83-4.83-19.09-7.65,3.31,7.36,7,14.56,11.05,21.58,8.11,0,16.18-.42,24.22-1.23Z"/>
        <path class="cls-3" d="m181.79,282.26c-5.57-4.01-10.96-8.25-16.17-12.71-6.46-2.28-12.83-4.83-19.09-7.65,3.31,7.36,7,14.56,11.05,21.58,8.11,0,16.18-.42,24.22-1.23Z"/>
        <path class="cls-3" d="m181.79,282.26c6.83-.69,13.62-1.66,20.36-2.92-12.41-2.32-24.62-5.59-36.53-9.79,5.21,4.46,10.6,8.7,16.17,12.71Z"/>
        <path class="cls-3" d="m181.79,282.26c6.83-.69,13.62-1.66,20.36-2.92-12.41-2.32-24.62-5.59-36.53-9.79,5.21,4.46,10.6,8.7,16.17,12.71Z"/>
        <path class="cls-3" d="m181.79,282.26c6.83-.69,13.62-1.66,20.36-2.92-12.41-2.32-24.62-5.59-36.53-9.79,5.21,4.46,10.6,8.7,16.17,12.71Z"/>
        <path class="cls-3" d="m181.79,282.26c6.83-.69,13.62-1.66,20.36-2.92-12.41-2.32-24.62-5.59-36.53-9.79,5.21,4.46,10.6,8.7,16.17,12.71Z"/>
        <path class="cls-3" d="m181.79,282.26c6.83-.69,13.62-1.66,20.36-2.92-12.41-2.32-24.62-5.59-36.53-9.79,5.21,4.46,10.6,8.7,16.17,12.71Z"/>
        <path class="cls-3" d="m222.51,130.31c-6.83.69-13.62,1.66-20.36,2.92,12.41,2.32,24.62,5.59,36.53,9.79-5.21-4.46-10.6-8.7-16.17-12.71Z"/>
        <path class="cls-3" d="m222.51,130.31c-6.83.69-13.62,1.66-20.36,2.92,12.41,2.32,24.62,5.59,36.53,9.79-5.21-4.46-10.6-8.7-16.17-12.71Z"/>
        <path class="cls-3" d="m222.51,130.31c-6.83.69-13.62,1.66-20.36,2.92,12.41,2.32,24.62,5.59,36.53,9.79-5.21-4.46-10.6-8.7-16.17-12.71Z"/>
        <path class="cls-3" d="m222.51,130.31c-6.83.69-13.62,1.66-20.36,2.92,12.41,2.32,24.62,5.59,36.53,9.79-5.21-4.46-10.6-8.7-16.17-12.71Z"/>
        <path class="cls-3" d="m222.51,130.31c-6.83.69-13.62,1.66-20.36,2.92,12.41,2.32,24.62,5.59,36.53,9.79-5.21-4.46-10.6-8.7-16.17-12.71Z"/>
        <path class="cls-3" d="m138.88,242.81c2.28,6.46,4.83,12.83,7.65,19.09,6.26,2.82,12.63,5.37,19.09,7.65-9.59-8.21-18.53-17.15-26.74-26.74Z"/>
        <path class="cls-3" d="m138.88,242.81c2.28,6.46,4.83,12.83,7.65,19.09,6.26,2.82,12.63,5.37,19.09,7.65-9.59-8.21-18.53-17.15-26.74-26.74Z"/>
        <path class="cls-3" d="m138.88,242.81c2.28,6.46,4.83,12.83,7.65,19.09,6.26,2.82,12.63,5.37,19.09,7.65-9.59-8.21-18.53-17.15-26.74-26.74Z"/>
        <path class="cls-3" d="m138.88,242.81c2.28,6.46,4.83,12.83,7.65,19.09,6.26,2.82,12.63,5.37,19.09,7.65-9.59-8.21-18.53-17.15-26.74-26.74Z"/>
        <path class="cls-3" d="m138.88,242.81c2.28,6.46,4.83,12.83,7.65,19.09,6.26,2.82,12.63,5.37,19.09,7.65-9.59-8.21-18.53-17.15-26.74-26.74Z"/>
        <path class="cls-3" d="m265.42,169.75c-2.28-6.46-4.83-12.83-7.65-19.09-6.26-2.82-12.63-5.37-19.09-7.65,9.59,8.21,18.53,17.15,26.74,26.74Z"/>
        <path class="cls-3" d="m265.42,169.75c-2.28-6.46-4.83-12.83-7.65-19.09-6.26-2.82-12.63-5.37-19.09-7.65,9.59,8.21,18.53,17.15,26.74,26.74Z"/>
        <path class="cls-3" d="m265.42,169.75c-2.28-6.46-4.83-12.83-7.65-19.09-6.26-2.82-12.63-5.37-19.09-7.65,9.59,8.21,18.53,17.15,26.74,26.74Z"/>
        <path class="cls-3" d="m265.42,169.75c-2.28-6.46-4.83-12.83-7.65-19.09-6.26-2.82-12.63-5.37-19.09-7.65,9.59,8.21,18.53,17.15,26.74,26.74Z"/>
        <path class="cls-3" d="m265.42,169.75c-2.28-6.46-4.83-12.83-7.65-19.09-6.26-2.82-12.63-5.37-19.09-7.65,9.59,8.21,18.53,17.15,26.74,26.74Z"/>
        <path class="cls-3" d="m265.42,169.75c-8.21-9.59-17.15-18.53-26.74-26.74-11.91-4.2-24.12-7.47-36.53-9.79-12.41,2.32-24.62,5.59-36.53,9.79-9.59,8.21-18.53,17.15-26.74,26.74-4.2,11.91-7.47,24.12-9.79,36.53,2.32,12.41,5.59,24.62,9.79,36.53,8.21,9.59,17.15,18.53,26.74,26.74,11.91,4.2,24.12,7.47,36.53,9.79,12.41-2.32,24.62-5.59,36.53-9.79,9.59-8.21,18.53-17.15,26.74-26.74,4.2-11.91,7.47-24.12,9.79-36.53-2.32-12.41-5.59-24.62-9.79-36.53Z"/>
        <path class="cls-3" d="m265.42,169.75c-8.21-9.59-17.15-18.53-26.74-26.74-11.91-4.2-24.12-7.47-36.53-9.79-12.41,2.32-24.62,5.59-36.53,9.79-9.59,8.21-18.53,17.15-26.74,26.74-4.2,11.91-7.47,24.12-9.79,36.53,2.32,12.41,5.59,24.62,9.79,36.53,8.21,9.59,17.15,18.53,26.74,26.74,11.91,4.2,24.12,7.47,36.53,9.79,12.41-2.32,24.62-5.59,36.53-9.79,9.59-8.21,18.53-17.15,26.74-26.74,4.2-11.91,7.47-24.12,9.79-36.53-2.32-12.41-5.59-24.62-9.79-36.53Z"/>
        <path class="cls-3" d="m265.42,169.75c-8.21-9.59-17.15-18.53-26.74-26.74-11.91-4.2-24.12-7.47-36.53-9.79-12.41,2.32-24.62,5.59-36.53,9.79-9.59,8.21-18.53,17.15-26.74,26.74-4.2,11.91-7.47,24.12-9.79,36.53,2.32,12.41,5.59,24.62,9.79,36.53,8.21,9.59,17.15,18.53,26.74,26.74,11.91,4.2,24.12,7.47,36.53,9.79,12.41-2.32,24.62-5.59,36.53-9.79,9.59-8.21,18.53-17.15,26.74-26.74,4.2-11.91,7.47-24.12,9.79-36.53-2.32-12.41-5.59-24.62-9.79-36.53Z"/>
        <path class="cls-3" d="m265.42,169.75c-8.21-9.59-17.15-18.53-26.74-26.74-11.91-4.2-24.12-7.47-36.53-9.79-12.41,2.32-24.62,5.59-36.53,9.79-9.59,8.21-18.53,17.15-26.74,26.74-4.2,11.91-7.47,24.12-9.79,36.53,2.32,12.41,5.59,24.62,9.79,36.53,8.21,9.59,17.15,18.53,26.74,26.74,11.91,4.2,24.12,7.47,36.53,9.79,12.41-2.32,24.62-5.59,36.53-9.79,9.59-8.21,18.53-17.15,26.74-26.74,4.2-11.91,7.47-24.12,9.79-36.53-2.32-12.41-5.59-24.62-9.79-36.53Z"/>
        <path class="cls-3" d="m265.42,169.75c-8.21-9.59-17.15-18.53-26.74-26.74-11.91-4.2-24.12-7.47-36.53-9.79-12.41,2.32-24.62,5.59-36.53,9.79-9.59,8.21-18.53,17.15-26.74,26.74-4.2,11.91-7.47,24.12-9.79,36.53,2.32,12.41,5.59,24.62,9.79,36.53,8.21,9.59,17.15,18.53,26.74,26.74,11.91,4.2,24.12,7.47,36.53,9.79,12.41-2.32,24.62-5.59,36.53-9.79,9.59-8.21,18.53-17.15,26.74-26.74,4.2-11.91,7.47-24.12,9.79-36.53-2.32-12.41-5.59-24.62-9.79-36.53Z"/>
        <path class="cls-3" d="m265.42,169.75c-8.21-9.59-17.15-18.53-26.74-26.74-11.91-4.2-24.12-7.47-36.53-9.79-12.41,2.32-24.62,5.59-36.53,9.79-9.59,8.21-18.53,17.15-26.74,26.74-4.2,11.91-7.47,24.12-9.79,36.53,2.32,12.41,5.59,24.62,9.79,36.53,8.21,9.59,17.15,18.53,26.74,26.74,11.91,4.2,24.12,7.47,36.53,9.79,12.41-2.32,24.62-5.59,36.53-9.79,9.59-8.21,18.53-17.15,26.74-26.74,4.2-11.91,7.47-24.12,9.79-36.53-2.32-12.41-5.59-24.62-9.79-36.53Z"/>
      </g>
      <circle class="cls-1" cx="202.15" cy="206.28" r="75.33"/>
    </g>
    <text class="cls-2" transform="translate(425.82 316.57)"><tspan class="cls-13" x="0" y="0">Medic</tspan><tspan class="cls-11" x="915.81" y="0">t</tspan><tspan class="cls-14" x="1035.29" y="0">a</tspan><tspan class="cls-10" x="1237.37" y="0">t</tspan><tspan class="cls-13" x="1356.85" y="0">e</tspan></text>
  </g>
  <g>
    <g>
      <g>
        <path class="cls-9" d="m135.48,90.81c-17.73-4.1-36.17-6.35-55.15-6.35h0c0,18.98,2.24,37.42,6.35,55.15,13.24-4.04,26.66-6.96,40.14-8.66,1.71-13.48,4.62-26.9,8.66-40.14Z"/>
        <path class="cls-9" d="m268.82,321.76c17.73,4.1,36.17,6.35,55.15,6.35h0c0-18.98-2.24-37.42-6.35-55.15-13.24,4.04-26.66,6.96-40.14,8.66-1.71,13.48-4.62,26.9-8.66,40.14Z"/>
        <path class="cls-9" d="m335.49,206.28c-9.45,10.12-19.61,19.36-30.43,27.57,5.26,12.53,9.45,25.61,12.57,39.1,17.41-5.31,34.5-12.59,50.94-22.08h0c-9.49-16.44-20.65-31.29-33.07-44.59Z"/>
        <path class="cls-9" d="m99.24,178.71c-5.26-12.53-9.45-25.61-12.57-39.1-17.41,5.31-34.5,12.59-50.94,22.08h0,0c9.49,16.44,20.65,31.29,33.07,44.59,9.45-10.12,19.61-19.36,30.43-27.57Z"/>
        <path class="cls-9" d="m124.95,161.71c-.01-10.24.57-20.51,1.87-30.76-13.48,1.71-26.9,4.62-40.14,8.66,3.12,13.49,7.31,26.57,12.57,39.1,8.23-6.25,16.83-11.89,25.71-17Z"/>
        <path class="cls-9" d="m124.95,161.71c-.01-10.24.57-20.51,1.87-30.76-13.48,1.71-26.9,4.62-40.14,8.66,3.12,13.49,7.31,26.57,12.57,39.1,8.23-6.25,16.83-11.89,25.71-17Z"/>
        <path class="cls-9" d="m279.35,250.85c.01,10.24-.57,20.51-1.87,30.76,13.48-1.71,26.9-4.62,40.14-8.66-3.12-13.49-7.31-26.57-12.57-39.1-8.23,6.25-16.83,11.89-25.71,17Z"/>
        <path class="cls-9" d="m279.35,250.85c.01,10.24-.57,20.51-1.87,30.76,13.48-1.71,26.9-4.62,40.14-8.66-3.12-13.49-7.31-26.57-12.57-39.1-8.23,6.25-16.83,11.89-25.71,17Z"/>
        <path class="cls-9" d="m335.49,206.28c12.42-13.3,23.58-28.15,33.07-44.59h0,0c-16.44-9.49-33.53-16.77-50.94-22.08-3.12,13.49-7.31,26.57-12.57,39.1,10.82,8.22,20.98,17.45,30.43,27.57Z"/>
        <path class="cls-9" d="m68.81,206.28c-12.42,13.3-23.58,28.15-33.07,44.59h0,0c16.44,9.49,33.53,16.77,50.94,22.08,3.12-13.49,7.31-26.57,12.57-39.1-10.82-8.22-20.98-17.45-30.43-27.57Z"/>
        <path class="cls-9" d="m99.24,233.86c4-9.52,8.63-18.71,13.76-27.57-5.13-8.86-9.76-18.05-13.76-27.57-10.82,8.22-20.98,17.45-30.43,27.57,9.45,10.12,19.61,19.36,30.43,27.57Z"/>
        <path class="cls-9" d="m99.24,233.86c4-9.52,8.63-18.71,13.76-27.57-5.13-8.86-9.76-18.05-13.76-27.57-10.82,8.22-20.98,17.45-30.43,27.57,9.45,10.12,19.61,19.36,30.43,27.57Z"/>
        <path class="cls-9" d="m305.06,178.71c-4,9.52-8.63,18.71-13.76,27.57,5.13,8.86,9.76,18.05,13.76,27.57,10.82-8.22,20.98-17.45,30.43-27.57-9.45-10.12-19.61-19.36-30.43-27.57Z"/>
        <path class="cls-9" d="m305.06,178.71c-4,9.52-8.63,18.71-13.76,27.57,5.13,8.86,9.76,18.05,13.76,27.57,10.82-8.22,20.98-17.45,30.43-27.57-9.45-10.12-19.61-19.36-30.43-27.57Z"/>
        <path class="cls-9" d="m124.95,161.71c-8.87,5.11-17.48,10.75-25.71,17,4,9.52,8.63,18.71,13.76,27.57,4.06-7.02,8.45-13.81,13.17-20.36-.81-8.03-1.22-16.11-1.23-24.22Z"/>
        <path class="cls-9" d="m124.95,161.71c-8.87,5.11-17.48,10.75-25.71,17,4,9.52,8.63,18.71,13.76,27.57,4.06-7.02,8.45-13.81,13.17-20.36-.81-8.03-1.22-16.11-1.23-24.22Z"/>
        <path class="cls-9" d="m124.95,161.71c-8.87,5.11-17.48,10.75-25.71,17,4,9.52,8.63,18.71,13.76,27.57,4.06-7.02,8.45-13.81,13.17-20.36-.81-8.03-1.22-16.11-1.23-24.22Z"/>
        <path class="cls-9" d="m278.13,226.64c.81,8.03,1.22,16.11,1.23,24.22,8.87-5.11,17.48-10.75,25.71-17-4-9.52-8.63-18.71-13.76-27.57-4.06,7.02-8.45,13.81-13.17,20.36Z"/>
        <path class="cls-9" d="m278.13,226.64c.81,8.03,1.22,16.11,1.23,24.22,8.87-5.11,17.48-10.75,25.71-17-4-9.52-8.63-18.71-13.76-27.57-4.06,7.02-8.45,13.81-13.17,20.36Z"/>
        <path class="cls-9" d="m278.13,226.64c.81,8.03,1.22,16.11,1.23,24.22,8.87-5.11,17.48-10.75,25.71-17-4-9.52-8.63-18.71-13.76-27.57-4.06,7.02-8.45,13.81-13.17,20.36Z"/>
        <path class="cls-9" d="m86.68,272.95c-4.1,17.73-6.35,36.17-6.35,55.15h0c18.98,0,37.42-2.24,55.15-6.35-4.04-13.24-6.96-26.66-8.66-40.14-13.48-1.71-26.9-4.62-40.14-8.66Z"/>
        <path class="cls-9" d="m317.63,139.61c4.1-17.73,6.35-36.17,6.35-55.15h0s0,0,0,0c-18.98,0-37.42,2.24-55.15,6.35,4.04,13.24,6.96,26.66,8.66,40.14,13.48,1.71,26.9,4.62,40.14,8.66Z"/>
        <path class="cls-9" d="m279.35,161.71c8.87,5.11,17.48,10.75,25.71,17,5.26-12.53,9.45-25.61,12.57-39.1-13.24-4.04-26.66-6.96-40.14-8.66,1.3,10.25,1.88,20.52,1.87,30.76Z"/>
        <path class="cls-9" d="m279.35,161.71c8.87,5.11,17.48,10.75,25.71,17,5.26-12.53,9.45-25.61,12.57-39.1-13.24-4.04-26.66-6.96-40.14-8.66,1.3,10.25,1.88,20.52,1.87,30.76Z"/>
        <path class="cls-9" d="m124.95,250.85c-8.87-5.11-17.48-10.75-25.71-17-5.26,12.53-9.44,25.61-12.57,39.1,13.24,4.04,26.66,6.96,40.14,8.66-1.3-10.25-1.88-20.52-1.87-30.76Z"/>
        <path class="cls-9" d="m124.95,250.85c-8.87-5.11-17.48-10.75-25.71-17-5.26,12.53-9.44,25.61-12.57,39.1,13.24,4.04,26.66,6.96,40.14,8.66-1.3-10.25-1.88-20.52-1.87-30.76Z"/>
        <path class="cls-9" d="m278.13,185.92c4.72,6.55,9.11,13.34,13.17,20.36,5.13-8.86,9.76-18.05,13.76-27.57-8.23-6.25-16.83-11.89-25.71-17,0,8.11-.42,16.18-1.23,24.22Z"/>
        <path class="cls-9" d="m278.13,185.92c4.72,6.55,9.11,13.34,13.17,20.36,5.13-8.86,9.76-18.05,13.76-27.57-8.23-6.25-16.83-11.89-25.71-17,0,8.11-.42,16.18-1.23,24.22Z"/>
        <path class="cls-9" d="m278.13,185.92c4.72,6.55,9.11,13.34,13.17,20.36,5.13-8.86,9.76-18.05,13.76-27.57-8.23-6.25-16.83-11.89-25.71-17,0,8.11-.42,16.18-1.23,24.22Z"/>
        <path class="cls-9" d="m126.17,226.64c-4.72-6.55-9.11-13.34-13.17-20.36-5.13,8.86-9.76,18.05-13.76,27.57,8.23,6.25,16.83,11.89,25.71,17,0-8.11.42-16.18,1.23-24.22Z"/>
        <path class="cls-9" d="m126.17,226.64c-4.72-6.55-9.11-13.34-13.17-20.36-5.13,8.86-9.76,18.05-13.76,27.57,8.23,6.25,16.83,11.89,25.71,17,0-8.11.42-16.18,1.23-24.22Z"/>
        <path class="cls-9" d="m126.17,226.64c-4.72-6.55-9.11-13.34-13.17-20.36-5.13,8.86-9.76,18.05-13.76,27.57,8.23,6.25,16.83,11.89,25.71,17,0-8.11.42-16.18,1.23-24.22Z"/>
        <path class="cls-9" d="m129.1,206.28c-1.26-6.74-2.23-13.53-2.92-20.36-4.72,6.55-9.11,13.34-13.17,20.36,4.06,7.02,8.45,13.81,13.17,20.36.69-6.83,1.66-13.62,2.92-20.36Z"/>
        <path class="cls-9" d="m129.1,206.28c-1.26-6.74-2.23-13.53-2.92-20.36-4.72,6.55-9.11,13.34-13.17,20.36,4.06,7.02,8.45,13.81,13.17,20.36.69-6.83,1.66-13.62,2.92-20.36Z"/>
        <path class="cls-9" d="m129.1,206.28c-1.26-6.74-2.23-13.53-2.92-20.36-4.72,6.55-9.11,13.34-13.17,20.36,4.06,7.02,8.45,13.81,13.17,20.36.69-6.83,1.66-13.62,2.92-20.36Z"/>
        <path class="cls-9" d="m129.1,206.28c-1.26-6.74-2.23-13.53-2.92-20.36-4.72,6.55-9.11,13.34-13.17,20.36,4.06,7.02,8.45,13.81,13.17,20.36.69-6.83,1.66-13.62,2.92-20.36Z"/>
        <path class="cls-9" d="m275.2,206.28c1.26,6.74,2.23,13.53,2.92,20.36,4.72-6.55,9.11-13.34,13.17-20.36-4.06-7.02-8.45-13.81-13.17-20.36-.69,6.83-1.66,13.62-2.92,20.36Z"/>
        <path class="cls-9" d="m275.2,206.28c1.26,6.74,2.23,13.53,2.92,20.36,4.72-6.55,9.11-13.34,13.17-20.36-4.06-7.02-8.45-13.81-13.17-20.36-.69,6.83-1.66,13.62-2.92,20.36Z"/>
        <path class="cls-9" d="m275.2,206.28c1.26,6.74,2.23,13.53,2.92,20.36,4.72-6.55,9.11-13.34,13.17-20.36-4.06-7.02-8.45-13.81-13.17-20.36-.69,6.83-1.66,13.62-2.92,20.36Z"/>
        <path class="cls-9" d="m275.2,206.28c1.26,6.74,2.23,13.53,2.92,20.36,4.72-6.55,9.11-13.34,13.17-20.36-4.06-7.02-8.45-13.81-13.17-20.36-.69,6.83-1.66,13.62-2.92,20.36Z"/>
        <path class="cls-9" d="m174.58,309.19c-12.53,5.26-25.61,9.44-39.1,12.57,5.31,17.41,12.59,34.5,22.08,50.94h0s0,0,0,0c16.44-9.49,31.29-20.65,44.59-33.07-10.12-9.45-19.36-19.61-27.57-30.43Z"/>
        <path class="cls-9" d="m229.72,103.37c12.53-5.26,25.61-9.45,39.1-12.57-5.31-17.41-12.59-34.5-22.08-50.94h0s0,0,0,0c-16.44,9.49-31.29,20.65-44.59,33.07,10.12,9.45,19.36,19.61,27.57,30.43Z"/>
        <path class="cls-9" d="m157.58,283.48c-10.24.01-20.51-.57-30.76-1.87,1.71,13.48,4.62,26.9,8.66,40.14,13.49-3.12,26.57-7.31,39.1-12.57-6.25-8.23-11.89-16.83-17-25.71Z"/>
        <path class="cls-9" d="m157.58,283.48c-10.24.01-20.51-.57-30.76-1.87,1.71,13.48,4.62,26.9,8.66,40.14,13.49-3.12,26.57-7.31,39.1-12.57-6.25-8.23-11.89-16.83-17-25.71Z"/>
        <path class="cls-9" d="m246.72,129.08c10.24-.01,20.51.57,30.76,1.87-1.71-13.48-4.62-26.9-8.66-40.14-13.49,3.12-26.57,7.31-39.1,12.57,6.25,8.23,11.89,16.83,17,25.71Z"/>
        <path class="cls-9" d="m246.72,129.08c10.24-.01,20.51.57,30.76,1.87-1.71-13.48-4.62-26.9-8.66-40.14-13.49,3.12-26.57,7.31-39.1,12.57,6.25,8.23,11.89,16.83,17,25.71Z"/>
        <path class="cls-9" d="m279.35,161.71c.01-10.24-.57-20.51-1.87-30.76-10.25-1.3-20.52-1.88-30.76-1.87,4.05,7.02,7.73,14.22,11.05,21.58,7.36,3.31,14.56,7,21.58,11.05Z"/>
        <path class="cls-9" d="m279.35,161.71c.01-10.24-.57-20.51-1.87-30.76-10.25-1.3-20.52-1.88-30.76-1.87,4.05,7.02,7.73,14.22,11.05,21.58,7.36,3.31,14.56,7,21.58,11.05Z"/>
        <path class="cls-9" d="m279.35,161.71c.01-10.24-.57-20.51-1.87-30.76-10.25-1.3-20.52-1.88-30.76-1.87,4.05,7.02,7.73,14.22,11.05,21.58,7.36,3.31,14.56,7,21.58,11.05Z"/>
        <path class="cls-9" d="m124.95,250.85c-.01,10.24.57,20.51,1.87,30.76,10.25,1.3,20.52,1.88,30.76,1.87-4.05-7.02-7.73-14.22-11.05-21.58-7.36-3.31-14.56-7-21.58-11.05Z"/>
        <path class="cls-9" d="m124.95,250.85c-.01,10.24.57,20.51,1.87,30.76,10.25,1.3,20.52,1.88,30.76,1.87-4.05-7.02-7.73-14.22-11.05-21.58-7.36-3.31-14.56-7-21.58-11.05Z"/>
        <path class="cls-9" d="m124.95,250.85c-.01,10.24.57,20.51,1.87,30.76,10.25,1.3,20.52,1.88,30.76,1.87-4.05-7.02-7.73-14.22-11.05-21.58-7.36-3.31-14.56-7-21.58-11.05Z"/>
        <path class="cls-9" d="m138.88,242.81c-4.46-5.21-8.7-10.6-12.71-16.17-.81,8.03-1.22,16.11-1.23,24.22,7.02,4.05,14.22,7.73,21.58,11.05-2.82-6.26-5.37-12.63-7.65-19.09Z"/>
        <path class="cls-9" d="m138.88,242.81c-4.46-5.21-8.7-10.6-12.71-16.17-.81,8.03-1.22,16.11-1.23,24.22,7.02,4.05,14.22,7.73,21.58,11.05-2.82-6.26-5.37-12.63-7.65-19.09Z"/>
        <path class="cls-9" d="m138.88,242.81c-4.46-5.21-8.7-10.6-12.71-16.17-.81,8.03-1.22,16.11-1.23,24.22,7.02,4.05,14.22,7.73,21.58,11.05-2.82-6.26-5.37-12.63-7.65-19.09Z"/>
        <path class="cls-9" d="m138.88,242.81c-4.46-5.21-8.7-10.6-12.71-16.17-.81,8.03-1.22,16.11-1.23,24.22,7.02,4.05,14.22,7.73,21.58,11.05-2.82-6.26-5.37-12.63-7.65-19.09Z"/>
        <path class="cls-9" d="m265.42,169.75c4.46,5.21,8.7,10.6,12.71,16.17.81-8.03,1.22-16.11,1.23-24.22-7.02-4.05-14.22-7.73-21.58-11.05,2.82,6.26,5.37,12.63,7.65,19.09Z"/>
        <path class="cls-9" d="m265.42,169.75c4.46,5.21,8.7,10.6,12.71,16.17.81-8.03,1.22-16.11,1.23-24.22-7.02-4.05-14.22-7.73-21.58-11.05,2.82,6.26,5.37,12.63,7.65,19.09Z"/>
        <path class="cls-9" d="m265.42,169.75c4.46,5.21,8.7,10.6,12.71,16.17.81-8.03,1.22-16.11,1.23-24.22-7.02-4.05-14.22-7.73-21.58-11.05,2.82,6.26,5.37,12.63,7.65,19.09Z"/>
        <path class="cls-9" d="m265.42,169.75c4.46,5.21,8.7,10.6,12.71,16.17.81-8.03,1.22-16.11,1.23-24.22-7.02-4.05-14.22-7.73-21.58-11.05,2.82,6.26,5.37,12.63,7.65,19.09Z"/>
        <path class="cls-9" d="m126.17,226.64c4.01,5.57,8.25,10.96,12.71,16.17-4.2-11.91-7.47-24.12-9.79-36.53-1.26,6.74-2.23,13.53-2.92,20.36Z"/>
        <path class="cls-9" d="m126.17,226.64c4.01,5.57,8.25,10.96,12.71,16.17-4.2-11.91-7.47-24.12-9.79-36.53-1.26,6.74-2.23,13.53-2.92,20.36Z"/>
        <path class="cls-9" d="m126.17,226.64c4.01,5.57,8.25,10.96,12.71,16.17-4.2-11.91-7.47-24.12-9.79-36.53-1.26,6.74-2.23,13.53-2.92,20.36Z"/>
        <path class="cls-9" d="m126.17,226.64c4.01,5.57,8.25,10.96,12.71,16.17-4.2-11.91-7.47-24.12-9.79-36.53-1.26,6.74-2.23,13.53-2.92,20.36Z"/>
        <path class="cls-9" d="m126.17,226.64c4.01,5.57,8.25,10.96,12.71,16.17-4.2-11.91-7.47-24.12-9.79-36.53-1.26,6.74-2.23,13.53-2.92,20.36Z"/>
        <path class="cls-9" d="m278.13,185.92c-4.01-5.57-8.25-10.96-12.71-16.17,4.2,11.91,7.47,24.12,9.79,36.53,1.26-6.74,2.23-13.53,2.92-20.36Z"/>
        <path class="cls-9" d="m278.13,185.92c-4.01-5.57-8.25-10.96-12.71-16.17,4.2,11.91,7.47,24.12,9.79,36.53,1.26-6.74,2.23-13.53,2.92-20.36Z"/>
        <path class="cls-9" d="m278.13,185.92c-4.01-5.57-8.25-10.96-12.71-16.17,4.2,11.91,7.47,24.12,9.79,36.53,1.26-6.74,2.23-13.53,2.92-20.36Z"/>
        <path class="cls-9" d="m278.13,185.92c-4.01-5.57-8.25-10.96-12.71-16.17,4.2,11.91,7.47,24.12,9.79,36.53,1.26-6.74,2.23-13.53,2.92-20.36Z"/>
        <path class="cls-9" d="m278.13,185.92c-4.01-5.57-8.25-10.96-12.71-16.17,4.2,11.91,7.47,24.12,9.79,36.53,1.26-6.74,2.23-13.53,2.92-20.36Z"/>
        <path class="cls-9" d="m202.15,72.94c-13.3-12.42-28.15-23.58-44.59-33.07h0c-9.49,16.44-16.77,33.53-22.08,50.94,13.49,3.12,26.57,7.31,39.1,12.57,8.22-10.82,17.45-20.98,27.57-30.43Z"/>
        <path class="cls-9" d="m202.15,339.62c13.3,12.42,28.15,23.58,44.59,33.07h0c9.49-16.44,16.77-33.53,22.08-50.94-13.49-3.12-26.57-7.31-39.1-12.57-8.22,10.82-17.45,20.98-27.57,30.43Z"/>
        <path class="cls-9" d="m246.72,283.48c-5.11,8.87-10.75,17.48-17,25.71,12.53,5.26,25.61,9.44,39.1,12.57,4.04-13.24,6.96-26.66,8.66-40.14-10.25,1.3-20.52,1.88-30.76,1.87Z"/>
        <path class="cls-9" d="m246.72,283.48c-5.11,8.87-10.75,17.48-17,25.71,12.53,5.26,25.61,9.44,39.1,12.57,4.04-13.24,6.96-26.66,8.66-40.14-10.25,1.3-20.52,1.88-30.76,1.87Z"/>
        <path class="cls-9" d="m157.58,129.08c5.11-8.87,10.75-17.48,17-25.71-12.53-5.26-25.61-9.44-39.1-12.57-4.04,13.24-6.96,26.66-8.66,40.14,10.25-1.3,20.52-1.88,30.76-1.87Z"/>
        <path class="cls-9" d="m157.58,129.08c5.11-8.87,10.75-17.48,17-25.71-12.53-5.26-25.61-9.44-39.1-12.57-4.04,13.24-6.96,26.66-8.66,40.14,10.25-1.3,20.52-1.88,30.76-1.87Z"/>
        <path class="cls-9" d="m246.72,283.48c10.24.01,20.51-.57,30.76-1.87,1.3-10.25,1.88-20.52,1.87-30.76-7.02,4.05-14.22,7.73-21.58,11.05-3.31,7.36-7,14.56-11.05,21.58Z"/>
        <path class="cls-9" d="m246.72,283.48c10.24.01,20.51-.57,30.76-1.87,1.3-10.25,1.88-20.52,1.87-30.76-7.02,4.05-14.22,7.73-21.58,11.05-3.31,7.36-7,14.56-11.05,21.58Z"/>
        <path class="cls-9" d="m246.72,283.48c10.24.01,20.51-.57,30.76-1.87,1.3-10.25,1.88-20.52,1.87-30.76-7.02,4.05-14.22,7.73-21.58,11.05-3.31,7.36-7,14.56-11.05,21.58Z"/>
        <path class="cls-9" d="m157.58,129.08c-10.24-.01-20.51.57-30.76,1.87-1.3,10.25-1.88,20.52-1.87,30.76,7.02-4.05,14.22-7.73,21.58-11.05,3.31-7.36,7-14.56,11.05-21.58Z"/>
        <path class="cls-9" d="m157.58,129.08c-10.24-.01-20.51.57-30.76,1.87-1.3,10.25-1.88,20.52-1.87,30.76,7.02-4.05,14.22-7.73,21.58-11.05,3.31-7.36,7-14.56,11.05-21.58Z"/>
        <path class="cls-9" d="m157.58,129.08c-10.24-.01-20.51.57-30.76,1.87-1.3,10.25-1.88,20.52-1.87,30.76,7.02-4.05,14.22-7.73,21.58-11.05,3.31-7.36,7-14.56,11.05-21.58Z"/>
        <path class="cls-9" d="m126.17,185.92c4.01-5.57,8.25-10.96,12.71-16.17,2.28-6.46,4.83-12.83,7.65-19.09-7.36,3.31-14.56,7-21.58,11.05,0,8.11.42,16.18,1.23,24.22Z"/>
        <path class="cls-9" d="m126.17,185.92c4.01-5.57,8.25-10.96,12.71-16.17,2.28-6.46,4.83-12.83,7.65-19.09-7.36,3.31-14.56,7-21.58,11.05,0,8.11.42,16.18,1.23,24.22Z"/>
        <path class="cls-9" d="m126.17,185.92c4.01-5.57,8.25-10.96,12.71-16.17,2.28-6.46,4.83-12.83,7.65-19.09-7.36,3.31-14.56,7-21.58,11.05,0,8.11.42,16.18,1.23,24.22Z"/>
        <path class="cls-9" d="m126.17,185.92c4.01-5.57,8.25-10.96,12.71-16.17,2.28-6.46,4.83-12.83,7.65-19.09-7.36,3.31-14.56,7-21.58,11.05,0,8.11.42,16.18,1.23,24.22Z"/>
        <path class="cls-9" d="m278.13,226.64c-4.01,5.57-8.25,10.96-12.71,16.17-2.28,6.46-4.83,12.83-7.65,19.09,7.36-3.31,14.56-7,21.58-11.05,0-8.11-.42-16.18-1.23-24.22Z"/>
        <path class="cls-9" d="m278.13,226.64c-4.01,5.57-8.25,10.96-12.71,16.17-2.28,6.46-4.83,12.83-7.65,19.09,7.36-3.31,14.56-7,21.58-11.05,0-8.11-.42-16.18-1.23-24.22Z"/>
        <path class="cls-9" d="m278.13,226.64c-4.01,5.57-8.25,10.96-12.71,16.17-2.28,6.46-4.83,12.83-7.65,19.09,7.36-3.31,14.56-7,21.58-11.05,0-8.11-.42-16.18-1.23-24.22Z"/>
        <path class="cls-9" d="m278.13,226.64c-4.01,5.57-8.25,10.96-12.71,16.17-2.28,6.46-4.83,12.83-7.65,19.09,7.36-3.31,14.56-7,21.58-11.05,0-8.11-.42-16.18-1.23-24.22Z"/>
        <path class="cls-9" d="m265.42,242.81c4.46-5.21,8.7-10.6,12.71-16.17-.69-6.83-1.66-13.62-2.92-20.36-2.32,12.41-5.59,24.62-9.79,36.53Z"/>
        <path class="cls-9" d="m265.42,242.81c4.46-5.21,8.7-10.6,12.71-16.17-.69-6.83-1.66-13.62-2.92-20.36-2.32,12.41-5.59,24.62-9.79,36.53Z"/>
        <path class="cls-9" d="m265.42,242.81c4.46-5.21,8.7-10.6,12.71-16.17-.69-6.83-1.66-13.62-2.92-20.36-2.32,12.41-5.59,24.62-9.79,36.53Z"/>
        <path class="cls-9" d="m265.42,242.81c4.46-5.21,8.7-10.6,12.71-16.17-.69-6.83-1.66-13.62-2.92-20.36-2.32,12.41-5.59,24.62-9.79,36.53Z"/>
        <path class="cls-9" d="m265.42,242.81c4.46-5.21,8.7-10.6,12.71-16.17-.69-6.83-1.66-13.62-2.92-20.36-2.32,12.41-5.59,24.62-9.79,36.53Z"/>
        <path class="cls-9" d="m126.17,185.92c.69,6.83,1.66,13.62,2.92,20.36,2.32-12.41,5.59-24.62,9.79-36.53-4.46,5.21-8.7,10.6-12.71,16.17Z"/>
        <path class="cls-9" d="m126.17,185.92c.69,6.83,1.66,13.62,2.92,20.36,2.32-12.41,5.59-24.62,9.79-36.53-4.46,5.21-8.7,10.6-12.71,16.17Z"/>
        <path class="cls-9" d="m126.17,185.92c.69,6.83,1.66,13.62,2.92,20.36,2.32-12.41,5.59-24.62,9.79-36.53-4.46,5.21-8.7,10.6-12.71,16.17Z"/>
        <path class="cls-9" d="m126.17,185.92c.69,6.83,1.66,13.62,2.92,20.36,2.32-12.41,5.59-24.62,9.79-36.53-4.46,5.21-8.7,10.6-12.71,16.17Z"/>
        <path class="cls-9" d="m126.17,185.92c.69,6.83,1.66,13.62,2.92,20.36,2.32-12.41,5.59-24.62,9.79-36.53-4.46,5.21-8.7,10.6-12.71,16.17Z"/>
        <path class="cls-9" d="m174.58,103.37c9.52,4,18.71,8.63,27.57,13.76,8.86-5.13,18.05-9.76,27.57-13.76-8.22-10.82-17.45-20.98-27.57-30.43-10.12,9.45-19.36,19.61-27.57,30.43Z"/>
        <path class="cls-9" d="m174.58,103.37c9.52,4,18.71,8.63,27.57,13.76,8.86-5.13,18.05-9.76,27.57-13.76-8.22-10.82-17.45-20.98-27.57-30.43-10.12,9.45-19.36,19.61-27.57,30.43Z"/>
        <path class="cls-9" d="m229.72,309.19c-9.52-4-18.71-8.63-27.57-13.76-8.86,5.13-18.05,9.76-27.57,13.76,8.22,10.82,17.45,20.98,27.57,30.43,10.12-9.45,19.36-19.61,27.57-30.43Z"/>
        <path class="cls-9" d="m229.72,309.19c-9.52-4-18.71-8.63-27.57-13.76-8.86,5.13-18.05,9.76-27.57,13.76,8.22,10.82,17.45,20.98,27.57,30.43,10.12-9.45,19.36-19.61,27.57-30.43Z"/>
        <path class="cls-9" d="m222.51,282.26c-6.55,4.72-13.34,9.11-20.36,13.17,8.86,5.13,18.05,9.76,27.57,13.76,6.25-8.23,11.89-16.83,17-25.71-8.11,0-16.18-.42-24.22-1.23Z"/>
        <path class="cls-9" d="m222.51,282.26c-6.55,4.72-13.34,9.11-20.36,13.17,8.86,5.13,18.05,9.76,27.57,13.76,6.25-8.23,11.89-16.83,17-25.71-8.11,0-16.18-.42-24.22-1.23Z"/>
        <path class="cls-9" d="m222.51,282.26c-6.55,4.72-13.34,9.11-20.36,13.17,8.86,5.13,18.05,9.76,27.57,13.76,6.25-8.23,11.89-16.83,17-25.71-8.11,0-16.18-.42-24.22-1.23Z"/>
        <path class="cls-9" d="m181.79,130.31c6.55-4.72,13.34-9.11,20.36-13.17-8.86-5.13-18.05-9.76-27.57-13.76-6.25,8.23-11.89,16.83-17,25.71,8.11,0,16.18.42,24.22,1.23Z"/>
        <path class="cls-9" d="m181.79,130.31c6.55-4.72,13.34-9.11,20.36-13.17-8.86-5.13-18.05-9.76-27.57-13.76-6.25,8.23-11.89,16.83-17,25.71,8.11,0,16.18.42,24.22,1.23Z"/>
        <path class="cls-9" d="m181.79,130.31c6.55-4.72,13.34-9.11,20.36-13.17-8.86-5.13-18.05-9.76-27.57-13.76-6.25,8.23-11.89,16.83-17,25.71,8.11,0,16.18.42,24.22,1.23Z"/>
        <path class="cls-9" d="m165.62,143.01c5.21-4.46,10.6-8.7,16.17-12.71-8.03-.81-16.11-1.22-24.22-1.23-4.05,7.02-7.73,14.22-11.05,21.58,6.26-2.82,12.63-5.37,19.09-7.65Z"/>
        <path class="cls-9" d="m165.62,143.01c5.21-4.46,10.6-8.7,16.17-12.71-8.03-.81-16.11-1.22-24.22-1.23-4.05,7.02-7.73,14.22-11.05,21.58,6.26-2.82,12.63-5.37,19.09-7.65Z"/>
        <path class="cls-9" d="m165.62,143.01c5.21-4.46,10.6-8.7,16.17-12.71-8.03-.81-16.11-1.22-24.22-1.23-4.05,7.02-7.73,14.22-11.05,21.58,6.26-2.82,12.63-5.37,19.09-7.65Z"/>
        <path class="cls-9" d="m165.62,143.01c5.21-4.46,10.6-8.7,16.17-12.71-8.03-.81-16.11-1.22-24.22-1.23-4.05,7.02-7.73,14.22-11.05,21.58,6.26-2.82,12.63-5.37,19.09-7.65Z"/>
        <path class="cls-9" d="m238.68,269.55c-5.21,4.46-10.6,8.7-16.17,12.71,8.03.81,16.11,1.22,24.22,1.23,4.05-7.02,7.73-14.22,11.05-21.58-6.26,2.82-12.63,5.37-19.09,7.65Z"/>
        <path class="cls-9" d="m238.68,269.55c-5.21,4.46-10.6,8.7-16.17,12.71,8.03.81,16.11,1.22,24.22,1.23,4.05-7.02,7.73-14.22,11.05-21.58-6.26,2.82-12.63,5.37-19.09,7.65Z"/>
        <path class="cls-9" d="m238.68,269.55c-5.21,4.46-10.6,8.7-16.17,12.71,8.03.81,16.11,1.22,24.22,1.23,4.05-7.02,7.73-14.22,11.05-21.58-6.26,2.82-12.63,5.37-19.09,7.65Z"/>
        <path class="cls-9" d="m238.68,269.55c-5.21,4.46-10.6,8.7-16.17,12.71,8.03.81,16.11,1.22,24.22,1.23,4.05-7.02,7.73-14.22,11.05-21.58-6.26,2.82-12.63,5.37-19.09,7.65Z"/>
        <path class="cls-9" d="m165.62,143.01c-6.46,2.28-12.83,4.83-19.09,7.65-2.82,6.26-5.37,12.63-7.65,19.09,8.21-9.59,17.15-18.53,26.74-26.74Z"/>
        <path class="cls-9" d="m165.62,143.01c-6.46,2.28-12.83,4.83-19.09,7.65-2.82,6.26-5.37,12.63-7.65,19.09,8.21-9.59,17.15-18.53,26.74-26.74Z"/>
        <path class="cls-9" d="m165.62,143.01c-6.46,2.28-12.83,4.83-19.09,7.65-2.82,6.26-5.37,12.63-7.65,19.09,8.21-9.59,17.15-18.53,26.74-26.74Z"/>
        <path class="cls-9" d="m165.62,143.01c-6.46,2.28-12.83,4.83-19.09,7.65-2.82,6.26-5.37,12.63-7.65,19.09,8.21-9.59,17.15-18.53,26.74-26.74Z"/>
        <path class="cls-9" d="m165.62,143.01c-6.46,2.28-12.83,4.83-19.09,7.65-2.82,6.26-5.37,12.63-7.65,19.09,8.21-9.59,17.15-18.53,26.74-26.74Z"/>
        <path class="cls-9" d="m238.68,269.55c6.46-2.28,12.83-4.83,19.09-7.65,2.82-6.26,5.37-12.63,7.65-19.09-8.21,9.59-17.15,18.53-26.74,26.74Z"/>
        <path class="cls-9" d="m238.68,269.55c6.46-2.28,12.83-4.83,19.09-7.65,2.82-6.26,5.37-12.63,7.65-19.09-8.21,9.59-17.15,18.53-26.74,26.74Z"/>
        <path class="cls-9" d="m238.68,269.55c6.46-2.28,12.83-4.83,19.09-7.65,2.82-6.26,5.37-12.63,7.65-19.09-8.21,9.59-17.15,18.53-26.74,26.74Z"/>
        <path class="cls-9" d="m238.68,269.55c6.46-2.28,12.83-4.83,19.09-7.65,2.82-6.26,5.37-12.63,7.65-19.09-8.21,9.59-17.15,18.53-26.74,26.74Z"/>
        <path class="cls-9" d="m238.68,269.55c6.46-2.28,12.83-4.83,19.09-7.65,2.82-6.26,5.37-12.63,7.65-19.09-8.21,9.59-17.15,18.53-26.74,26.74Z"/>
        <path class="cls-9" d="m157.58,283.48c5.11,8.87,10.75,17.48,17,25.71,9.52-4,18.71-8.63,27.57-13.76-7.02-4.06-13.81-8.45-20.36-13.17-8.03.81-16.11,1.22-24.22,1.23Z"/>
        <path class="cls-9" d="m157.58,283.48c5.11,8.87,10.75,17.48,17,25.71,9.52-4,18.71-8.63,27.57-13.76-7.02-4.06-13.81-8.45-20.36-13.17-8.03.81-16.11,1.22-24.22,1.23Z"/>
        <path class="cls-9" d="m157.58,283.48c5.11,8.87,10.75,17.48,17,25.71,9.52-4,18.71-8.63,27.57-13.76-7.02-4.06-13.81-8.45-20.36-13.17-8.03.81-16.11,1.22-24.22,1.23Z"/>
        <path class="cls-9" d="m246.72,129.08c-5.11-8.87-10.75-17.48-17-25.71-9.52,4-18.71,8.63-27.57,13.76,7.02,4.06,13.81,8.45,20.36,13.17,8.03-.81,16.11-1.22,24.22-1.23Z"/>
        <path class="cls-9" d="m246.72,129.08c-5.11-8.87-10.75-17.48-17-25.71-9.52,4-18.71,8.63-27.57,13.76,7.02,4.06,13.81,8.45,20.36,13.17,8.03-.81,16.11-1.22,24.22-1.23Z"/>
        <path class="cls-9" d="m246.72,129.08c-5.11-8.87-10.75-17.48-17-25.71-9.52,4-18.71,8.63-27.57,13.76,7.02,4.06,13.81,8.45,20.36,13.17,8.03-.81,16.11-1.22,24.22-1.23Z"/>
        <path class="cls-9" d="m202.15,279.34c-6.74,1.26-13.53,2.23-20.36,2.92,6.55,4.72,13.34,9.11,20.36,13.17,7.02-4.06,13.81-8.45,20.36-13.17-6.83-.69-13.62-1.66-20.36-2.92Z"/>
        <path class="cls-9" d="m202.15,279.34c-6.74,1.26-13.53,2.23-20.36,2.92,6.55,4.72,13.34,9.11,20.36,13.17,7.02-4.06,13.81-8.45,20.36-13.17-6.83-.69-13.62-1.66-20.36-2.92Z"/>
        <path class="cls-9" d="m202.15,279.34c-6.74,1.26-13.53,2.23-20.36,2.92,6.55,4.72,13.34,9.11,20.36,13.17,7.02-4.06,13.81-8.45,20.36-13.17-6.83-.69-13.62-1.66-20.36-2.92Z"/>
        <path class="cls-9" d="m202.15,279.34c-6.74,1.26-13.53,2.23-20.36,2.92,6.55,4.72,13.34,9.11,20.36,13.17,7.02-4.06,13.81-8.45,20.36-13.17-6.83-.69-13.62-1.66-20.36-2.92Z"/>
        <path class="cls-9" d="m202.15,133.23c6.74-1.26,13.53-2.23,20.36-2.92-6.55-4.72-13.34-9.11-20.36-13.17-7.02,4.06-13.81,8.45-20.36,13.17,6.83.69,13.62,1.66,20.36,2.92Z"/>
        <path class="cls-9" d="m202.15,133.23c6.74-1.26,13.53-2.23,20.36-2.92-6.55-4.72-13.34-9.11-20.36-13.17-7.02,4.06-13.81,8.45-20.36,13.17,6.83.69,13.62,1.66,20.36,2.92Z"/>
        <path class="cls-9" d="m202.15,133.23c6.74-1.26,13.53-2.23,20.36-2.92-6.55-4.72-13.34-9.11-20.36-13.17-7.02,4.06-13.81,8.45-20.36,13.17,6.83.69,13.62,1.66,20.36,2.92Z"/>
        <path class="cls-9" d="m202.15,133.23c6.74-1.26,13.53-2.23,20.36-2.92-6.55-4.72-13.34-9.11-20.36-13.17-7.02,4.06-13.81,8.45-20.36,13.17,6.83.69,13.62,1.66,20.36,2.92Z"/>
        <path class="cls-9" d="m181.79,130.31c-5.57,4.01-10.96,8.25-16.17,12.71,11.91-4.2,24.12-7.47,36.53-9.79-6.74-1.26-13.53-2.23-20.36-2.92Z"/>
        <path class="cls-9" d="m181.79,130.31c-5.57,4.01-10.96,8.25-16.17,12.71,11.91-4.2,24.12-7.47,36.53-9.79-6.74-1.26-13.53-2.23-20.36-2.92Z"/>
        <path class="cls-9" d="m181.79,130.31c-5.57,4.01-10.96,8.25-16.17,12.71,11.91-4.2,24.12-7.47,36.53-9.79-6.74-1.26-13.53-2.23-20.36-2.92Z"/>
        <path class="cls-9" d="m181.79,130.31c-5.57,4.01-10.96,8.25-16.17,12.71,11.91-4.2,24.12-7.47,36.53-9.79-6.74-1.26-13.53-2.23-20.36-2.92Z"/>
        <path class="cls-9" d="m181.79,130.31c-5.57,4.01-10.96,8.25-16.17,12.71,11.91-4.2,24.12-7.47,36.53-9.79-6.74-1.26-13.53-2.23-20.36-2.92Z"/>
        <path class="cls-9" d="m222.51,282.26c5.57-4.01,10.96-8.25,16.17-12.71-11.91,4.2-24.12,7.47-36.53,9.79,6.74,1.26,13.53,2.23,20.36,2.92Z"/>
        <path class="cls-9" d="m222.51,282.26c5.57-4.01,10.96-8.25,16.17-12.71-11.91,4.2-24.12,7.47-36.53,9.79,6.74,1.26,13.53,2.23,20.36,2.92Z"/>
        <path class="cls-9" d="m222.51,282.26c5.57-4.01,10.96-8.25,16.17-12.71-11.91,4.2-24.12,7.47-36.53,9.79,6.74,1.26,13.53,2.23,20.36,2.92Z"/>
        <path class="cls-9" d="m222.51,282.26c5.57-4.01,10.96-8.25,16.17-12.71-11.91,4.2-24.12,7.47-36.53,9.79,6.74,1.26,13.53,2.23,20.36,2.92Z"/>
        <path class="cls-9" d="m222.51,282.26c5.57-4.01,10.96-8.25,16.17-12.71-11.91,4.2-24.12,7.47-36.53,9.79,6.74,1.26,13.53,2.23,20.36,2.92Z"/>
        <path class="cls-9" d="m222.51,130.31c5.57,4.01,10.96,8.25,16.17,12.71,6.46,2.28,12.83,4.83,19.09,7.65-3.31-7.36-7-14.56-11.05-21.58-8.11,0-16.18.42-24.22,1.23Z"/>
        <path class="cls-9" d="m222.51,130.31c5.57,4.01,10.96,8.25,16.17,12.71,6.46,2.28,12.83,4.83,19.09,7.65-3.31-7.36-7-14.56-11.05-21.58-8.11,0-16.18.42-24.22,1.23Z"/>
        <path class="cls-9" d="m222.51,130.31c5.57,4.01,10.96,8.25,16.17,12.71,6.46,2.28,12.83,4.83,19.09,7.65-3.31-7.36-7-14.56-11.05-21.58-8.11,0-16.18.42-24.22,1.23Z"/>
        <path class="cls-9" d="m222.51,130.31c5.57,4.01,10.96,8.25,16.17,12.71,6.46,2.28,12.83,4.83,19.09,7.65-3.31-7.36-7-14.56-11.05-21.58-8.11,0-16.18.42-24.22,1.23Z"/>
        <path class="cls-9" d="m181.79,282.26c-5.57-4.01-10.96-8.25-16.17-12.71-6.46-2.28-12.83-4.83-19.09-7.65,3.31,7.36,7,14.56,11.05,21.58,8.11,0,16.18-.42,24.22-1.23Z"/>
        <path class="cls-9" d="m181.79,282.26c-5.57-4.01-10.96-8.25-16.17-12.71-6.46-2.28-12.83-4.83-19.09-7.65,3.31,7.36,7,14.56,11.05,21.58,8.11,0,16.18-.42,24.22-1.23Z"/>
        <path class="cls-9" d="m181.79,282.26c-5.57-4.01-10.96-8.25-16.17-12.71-6.46-2.28-12.83-4.83-19.09-7.65,3.31,7.36,7,14.56,11.05,21.58,8.11,0,16.18-.42,24.22-1.23Z"/>
        <path class="cls-9" d="m181.79,282.26c-5.57-4.01-10.96-8.25-16.17-12.71-6.46-2.28-12.83-4.83-19.09-7.65,3.31,7.36,7,14.56,11.05,21.58,8.11,0,16.18-.42,24.22-1.23Z"/>
        <path class="cls-9" d="m181.79,282.26c6.83-.69,13.62-1.66,20.36-2.92-12.41-2.32-24.62-5.59-36.53-9.79,5.21,4.46,10.6,8.7,16.17,12.71Z"/>
        <path class="cls-9" d="m181.79,282.26c6.83-.69,13.62-1.66,20.36-2.92-12.41-2.32-24.62-5.59-36.53-9.79,5.21,4.46,10.6,8.7,16.17,12.71Z"/>
        <path class="cls-9" d="m181.79,282.26c6.83-.69,13.62-1.66,20.36-2.92-12.41-2.32-24.62-5.59-36.53-9.79,5.21,4.46,10.6,8.7,16.17,12.71Z"/>
        <path class="cls-9" d="m181.79,282.26c6.83-.69,13.62-1.66,20.36-2.92-12.41-2.32-24.62-5.59-36.53-9.79,5.21,4.46,10.6,8.7,16.17,12.71Z"/>
        <path class="cls-9" d="m181.79,282.26c6.83-.69,13.62-1.66,20.36-2.92-12.41-2.32-24.62-5.59-36.53-9.79,5.21,4.46,10.6,8.7,16.17,12.71Z"/>
        <path class="cls-9" d="m222.51,130.31c-6.83.69-13.62,1.66-20.36,2.92,12.41,2.32,24.62,5.59,36.53,9.79-5.21-4.46-10.6-8.7-16.17-12.71Z"/>
        <path class="cls-9" d="m222.51,130.31c-6.83.69-13.62,1.66-20.36,2.92,12.41,2.32,24.62,5.59,36.53,9.79-5.21-4.46-10.6-8.7-16.17-12.71Z"/>
        <path class="cls-9" d="m222.51,130.31c-6.83.69-13.62,1.66-20.36,2.92,12.41,2.32,24.62,5.59,36.53,9.79-5.21-4.46-10.6-8.7-16.17-12.71Z"/>
        <path class="cls-9" d="m222.51,130.31c-6.83.69-13.62,1.66-20.36,2.92,12.41,2.32,24.62,5.59,36.53,9.79-5.21-4.46-10.6-8.7-16.17-12.71Z"/>
        <path class="cls-9" d="m222.51,130.31c-6.83.69-13.62,1.66-20.36,2.92,12.41,2.32,24.62,5.59,36.53,9.79-5.21-4.46-10.6-8.7-16.17-12.71Z"/>
        <path class="cls-9" d="m138.88,242.81c2.28,6.46,4.83,12.83,7.65,19.09,6.26,2.82,12.63,5.37,19.09,7.65-9.59-8.21-18.53-17.15-26.74-26.74Z"/>
        <path class="cls-9" d="m138.88,242.81c2.28,6.46,4.83,12.83,7.65,19.09,6.26,2.82,12.63,5.37,19.09,7.65-9.59-8.21-18.53-17.15-26.74-26.74Z"/>
        <path class="cls-9" d="m138.88,242.81c2.28,6.46,4.83,12.83,7.65,19.09,6.26,2.82,12.63,5.37,19.09,7.65-9.59-8.21-18.53-17.15-26.74-26.74Z"/>
        <path class="cls-9" d="m138.88,242.81c2.28,6.46,4.83,12.83,7.65,19.09,6.26,2.82,12.63,5.37,19.09,7.65-9.59-8.21-18.53-17.15-26.74-26.74Z"/>
        <path class="cls-9" d="m138.88,242.81c2.28,6.46,4.83,12.83,7.65,19.09,6.26,2.82,12.63,5.37,19.09,7.65-9.59-8.21-18.53-17.15-26.74-26.74Z"/>
        <path class="cls-9" d="m265.42,169.75c-2.28-6.46-4.83-12.83-7.65-19.09-6.26-2.82-12.63-5.37-19.09-7.65,9.59,8.21,18.53,17.15,26.74,26.74Z"/>
        <path class="cls-9" d="m265.42,169.75c-2.28-6.46-4.83-12.83-7.65-19.09-6.26-2.82-12.63-5.37-19.09-7.65,9.59,8.21,18.53,17.15,26.74,26.74Z"/>
        <path class="cls-9" d="m265.42,169.75c-2.28-6.46-4.83-12.83-7.65-19.09-6.26-2.82-12.63-5.37-19.09-7.65,9.59,8.21,18.53,17.15,26.74,26.74Z"/>
        <path class="cls-9" d="m265.42,169.75c-2.28-6.46-4.83-12.83-7.65-19.09-6.26-2.82-12.63-5.37-19.09-7.65,9.59,8.21,18.53,17.15,26.74,26.74Z"/>
        <path class="cls-9" d="m265.42,169.75c-2.28-6.46-4.83-12.83-7.65-19.09-6.26-2.82-12.63-5.37-19.09-7.65,9.59,8.21,18.53,17.15,26.74,26.74Z"/>
        <path class="cls-9" d="m265.42,169.75c-8.21-9.59-17.15-18.53-26.74-26.74-11.91-4.2-24.12-7.47-36.53-9.79-12.41,2.32-24.62,5.59-36.53,9.79-9.59,8.21-18.53,17.15-26.74,26.74-4.2,11.91-7.47,24.12-9.79,36.53,2.32,12.41,5.59,24.62,9.79,36.53,8.21,9.59,17.15,18.53,26.74,26.74,11.91,4.2,24.12,7.47,36.53,9.79,12.41-2.32,24.62-5.59,36.53-9.79,9.59-8.21,18.53-17.15,26.74-26.74,4.2-11.91,7.47-24.12,9.79-36.53-2.32-12.41-5.59-24.62-9.79-36.53Z"/>
        <path class="cls-9" d="m265.42,169.75c-8.21-9.59-17.15-18.53-26.74-26.74-11.91-4.2-24.12-7.47-36.53-9.79-12.41,2.32-24.62,5.59-36.53,9.79-9.59,8.21-18.53,17.15-26.74,26.74-4.2,11.91-7.47,24.12-9.79,36.53,2.32,12.41,5.59,24.62,9.79,36.53,8.21,9.59,17.15,18.53,26.74,26.74,11.91,4.2,24.12,7.47,36.53,9.79,12.41-2.32,24.62-5.59,36.53-9.79,9.59-8.21,18.53-17.15,26.74-26.74,4.2-11.91,7.47-24.12,9.79-36.53-2.32-12.41-5.59-24.62-9.79-36.53Z"/>
        <path class="cls-9" d="m265.42,169.75c-8.21-9.59-17.15-18.53-26.74-26.74-11.91-4.2-24.12-7.47-36.53-9.79-12.41,2.32-24.62,5.59-36.53,9.79-9.59,8.21-18.53,17.15-26.74,26.74-4.2,11.91-7.47,24.12-9.79,36.53,2.32,12.41,5.59,24.62,9.79,36.53,8.21,9.59,17.15,18.53,26.74,26.74,11.91,4.2,24.12,7.47,36.53,9.79,12.41-2.32,24.62-5.59,36.53-9.79,9.59-8.21,18.53-17.15,26.74-26.74,4.2-11.91,7.47-24.12,9.79-36.53-2.32-12.41-5.59-24.62-9.79-36.53Z"/>
        <path class="cls-9" d="m265.42,169.75c-8.21-9.59-17.15-18.53-26.74-26.74-11.91-4.2-24.12-7.47-36.53-9.79-12.41,2.32-24.62,5.59-36.53,9.79-9.59,8.21-18.53,17.15-26.74,26.74-4.2,11.91-7.47,24.12-9.79,36.53,2.32,12.41,5.59,24.62,9.79,36.53,8.21,9.59,17.15,18.53,26.74,26.74,11.91,4.2,24.12,7.47,36.53,9.79,12.41-2.32,24.62-5.59,36.53-9.79,9.59-8.21,18.53-17.15,26.74-26.74,4.2-11.91,7.47-24.12,9.79-36.53-2.32-12.41-5.59-24.62-9.79-36.53Z"/>
        <path class="cls-9" d="m265.42,169.75c-8.21-9.59-17.15-18.53-26.74-26.74-11.91-4.2-24.12-7.47-36.53-9.79-12.41,2.32-24.62,5.59-36.53,9.79-9.59,8.21-18.53,17.15-26.74,26.74-4.2,11.91-7.47,24.12-9.79,36.53,2.32,12.41,5.59,24.62,9.79,36.53,8.21,9.59,17.15,18.53,26.74,26.74,11.91,4.2,24.12,7.47,36.53,9.79,12.41-2.32,24.62-5.59,36.53-9.79,9.59-8.21,18.53-17.15,26.74-26.74,4.2-11.91,7.47-24.12,9.79-36.53-2.32-12.41-5.59-24.62-9.79-36.53Z"/>
        <path class="cls-9" d="m265.42,169.75c-8.21-9.59-17.15-18.53-26.74-26.74-11.91-4.2-24.12-7.47-36.53-9.79-12.41,2.32-24.62,5.59-36.53,9.79-9.59,8.21-18.53,17.15-26.74,26.74-4.2,11.91-7.47,24.12-9.79,36.53,2.32,12.41,5.59,24.62,9.79,36.53,8.21,9.59,17.15,18.53,26.74,26.74,11.91,4.2,24.12,7.47,36.53,9.79,12.41-2.32,24.62-5.59,36.53-9.79,9.59-8.21,18.53-17.15,26.74-26.74,4.2-11.91,7.47-24.12,9.79-36.53-2.32-12.41-5.59-24.62-9.79-36.53Z"/>
      </g>
      <circle class="cls-4" cx="202.15" cy="206.28" r="75.33"/>
    </g>
    <text class="cls-15" transform="translate(425.82 316.57)"><tspan class="cls-12" x="0" y="0">Me</tspan><tspan class="cls-5" x="453.65" y="0">dic</tspan><tspan class="cls-8" x="915.81" y="0">t</tspan><tspan class="cls-6" x="1035.29" y="0">a</tspan><tspan class="cls-7" x="1237.37" y="0">t</tspan><tspan class="cls-5" x="1356.85" y="0">e</tspan></text>
  </g>
</svg>