<?xml version="1.0" encoding="UTF-8"?>
<svg id="Calque_1" data-name="Calque 1" xmlns="http://www.w3.org/2000/svg" viewBox="0 0 1500 1500">
  <defs>
    <style>
      .cls-1 {
        fill: #f2f2f2;
        opacity: .5;
      }
    </style>
  </defs>
  <path class="cls-1" d="m750,1472.85c399.22,0,722.85-323.63,722.85-722.85H27.15c0,399.22,323.63,722.85,722.85,722.85Z"/>
  <path class="cls-1" d="m750,25.2c399.22,0,722.85,323.63,722.85,722.85H27.15C27.15,348.82,350.78,25.2,750,25.2Z"/>
  <path class="cls-1" d="m750,25.2c399.22,0,722.85,323.63,722.85,722.85H27.15C27.15,348.82,350.78,25.2,750,25.2Z"/>
  <path class="cls-1" d="m27.15,750C27.15,350.78,350.78,27.15,750,27.15v1445.69c-399.22,0-722.85-323.63-722.85-722.85Z"/>
  <rect class="cls-1" x="257.55" y="257.55" width="984.9" height="984.9"/>
  <rect class="cls-1" x="685.23" y="683.27" width="129.55" height="129.55"/>
</svg>