<?xml version="1.0" encoding="UTF-8"?>
<svg id="Calque_1" data-name="Calque 1" xmlns="http://www.w3.org/2000/svg" viewBox="0 0 1500 1500">
  <defs>
    <style>
      .cls-1 {
        fill: #bf6a8c;
        opacity: .5;
      }
    </style>
  </defs>
  <path class="cls-1" d="m441.92,750c0-27.68,3.99-54.37,10.84-79.89l-174.15-174.15c-47.45,31.34-92.47,67.9-134.25,109.67L0,750l144.36,144.36c41.78,41.78,86.8,78.33,134.25,109.68l174.15-174.15c-6.85-25.52-10.84-52.21-10.84-79.89Z"/>
  <path class="cls-1" d="m750,1058.08c-27.68,0-54.37-3.99-79.89-10.84l-82.51,82.51c107.21,20.6,217.59,20.6,324.8,0l-82.51-82.51c-25.52,6.85-52.21,10.84-79.89,10.84Z"/>
  <path class="cls-1" d="m750,441.92c27.68,0,54.37,3.99,79.89,10.84l82.51-82.51c-107.21-20.6-217.59-20.6-324.8,0l82.51,82.51c25.52-6.85,52.21-10.84,79.89-10.84Z"/>
  <path class="cls-1" d="m1500,750l-144.36-144.36c-41.78-41.78-86.8-78.33-134.25-109.67l-174.15,174.15c6.85,25.52,10.84,52.21,10.84,79.89s-3.99,54.37-10.84,79.89l174.15,174.15c47.45-31.34,92.47-67.9,134.25-109.68l144.36-144.36Z"/>
  <path class="cls-1" d="m427.66,210.31l-217.35,217.35,68.3,68.3c95.36-62.99,200.55-104.87,308.99-125.71l-159.94-159.94Z"/>
  <path class="cls-1" d="m1072.34,1289.69l217.35-217.35-68.3-68.3c-95.36,62.98-200.55,104.87-308.99,125.71l159.94,159.94Z"/>
  <path class="cls-1" d="m670.11,452.76l-82.51-82.51c-108.44,20.84-213.62,62.72-308.99,125.71l174.15,174.15c28.39-105.82,111.52-188.96,217.35-217.35Z"/>
  <path class="cls-1" d="m670.11,452.76l-82.51-82.51c-108.44,20.84-213.62,62.72-308.99,125.71l174.15,174.15c28.39-105.82,111.52-188.96,217.35-217.35Z"/>
  <path class="cls-1" d="m829.89,1047.24l82.51,82.51c108.44-20.84,213.62-62.72,308.99-125.71l-174.15-174.15c-28.39,105.82-111.52,188.96-217.35,217.35Z"/>
  <path class="cls-1" d="m829.89,1047.24l82.51,82.51c108.44-20.84,213.62-62.72,308.99-125.71l-174.15-174.15c-28.39,105.82-111.52,188.96-217.35,217.35Z"/>
  <path class="cls-1" d="m210.31,1072.34l217.35,217.35,159.94-159.94c-108.43-20.84-213.62-62.72-308.99-125.71l-68.3,68.3Z"/>
  <path class="cls-1" d="m1289.69,427.66l-217.35-217.35-159.94,159.94c108.44,20.84,213.62,62.72,308.99,125.71l68.3-68.3Z"/>
  <path class="cls-1" d="m452.76,829.89l-174.15,174.15c95.36,62.98,200.55,104.87,308.99,125.71l82.51-82.51c-105.82-28.39-188.96-111.52-217.35-217.35Z"/>
  <path class="cls-1" d="m452.76,829.89l-174.15,174.15c95.36,62.98,200.55,104.87,308.99,125.71l82.51-82.51c-105.82-28.39-188.96-111.52-217.35-217.35Z"/>
  <path class="cls-1" d="m1047.24,670.11l174.15-174.15c-95.36-62.98-200.55-104.87-308.99-125.71l-82.51,82.51c105.82,28.39,188.96,111.52,217.35,217.35Z"/>
  <path class="cls-1" d="m1047.24,670.11l174.15-174.15c-95.36-62.98-200.55-104.87-308.99-125.71l-82.51,82.51c105.82,28.39,188.96,111.52,217.35,217.35Z"/>
  <path class="cls-1" d="m829.89,452.76c-25.52-6.85-52.21-10.84-79.89-10.84s-54.37,3.99-79.89,10.84l79.89,79.89,79.89-79.89Z"/>
  <path class="cls-1" d="m829.89,452.76c-25.52-6.85-52.21-10.84-79.89-10.84s-54.37,3.99-79.89,10.84l79.89,79.89,79.89-79.89Z"/>
  <path class="cls-1" d="m1047.24,829.89c6.85-25.52,10.84-52.21,10.84-79.89s-3.99-54.37-10.84-79.89l-79.89,79.89,79.89,79.89Z"/>
  <path class="cls-1" d="m1047.24,829.89c6.85-25.52,10.84-52.21,10.84-79.89s-3.99-54.37-10.84-79.89l-79.89,79.89,79.89,79.89Z"/>
  <path class="cls-1" d="m670.11,1047.24c25.52,6.85,52.21,10.84,79.89,10.84s54.37-3.99,79.89-10.84l-79.89-79.89-79.89,79.89Z"/>
  <path class="cls-1" d="m670.11,1047.24c25.52,6.85,52.21,10.84,79.89,10.84s54.37-3.99,79.89-10.84l-79.89-79.89-79.89,79.89Z"/>
  <path class="cls-1" d="m452.76,670.11c-6.85,25.52-10.84,52.21-10.84,79.89s3.99,54.37,10.84,79.89l79.89-79.89-79.89-79.89Z"/>
  <path class="cls-1" d="m452.76,670.11c-6.85,25.52-10.84,52.21-10.84,79.89s3.99,54.37,10.84,79.89l79.89-79.89-79.89-79.89Z"/>
  <path class="cls-1" d="m750,967.35l79.89,79.89c105.83-28.39,188.96-111.52,217.35-217.35l-79.89-79.89-217.35,217.35Z"/>
  <path class="cls-1" d="m750,967.35l79.89,79.89c105.83-28.39,188.96-111.52,217.35-217.35l-79.89-79.89-217.35,217.35Z"/>
  <path class="cls-1" d="m750,967.35l79.89,79.89c105.83-28.39,188.96-111.52,217.35-217.35l-79.89-79.89-217.35,217.35Z"/>
  <path class="cls-1" d="m750,532.65l-79.89-79.89c-105.82,28.39-188.96,111.53-217.35,217.35l79.89,79.89,217.35-217.35Z"/>
  <path class="cls-1" d="m750,532.65l-79.89-79.89c-105.82,28.39-188.96,111.53-217.35,217.35l79.89,79.89,217.35-217.35Z"/>
  <path class="cls-1" d="m750,532.65l-79.89-79.89c-105.82,28.39-188.96,111.53-217.35,217.35l79.89,79.89,217.35-217.35Z"/>
  <path class="cls-1" d="m829.89,452.76l-79.89,79.89,217.35,217.35,79.89-79.89c-28.39-105.82-111.52-188.96-217.35-217.35Z"/>
  <path class="cls-1" d="m829.89,452.76l-79.89,79.89,217.35,217.35,79.89-79.89c-28.39-105.82-111.52-188.96-217.35-217.35Z"/>
  <path class="cls-1" d="m829.89,452.76l-79.89,79.89,217.35,217.35,79.89-79.89c-28.39-105.82-111.52-188.96-217.35-217.35Z"/>
  <path class="cls-1" d="m532.65,750l-79.89,79.89c28.39,105.82,111.52,188.96,217.35,217.35l79.89-79.89-217.35-217.35Z"/>
  <path class="cls-1" d="m532.65,750l-79.89,79.89c28.39,105.82,111.52,188.96,217.35,217.35l79.89-79.89-217.35-217.35Z"/>
  <path class="cls-1" d="m532.65,750l-79.89,79.89c28.39,105.82,111.52,188.96,217.35,217.35l79.89-79.89-217.35-217.35Z"/>
  <rect class="cls-1" x="596.31" y="596.31" width="307.38" height="307.38" transform="translate(-310.66 750) rotate(-45)"/>
  <rect class="cls-1" x="596.31" y="596.31" width="307.38" height="307.38" transform="translate(-310.66 750) rotate(-45)"/>
  <rect class="cls-1" x="596.31" y="596.31" width="307.38" height="307.38" transform="translate(-310.66 750) rotate(-45)"/>
  <rect class="cls-1" x="596.31" y="596.31" width="307.38" height="307.38" transform="translate(-310.66 750) rotate(-45)"/>
</svg>