<?xml version="1.0" encoding="UTF-8"?>
<svg id="Calque_1" data-name="Calque 1" xmlns="http://www.w3.org/2000/svg" viewBox="0 0 1500 1500">
  <defs>
    <style>
      .cls-1 {
        fill: #f2f2f2;
        opacity: .5;
      }
    </style>
  </defs>
  <path class="cls-1" d="m749.97,540.96h0c-209.52,209.52-349.47,462.08-420.76,729.16,275.42-73.43,566.18-73.36,841.57.21-71.27-267.15-211.24-519.79-420.81-729.36h0Z"/>
  <path class="cls-1" d="m749.97,298.86h0c-209.52,209.52-349.47,462.08-420.76,729.16,275.42-73.43,566.18-73.36,841.57.21-71.27-267.15-211.24-519.79-420.81-729.36h0Z"/>
  <path class="cls-1" d="m749.97,0h0c-209.52,209.52-349.47,462.08-420.76,729.16,275.42-73.43,566.18-73.36,841.57.21C1099.51,462.21,959.55,209.58,749.97,0h0Z"/>
  <rect class="cls-1" x="681.22" y="674.16" width="126.74" height="825.84"/>
</svg>