<?xml version="1.0" encoding="UTF-8"?>
<svg id="Calque_1" data-name="Calque 1" xmlns="http://www.w3.org/2000/svg" viewBox="0 0 1500 1500">
  <defs>
    <style>
      .cls-1 {
        fill: #f2f2f2;
        opacity: .5;
      }
    </style>
  </defs>
  <polygon class="cls-1" points="745.57 157.31 282.03 1342.69 282.03 1342.69 282.03 1342.69 1217.97 1342.69 1217.97 1342.69 745.57 157.31"/>
  <polygon class="cls-1" points="327.78 334.04 838.19 1500 838.19 1500 838.19 1500 1500 838.19 1500 838.19 327.78 334.04"/>
  <polygon class="cls-1" points="157.31 754.43 1342.69 1217.97 1342.69 1217.97 1342.69 1217.97 1342.69 282.03 1342.69 282.03 157.31 754.43"/>
  <polygon class="cls-1" points="334.04 1172.22 1500 661.81 1500 661.81 1500 661.81 838.19 0 838.19 0 334.04 1172.22"/>
  <polygon class="cls-1" points="754.43 1342.69 1217.97 157.31 1217.97 157.31 1217.97 157.31 282.03 157.31 282.03 157.31 754.43 1342.69"/>
  <polygon class="cls-1" points="1172.22 1165.96 661.81 0 661.81 0 661.81 0 0 661.81 0 661.81 1172.22 1165.96"/>
  <polygon class="cls-1" points="1342.69 745.57 157.31 282.03 157.31 282.03 157.31 282.03 157.31 1217.97 157.31 1217.97 1342.69 745.57"/>
  <polygon class="cls-1" points="1165.96 327.78 0 838.19 0 838.19 0 838.19 661.81 1500 661.81 1500 1165.96 327.78"/>
</svg>