<?xml version="1.0" encoding="UTF-8"?>
<svg id="Calque_1" data-name="Calque 1" xmlns="http://www.w3.org/2000/svg" viewBox="0 0 1500 1500">
  <defs>
    <style>
      .cls-1 {
        fill: #f2f2f2;
        opacity: .5;
      }
    </style>
  </defs>
  <path class="cls-1" d="m961.21,994.46c18.47,31.4,14.23,72.48-12.73,99.44h0c-32,32-83.88,32-115.87,0l-421.6-421.6c-32-32-32-83.88,0-115.87h0c26.96-26.96,68.04-31.2,99.44-12.73l-98.5-98.5c-32-32-83.88-32-115.87,0h0c-32,32-32,83.88,0,115.87l647.77,647.77c32,32,83.88,32,115.87,0h0c32-32,32-83.88,0-115.87l-98.5-98.5Z"/>
  <path class="cls-1" d="m623.4,1018.92c18.47,31.4,14.23,72.48-12.73,99.44h0c-32,32-83.88,32-115.87,0l-108.25-108.25c-32-32-32-83.88,0-115.87h0c26.96-26.96,68.04-31.2,99.44-12.73l-142.1-142.1c-32-32-83.88-32-115.87,0h0c-32,32-32,83.88,0,115.87l421.6,421.61c32,32,83.88,32,115.87,0h0c32-32,32-83.88,0-115.87l-142.1-142.1Z"/>
  <path class="cls-1" d="m319.44,1077.22c-32-32-83.88-32-115.87,0h0c-32,32-32,83.88,0,115.87l108.25,108.25c32,32,83.88,32,115.87,0h0c32-32,32-83.88,0-115.87l-108.25-108.25Z"/>
  <polygon class="cls-1" points="630.02 297.31 594.93 262.21 594.93 262.21 630.02 297.31 630.02 297.31"/>
  <path class="cls-1" d="m1063.27,962.3l63.55,63.55c5.66,5.66,11.96,10.3,18.64,13.96l-63.55-63.55c-6.69-3.66-12.98-8.3-18.64-13.96Z"/>
  <path class="cls-1" d="m479.05,262.21h0c32-32,83.87-32,115.87,0l-63.55-63.55c-32-32-83.88-32-115.87,0h0c-32,32-32,83.88,0,115.87l647.77,647.77s0,0,0,0L479.05,378.08c-32-32-32-83.88,0-115.87Z"/>
  <path class="cls-1" d="m532.8,427.14c-32-32-32-83.88,0-115.87h0c26.33-26.33,66.13-30.97,97.23-13.96l-35.1-35.1c-32-32-83.87-32-115.87,0h0c-32,32-32,83.88,0,115.87l584.22,584.22c5.66,5.66,11.96,10.3,18.64,13.96L532.8,427.14Z"/>
  <path class="cls-1" d="m532.8,427.14c-32-32-32-83.88,0-115.87h0c26.33-26.33,66.13-30.97,97.23-13.96l-35.1-35.1c-32-32-83.87-32-115.87,0h0c-32,32-32,83.88,0,115.87l584.22,584.22c5.66,5.66,11.96,10.3,18.64,13.96L532.8,427.14Z"/>
  <path class="cls-1" d="m1296.44,959.04L648.67,311.27c-5.66-5.66-11.96-10.3-18.64-13.96l612.67,612.67c32,32,32,83.88,0,115.87h0c-26.33,26.33-66.13,30.97-97.23,13.96l35.1,35.1c32,32,83.88,32,115.87,0h0c32-32,32-83.88,0-115.87Z"/>
  <path class="cls-1" d="m1242.7,1025.85h0c32-32,32-83.88,0-115.87L630.02,297.31h0l549.12,549.12c32,32,32,83.88,0,115.87h0c-26.33,26.33-66.13,30.97-97.23,13.96l63.55,63.55c31.1,17.01,70.89,12.37,97.23-13.96Z"/>
  <path class="cls-1" d="m1242.7,1025.85h0c32-32,32-83.88,0-115.87L630.02,297.31h0l549.12,549.12c32,32,32,83.88,0,115.87h0c-26.33,26.33-66.13,30.97-97.23,13.96l63.55,63.55c31.1,17.01,70.89,12.37,97.23-13.96Z"/>
  <path class="cls-1" d="m532.8,311.27h0c-32,32-32,83.88,0,115.87l549.12,549.12c31.1,17.01,70.89,12.37,97.23-13.96h0c32-32,32-83.88,0-115.87L630.02,297.31c-31.1-17.01-70.89-12.37-97.23,13.96Z"/>
  <path class="cls-1" d="m948.48,978.03l-421.61-421.6c-5.04-5.04-10.57-9.28-16.43-12.73l450.76,450.76c-3.45-5.87-7.69-11.4-12.73-16.43Z"/>
  <path class="cls-1" d="m610.67,1002.49l-108.25-108.25c-5.04-5.04-10.57-9.28-16.43-12.73l137.41,137.41c-3.45-5.87-7.69-11.4-12.73-16.43Z"/>
  <path class="cls-1" d="m386.55,894.23h0c-32,32-32,83.88,0,115.87l108.25,108.25c32,32,83.88,32,115.87,0h0c26.96-26.96,31.2-68.04,12.73-99.44l-137.41-137.41c-31.4-18.47-72.48-14.23-99.44,12.73Z"/>
  <path class="cls-1" d="m386.55,894.23h0c-32,32-32,83.88,0,115.87l108.25,108.25c32,32,83.88,32,115.87,0h0c26.96-26.96,31.2-68.04,12.73-99.44l-137.41-137.41c-31.4-18.47-72.48-14.23-99.44,12.73Z"/>
  <path class="cls-1" d="m411,556.42h0c-32,32-32,83.88,0,115.87l421.6,421.6c32,32,83.88,32,115.87,0h0c26.96-26.96,31.2-68.04,12.73-99.44l-450.76-450.76c-31.4-18.47-72.48-14.23-99.44,12.73Z"/>
  <path class="cls-1" d="m411,556.42h0c-32,32-32,83.88,0,115.87l421.6,421.6c32,32,83.88,32,115.87,0h0c26.96-26.96,31.2-68.04,12.73-99.44l-450.76-450.76c-31.4-18.47-72.48-14.23-99.44,12.73Z"/>
</svg>