<?xml version="1.0" encoding="UTF-8"?>
<svg id="Calque_1" data-name="Calque 1" xmlns="http://www.w3.org/2000/svg" viewBox="0 0 1500 1500">
  <defs>
    <style>
      .cls-1 {
        fill: #f2f2f2;
        opacity: .5;
      }
    </style>
  </defs>
  <path class="cls-1" d="m750,696.76c0-193.7,99.3-364.12,249.69-463.39C991.09,109.58,889.57,0,750,0s-241.1,109.58-249.7,233.38c150.4,99.27,249.7,269.69,249.7,463.39Z"/>
  <path class="cls-1" d="m750,803.24c0,193.7-99.3,364.12-249.7,463.39,8.6,123.79,110.13,233.37,249.7,233.37s241.09-109.58,249.69-233.37c-150.39-99.28-249.69-269.7-249.69-463.39Z"/>
  <path class="cls-1" d="m1266.63,500.3c-99.28,150.4-269.7,249.7-463.39,249.7,193.7,0,364.12,99.3,463.39,249.7,123.79-8.6,233.38-110.13,233.38-249.7h0c0-139.57-109.58-241.09-233.37-249.7Z"/>
  <path class="cls-1" d="m696.76,750c-193.69,0-364.11-99.3-463.39-249.7C109.58,508.91,0,610.43,0,750h0c0,139.57,109.58,241.1,233.37,249.7,99.28-150.4,269.7-249.7,463.39-249.7Z"/>
  <path class="cls-1" d="m375,533.49h0l375,216.51-216.51-375c-26.44-45.8-36.45-94.73-33.19-141.63-87.58-57.81-192.45-91.56-305.25-91.56h-53.24v53.24c0,112.8,33.74,217.66,91.56,305.25,46.9-3.25,95.83,6.75,141.63,33.19Z"/>
  <path class="cls-1" d="m533.49,375l216.51,375v-53.24c0-193.7-99.3-364.12-249.7-463.39-3.26,46.9,6.75,95.83,33.19,141.63Z"/>
  <path class="cls-1" d="m533.49,375l216.51,375v-53.24c0-193.7-99.3-364.12-249.7-463.39-3.26,46.9,6.75,95.83,33.19,141.63Z"/>
  <path class="cls-1" d="m696.76,750h53.24l-375-216.51h0c-45.8-26.44-94.73-36.45-141.63-33.19,99.28,150.4,269.7,249.7,463.39,249.7Z"/>
  <path class="cls-1" d="m696.76,750h53.24l-375-216.51h0c-45.8-26.44-94.73-36.45-141.63-33.19,99.28,150.4,269.7,249.7,463.39,249.7Z"/>
  <path class="cls-1" d="m1125,966.51h0l-375-216.51,216.51,375c26.44,45.79,36.45,94.73,33.19,141.63,87.59,57.81,192.46,91.56,305.25,91.56h53.24v-53.24c0-112.8-33.74-217.67-91.56-305.25-46.9,3.25-95.83-6.75-141.63-33.19Z"/>
  <path class="cls-1" d="m966.51,1125l-216.51-375v53.24c0,193.7,99.3,364.12,249.69,463.39,3.26-46.9-6.74-95.84-33.19-141.63Z"/>
  <path class="cls-1" d="m966.51,1125l-216.51-375v53.24c0,193.7,99.3,364.12,249.69,463.39,3.26-46.9-6.74-95.84-33.19-141.63Z"/>
  <path class="cls-1" d="m803.24,750h-53.24l375,216.51h0c45.8,26.44,94.73,36.45,141.63,33.19-99.27-150.4-269.69-249.7-463.39-249.7Z"/>
  <path class="cls-1" d="m803.24,750h-53.24l375,216.51h0c45.8,26.44,94.73,36.45,141.63,33.19-99.27-150.4-269.69-249.7-463.39-249.7Z"/>
  <path class="cls-1" d="m966.51,375l-216.51,375,375-216.51c45.8-26.44,94.73-36.45,141.63-33.19,57.81-87.58,91.55-192.45,91.55-305.25v-53.24h-53.24c-112.8,0-217.66,33.75-305.25,91.56,3.26,46.9-6.74,95.83-33.19,141.63Z"/>
  <path class="cls-1" d="m750,696.76v53.24l216.51-375c26.44-45.8,36.45-94.73,33.19-141.63-150.39,99.27-249.69,269.69-249.69,463.39Z"/>
  <path class="cls-1" d="m750,696.76v53.24l216.51-375c26.44-45.8,36.45-94.73,33.19-141.63-150.39,99.27-249.69,269.69-249.69,463.39Z"/>
  <path class="cls-1" d="m1125,533.49l-375,216.51h53.24c193.7,0,364.12-99.3,463.39-249.7-46.9-3.25-95.84,6.75-141.63,33.19Z"/>
  <path class="cls-1" d="m1125,533.49l-375,216.51h53.24c193.7,0,364.12-99.3,463.39-249.7-46.9-3.25-95.84,6.75-141.63,33.19Z"/>
  <path class="cls-1" d="m533.49,1125l216.51-375-375,216.51h0c-45.8,26.44-94.73,36.45-141.63,33.19-57.81,87.58-91.56,192.45-91.56,305.25v53.24h53.24c112.8,0,217.67-33.74,305.25-91.56-3.26-46.9,6.75-95.84,33.19-141.63Z"/>
  <path class="cls-1" d="m750,803.24v-53.24l-216.51,375c-26.44,45.79-36.45,94.73-33.19,141.63,150.4-99.28,249.7-269.7,249.7-463.39Z"/>
  <path class="cls-1" d="m750,803.24v-53.24l-216.51,375c-26.44,45.79-36.45,94.73-33.19,141.63,150.4-99.28,249.7-269.7,249.7-463.39Z"/>
  <path class="cls-1" d="m375,966.51h0l375-216.51h-53.24c-193.69,0-364.11,99.3-463.39,249.7,46.9,3.25,95.83-6.75,141.63-33.19Z"/>
  <path class="cls-1" d="m375,966.51h0l375-216.51h-53.24c-193.69,0-364.11,99.3-463.39,249.7,46.9,3.25,95.83-6.75,141.63-33.19Z"/>
</svg>