<?xml version="1.0" encoding="UTF-8"?>
<svg id="Calque_1" data-name="Calque 1" xmlns="http://www.w3.org/2000/svg" viewBox="0 0 1500 1500">
  <defs>
    <style>
      .cls-1, .cls-2 {
        fill: #bf6a8c;
      }

      .cls-2 {
        opacity: .3;
      }
    </style>
  </defs>
  <g>
    <path class="cls-2" d="m449.52,229.57c-79.91-18.5-163.03-28.6-248.56-28.6h0c0,85.53,10.1,168.66,28.6,248.56,59.69-18.21,120.17-31.35,180.92-39.05,7.7-60.75,20.84-121.23,39.04-180.92Z"/>
    <path class="cls-2" d="m1050.48,1270.43c79.91,18.5,163.03,28.6,248.56,28.6h0c0-85.53-10.1-168.66-28.6-248.56-59.69,18.21-120.17,31.35-180.92,39.05-7.7,60.75-20.84,121.23-39.04,180.92Z"/>
    <path class="cls-2" d="m1350.95,750c-42.59,45.61-88.4,87.23-137.16,124.28,23.71,56.46,42.57,115.41,56.64,176.2,78.45-23.93,155.49-56.75,229.56-99.51h0c-42.77-74.07-93.08-141.01-149.05-200.96Z"/>
    <path class="cls-2" d="m286.21,625.73c-23.71-56.46-42.57-115.41-56.64-176.2C151.11,473.46,74.07,506.27,0,549.04H0h0c42.77,74.07,93.08,141.01,149.05,200.96,42.58-45.61,88.4-87.23,137.16-124.27Z"/>
    <path class="cls-2" d="m402.06,549.12c-.05-46.15,2.57-92.45,8.42-138.64-60.75,7.7-121.23,20.84-180.92,39.05,14.08,60.79,32.94,119.74,56.64,176.2,37.07-28.16,75.86-53.58,115.85-76.61Z"/>
    <path class="cls-2" d="m402.06,549.12c-.05-46.15,2.57-92.45,8.42-138.64-60.75,7.7-121.23,20.84-180.92,39.05,14.08,60.79,32.94,119.74,56.64,176.2,37.07-28.16,75.86-53.58,115.85-76.61Z"/>
    <path class="cls-2" d="m1097.94,950.88c.05,46.15-2.57,92.45-8.42,138.63,60.75-7.7,121.23-20.84,180.92-39.05-14.07-60.79-32.94-119.74-56.64-176.2-37.07,28.16-75.86,53.58-115.85,76.61Z"/>
    <path class="cls-2" d="m1097.94,950.88c.05,46.15-2.57,92.45-8.42,138.63,60.75-7.7,121.23-20.84,180.92-39.05-14.07-60.79-32.94-119.74-56.64-176.2-37.07,28.16-75.86,53.58-115.85,76.61Z"/>
    <path class="cls-2" d="m1350.95,750c55.97-59.95,106.28-126.89,149.05-200.96h0,0c-74.07-42.77-151.11-75.58-229.56-99.51-14.07,60.79-32.94,119.74-56.64,176.2,48.76,37.04,94.57,78.66,137.16,124.27Z"/>
    <path class="cls-2" d="m149.05,750C93.08,809.95,42.77,876.89,0,950.96h0,0c74.07,42.77,151.11,75.58,229.56,99.51,14.07-60.79,32.94-119.74,56.64-176.2-48.76-37.04-94.57-78.66-137.16-124.27Z"/>
    <path class="cls-2" d="m286.21,874.27c18.02-42.93,38.91-84.32,62.02-124.27-23.12-39.95-44-81.35-62.02-124.27-48.76,37.04-94.57,78.66-137.16,124.27,42.59,45.61,88.4,87.23,137.16,124.27Z"/>
    <path class="cls-2" d="m286.21,874.27c18.02-42.93,38.91-84.32,62.02-124.27-23.12-39.95-44-81.35-62.02-124.27-48.76,37.04-94.57,78.66-137.16,124.27,42.59,45.61,88.4,87.23,137.16,124.27Z"/>
    <path class="cls-2" d="m1213.79,625.72c-18.02,42.93-38.9,84.33-62.02,124.27,23.12,39.95,44,81.35,62.02,124.27,48.76-37.04,94.57-78.67,137.16-124.28-42.59-45.61-88.4-87.23-137.16-124.27Z"/>
    <path class="cls-2" d="m1213.79,625.72c-18.02,42.93-38.9,84.33-62.02,124.27,23.12,39.95,44,81.35,62.02,124.27,48.76-37.04,94.57-78.67,137.16-124.28-42.59-45.61-88.4-87.23-137.16-124.27Z"/>
    <path class="cls-2" d="m402.06,549.12c-39.99,23.04-78.78,48.45-115.85,76.61,18.02,42.93,38.91,84.32,62.02,124.27,18.3-31.62,38.1-62.23,59.35-91.75-3.65-36.2-5.49-72.61-5.53-109.13Z"/>
    <path class="cls-2" d="m402.06,549.12c-39.99,23.04-78.78,48.45-115.85,76.61,18.02,42.93,38.91,84.32,62.02,124.27,18.3-31.62,38.1-62.23,59.35-91.75-3.65-36.2-5.49-72.61-5.53-109.13Z"/>
    <path class="cls-2" d="m402.06,549.12c-39.99,23.04-78.78,48.45-115.85,76.61,18.02,42.93,38.91,84.32,62.02,124.27,18.3-31.62,38.1-62.23,59.35-91.75-3.65-36.2-5.49-72.61-5.53-109.13Z"/>
    <path class="cls-2" d="m1092.42,841.75c3.65,36.19,5.49,72.6,5.53,109.13,40-23.04,78.78-48.45,115.85-76.61-18.02-42.93-38.91-84.32-62.02-124.27-18.3,31.62-38.1,62.23-59.35,91.75Z"/>
    <path class="cls-2" d="m1092.42,841.75c3.65,36.19,5.49,72.6,5.53,109.13,40-23.04,78.78-48.45,115.85-76.61-18.02-42.93-38.91-84.32-62.02-124.27-18.3,31.62-38.1,62.23-59.35,91.75Z"/>
    <path class="cls-2" d="m1092.42,841.75c3.65,36.19,5.49,72.6,5.53,109.13,40-23.04,78.78-48.45,115.85-76.61-18.02-42.93-38.91-84.32-62.02-124.27-18.3,31.62-38.1,62.23-59.35,91.75Z"/>
    <path class="cls-2" d="m229.57,1050.48c-18.5,79.91-28.6,163.03-28.6,248.56h0c85.53,0,168.66-10.1,248.56-28.6-18.21-59.69-31.35-120.17-39.05-180.92-60.75-7.7-121.23-20.84-180.92-39.05Z"/>
    <path class="cls-2" d="m1270.44,449.52c18.5-79.91,28.6-163.03,28.6-248.56h0s0,0,0,0c-85.53,0-168.66,10.1-248.56,28.6,18.21,59.69,31.35,120.17,39.05,180.92,60.75,7.7,121.23,20.84,180.92,39.04Z"/>
    <path class="cls-2" d="m1097.94,549.11c40,23.04,78.78,48.45,115.85,76.61,23.71-56.46,42.57-115.41,56.64-176.2-59.69-18.21-120.17-31.35-180.92-39.04,5.85,46.19,8.47,92.48,8.42,138.63Z"/>
    <path class="cls-2" d="m1097.94,549.11c40,23.04,78.78,48.45,115.85,76.61,23.71-56.46,42.57-115.41,56.64-176.2-59.69-18.21-120.17-31.35-180.92-39.04,5.85,46.19,8.47,92.48,8.42,138.63Z"/>
    <path class="cls-2" d="m402.06,950.89c-40-23.04-78.78-48.45-115.85-76.61-23.71,56.46-42.57,115.41-56.64,176.2,59.69,18.21,120.17,31.35,180.92,39.05-5.85-46.19-8.47-92.48-8.42-138.64Z"/>
    <path class="cls-2" d="m402.06,950.89c-40-23.04-78.78-48.45-115.85-76.61-23.71,56.46-42.57,115.41-56.64,176.2,59.69,18.21,120.17,31.35,180.92,39.05-5.85-46.19-8.47-92.48-8.42-138.64Z"/>
    <path class="cls-2" d="m1092.42,658.25c21.26,29.52,41.06,60.13,59.35,91.75,23.12-39.95,44-81.35,62.02-124.27-37.07-28.16-75.86-53.57-115.85-76.61-.04,36.53-1.88,72.94-5.53,109.14Z"/>
    <path class="cls-2" d="m1092.42,658.25c21.26,29.52,41.06,60.13,59.35,91.75,23.12-39.95,44-81.35,62.02-124.27-37.07-28.16-75.86-53.57-115.85-76.61-.04,36.53-1.88,72.94-5.53,109.14Z"/>
    <path class="cls-2" d="m1092.42,658.25c21.26,29.52,41.06,60.13,59.35,91.75,23.12-39.95,44-81.35,62.02-124.27-37.07-28.16-75.86-53.57-115.85-76.61-.04,36.53-1.88,72.94-5.53,109.14Z"/>
    <path class="cls-2" d="m407.58,841.75c-21.26-29.52-41.06-60.13-59.35-91.75-23.12,39.95-44,81.35-62.02,124.27,37.07,28.16,75.86,53.57,115.85,76.61.04-36.53,1.88-72.94,5.53-109.13Z"/>
    <path class="cls-2" d="m407.58,841.75c-21.26-29.52-41.06-60.13-59.35-91.75-23.12,39.95-44,81.35-62.02,124.27,37.07,28.16,75.86,53.57,115.85,76.61.04-36.53,1.88-72.94,5.53-109.13Z"/>
    <path class="cls-2" d="m407.58,841.75c-21.26-29.52-41.06-60.13-59.35-91.75-23.12,39.95-44,81.35-62.02,124.27,37.07,28.16,75.86,53.57,115.85,76.61.04-36.53,1.88-72.94,5.53-109.13Z"/>
    <path class="cls-2" d="m420.75,750c-5.67-30.36-10.06-60.96-13.17-91.75-21.26,29.52-41.06,60.13-59.35,91.75,18.3,31.62,38.1,62.23,59.35,91.75,3.1-30.79,7.5-61.39,13.17-91.75Z"/>
    <path class="cls-2" d="m420.75,750c-5.67-30.36-10.06-60.96-13.17-91.75-21.26,29.52-41.06,60.13-59.35,91.75,18.3,31.62,38.1,62.23,59.35,91.75,3.1-30.79,7.5-61.39,13.17-91.75Z"/>
    <path class="cls-2" d="m420.75,750c-5.67-30.36-10.06-60.96-13.17-91.75-21.26,29.52-41.06,60.13-59.35,91.75,18.3,31.62,38.1,62.23,59.35,91.75,3.1-30.79,7.5-61.39,13.17-91.75Z"/>
    <path class="cls-2" d="m420.75,750c-5.67-30.36-10.06-60.96-13.17-91.75-21.26,29.52-41.06,60.13-59.35,91.75,18.3,31.62,38.1,62.23,59.35,91.75,3.1-30.79,7.5-61.39,13.17-91.75Z"/>
    <path class="cls-2" d="m1079.25,750c5.67,30.36,10.06,60.96,13.17,91.75,21.26-29.52,41.06-60.13,59.35-91.75-18.3-31.62-38.1-62.23-59.35-91.75-3.1,30.79-7.5,61.39-13.17,91.75Z"/>
    <path class="cls-2" d="m1079.25,750c5.67,30.36,10.06,60.96,13.17,91.75,21.26-29.52,41.06-60.13,59.35-91.75-18.3-31.62-38.1-62.23-59.35-91.75-3.1,30.79-7.5,61.39-13.17,91.75Z"/>
    <path class="cls-2" d="m1079.25,750c5.67,30.36,10.06,60.96,13.17,91.75,21.26-29.52,41.06-60.13,59.35-91.75-18.3-31.62-38.1-62.23-59.35-91.75-3.1,30.79-7.5,61.39-13.17,91.75Z"/>
    <path class="cls-2" d="m1079.25,750c5.67,30.36,10.06,60.96,13.17,91.75,21.26-29.52,41.06-60.13,59.35-91.75-18.3-31.62-38.1-62.23-59.35-91.75-3.1,30.79-7.5,61.39-13.17,91.75Z"/>
    <path class="cls-2" d="m625.73,1213.79c-56.46,23.71-115.41,42.57-176.2,56.64,23.93,78.45,56.75,155.49,99.51,229.56h0s0,0,0,0c74.07-42.77,141.01-93.08,200.96-149.05-45.61-42.58-87.23-88.39-124.27-137.15Z"/>
    <path class="cls-2" d="m874.27,286.21c56.46-23.71,115.41-42.57,176.2-56.64C1026.54,151.11,993.73,74.07,950.96,0h0s0,0,0,0c-74.07,42.76-141.01,93.08-200.96,149.05,45.61,42.58,87.23,88.39,124.27,137.15Z"/>
    <path class="cls-2" d="m549.12,1097.94c-46.16.05-92.45-2.57-138.63-8.42,7.7,60.75,20.84,121.23,39.05,180.92,60.79-14.08,119.74-32.94,176.2-56.64-28.16-37.07-53.58-75.86-76.61-115.85Z"/>
    <path class="cls-2" d="m549.12,1097.94c-46.16.05-92.45-2.57-138.63-8.42,7.7,60.75,20.84,121.23,39.05,180.92,60.79-14.08,119.74-32.94,176.2-56.64-28.16-37.07-53.58-75.86-76.61-115.85Z"/>
    <path class="cls-2" d="m950.88,402.06c46.16-.05,92.45,2.57,138.63,8.42-7.7-60.75-20.84-121.23-39.05-180.92-60.79,14.08-119.74,32.94-176.2,56.64,28.16,37.07,53.58,75.85,76.61,115.85Z"/>
    <path class="cls-2" d="m950.88,402.06c46.16-.05,92.45,2.57,138.63,8.42-7.7-60.75-20.84-121.23-39.05-180.92-60.79,14.08-119.74,32.94-176.2,56.64,28.16,37.07,53.58,75.85,76.61,115.85Z"/>
    <path class="cls-2" d="m1097.94,549.11c.05-46.15-2.57-92.45-8.42-138.63-46.19-5.85-92.48-8.47-138.63-8.42,18.23,31.65,34.84,64.11,49.78,97.28,33.17,14.94,65.62,31.55,97.28,49.78Z"/>
    <path class="cls-2" d="m1097.94,549.11c.05-46.15-2.57-92.45-8.42-138.63-46.19-5.85-92.48-8.47-138.63-8.42,18.23,31.65,34.84,64.11,49.78,97.28,33.17,14.94,65.62,31.55,97.28,49.78Z"/>
    <path class="cls-2" d="m1097.94,549.11c.05-46.15-2.57-92.45-8.42-138.63-46.19-5.85-92.48-8.47-138.63-8.42,18.23,31.65,34.84,64.11,49.78,97.28,33.17,14.94,65.62,31.55,97.28,49.78Z"/>
    <path class="cls-2" d="m402.06,950.89c-.05,46.15,2.57,92.45,8.42,138.64,46.19,5.85,92.48,8.47,138.63,8.42-18.23-31.65-34.84-64.11-49.78-97.28-33.17-14.94-65.62-31.55-97.28-49.78Z"/>
    <path class="cls-2" d="m402.06,950.89c-.05,46.15,2.57,92.45,8.42,138.64,46.19,5.85,92.48,8.47,138.63,8.42-18.23-31.65-34.84-64.11-49.78-97.28-33.17-14.94-65.62-31.55-97.28-49.78Z"/>
    <path class="cls-2" d="m402.06,950.89c-.05,46.15,2.57,92.45,8.42,138.64,46.19,5.85,92.48,8.47,138.63,8.42-18.23-31.65-34.84-64.11-49.78-97.28-33.17-14.94-65.62-31.55-97.28-49.78Z"/>
    <path class="cls-2" d="m464.86,914.62c-20.09-23.46-39.19-47.76-57.28-72.87-3.65,36.2-5.49,72.61-5.53,109.13,31.65,18.23,64.11,34.84,97.28,49.78-12.71-28.22-24.2-56.91-34.47-86.04Z"/>
    <path class="cls-2" d="m464.86,914.62c-20.09-23.46-39.19-47.76-57.28-72.87-3.65,36.2-5.49,72.61-5.53,109.13,31.65,18.23,64.11,34.84,97.28,49.78-12.71-28.22-24.2-56.91-34.47-86.04Z"/>
    <path class="cls-2" d="m464.86,914.62c-20.09-23.46-39.19-47.76-57.28-72.87-3.65,36.2-5.49,72.61-5.53,109.13,31.65,18.23,64.11,34.84,97.28,49.78-12.71-28.22-24.2-56.91-34.47-86.04Z"/>
    <path class="cls-2" d="m464.86,914.62c-20.09-23.46-39.19-47.76-57.28-72.87-3.65,36.2-5.49,72.61-5.53,109.13,31.65,18.23,64.11,34.84,97.28,49.78-12.71-28.22-24.2-56.91-34.47-86.04Z"/>
    <path class="cls-2" d="m1035.14,585.37c20.09,23.46,39.19,47.76,57.28,72.88,3.65-36.2,5.49-72.61,5.53-109.14-31.65-18.23-64.11-34.84-97.28-49.78,12.71,28.22,24.2,56.91,34.47,86.04Z"/>
    <path class="cls-2" d="m1035.14,585.37c20.09,23.46,39.19,47.76,57.28,72.88,3.65-36.2,5.49-72.61,5.53-109.14-31.65-18.23-64.11-34.84-97.28-49.78,12.71,28.22,24.2,56.91,34.47,86.04Z"/>
    <path class="cls-2" d="m1035.14,585.37c20.09,23.46,39.19,47.76,57.28,72.88,3.65-36.2,5.49-72.61,5.53-109.14-31.65-18.23-64.11-34.84-97.28-49.78,12.71,28.22,24.2,56.91,34.47,86.04Z"/>
    <path class="cls-2" d="m1035.14,585.37c20.09,23.46,39.19,47.76,57.28,72.88,3.65-36.2,5.49-72.61,5.53-109.14-31.65-18.23-64.11-34.84-97.28-49.78,12.71,28.22,24.2,56.91,34.47,86.04Z"/>
    <path class="cls-2" d="m407.58,841.75c18.08,25.11,37.19,49.41,57.28,72.87-18.92-53.66-33.67-108.69-44.11-164.62-5.67,30.36-10.06,60.96-13.17,91.75Z"/>
    <path class="cls-2" d="m407.58,841.75c18.08,25.11,37.19,49.41,57.28,72.87-18.92-53.66-33.67-108.69-44.11-164.62-5.67,30.36-10.06,60.96-13.17,91.75Z"/>
    <path class="cls-2" d="m407.58,841.75c18.08,25.11,37.19,49.41,57.28,72.87-18.92-53.66-33.67-108.69-44.11-164.62-5.67,30.36-10.06,60.96-13.17,91.75Z"/>
    <path class="cls-2" d="m407.58,841.75c18.08,25.11,37.19,49.41,57.28,72.87-18.92-53.66-33.67-108.69-44.11-164.62-5.67,30.36-10.06,60.96-13.17,91.75Z"/>
    <path class="cls-2" d="m407.58,841.75c18.08,25.11,37.19,49.41,57.28,72.87-18.92-53.66-33.67-108.69-44.11-164.62-5.67,30.36-10.06,60.96-13.17,91.75Z"/>
    <path class="cls-2" d="m1092.42,658.25c-18.08-25.11-37.19-49.41-57.28-72.88,18.92,53.66,33.67,108.69,44.11,164.63,5.67-30.36,10.06-60.96,13.17-91.75Z"/>
    <path class="cls-2" d="m1092.42,658.25c-18.08-25.11-37.19-49.41-57.28-72.88,18.92,53.66,33.67,108.69,44.11,164.63,5.67-30.36,10.06-60.96,13.17-91.75Z"/>
    <path class="cls-2" d="m1092.42,658.25c-18.08-25.11-37.19-49.41-57.28-72.88,18.92,53.66,33.67,108.69,44.11,164.63,5.67-30.36,10.06-60.96,13.17-91.75Z"/>
    <path class="cls-2" d="m1092.42,658.25c-18.08-25.11-37.19-49.41-57.28-72.88,18.92,53.66,33.67,108.69,44.11,164.63,5.67-30.36,10.06-60.96,13.17-91.75Z"/>
    <path class="cls-2" d="m1092.42,658.25c-18.08-25.11-37.19-49.41-57.28-72.88,18.92,53.66,33.67,108.69,44.11,164.63,5.67-30.36,10.06-60.96,13.17-91.75Z"/>
    <path class="cls-2" d="m750,149.05C690.05,93.08,623.11,42.77,549.04,0h0c-42.77,74.07-75.58,151.11-99.51,229.56,60.79,14.08,119.74,32.94,176.2,56.64,37.04-48.76,78.66-94.57,124.27-137.16Z"/>
    <path class="cls-2" d="m750,1350.95c59.95,55.97,126.89,106.28,200.96,149.05h0c42.77-74.07,75.58-151.11,99.51-229.56-60.79-14.07-119.74-32.94-176.2-56.64-37.04,48.76-78.66,94.57-124.27,137.16Z"/>
    <path class="cls-2" d="m950.89,1097.94c-23.04,40-48.45,78.78-76.61,115.85,56.46,23.71,115.41,42.57,176.2,56.64,18.21-59.69,31.35-120.17,39.04-180.92-46.19,5.85-92.48,8.47-138.63,8.42Z"/>
    <path class="cls-2" d="m950.89,1097.94c-23.04,40-48.45,78.78-76.61,115.85,56.46,23.71,115.41,42.57,176.2,56.64,18.21-59.69,31.35-120.17,39.04-180.92-46.19,5.85-92.48,8.47-138.63,8.42Z"/>
    <path class="cls-2" d="m549.11,402.06c23.04-40,48.45-78.78,76.61-115.85-56.46-23.71-115.41-42.57-176.2-56.64-18.21,59.69-31.35,120.17-39.04,180.92,46.19-5.85,92.48-8.47,138.63-8.42Z"/>
    <path class="cls-2" d="m549.11,402.06c23.04-40,48.45-78.78,76.61-115.85-56.46-23.71-115.41-42.57-176.2-56.64-18.21,59.69-31.35,120.17-39.04,180.92,46.19-5.85,92.48-8.47,138.63-8.42Z"/>
    <path class="cls-2" d="m950.89,1097.94c46.16.05,92.45-2.57,138.63-8.42,5.85-46.19,8.47-92.48,8.42-138.63-31.65,18.23-64.11,34.84-97.28,49.78-14.94,33.17-31.55,65.62-49.78,97.28Z"/>
    <path class="cls-2" d="m950.89,1097.94c46.16.05,92.45-2.57,138.63-8.42,5.85-46.19,8.47-92.48,8.42-138.63-31.65,18.23-64.11,34.84-97.28,49.78-14.94,33.17-31.55,65.62-49.78,97.28Z"/>
    <path class="cls-2" d="m950.89,1097.94c46.16.05,92.45-2.57,138.63-8.42,5.85-46.19,8.47-92.48,8.42-138.63-31.65,18.23-64.11,34.84-97.28,49.78-14.94,33.17-31.55,65.62-49.78,97.28Z"/>
    <path class="cls-2" d="m549.11,402.06c-46.15-.05-92.45,2.57-138.63,8.42-5.85,46.19-8.47,92.48-8.42,138.64,31.65-18.23,64.11-34.84,97.28-49.78,14.94-33.17,31.55-65.62,49.78-97.28Z"/>
    <path class="cls-2" d="m549.11,402.06c-46.15-.05-92.45,2.57-138.63,8.42-5.85,46.19-8.47,92.48-8.42,138.64,31.65-18.23,64.11-34.84,97.28-49.78,14.94-33.17,31.55-65.62,49.78-97.28Z"/>
    <path class="cls-2" d="m549.11,402.06c-46.15-.05-92.45,2.57-138.63,8.42-5.85,46.19-8.47,92.48-8.42,138.64,31.65-18.23,64.11-34.84,97.28-49.78,14.94-33.17,31.55-65.62,49.78-97.28Z"/>
    <path class="cls-2" d="m407.58,658.25c18.08-25.11,37.19-49.41,57.28-72.87,10.27-29.13,21.77-57.82,34.47-86.04-33.17,14.94-65.62,31.55-97.28,49.78.04,36.53,1.88,72.94,5.53,109.13Z"/>
    <path class="cls-2" d="m407.58,658.25c18.08-25.11,37.19-49.41,57.28-72.87,10.27-29.13,21.77-57.82,34.47-86.04-33.17,14.94-65.62,31.55-97.28,49.78.04,36.53,1.88,72.94,5.53,109.13Z"/>
    <path class="cls-2" d="m407.58,658.25c18.08-25.11,37.19-49.41,57.28-72.87,10.27-29.13,21.77-57.82,34.47-86.04-33.17,14.94-65.62,31.55-97.28,49.78.04,36.53,1.88,72.94,5.53,109.13Z"/>
    <path class="cls-2" d="m407.58,658.25c18.08-25.11,37.19-49.41,57.28-72.87,10.27-29.13,21.77-57.82,34.47-86.04-33.17,14.94-65.62,31.55-97.28,49.78.04,36.53,1.88,72.94,5.53,109.13Z"/>
    <path class="cls-2" d="m1092.42,841.75c-18.08,25.11-37.19,49.41-57.28,72.87-10.27,29.13-21.77,57.82-34.47,86.04,33.17-14.94,65.62-31.55,97.28-49.78-.04-36.53-1.88-72.94-5.53-109.13Z"/>
    <path class="cls-2" d="m1092.42,841.75c-18.08,25.11-37.19,49.41-57.28,72.87-10.27,29.13-21.77,57.82-34.47,86.04,33.17-14.94,65.62-31.55,97.28-49.78-.04-36.53-1.88-72.94-5.53-109.13Z"/>
    <path class="cls-2" d="m1092.42,841.75c-18.08,25.11-37.19,49.41-57.28,72.87-10.27,29.13-21.77,57.82-34.47,86.04,33.17-14.94,65.62-31.55,97.28-49.78-.04-36.53-1.88-72.94-5.53-109.13Z"/>
    <path class="cls-2" d="m1092.42,841.75c-18.08,25.11-37.19,49.41-57.28,72.87-10.27,29.13-21.77,57.82-34.47,86.04,33.17-14.94,65.62-31.55,97.28-49.78-.04-36.53-1.88-72.94-5.53-109.13Z"/>
    <path class="cls-2" d="m1035.14,914.62c20.09-23.46,39.19-47.76,57.28-72.87-3.1-30.79-7.5-61.39-13.17-91.75-10.44,55.93-25.19,110.96-44.11,164.62Z"/>
    <path class="cls-2" d="m1035.14,914.62c20.09-23.46,39.19-47.76,57.28-72.87-3.1-30.79-7.5-61.39-13.17-91.75-10.44,55.93-25.19,110.96-44.11,164.62Z"/>
    <path class="cls-2" d="m1035.14,914.62c20.09-23.46,39.19-47.76,57.28-72.87-3.1-30.79-7.5-61.39-13.17-91.75-10.44,55.93-25.19,110.96-44.11,164.62Z"/>
    <path class="cls-2" d="m1035.14,914.62c20.09-23.46,39.19-47.76,57.28-72.87-3.1-30.79-7.5-61.39-13.17-91.75-10.44,55.93-25.19,110.96-44.11,164.62Z"/>
    <path class="cls-2" d="m1035.14,914.62c20.09-23.46,39.19-47.76,57.28-72.87-3.1-30.79-7.5-61.39-13.17-91.75-10.44,55.93-25.19,110.96-44.11,164.62Z"/>
    <path class="cls-2" d="m407.58,658.25c3.1,30.79,7.5,61.39,13.17,91.75,10.44-55.93,25.19-110.96,44.11-164.62-20.09,23.46-39.19,47.76-57.28,72.87Z"/>
    <path class="cls-2" d="m407.58,658.25c3.1,30.79,7.5,61.39,13.17,91.75,10.44-55.93,25.19-110.96,44.11-164.62-20.09,23.46-39.19,47.76-57.28,72.87Z"/>
    <path class="cls-2" d="m407.58,658.25c3.1,30.79,7.5,61.39,13.17,91.75,10.44-55.93,25.19-110.96,44.11-164.62-20.09,23.46-39.19,47.76-57.28,72.87Z"/>
    <path class="cls-2" d="m407.58,658.25c3.1,30.79,7.5,61.39,13.17,91.75,10.44-55.93,25.19-110.96,44.11-164.62-20.09,23.46-39.19,47.76-57.28,72.87Z"/>
    <path class="cls-2" d="m407.58,658.25c3.1,30.79,7.5,61.39,13.17,91.75,10.44-55.93,25.19-110.96,44.11-164.62-20.09,23.46-39.19,47.76-57.28,72.87Z"/>
    <path class="cls-2" d="m625.72,286.21c42.93,18.02,84.33,38.9,124.27,62.02,39.95-23.12,81.34-44,124.27-62.02-37.04-48.76-78.66-94.57-124.27-137.15-45.61,42.58-87.23,88.4-124.27,137.16Z"/>
    <path class="cls-2" d="m625.72,286.21c42.93,18.02,84.33,38.9,124.27,62.02,39.95-23.12,81.34-44,124.27-62.02-37.04-48.76-78.66-94.57-124.27-137.15-45.61,42.58-87.23,88.4-124.27,137.16Z"/>
    <path class="cls-2" d="m874.28,1213.79c-42.93-18.03-84.32-38.91-124.27-62.02-39.95,23.12-81.35,44-124.27,62.02,37.04,48.76,78.66,94.57,124.27,137.15,45.61-42.58,87.23-88.4,124.27-137.16Z"/>
    <path class="cls-2" d="m874.28,1213.79c-42.93-18.03-84.32-38.91-124.27-62.02-39.95,23.12-81.35,44-124.27,62.02,37.04,48.76,78.66,94.57,124.27,137.15,45.61-42.58,87.23-88.4,124.27-137.16Z"/>
    <path class="cls-2" d="m841.75,1092.41c-29.52,21.26-60.13,41.06-91.75,59.35,39.95,23.12,81.35,44,124.27,62.02,28.16-37.07,53.57-75.85,76.61-115.85-36.53-.04-72.94-1.88-109.14-5.53Z"/>
    <path class="cls-2" d="m841.75,1092.41c-29.52,21.26-60.13,41.06-91.75,59.35,39.95,23.12,81.35,44,124.27,62.02,28.16-37.07,53.57-75.85,76.61-115.85-36.53-.04-72.94-1.88-109.14-5.53Z"/>
    <path class="cls-2" d="m841.75,1092.41c-29.52,21.26-60.13,41.06-91.75,59.35,39.95,23.12,81.35,44,124.27,62.02,28.16-37.07,53.57-75.85,76.61-115.85-36.53-.04-72.94-1.88-109.14-5.53Z"/>
    <path class="cls-2" d="m658.25,407.58c29.52-21.26,60.13-41.06,91.75-59.35-39.95-23.12-81.35-44-124.27-62.02-28.16,37.07-53.57,75.85-76.61,115.85,36.53.04,72.94,1.88,109.14,5.53Z"/>
    <path class="cls-2" d="m658.25,407.58c29.52-21.26,60.13-41.06,91.75-59.35-39.95-23.12-81.35-44-124.27-62.02-28.16,37.07-53.57,75.85-76.61,115.85,36.53.04,72.94,1.88,109.14,5.53Z"/>
    <path class="cls-2" d="m658.25,407.58c29.52-21.26,60.13-41.06,91.75-59.35-39.95-23.12-81.35-44-124.27-62.02-28.16,37.07-53.57,75.85-76.61,115.85,36.53.04,72.94,1.88,109.14,5.53Z"/>
    <path class="cls-2" d="m585.37,464.86c23.46-20.09,47.76-39.19,72.87-57.28-36.2-3.65-72.61-5.49-109.14-5.53-18.23,31.65-34.84,64.11-49.78,97.28,28.22-12.71,56.91-24.2,86.04-34.47Z"/>
    <path class="cls-2" d="m585.37,464.86c23.46-20.09,47.76-39.19,72.87-57.28-36.2-3.65-72.61-5.49-109.14-5.53-18.23,31.65-34.84,64.11-49.78,97.28,28.22-12.71,56.91-24.2,86.04-34.47Z"/>
    <path class="cls-2" d="m585.37,464.86c23.46-20.09,47.76-39.19,72.87-57.28-36.2-3.65-72.61-5.49-109.14-5.53-18.23,31.65-34.84,64.11-49.78,97.28,28.22-12.71,56.91-24.2,86.04-34.47Z"/>
    <path class="cls-2" d="m585.37,464.86c23.46-20.09,47.76-39.19,72.87-57.28-36.2-3.65-72.61-5.49-109.14-5.53-18.23,31.65-34.84,64.11-49.78,97.28,28.22-12.71,56.91-24.2,86.04-34.47Z"/>
    <path class="cls-2" d="m914.63,1035.14c-23.46,20.09-47.76,39.19-72.87,57.28,36.2,3.65,72.61,5.49,109.14,5.53,18.23-31.65,34.84-64.11,49.78-97.28-28.22,12.71-56.91,24.2-86.04,34.47Z"/>
    <path class="cls-2" d="m914.63,1035.14c-23.46,20.09-47.76,39.19-72.87,57.28,36.2,3.65,72.61,5.49,109.14,5.53,18.23-31.65,34.84-64.11,49.78-97.28-28.22,12.71-56.91,24.2-86.04,34.47Z"/>
    <path class="cls-2" d="m914.63,1035.14c-23.46,20.09-47.76,39.19-72.87,57.28,36.2,3.65,72.61,5.49,109.14,5.53,18.23-31.65,34.84-64.11,49.78-97.28-28.22,12.71-56.91,24.2-86.04,34.47Z"/>
    <path class="cls-2" d="m914.63,1035.14c-23.46,20.09-47.76,39.19-72.87,57.28,36.2,3.65,72.61,5.49,109.14,5.53,18.23-31.65,34.84-64.11,49.78-97.28-28.22,12.71-56.91,24.2-86.04,34.47Z"/>
    <path class="cls-2" d="m585.37,464.86c-29.13,10.27-57.82,21.77-86.04,34.47-12.71,28.22-24.2,56.91-34.47,86.04,37.01-43.22,77.3-83.51,120.51-120.51Z"/>
    <path class="cls-2" d="m585.37,464.86c-29.13,10.27-57.82,21.77-86.04,34.47-12.71,28.22-24.2,56.91-34.47,86.04,37.01-43.22,77.3-83.51,120.51-120.51Z"/>
    <path class="cls-2" d="m585.37,464.86c-29.13,10.27-57.82,21.77-86.04,34.47-12.71,28.22-24.2,56.91-34.47,86.04,37.01-43.22,77.3-83.51,120.51-120.51Z"/>
    <path class="cls-2" d="m585.37,464.86c-29.13,10.27-57.82,21.77-86.04,34.47-12.71,28.22-24.2,56.91-34.47,86.04,37.01-43.22,77.3-83.51,120.51-120.51Z"/>
    <path class="cls-2" d="m585.37,464.86c-29.13,10.27-57.82,21.77-86.04,34.47-12.71,28.22-24.2,56.91-34.47,86.04,37.01-43.22,77.3-83.51,120.51-120.51Z"/>
    <path class="cls-2" d="m914.63,1035.14c29.13-10.27,57.82-21.77,86.04-34.47,12.71-28.22,24.2-56.91,34.47-86.04-37.01,43.22-77.29,83.5-120.51,120.51Z"/>
    <path class="cls-2" d="m914.63,1035.14c29.13-10.27,57.82-21.77,86.04-34.47,12.71-28.22,24.2-56.91,34.47-86.04-37.01,43.22-77.29,83.5-120.51,120.51Z"/>
    <path class="cls-2" d="m914.63,1035.14c29.13-10.27,57.82-21.77,86.04-34.47,12.71-28.22,24.2-56.91,34.47-86.04-37.01,43.22-77.29,83.5-120.51,120.51Z"/>
    <path class="cls-2" d="m914.63,1035.14c29.13-10.27,57.82-21.77,86.04-34.47,12.71-28.22,24.2-56.91,34.47-86.04-37.01,43.22-77.29,83.5-120.51,120.51Z"/>
    <path class="cls-2" d="m914.63,1035.14c29.13-10.27,57.82-21.77,86.04-34.47,12.71-28.22,24.2-56.91,34.47-86.04-37.01,43.22-77.29,83.5-120.51,120.51Z"/>
    <path class="cls-2" d="m549.12,1097.94c23.04,40,48.45,78.78,76.61,115.85,42.93-18.03,84.32-38.91,124.27-62.02-31.62-18.3-62.23-38.09-91.75-59.35-36.2,3.65-72.61,5.49-109.13,5.53Z"/>
    <path class="cls-2" d="m549.12,1097.94c23.04,40,48.45,78.78,76.61,115.85,42.93-18.03,84.32-38.91,124.27-62.02-31.62-18.3-62.23-38.09-91.75-59.35-36.2,3.65-72.61,5.49-109.13,5.53Z"/>
    <path class="cls-2" d="m549.12,1097.94c23.04,40,48.45,78.78,76.61,115.85,42.93-18.03,84.32-38.91,124.27-62.02-31.62-18.3-62.23-38.09-91.75-59.35-36.2,3.65-72.61,5.49-109.13,5.53Z"/>
    <path class="cls-2" d="m950.88,402.06c-23.04-40-48.45-78.78-76.61-115.85-42.93,18.03-84.32,38.9-124.27,62.02,31.62,18.3,62.23,38.1,91.75,59.35,36.2-3.65,72.61-5.49,109.13-5.53Z"/>
    <path class="cls-2" d="m950.88,402.06c-23.04-40-48.45-78.78-76.61-115.85-42.93,18.03-84.32,38.9-124.27,62.02,31.62,18.3,62.23,38.1,91.75,59.35,36.2-3.65,72.61-5.49,109.13-5.53Z"/>
    <path class="cls-2" d="m950.88,402.06c-23.04-40-48.45-78.78-76.61-115.85-42.93,18.03-84.32,38.9-124.27,62.02,31.62,18.3,62.23,38.1,91.75,59.35,36.2-3.65,72.61-5.49,109.13-5.53Z"/>
    <path class="cls-2" d="m750,1079.25c-30.36,5.67-60.96,10.06-91.75,13.17,29.52,21.26,60.13,41.06,91.75,59.35,31.62-18.3,62.23-38.09,91.75-59.35-30.79-3.1-61.39-7.5-91.75-13.17Z"/>
    <path class="cls-2" d="m750,1079.25c-30.36,5.67-60.96,10.06-91.75,13.17,29.52,21.26,60.13,41.06,91.75,59.35,31.62-18.3,62.23-38.09,91.75-59.35-30.79-3.1-61.39-7.5-91.75-13.17Z"/>
    <path class="cls-2" d="m750,1079.25c-30.36,5.67-60.96,10.06-91.75,13.17,29.52,21.26,60.13,41.06,91.75,59.35,31.62-18.3,62.23-38.09,91.75-59.35-30.79-3.1-61.39-7.5-91.75-13.17Z"/>
    <path class="cls-2" d="m750,1079.25c-30.36,5.67-60.96,10.06-91.75,13.17,29.52,21.26,60.13,41.06,91.75,59.35,31.62-18.3,62.23-38.09,91.75-59.35-30.79-3.1-61.39-7.5-91.75-13.17Z"/>
    <path class="cls-2" d="m750,420.75c30.36-5.67,60.96-10.06,91.75-13.17-29.52-21.26-60.13-41.06-91.75-59.35-31.62,18.3-62.23,38.1-91.75,59.35,30.79,3.11,61.39,7.5,91.75,13.17Z"/>
    <path class="cls-2" d="m750,420.75c30.36-5.67,60.96-10.06,91.75-13.17-29.52-21.26-60.13-41.06-91.75-59.35-31.62,18.3-62.23,38.1-91.75,59.35,30.79,3.11,61.39,7.5,91.75,13.17Z"/>
    <path class="cls-2" d="m750,420.75c30.36-5.67,60.96-10.06,91.75-13.17-29.52-21.26-60.13-41.06-91.75-59.35-31.62,18.3-62.23,38.1-91.75,59.35,30.79,3.11,61.39,7.5,91.75,13.17Z"/>
    <path class="cls-2" d="m750,420.75c30.36-5.67,60.96-10.06,91.75-13.17-29.52-21.26-60.13-41.06-91.75-59.35-31.62,18.3-62.23,38.1-91.75,59.35,30.79,3.11,61.39,7.5,91.75,13.17Z"/>
    <path class="cls-2" d="m658.25,407.58c-25.11,18.08-49.41,37.19-72.87,57.28,53.66-18.93,108.69-33.67,164.62-44.11-30.36-5.67-60.96-10.06-91.75-13.17Z"/>
    <path class="cls-2" d="m658.25,407.58c-25.11,18.08-49.41,37.19-72.87,57.28,53.66-18.93,108.69-33.67,164.62-44.11-30.36-5.67-60.96-10.06-91.75-13.17Z"/>
    <path class="cls-2" d="m658.25,407.58c-25.11,18.08-49.41,37.19-72.87,57.28,53.66-18.93,108.69-33.67,164.62-44.11-30.36-5.67-60.96-10.06-91.75-13.17Z"/>
    <path class="cls-2" d="m658.25,407.58c-25.11,18.08-49.41,37.19-72.87,57.28,53.66-18.93,108.69-33.67,164.62-44.11-30.36-5.67-60.96-10.06-91.75-13.17Z"/>
    <path class="cls-2" d="m658.25,407.58c-25.11,18.08-49.41,37.19-72.87,57.28,53.66-18.93,108.69-33.67,164.62-44.11-30.36-5.67-60.96-10.06-91.75-13.17Z"/>
    <path class="cls-2" d="m841.75,1092.41c25.11-18.08,49.41-37.19,72.87-57.28-53.66,18.92-108.69,33.67-164.62,44.11,30.36,5.67,60.96,10.06,91.75,13.17Z"/>
    <path class="cls-2" d="m841.75,1092.41c25.11-18.08,49.41-37.19,72.87-57.28-53.66,18.92-108.69,33.67-164.62,44.11,30.36,5.67,60.96,10.06,91.75,13.17Z"/>
    <path class="cls-2" d="m841.75,1092.41c25.11-18.08,49.41-37.19,72.87-57.28-53.66,18.92-108.69,33.67-164.62,44.11,30.36,5.67,60.96,10.06,91.75,13.17Z"/>
    <path class="cls-2" d="m841.75,1092.41c25.11-18.08,49.41-37.19,72.87-57.28-53.66,18.92-108.69,33.67-164.62,44.11,30.36,5.67,60.96,10.06,91.75,13.17Z"/>
    <path class="cls-2" d="m841.75,1092.41c25.11-18.08,49.41-37.19,72.87-57.28-53.66,18.92-108.69,33.67-164.62,44.11,30.36,5.67,60.96,10.06,91.75,13.17Z"/>
    <path class="cls-2" d="m841.75,407.58c25.11,18.08,49.41,37.19,72.87,57.28,29.13,10.27,57.82,21.77,86.04,34.47-14.94-33.17-31.55-65.62-49.78-97.28-36.53.04-72.94,1.88-109.13,5.53Z"/>
    <path class="cls-2" d="m841.75,407.58c25.11,18.08,49.41,37.19,72.87,57.28,29.13,10.27,57.82,21.77,86.04,34.47-14.94-33.17-31.55-65.62-49.78-97.28-36.53.04-72.94,1.88-109.13,5.53Z"/>
    <path class="cls-2" d="m841.75,407.58c25.11,18.08,49.41,37.19,72.87,57.28,29.13,10.27,57.82,21.77,86.04,34.47-14.94-33.17-31.55-65.62-49.78-97.28-36.53.04-72.94,1.88-109.13,5.53Z"/>
    <path class="cls-2" d="m841.75,407.58c25.11,18.08,49.41,37.19,72.87,57.28,29.13,10.27,57.82,21.77,86.04,34.47-14.94-33.17-31.55-65.62-49.78-97.28-36.53.04-72.94,1.88-109.13,5.53Z"/>
    <path class="cls-2" d="m658.25,1092.42c-25.11-18.08-49.41-37.19-72.87-57.28-29.13-10.27-57.82-21.77-86.04-34.47,14.94,33.17,31.55,65.62,49.78,97.28,36.53-.04,72.94-1.88,109.13-5.53Z"/>
    <path class="cls-2" d="m658.25,1092.42c-25.11-18.08-49.41-37.19-72.87-57.28-29.13-10.27-57.82-21.77-86.04-34.47,14.94,33.17,31.55,65.62,49.78,97.28,36.53-.04,72.94-1.88,109.13-5.53Z"/>
    <path class="cls-2" d="m658.25,1092.42c-25.11-18.08-49.41-37.19-72.87-57.28-29.13-10.27-57.82-21.77-86.04-34.47,14.94,33.17,31.55,65.62,49.78,97.28,36.53-.04,72.94-1.88,109.13-5.53Z"/>
    <path class="cls-2" d="m658.25,1092.42c-25.11-18.08-49.41-37.19-72.87-57.28-29.13-10.27-57.82-21.77-86.04-34.47,14.94,33.17,31.55,65.62,49.78,97.28,36.53-.04,72.94-1.88,109.13-5.53Z"/>
    <path class="cls-2" d="m658.25,1092.42c30.79-3.1,61.39-7.5,91.75-13.17-55.93-10.44-110.96-25.19-164.62-44.11,23.46,20.09,47.76,39.19,72.87,57.28Z"/>
    <path class="cls-2" d="m658.25,1092.42c30.79-3.1,61.39-7.5,91.75-13.17-55.93-10.44-110.96-25.19-164.62-44.11,23.46,20.09,47.76,39.19,72.87,57.28Z"/>
    <path class="cls-2" d="m658.25,1092.42c30.79-3.1,61.39-7.5,91.75-13.17-55.93-10.44-110.96-25.19-164.62-44.11,23.46,20.09,47.76,39.19,72.87,57.28Z"/>
    <path class="cls-2" d="m658.25,1092.42c30.79-3.1,61.39-7.5,91.75-13.17-55.93-10.44-110.96-25.19-164.62-44.11,23.46,20.09,47.76,39.19,72.87,57.28Z"/>
    <path class="cls-2" d="m658.25,1092.42c30.79-3.1,61.39-7.5,91.75-13.17-55.93-10.44-110.96-25.19-164.62-44.11,23.46,20.09,47.76,39.19,72.87,57.28Z"/>
    <path class="cls-2" d="m841.75,407.58c-30.79,3.1-61.39,7.5-91.75,13.17,55.93,10.44,110.96,25.19,164.62,44.11-23.46-20.09-47.76-39.19-72.87-57.28Z"/>
    <path class="cls-2" d="m841.75,407.58c-30.79,3.1-61.39,7.5-91.75,13.17,55.93,10.44,110.96,25.19,164.62,44.11-23.46-20.09-47.76-39.19-72.87-57.28Z"/>
    <path class="cls-2" d="m841.75,407.58c-30.79,3.1-61.39,7.5-91.75,13.17,55.93,10.44,110.96,25.19,164.62,44.11-23.46-20.09-47.76-39.19-72.87-57.28Z"/>
    <path class="cls-2" d="m841.75,407.58c-30.79,3.1-61.39,7.5-91.75,13.17,55.93,10.44,110.96,25.19,164.62,44.11-23.46-20.09-47.76-39.19-72.87-57.28Z"/>
    <path class="cls-2" d="m841.75,407.58c-30.79,3.1-61.39,7.5-91.75,13.17,55.93,10.44,110.96,25.19,164.62,44.11-23.46-20.09-47.76-39.19-72.87-57.28Z"/>
    <path class="cls-2" d="m464.86,914.62c10.27,29.13,21.77,57.82,34.47,86.04,28.22,12.71,56.91,24.2,86.04,34.47-43.22-37.01-83.5-77.29-120.51-120.51Z"/>
    <path class="cls-2" d="m464.86,914.62c10.27,29.13,21.77,57.82,34.47,86.04,28.22,12.71,56.91,24.2,86.04,34.47-43.22-37.01-83.5-77.29-120.51-120.51Z"/>
    <path class="cls-2" d="m464.86,914.62c10.27,29.13,21.77,57.82,34.47,86.04,28.22,12.71,56.91,24.2,86.04,34.47-43.22-37.01-83.5-77.29-120.51-120.51Z"/>
    <path class="cls-2" d="m464.86,914.62c10.27,29.13,21.77,57.82,34.47,86.04,28.22,12.71,56.91,24.2,86.04,34.47-43.22-37.01-83.5-77.29-120.51-120.51Z"/>
    <path class="cls-2" d="m464.86,914.62c10.27,29.13,21.77,57.82,34.47,86.04,28.22,12.71,56.91,24.2,86.04,34.47-43.22-37.01-83.5-77.29-120.51-120.51Z"/>
    <path class="cls-2" d="m1035.14,585.37c-10.27-29.13-21.77-57.82-34.47-86.04-28.22-12.71-56.91-24.2-86.04-34.47,43.22,37.01,83.5,77.29,120.51,120.51Z"/>
    <path class="cls-2" d="m1035.14,585.37c-10.27-29.13-21.77-57.82-34.47-86.04-28.22-12.71-56.91-24.2-86.04-34.47,43.22,37.01,83.5,77.29,120.51,120.51Z"/>
    <path class="cls-2" d="m1035.14,585.37c-10.27-29.13-21.77-57.82-34.47-86.04-28.22-12.71-56.91-24.2-86.04-34.47,43.22,37.01,83.5,77.29,120.51,120.51Z"/>
    <path class="cls-2" d="m1035.14,585.37c-10.27-29.13-21.77-57.82-34.47-86.04-28.22-12.71-56.91-24.2-86.04-34.47,43.22,37.01,83.5,77.29,120.51,120.51Z"/>
    <path class="cls-2" d="m1035.14,585.37c-10.27-29.13-21.77-57.82-34.47-86.04-28.22-12.71-56.91-24.2-86.04-34.47,43.22,37.01,83.5,77.29,120.51,120.51Z"/>
    <path class="cls-2" d="m1035.14,585.37c-37.01-43.22-77.3-83.5-120.51-120.51-53.66-18.92-108.69-33.67-164.62-44.11-55.93,10.44-110.96,25.19-164.62,44.11-43.22,37.01-83.5,77.29-120.51,120.51-18.92,53.66-33.67,108.69-44.11,164.62,10.44,55.93,25.19,110.96,44.11,164.62,37.01,43.22,77.3,83.5,120.51,120.51,53.66,18.92,108.69,33.67,164.62,44.11,55.93-10.44,110.96-25.19,164.62-44.11,43.22-37.01,83.5-77.3,120.51-120.51,18.92-53.66,33.67-108.69,44.11-164.62-10.44-55.93-25.19-110.96-44.11-164.63Z"/>
    <path class="cls-2" d="m1035.14,585.37c-37.01-43.22-77.3-83.5-120.51-120.51-53.66-18.92-108.69-33.67-164.62-44.11-55.93,10.44-110.96,25.19-164.62,44.11-43.22,37.01-83.5,77.29-120.51,120.51-18.92,53.66-33.67,108.69-44.11,164.62,10.44,55.93,25.19,110.96,44.11,164.62,37.01,43.22,77.3,83.5,120.51,120.51,53.66,18.92,108.69,33.67,164.62,44.11,55.93-10.44,110.96-25.19,164.62-44.11,43.22-37.01,83.5-77.3,120.51-120.51,18.92-53.66,33.67-108.69,44.11-164.62-10.44-55.93-25.19-110.96-44.11-164.63Z"/>
    <path class="cls-2" d="m1035.14,585.37c-37.01-43.22-77.3-83.5-120.51-120.51-53.66-18.92-108.69-33.67-164.62-44.11-55.93,10.44-110.96,25.19-164.62,44.11-43.22,37.01-83.5,77.29-120.51,120.51-18.92,53.66-33.67,108.69-44.11,164.62,10.44,55.93,25.19,110.96,44.11,164.62,37.01,43.22,77.3,83.5,120.51,120.51,53.66,18.92,108.69,33.67,164.62,44.11,55.93-10.44,110.96-25.19,164.62-44.11,43.22-37.01,83.5-77.3,120.51-120.51,18.92-53.66,33.67-108.69,44.11-164.62-10.44-55.93-25.19-110.96-44.11-164.63Z"/>
    <path class="cls-2" d="m1035.14,585.37c-37.01-43.22-77.3-83.5-120.51-120.51-53.66-18.92-108.69-33.67-164.62-44.11-55.93,10.44-110.96,25.19-164.62,44.11-43.22,37.01-83.5,77.29-120.51,120.51-18.92,53.66-33.67,108.69-44.11,164.62,10.44,55.93,25.19,110.96,44.11,164.62,37.01,43.22,77.3,83.5,120.51,120.51,53.66,18.92,108.69,33.67,164.62,44.11,55.93-10.44,110.96-25.19,164.62-44.11,43.22-37.01,83.5-77.3,120.51-120.51,18.92-53.66,33.67-108.69,44.11-164.62-10.44-55.93-25.19-110.96-44.11-164.63Z"/>
    <path class="cls-2" d="m1035.14,585.37c-37.01-43.22-77.3-83.5-120.51-120.51-53.66-18.92-108.69-33.67-164.62-44.11-55.93,10.44-110.96,25.19-164.62,44.11-43.22,37.01-83.5,77.29-120.51,120.51-18.92,53.66-33.67,108.69-44.11,164.62,10.44,55.93,25.19,110.96,44.11,164.62,37.01,43.22,77.3,83.5,120.51,120.51,53.66,18.92,108.69,33.67,164.62,44.11,55.93-10.44,110.96-25.19,164.62-44.11,43.22-37.01,83.5-77.3,120.51-120.51,18.92-53.66,33.67-108.69,44.11-164.62-10.44-55.93-25.19-110.96-44.11-164.63Z"/>
    <path class="cls-2" d="m1035.14,585.37c-37.01-43.22-77.3-83.5-120.51-120.51-53.66-18.92-108.69-33.67-164.62-44.11-55.93,10.44-110.96,25.19-164.62,44.11-43.22,37.01-83.5,77.29-120.51,120.51-18.92,53.66-33.67,108.69-44.11,164.62,10.44,55.93,25.19,110.96,44.11,164.62,37.01,43.22,77.3,83.5,120.51,120.51,53.66,18.92,108.69,33.67,164.62,44.11,55.93-10.44,110.96-25.19,164.62-44.11,43.22-37.01,83.5-77.3,120.51-120.51,18.92-53.66,33.67-108.69,44.11-164.62-10.44-55.93-25.19-110.96-44.11-164.63Z"/>
  </g>
  <circle class="cls-1" cx="750" cy="750" r="339.52"/>
</svg>