<?xml version="1.0" encoding="UTF-8"?>
<svg id="Calque_1" data-name="Calque 1" xmlns="http://www.w3.org/2000/svg" viewBox="0 0 1500 1500">
  <defs>
    <style>
      .cls-1 {
        fill: #bf6a8c;
        opacity: .5;
      }
    </style>
  </defs>
  <path class="cls-1" d="m750,823.32c-1.41,0-2.81.11-4.22.14-.87,7.75-1.81,15.48-2.94,23.15,2.39.03,4.76.18,7.16.18s4.76-.16,7.16-.18c-1.14-7.67-2.07-15.4-2.94-23.15-1.41-.02-2.81-.14-4.22-.14Z"/>
  <path class="cls-1" d="m1025.25,634c44.47,20.7,86.18,46.25,124.53,75.99,143.75-111.45,239.68-281.49,251.94-474.37-118,96.91-308.49,237.42-376.47,398.38Z"/>
  <path class="cls-1" d="m122.68,97.44c3.84.15,7.69.27,11.52.48-4.17-1.15-8.02-1.36-11.52-.48Z"/>
  <path class="cls-1" d="m98.28,235.62c12.26,192.88,108.19,362.92,251.94,474.37,38.35-29.73,80.07-55.29,124.53-75.99C406.77,473.04,216.28,332.53,98.28,235.62Z"/>
  <path class="cls-1" d="m1365.8,97.93c3.83-.22,7.67-.33,11.52-.48-3.5-.87-7.35-.67-11.52.48Z"/>
  <path class="cls-1" d="m750,596.65c6.17,0,12.31-.27,18.44-.71,1.8-7.44,3.75-14.81,5.8-22.15-8.06-.29-16.11-.61-24.24-.61s-16.19.32-24.24.61c2.05,7.34,4,14.71,5.8,22.15,6.13.44,12.27.71,18.44.71Z"/>
  <path class="cls-1" d="m1401.75,1264.41c.93-10.99,1.46-23.5,1.46-38.01,0-210.11-99.31-396.92-253.43-516.41-44.36,34.39-93.16,63.33-145.56,85.49,32.93,190.25,262.61,358.11,397.54,468.93Z"/>
  <path class="cls-1" d="m495.78,795.48c-52.4-22.16-101.2-51.1-145.56-85.49-154.12,119.49-253.43,306.3-253.43,516.41,0,14.51.53,27.02,1.46,38.01,134.93-110.82,364.61-278.67,397.54-468.93Z"/>
  <path class="cls-1" d="m745.78,823.46c1.41-.02,2.81-.14,4.22-.14s2.81.11,4.22.14c-2.7-24.13-4.22-48.61-4.22-73.46,0,24.85-1.52,49.33-4.22,73.46Z"/>
  <path class="cls-1" d="m745.78,823.46c1.41-.02,2.81-.14,4.22-.14s2.81.11,4.22.14c-2.7-24.13-4.22-48.61-4.22-73.46,0,24.85-1.52,49.33-4.22,73.46Z"/>
  <path class="cls-1" d="m499.86,750c0-39.59-9.21-78.35-25.11-116-44.47,20.7-86.19,46.25-124.53,75.99,44.36,34.39,93.16,63.33,145.56,85.49,2.6-15.03,4.08-30.19,4.08-45.48Z"/>
  <path class="cls-1" d="m499.86,750c0-39.59-9.21-78.35-25.11-116-44.47,20.7-86.19,46.25-124.53,75.99,44.36,34.39,93.16,63.33,145.56,85.49,2.6-15.03,4.08-30.19,4.08-45.48Z"/>
  <path class="cls-1" d="m768.44,595.95c-6.13.44-12.27.71-18.44.71s-12.31-.27-18.44-.71c11.95,49.41,18.44,100.96,18.44,154.05,0-53.09,6.49-104.64,18.44-154.05Z"/>
  <path class="cls-1" d="m768.44,595.95c-6.13.44-12.27.71-18.44.71s-12.31-.27-18.44-.71c11.95,49.41,18.44,100.96,18.44,154.05,0-53.09,6.49-104.64,18.44-154.05Z"/>
  <path class="cls-1" d="m1000.14,750c0,15.29,1.47,30.45,4.08,45.48,52.4-22.16,101.2-51.1,145.56-85.49-38.35-29.73-80.06-55.29-124.53-75.99-15.9,37.65-25.11,76.41-25.11,116Z"/>
  <path class="cls-1" d="m1000.14,750c0,15.29,1.47,30.45,4.08,45.48,52.4-22.16,101.2-51.1,145.56-85.49-38.35-29.73-80.06-55.29-124.53-75.99-15.9,37.65-25.11,76.41-25.11,116Z"/>
  <path class="cls-1" d="m1403.21,193.58c0,14.14-.6,28.12-1.49,42.04,105.9-86.97,153.4-138.83,1.49-138.83-8.68,0-17.29.32-25.89.66,16.83,4.2,25.89,32.77,25.89,96.14Z"/>
  <path class="cls-1" d="m1365.8,97.93c-283.11,16-517.86,212.28-591.56,475.87,23.52.86,46.73,2.91,69.55,6.19,242.69-84.06,442.24-460.03,522.01-482.06Z"/>
  <path class="cls-1" d="m1401.75,1264.41c-20.19,238.21-255.6-319.7-557.96-424.42-28.33,4.08-57.25,6.31-86.63,6.62,46.7,314.93,318.12,556.6,646.05,556.6,151.89,0,104.41-51.85-1.46-138.81Z"/>
  <path class="cls-1" d="m754.22,823.46c.87,7.75,1.8,15.48,2.94,23.15,29.38-.32,58.3-2.55,86.63-6.62-29.28-10.14-59.18-16.02-89.57-16.53Z"/>
  <path class="cls-1" d="m754.22,823.46c.87,7.75,1.8,15.48,2.94,23.15,29.38-.32,58.3-2.55,86.63-6.62-29.28-10.14-59.18-16.02-89.57-16.53Z"/>
  <path class="cls-1" d="m843.8,579.99c63.96,9.2,124.88,27.69,181.45,54.01,67.98-160.96,258.48-301.47,376.47-398.38.89-13.91,1.49-27.9,1.49-42.04,0-63.37-9.06-91.94-25.89-96.14-3.84.15-7.69.27-11.52.48-79.76,22.03-279.32,398.01-522.01,482.06Z"/>
  <path class="cls-1" d="m843.8,579.99c63.96,9.2,124.88,27.69,181.45,54.01,67.98-160.96,258.48-301.47,376.47-398.38.89-13.91,1.49-27.9,1.49-42.04,0-63.37-9.06-91.94-25.89-96.14-3.84.15-7.69.27-11.52.48-79.76,22.03-279.32,398.01-522.01,482.06Z"/>
  <path class="cls-1" d="m1004.21,795.48c-50.53,21.37-104.34,36.44-160.42,44.51,302.36,104.72,537.77,662.63,557.96,424.42-134.93-110.82-364.61-278.68-397.54-468.93Z"/>
  <path class="cls-1" d="m1004.21,795.48c-50.53,21.37-104.34,36.44-160.42,44.51,302.36,104.72,537.77,662.63,557.96,424.42-134.93-110.82-364.61-278.68-397.54-468.93Z"/>
  <path class="cls-1" d="m843.8,579.99c-22.82-3.28-46.03-5.33-69.55-6.19-2.05,7.34-4,14.71-5.8,22.15,25.51-1.82,50.65-7.4,75.35-15.96Z"/>
  <path class="cls-1" d="m843.8,579.99c-22.82-3.28-46.03-5.33-69.55-6.19-2.05,7.34-4,14.71-5.8,22.15,25.51-1.82,50.65-7.4,75.35-15.96Z"/>
  <path class="cls-1" d="m1000.14,750c0-39.59,9.21-78.35,25.11-116-56.57-26.33-117.49-44.81-181.45-54.01-24.7,8.56-49.84,14.14-75.35,15.96-11.95,49.41-18.44,100.96-18.44,154.05,0,24.85,1.52,49.33,4.22,73.46,30.4.5,60.3,6.39,89.57,16.53,56.08-8.07,109.89-23.14,160.42-44.51-2.6-15.03-4.08-30.19-4.08-45.48Z"/>
  <path class="cls-1" d="m1000.14,750c0-39.59,9.21-78.35,25.11-116-56.57-26.33-117.49-44.81-181.45-54.01-24.7,8.56-49.84,14.14-75.35,15.96-11.95,49.41-18.44,100.96-18.44,154.05,0,24.85,1.52,49.33,4.22,73.46,30.4.5,60.3,6.39,89.57,16.53,56.08-8.07,109.89-23.14,160.42-44.51-2.6-15.03-4.08-30.19-4.08-45.48Z"/>
  <path class="cls-1" d="m1000.14,750c0-39.59,9.21-78.35,25.11-116-56.57-26.33-117.49-44.81-181.45-54.01-24.7,8.56-49.84,14.14-75.35,15.96-11.95,49.41-18.44,100.96-18.44,154.05,0,24.85,1.52,49.33,4.22,73.46,30.4.5,60.3,6.39,89.57,16.53,56.08-8.07,109.89-23.14,160.42-44.51-2.6-15.03-4.08-30.19-4.08-45.48Z"/>
  <path class="cls-1" d="m122.68,97.44c-8.6-.34-17.21-.66-25.89-.66-151.91,0-104.41,51.86,1.49,138.83-.89-13.91-1.49-27.9-1.49-42.04,0-63.37,9.06-91.94,25.89-96.14Z"/>
  <path class="cls-1" d="m656.2,579.99c22.82-3.28,46.03-5.33,69.55-6.19C652.06,310.2,417.31,113.92,134.2,97.93c79.76,22.03,279.31,398.01,522,482.06Z"/>
  <path class="cls-1" d="m98.25,1264.41c-105.87,86.96-153.35,138.81-1.46,138.81,327.93,0,599.35-241.66,646.05-556.6-29.39-.32-58.3-2.55-86.63-6.62-302.36,104.72-537.77,662.63-557.96,424.42Z"/>
  <path class="cls-1" d="m474.76,634c56.57-26.33,117.49-44.81,181.45-54.01C413.51,495.93,213.96,119.96,134.2,97.93c-3.83-.22-7.68-.33-11.52-.48-16.84,4.2-25.89,32.77-25.89,96.14,0,14.14.6,28.12,1.49,42.04,118,96.91,308.49,237.42,376.47,398.38Z"/>
  <path class="cls-1" d="m474.76,634c56.57-26.33,117.49-44.81,181.45-54.01C413.51,495.93,213.96,119.96,134.2,97.93c-3.83-.22-7.68-.33-11.52-.48-16.84,4.2-25.89,32.77-25.89,96.14,0,14.14.6,28.12,1.49,42.04,118,96.91,308.49,237.42,376.47,398.38Z"/>
  <path class="cls-1" d="m656.2,839.99c28.33,4.08,57.25,6.31,86.63,6.62,1.14-7.67,2.07-15.4,2.94-23.15-30.4.5-60.3,6.39-89.58,16.53Z"/>
  <path class="cls-1" d="m656.2,839.99c28.33,4.08,57.25,6.31,86.63,6.62,1.14-7.67,2.07-15.4,2.94-23.15-30.4.5-60.3,6.39-89.58,16.53Z"/>
  <path class="cls-1" d="m656.2,839.99c-56.08-8.07-109.89-23.14-160.42-44.51-32.93,190.25-262.61,358.11-397.54,468.93,20.19,238.21,255.6-319.7,557.96-424.42Z"/>
  <path class="cls-1" d="m656.2,839.99c-56.08-8.07-109.89-23.14-160.42-44.51-32.93,190.25-262.61,358.11-397.54,468.93,20.19,238.21,255.6-319.7,557.96-424.42Z"/>
  <path class="cls-1" d="m731.56,595.95c-1.8-7.44-3.75-14.81-5.8-22.15-23.52.86-46.73,2.91-69.55,6.19,24.7,8.56,49.84,14.14,75.35,15.96Z"/>
  <path class="cls-1" d="m731.56,595.95c-1.8-7.44-3.75-14.81-5.8-22.15-23.52.86-46.73,2.91-69.55,6.19,24.7,8.56,49.84,14.14,75.35,15.96Z"/>
  <path class="cls-1" d="m731.56,595.95c-25.51-1.82-50.65-7.4-75.35-15.96-63.96,9.2-124.88,27.69-181.45,54.01,15.9,37.65,25.11,76.41,25.11,116,0,15.29-1.48,30.45-4.08,45.48,50.53,21.37,104.34,36.44,160.42,44.51,29.28-10.14,59.18-16.02,89.58-16.53,2.7-24.13,4.22-48.61,4.22-73.46,0-53.09-6.49-104.64-18.44-154.05Z"/>
  <path class="cls-1" d="m731.56,595.95c-25.51-1.82-50.65-7.4-75.35-15.96-63.96,9.2-124.88,27.69-181.45,54.01,15.9,37.65,25.11,76.41,25.11,116,0,15.29-1.48,30.45-4.08,45.48,50.53,21.37,104.34,36.44,160.42,44.51,29.28-10.14,59.18-16.02,89.58-16.53,2.7-24.13,4.22-48.61,4.22-73.46,0-53.09-6.49-104.64-18.44-154.05Z"/>
  <path class="cls-1" d="m731.56,595.95c-25.51-1.82-50.65-7.4-75.35-15.96-63.96,9.2-124.88,27.69-181.45,54.01,15.9,37.65,25.11,76.41,25.11,116,0,15.29-1.48,30.45-4.08,45.48,50.53,21.37,104.34,36.44,160.42,44.51,29.28-10.14,59.18-16.02,89.58-16.53,2.7-24.13,4.22-48.61,4.22-73.46,0-53.09-6.49-104.64-18.44-154.05Z"/>
</svg>