<?xml version="1.0" encoding="UTF-8"?>
<svg id="Calque_1" data-name="Calque 1" xmlns="http://www.w3.org/2000/svg" viewBox="0 0 1500 1500">
  <defs>
    <style>
      .cls-1 {
        fill: #bf6a8c;
        opacity: .5;
      }
    </style>
  </defs>
  <path class="cls-1" d="m1340.04,1213.04c-7.42,9.44-15.07,18.71-22.92,27.78,7.86-9.07,15.5-18.33,22.92-27.78Z"/>
  <path class="cls-1" d="m750,3.63c11.51,0,22.95.26,34.33.77,463.34,20.87,459.27,691.15,31.3,745.6h684.37C1500,335.79,1164.21,0,750,0S0,335.79,0,750c0,.61.02,1.21.02,1.81C1,338.43,336.39,3.63,750,3.63Z"/>
  <path class="cls-1" d="m731.66,1499.77c-2.04-.05-4.07-.14-6.11-.21,2.04.07,4.07.16,6.11.21Z"/>
  <path class="cls-1" d="m1409.48,1107.49c-8.66,15.94-17.88,31.53-27.63,46.75,9.75-15.22,18.98-30.81,27.63-46.75Z"/>
  <path class="cls-1" d="m1433.75,1058.65c-7.51,16.61-15.61,32.9-24.27,48.84,8.66-15.94,16.76-32.23,24.27-48.84Z"/>
  <path class="cls-1" d="m684.37,753.63H.05c1.9,400.59,317.83,726.94,714.27,745.51-461.96-22.14-457.49-691.11-29.94-745.51Z"/>
  <path class="cls-1" d="m749.74,1500c.09,0,.17,0,.26,0,194.16,0,371.09-73.78,504.28-194.84-133.19,121.06-310.12,194.84-504.28,194.84-.09,0-.17,0-.26,0Z"/>
  <path class="cls-1" d="m1267.46,1292.9c6.49-6.18,12.82-12.52,19.09-18.93-6.26,6.41-12.6,12.75-19.09,18.93Z"/>
  <path class="cls-1" d="m1480.8,919.38c-2.79,12.1-5.88,24.08-9.25,35.94,3.37-11.86,6.45-23.85,9.25-35.94Z"/>
  <path class="cls-1" d="m0,753.63h.05c0-.61-.02-1.21-.02-1.81,0,.61-.02,1.21-.02,1.81Z"/>
  <path class="cls-1" d="m740.96,750h74.67c427.97-54.45,432.05-724.73-31.3-745.6-11.38-.51-22.82-.77-34.33-.77C336.39,3.63,1,338.43.02,751.81c0,.61.02,1.21.02,1.81h684.33c18.13-2.31,36.94-3.63,56.58-3.63Z"/>
  <path class="cls-1" d="m740.96,750h74.67c427.97-54.45,432.05-724.73-31.3-745.6-11.38-.51-22.82-.77-34.33-.77C336.39,3.63,1,338.43.02,751.81c0,.61.02,1.21.02,1.81h684.33c18.13-2.31,36.94-3.63,56.58-3.63Z"/>
  <path class="cls-1" d="m749.74,1500c-6.05,0-12.07-.08-18.09-.23,6.01.14,12.04.23,18.09.23Z"/>
  <path class="cls-1" d="m715.67,1499.23c3.28.15,6.59.23,9.88.33-3.75-.12-7.5-.25-11.24-.43.46.02.9.07,1.35.09Z"/>
  <path class="cls-1" d="m1317.11,1240.82c-9.85,11.37-20.07,22.4-30.57,33.15,10.5-10.75,20.72-21.78,30.57-33.15Z"/>
  <path class="cls-1" d="m815.63,750c-18.13,2.31-36.94,3.63-56.58,3.63h-74.67c-427.55,54.4-432.02,723.37,29.94,745.51,3.74.18,7.48.31,11.24.43,2.04.07,4.07.16,6.11.21,6.01.14,12.04.23,18.09.23.09,0,.17,0,.26,0,194.16,0,371.09-73.78,504.28-194.84,4.44-4.04,8.83-8.12,13.17-12.26,6.49-6.18,12.82-12.52,19.09-18.93,10.5-10.75,20.72-21.78,30.57-33.15,7.86-9.07,15.5-18.33,22.92-27.78,14.85-18.89,28.8-38.51,41.81-58.8,9.75-15.22,18.98-30.81,27.63-46.75,8.66-15.94,16.76-32.23,24.27-48.84,15.02-33.22,27.69-67.74,37.8-103.33,3.37-11.86,6.45-23.85,9.25-35.94,12.56-54.43,19.2-111.13,19.2-169.38h-684.37Z"/>
  <path class="cls-1" d="m815.63,750c-18.13,2.31-36.94,3.63-56.58,3.63h-74.67c-427.55,54.4-432.02,723.37,29.94,745.51,3.74.18,7.48.31,11.24.43,2.04.07,4.07.16,6.11.21,6.01.14,12.04.23,18.09.23.09,0,.17,0,.26,0,194.16,0,371.09-73.78,504.28-194.84,4.44-4.04,8.83-8.12,13.17-12.26,6.49-6.18,12.82-12.52,19.09-18.93,10.5-10.75,20.72-21.78,30.57-33.15,7.86-9.07,15.5-18.33,22.92-27.78,14.85-18.89,28.8-38.51,41.81-58.8,9.75-15.22,18.98-30.81,27.63-46.75,8.66-15.94,16.76-32.23,24.27-48.84,15.02-33.22,27.69-67.74,37.8-103.33,3.37-11.86,6.45-23.85,9.25-35.94,12.56-54.43,19.2-111.13,19.2-169.38h-684.37Z"/>
  <path class="cls-1" d="m684.37,753.63h74.67c19.65,0,38.45-1.32,56.58-3.63h-74.67c-19.65,0-38.45,1.32-56.58,3.63Z"/>
  <path class="cls-1" d="m684.37,753.63h74.67c19.65,0,38.45-1.32,56.58-3.63h-74.67c-19.65,0-38.45,1.32-56.58,3.63Z"/>
  <path class="cls-1" d="m684.37,753.63h74.67c19.65,0,38.45-1.32,56.58-3.63h-74.67c-19.65,0-38.45,1.32-56.58,3.63Z"/>
</svg>