<?xml version="1.0" encoding="UTF-8"?><svg id="Calque_1" xmlns="http://www.w3.org/2000/svg" viewBox="0 0 2957 1369.36"><path d="M1306.71,350.64c-42.2-9.77-86.1-15.1-131.28-15.1h0c0,45.17,5.34,89.07,15.1,131.28,31.53-9.62,63.47-16.55,95.55-20.62,4.07-32.08,11.01-64.03,20.62-95.55h0Z" style="fill:#fff; isolation:isolate; opacity:.3; stroke-width:0px;"/><path d="M1624.1,900.36c42.2,9.77,86.1,15.1,131.28,15.1h0c0-45.17-5.34-89.07-15.1-131.28-31.53,9.62-63.47,16.55-95.55,20.62-4.07,32.08-11.01,64.03-20.62,95.55h0Z" style="fill:#fff; isolation:isolate; opacity:.3; stroke-width:0px;"/><path d="M1782.8,625.5c-22.49,24.09-46.69,46.07-72.44,65.64,12.52,29.82,22.48,60.95,29.92,93.06,41.43-12.64,82.12-29.97,121.24-52.56h0c-22.58-39.12-49.16-74.48-78.72-106.13h0Z" style="fill:#fff; isolation:isolate; opacity:.3; stroke-width:0px;"/><path d="M1220.46,559.61c-12.52-29.82-22.48-60.95-29.92-93.06-41.43,12.64-82.12,29.97-121.24,52.56h0c22.58,39.12,49.16,74.48,78.72,106.13,22.49-24.09,46.69-46.07,72.44-65.64h0Z" style="fill:#fff; isolation:isolate; opacity:.3; stroke-width:0px;"/><path d="M1281.64,519.58c-.03-24.38,1.36-48.82,4.45-73.22-32.08,4.07-64.03,11.01-95.55,20.62,7.43,32.11,17.4,63.24,29.92,93.06,19.58-14.87,40.07-28.3,61.18-40.47h0Z" style="fill:#fff; isolation:isolate; opacity:.3; stroke-width:0px;"/><path d="M1281.64,519.58c-.03-24.38,1.36-48.82,4.45-73.22-32.08,4.07-64.03,11.01-95.55,20.62,7.43,32.11,17.4,63.24,29.92,93.06,19.58-14.87,40.07-28.3,61.18-40.47h0Z" style="fill:#fff; isolation:isolate; opacity:.3; stroke-width:0px;"/><path d="M1649.17,731.42c.03,24.38-1.36,48.82-4.45,73.22,32.08-4.07,64.03-11.01,95.55-20.62-7.43-32.11-17.4-63.24-29.92-93.06-19.58,14.88-40.07,28.3-61.18,40.47h0Z" style="fill:#fff; isolation:isolate; opacity:.3; stroke-width:0px;"/><path d="M1649.17,731.42c.03,24.38-1.36,48.82-4.45,73.22,32.08-4.07,64.03-11.01,95.55-20.62-7.43-32.11-17.4-63.24-29.92-93.06-19.58,14.88-40.07,28.3-61.18,40.47h0Z" style="fill:#fff; isolation:isolate; opacity:.3; stroke-width:0px;"/><path d="M1782.8,625.5c29.57-31.66,56.14-67.01,78.72-106.13h0c-39.12-22.58-79.81-39.92-121.24-52.56-7.43,32.11-17.4,63.24-29.92,93.06,25.75,19.57,49.95,41.54,72.44,65.64h0,0Z" style="fill:#fff; isolation:isolate; opacity:.3; stroke-width:0px;"/><path d="M1148.02,625.5c-29.57,31.66-56.14,67.01-78.72,106.13h0c39.12,22.58,79.81,39.92,121.24,52.56,7.43-32.11,17.4-63.24,29.92-93.06-25.75-19.57-49.95-41.54-72.44-65.64h0Z" style="fill:#fff; isolation:isolate; opacity:.3; stroke-width:0px;"/><path d="M1220.46,691.14c9.52-22.67,20.55-44.54,32.76-65.64-12.21-21.1-23.24-42.96-32.76-65.64-25.75,19.57-49.95,41.55-72.44,65.64,22.49,24.09,46.69,46.07,72.44,65.64Z" style="fill:#fff; isolation:isolate; opacity:.3; stroke-width:0px;"/><path d="M1220.46,691.14c9.52-22.67,20.55-44.54,32.76-65.64-12.21-21.1-23.24-42.96-32.76-65.64-25.75,19.57-49.95,41.55-72.44,65.64,22.49,24.09,46.69,46.07,72.44,65.64Z" style="fill:#fff; isolation:isolate; opacity:.3; stroke-width:0px;"/><path d="M1710.35,559.86c-9.52,22.67-20.55,44.54-32.76,65.64,12.21,21.1,23.24,42.96,32.76,65.64,25.75-19.57,49.95-41.55,72.44-65.64-22.49-24.09-46.69-46.07-72.44-65.64Z" style="fill:#fff; isolation:isolate; opacity:.3; stroke-width:0px;"/><path d="M1710.35,559.86c-9.52,22.67-20.55,44.54-32.76,65.64,12.21,21.1,23.24,42.96,32.76,65.64,25.75-19.57,49.95-41.55,72.44-65.64-22.49-24.09-46.69-46.07-72.44-65.64Z" style="fill:#fff; isolation:isolate; opacity:.3; stroke-width:0px;"/><path d="M1281.37,519.57c-21.13,12.17-41.61,25.59-61.18,40.47,9.52,22.67,20.55,44.54,32.76,65.64,9.67-16.7,20.12-32.87,31.35-48.46-1.93-19.12-2.9-38.35-2.92-57.64h0Z" style="fill:#fff; isolation:isolate; opacity:.3; stroke-width:0px;"/><path d="M1281.37,519.57c-21.13,12.17-41.61,25.59-61.18,40.47,9.52,22.67,20.55,44.54,32.76,65.64,9.67-16.7,20.12-32.87,31.35-48.46-1.93-19.12-2.9-38.35-2.92-57.64h0Z" style="fill:#fff; isolation:isolate; opacity:.3; stroke-width:0px;"/><path d="M1281.37,519.57c-21.13,12.17-41.61,25.59-61.18,40.47,9.52,22.67,20.55,44.54,32.76,65.64,9.67-16.7,20.12-32.87,31.35-48.46-1.93-19.12-2.9-38.35-2.92-57.64h0Z" style="fill:#fff; isolation:isolate; opacity:.3; stroke-width:0px;"/><path d="M1646.66,673.88c1.93,19.12,2.9,38.35,2.92,57.64,21.13-12.17,41.61-25.59,61.18-40.47-9.52-22.67-20.55-44.54-32.76-65.64-9.67,16.7-20.12,32.87-31.35,48.46h0Z" style="fill:#fff; isolation:isolate; opacity:.3; stroke-width:0px;"/><path d="M1646.66,673.88c1.93,19.12,2.9,38.35,2.92,57.64,21.13-12.17,41.61-25.59,61.18-40.47-9.52-22.67-20.55-44.54-32.76-65.64-9.67,16.7-20.12,32.87-31.35,48.46h0Z" style="fill:#fff; isolation:isolate; opacity:.3; stroke-width:0px;"/><path d="M1646.66,673.88c1.93,19.12,2.9,38.35,2.92,57.64,21.13-12.17,41.61-25.59,61.18-40.47-9.52-22.67-20.55-44.54-32.76-65.64-9.67,16.7-20.12,32.87-31.35,48.46h0Z" style="fill:#fff; isolation:isolate; opacity:.3; stroke-width:0px;"/><path d="M1190.55,784.19c-9.77,42.2-15.1,86.1-15.1,131.28h0c45.17,0,89.07-5.34,131.28-15.1-9.62-31.53-16.55-63.47-20.62-95.55-32.08-4.07-64.03-11.01-95.55-20.62h0Z" style="fill:#fff; isolation:isolate; opacity:.3; stroke-width:0px;"/><path d="M1740.07,466.81c9.77-42.2,15.1-86.1,15.1-131.28h0c-45.17,0-89.07,5.34-131.28,15.1,9.62,31.53,16.55,63.47,20.62,95.55,32.08,4.06,64.03,11.01,95.55,20.62h0Z" style="fill:#fff; isolation:isolate; opacity:.3; stroke-width:0px;"/><path d="M1649.17,519.58c21.13,12.17,41.61,25.59,61.18,40.46,12.52-29.82,22.48-60.95,29.92-93.06-31.53-9.62-63.47-16.55-95.55-20.62,3.09,24.39,4.47,48.84,4.45,73.22h0Z" style="fill:#fff; isolation:isolate; opacity:.3; stroke-width:0px;"/><path d="M1649.17,519.58c21.13,12.17,41.61,25.59,61.18,40.46,12.52-29.82,22.48-60.95,29.92-93.06-31.53-9.62-63.47-16.55-95.55-20.62,3.09,24.39,4.47,48.84,4.45,73.22h0Z" style="fill:#fff; isolation:isolate; opacity:.3; stroke-width:0px;"/><path d="M1281.37,731.41c-21.13-12.17-41.61-25.59-61.18-40.46-12.52,29.82-22.48,60.95-29.92,93.06,31.53,9.62,63.47,16.55,95.55,20.62-3.09-24.39-4.47-48.84-4.45-73.22h0Z" style="fill:#fff; isolation:isolate; opacity:.3; stroke-width:0px;"/><path d="M1281.37,731.41c-21.13-12.17-41.61-25.59-61.18-40.46-12.52,29.82-22.48,60.95-29.92,93.06,31.53,9.62,63.47,16.55,95.55,20.62-3.09-24.39-4.47-48.84-4.45-73.22h0Z" style="fill:#fff; isolation:isolate; opacity:.3; stroke-width:0px;"/><path d="M1646.25,577.13c11.23,15.59,21.68,31.76,31.35,48.46,12.21-21.1,23.24-42.96,32.76-65.64-19.58-14.88-40.07-28.3-61.18-40.46-.02,19.29-.99,38.52-2.92,57.64h0Z" style="fill:#fff; isolation:isolate; opacity:.3; stroke-width:0px;"/><path d="M1646.25,577.13c11.23,15.59,21.68,31.76,31.35,48.46,12.21-21.1,23.24-42.96,32.76-65.64-19.58-14.88-40.07-28.3-61.18-40.46-.02,19.29-.99,38.52-2.92,57.64h0Z" style="fill:#fff; isolation:isolate; opacity:.3; stroke-width:0px;"/><path d="M1646.25,577.13c11.23,15.59,21.68,31.76,31.35,48.46,12.21-21.1,23.24-42.96,32.76-65.64-19.58-14.88-40.07-28.3-61.18-40.46-.02,19.29-.99,38.52-2.92,57.64h0Z" style="fill:#fff; isolation:isolate; opacity:.3; stroke-width:0px;"/><path d="M1284.56,673.87c-11.23-15.59-21.68-31.76-31.35-48.46-12.21,21.1-23.24,42.96-32.76,65.64,19.58,14.88,40.07,28.3,61.18,40.46.02-19.29.99-38.52,2.92-57.64h0Z" style="fill:#fff; isolation:isolate; opacity:.3; stroke-width:0px;"/><path d="M1284.56,673.87c-11.23-15.59-21.68-31.76-31.35-48.46-12.21,21.1-23.24,42.96-32.76,65.64,19.58,14.88,40.07,28.3,61.18,40.46.02-19.29.99-38.52,2.92-57.64h0Z" style="fill:#fff; isolation:isolate; opacity:.3; stroke-width:0px;"/><path d="M1284.56,673.87c-11.23-15.59-21.68-31.76-31.35-48.46-12.21,21.1-23.24,42.96-32.76,65.64,19.58,14.88,40.07,28.3,61.18,40.46.02-19.29.99-38.52,2.92-57.64h0Z" style="fill:#fff; isolation:isolate; opacity:.3; stroke-width:0px;"/><path d="M1291.52,625.5c-2.99-16.04-5.31-32.19-6.96-48.46-11.23,15.59-21.68,31.76-31.35,48.46,9.67,16.7,20.12,32.87,31.35,48.46,1.64-16.26,3.96-32.42,6.96-48.46Z" style="fill:#fff; isolation:isolate; opacity:.3; stroke-width:0px;"/><path d="M1291.52,625.5c-2.99-16.04-5.31-32.19-6.96-48.46-11.23,15.59-21.68,31.76-31.35,48.46,9.67,16.7,20.12,32.87,31.35,48.46,1.64-16.26,3.96-32.42,6.96-48.46Z" style="fill:#fff; isolation:isolate; opacity:.3; stroke-width:0px;"/><path d="M1291.52,625.5c-2.99-16.04-5.31-32.19-6.96-48.46-11.23,15.59-21.68,31.76-31.35,48.46,9.67,16.7,20.12,32.87,31.35,48.46,1.64-16.26,3.96-32.42,6.96-48.46Z" style="fill:#fff; isolation:isolate; opacity:.3; stroke-width:0px;"/><path d="M1291.52,625.5c-2.99-16.04-5.31-32.19-6.96-48.46-11.23,15.59-21.68,31.76-31.35,48.46,9.67,16.7,20.12,32.87,31.35,48.46,1.64-16.26,3.96-32.42,6.96-48.46Z" style="fill:#fff; isolation:isolate; opacity:.3; stroke-width:0px;"/><path d="M1639.3,625.5c2.99,16.04,5.31,32.19,6.96,48.46,11.23-15.59,21.68-31.76,31.35-48.46-9.67-16.7-20.12-32.87-31.35-48.46-1.64,16.26-3.96,32.42-6.96,48.46Z" style="fill:#fff; isolation:isolate; opacity:.3; stroke-width:0px;"/><path d="M1639.3,625.5c2.99,16.04,5.31,32.19,6.96,48.46,11.23-15.59,21.68-31.76,31.35-48.46-9.67-16.7-20.12-32.87-31.35-48.46-1.64,16.26-3.96,32.42-6.96,48.46Z" style="fill:#fff; isolation:isolate; opacity:.3; stroke-width:0px;"/><path d="M1639.3,625.5c2.99,16.04,5.31,32.19,6.96,48.46,11.23-15.59,21.68-31.76,31.35-48.46-9.67-16.7-20.12-32.87-31.35-48.46-1.64,16.26-3.96,32.42-6.96,48.46Z" style="fill:#fff; isolation:isolate; opacity:.3; stroke-width:0px;"/><path d="M1639.3,625.5c2.99,16.04,5.31,32.19,6.96,48.46,11.23-15.59,21.68-31.76,31.35-48.46-9.67-16.7-20.12-32.87-31.35-48.46-1.64,16.26-3.96,32.42-6.96,48.46Z" style="fill:#fff; isolation:isolate; opacity:.3; stroke-width:0px;"/><path d="M1399.77,870.45c-29.82,12.52-60.95,22.48-93.06,29.92,12.64,41.43,29.97,82.12,52.56,121.24h0c39.12-22.58,74.48-49.16,106.13-78.72-24.09-22.49-46.07-46.69-65.64-72.43h0Z" style="fill:#fff; isolation:isolate; opacity:.3; stroke-width:0px;"/><path d="M1531.04,380.55c29.82-12.52,60.95-22.48,93.06-29.92-12.64-41.43-29.97-82.12-52.56-121.24h0c-39.12,22.58-74.48,49.16-106.13,78.72,24.09,22.49,46.07,46.69,65.64,72.43h0Z" style="fill:#fff; isolation:isolate; opacity:.3; stroke-width:0px;"/><path d="M1358.93,809.26c-24.38.03-48.82-1.36-73.22-4.45,4.07,32.08,11.01,64.03,20.62,95.55,32.11-7.43,63.24-17.4,93.06-29.92-14.87-19.58-28.3-40.07-40.47-61.18h0Z" style="fill:#fff; isolation:isolate; opacity:.3; stroke-width:0px;"/><path d="M1358.93,809.26c-24.38.03-48.82-1.36-73.22-4.45,4.07,32.08,11.01,64.03,20.62,95.55,32.11-7.43,63.24-17.4,93.06-29.92-14.87-19.58-28.3-40.07-40.47-61.18h0Z" style="fill:#fff; isolation:isolate; opacity:.3; stroke-width:0px;"/><path d="M1571.6,441.74c24.38-.03,48.82,1.36,73.22,4.45-4.07-32.08-11.01-64.03-20.62-95.55-32.11,7.43-63.24,17.4-93.06,29.92,14.87,19.58,28.3,40.07,40.47,61.18h0Z" style="fill:#fff; isolation:isolate; opacity:.3; stroke-width:0px;"/><path d="M1571.6,441.74c24.38-.03,48.82,1.36,73.22,4.45-4.07-32.08-11.01-64.03-20.62-95.55-32.11,7.43-63.24,17.4-93.06,29.92,14.87,19.58,28.3,40.07,40.47,61.18h0Z" style="fill:#fff; isolation:isolate; opacity:.3; stroke-width:0px;"/><path d="M1649.17,519.41c.03-24.38-1.36-48.82-4.45-73.22-24.39-3.09-48.84-4.47-73.22-4.45,9.63,16.72,18.41,33.86,26.29,51.37,17.52,7.89,34.66,16.66,51.37,26.29Z" style="fill:#fff; isolation:isolate; opacity:.3; stroke-width:0px;"/><path d="M1649.17,519.41c.03-24.38-1.36-48.82-4.45-73.22-24.39-3.09-48.84-4.47-73.22-4.45,9.63,16.72,18.41,33.86,26.29,51.37,17.52,7.89,34.66,16.66,51.37,26.29Z" style="fill:#fff; isolation:isolate; opacity:.3; stroke-width:0px;"/><path d="M1649.17,519.41c.03-24.38-1.36-48.82-4.45-73.22-24.39-3.09-48.84-4.47-73.22-4.45,9.63,16.72,18.41,33.86,26.29,51.37,17.52,7.89,34.66,16.66,51.37,26.29Z" style="fill:#fff; isolation:isolate; opacity:.3; stroke-width:0px;"/><path d="M1281.64,731.59c-.03,24.38,1.36,48.82,4.45,73.22,24.39,3.09,48.84,4.47,73.22,4.45-9.63-16.71-18.41-33.86-26.29-51.37-17.52-7.89-34.66-16.66-51.37-26.29Z" style="fill:#fff; isolation:isolate; opacity:.3; stroke-width:0px;"/><path d="M1281.64,731.59c-.03,24.38,1.36,48.82,4.45,73.22,24.39,3.09,48.84,4.47,73.22,4.45-9.63-16.71-18.41-33.86-26.29-51.37-17.52-7.89-34.66-16.66-51.37-26.29Z" style="fill:#fff; isolation:isolate; opacity:.3; stroke-width:0px;"/><path d="M1281.64,731.59c-.03,24.38,1.36,48.82,4.45,73.22,24.39,3.09,48.84,4.47,73.22,4.45-9.63-16.71-18.41-33.86-26.29-51.37-17.52-7.89-34.66-16.66-51.37-26.29Z" style="fill:#fff; isolation:isolate; opacity:.3; stroke-width:0px;"/><path d="M1314.73,712.44c-10.61-12.39-20.7-25.23-30.25-38.49-1.93,19.12-2.9,38.35-2.92,57.64,16.72,9.63,33.86,18.4,51.37,26.29-6.71-14.9-12.79-30.06-18.21-45.44h0Z" style="fill:#fff; isolation:isolate; opacity:.3; stroke-width:0px;"/><path d="M1314.73,712.44c-10.61-12.39-20.7-25.23-30.25-38.49-1.93,19.12-2.9,38.35-2.92,57.64,16.72,9.63,33.86,18.4,51.37,26.29-6.71-14.9-12.79-30.06-18.21-45.44h0Z" style="fill:#fff; isolation:isolate; opacity:.3; stroke-width:0px;"/><path d="M1314.73,712.44c-10.61-12.39-20.7-25.23-30.25-38.49-1.93,19.12-2.9,38.35-2.92,57.64,16.72,9.63,33.86,18.4,51.37,26.29-6.71-14.9-12.79-30.06-18.21-45.44h0Z" style="fill:#fff; isolation:isolate; opacity:.3; stroke-width:0px;"/><path d="M1314.73,712.44c-10.61-12.39-20.7-25.23-30.25-38.49-1.93,19.12-2.9,38.35-2.92,57.64,16.72,9.63,33.86,18.4,51.37,26.29-6.71-14.9-12.79-30.06-18.21-45.44h0Z" style="fill:#fff; isolation:isolate; opacity:.3; stroke-width:0px;"/><path d="M1615.8,538.56c10.61,12.39,20.7,25.23,30.25,38.49,1.93-19.12,2.9-38.35,2.92-57.64-16.72-9.63-33.86-18.4-51.37-26.29,6.71,14.9,12.79,30.06,18.21,45.44h0Z" style="fill:#fff; isolation:isolate; opacity:.3; stroke-width:0px;"/><path d="M1615.8,538.56c10.61,12.39,20.7,25.23,30.25,38.49,1.93-19.12,2.9-38.35,2.92-57.64-16.72-9.63-33.86-18.4-51.37-26.29,6.71,14.9,12.79,30.06,18.21,45.44h0Z" style="fill:#fff; isolation:isolate; opacity:.3; stroke-width:0px;"/><path d="M1615.8,538.56c10.61,12.39,20.7,25.23,30.25,38.49,1.93-19.12,2.9-38.35,2.92-57.64-16.72-9.63-33.86-18.4-51.37-26.29,6.71,14.9,12.79,30.06,18.21,45.44h0Z" style="fill:#fff; isolation:isolate; opacity:.3; stroke-width:0px;"/><path d="M1615.8,538.56c10.61,12.39,20.7,25.23,30.25,38.49,1.93-19.12,2.9-38.35,2.92-57.64-16.72-9.63-33.86-18.4-51.37-26.29,6.71,14.9,12.79,30.06,18.21,45.44h0Z" style="fill:#fff; isolation:isolate; opacity:.3; stroke-width:0px;"/><path d="M1284.56,673.96c9.55,13.26,19.64,26.1,30.25,38.49-9.99-28.34-17.78-57.4-23.29-86.94-2.99,16.04-5.31,32.19-6.96,48.46Z" style="fill:#fff; isolation:isolate; opacity:.3; stroke-width:0px;"/><path d="M1284.56,673.96c9.55,13.26,19.64,26.1,30.25,38.49-9.99-28.34-17.78-57.4-23.29-86.94-2.99,16.04-5.31,32.19-6.96,48.46Z" style="fill:#fff; isolation:isolate; opacity:.3; stroke-width:0px;"/><path d="M1284.56,673.96c9.55,13.26,19.64,26.1,30.25,38.49-9.99-28.34-17.78-57.4-23.29-86.94-2.99,16.04-5.31,32.19-6.96,48.46Z" style="fill:#fff; isolation:isolate; opacity:.3; stroke-width:0px;"/><path d="M1284.56,673.96c9.55,13.26,19.64,26.1,30.25,38.49-9.99-28.34-17.78-57.4-23.29-86.94-2.99,16.04-5.31,32.19-6.96,48.46Z" style="fill:#fff; isolation:isolate; opacity:.3; stroke-width:0px;"/><path d="M1284.56,673.96c9.55,13.26,19.64,26.1,30.25,38.49-9.99-28.34-17.78-57.4-23.29-86.94-2.99,16.04-5.31,32.19-6.96,48.46Z" style="fill:#fff; isolation:isolate; opacity:.3; stroke-width:0px;"/><path d="M1646.25,577.04c-9.55-13.26-19.64-26.1-30.25-38.49,9.99,28.34,17.78,57.4,23.29,86.94,2.99-16.04,5.31-32.19,6.96-48.46Z" style="fill:#fff; isolation:isolate; opacity:.3; stroke-width:0px;"/><path d="M1646.25,577.04c-9.55-13.26-19.64-26.1-30.25-38.49,9.99,28.34,17.78,57.4,23.29,86.94,2.99-16.04,5.31-32.19,6.96-48.46Z" style="fill:#fff; isolation:isolate; opacity:.3; stroke-width:0px;"/><path d="M1646.25,577.04c-9.55-13.26-19.64-26.1-30.25-38.49,9.99,28.34,17.78,57.4,23.29,86.94,2.99-16.04,5.31-32.19,6.96-48.46Z" style="fill:#fff; isolation:isolate; opacity:.3; stroke-width:0px;"/><path d="M1646.25,577.04c-9.55-13.26-19.64-26.1-30.25-38.49,9.99,28.34,17.78,57.4,23.29,86.94,2.99-16.04,5.31-32.19,6.96-48.46Z" style="fill:#fff; isolation:isolate; opacity:.3; stroke-width:0px;"/><path d="M1646.25,577.04c-9.55-13.26-19.64-26.1-30.25-38.49,9.99,28.34,17.78,57.4,23.29,86.94,2.99-16.04,5.31-32.19,6.96-48.46Z" style="fill:#fff; isolation:isolate; opacity:.3; stroke-width:0px;"/><path d="M1465.68,308.11c-31.66-29.57-67.01-56.14-106.13-78.72h0c-22.58,39.12-39.92,79.81-52.56,121.24,32.11,7.43,63.24,17.4,93.06,29.92,19.57-25.75,41.54-49.95,65.64-72.44h0Z" style="fill:#fff; isolation:isolate; opacity:.3; stroke-width:0px;"/><path d="M1465.68,942.89c31.66,29.57,67.01,56.14,106.13,78.72h0c22.58-39.12,39.92-79.81,52.56-121.24-32.11-7.43-63.24-17.4-93.06-29.92-19.57,25.75-41.54,49.95-65.64,72.44h0Z" style="fill:#fff; isolation:isolate; opacity:.3; stroke-width:0px;"/><path d="M1571.6,809.26c-12.17,21.13-25.59,41.61-40.47,61.18,29.82,12.52,60.95,22.48,93.06,29.92,9.62-31.53,16.55-63.47,20.62-95.55-24.39,3.09-48.84,4.47-73.22,4.45h0Z" style="fill:#fff; isolation:isolate; opacity:.3; stroke-width:0px;"/><path d="M1571.6,809.26c-12.17,21.13-25.59,41.61-40.47,61.18,29.82,12.52,60.95,22.48,93.06,29.92,9.62-31.53,16.55-63.47,20.62-95.55-24.39,3.09-48.84,4.47-73.22,4.45h0Z" style="fill:#fff; isolation:isolate; opacity:.3; stroke-width:0px;"/><path d="M1358.93,441.74c12.17-21.13,25.59-41.61,40.47-61.18-29.82-12.52-60.95-22.48-93.06-29.92-9.62,31.53-16.55,63.47-20.62,95.55,24.39-3.09,48.84-4.47,73.22-4.45h0Z" style="fill:#fff; isolation:isolate; opacity:.3; stroke-width:0px;"/><path d="M1358.93,441.74c12.17-21.13,25.59-41.61,40.47-61.18-29.82-12.52-60.95-22.48-93.06-29.92-9.62,31.53-16.55,63.47-20.62,95.55,24.39-3.09,48.84-4.47,73.22-4.45h0Z" style="fill:#fff; isolation:isolate; opacity:.3; stroke-width:0px;"/><path d="M1571.5,809.26c24.38.03,48.82-1.36,73.22-4.45,3.09-24.39,4.47-48.84,4.45-73.22-16.72,9.63-33.86,18.4-51.37,26.29-7.89,17.52-16.66,34.66-26.29,51.37Z" style="fill:#fff; isolation:isolate; opacity:.3; stroke-width:0px;"/><path d="M1571.5,809.26c24.38.03,48.82-1.36,73.22-4.45,3.09-24.39,4.47-48.84,4.45-73.22-16.72,9.63-33.86,18.4-51.37,26.29-7.89,17.52-16.66,34.66-26.29,51.37Z" style="fill:#fff; isolation:isolate; opacity:.3; stroke-width:0px;"/><path d="M1571.5,809.26c24.38.03,48.82-1.36,73.22-4.45,3.09-24.39,4.47-48.84,4.45-73.22-16.72,9.63-33.86,18.4-51.37,26.29-7.89,17.52-16.66,34.66-26.29,51.37Z" style="fill:#fff; isolation:isolate; opacity:.3; stroke-width:0px;"/><path d="M1359.32,441.74c-24.38-.03-48.82,1.36-73.22,4.45-3.09,24.39-4.47,48.84-4.45,73.22,16.72-9.63,33.86-18.41,51.37-26.29,7.89-17.52,16.66-34.66,26.29-51.37Z" style="fill:#fff; isolation:isolate; opacity:.3; stroke-width:0px;"/><path d="M1359.32,441.74c-24.38-.03-48.82,1.36-73.22,4.45-3.09,24.39-4.47,48.84-4.45,73.22,16.72-9.63,33.86-18.41,51.37-26.29,7.89-17.52,16.66-34.66,26.29-51.37Z" style="fill:#fff; isolation:isolate; opacity:.3; stroke-width:0px;"/><path d="M1359.32,441.74c-24.38-.03-48.82,1.36-73.22,4.45-3.09,24.39-4.47,48.84-4.45,73.22,16.72-9.63,33.86-18.41,51.37-26.29,7.89-17.52,16.66-34.66,26.29-51.37Z" style="fill:#fff; isolation:isolate; opacity:.3; stroke-width:0px;"/><path d="M1284.71,577.04c9.55-13.26,19.64-26.1,30.25-38.49,5.43-15.39,11.49-30.54,18.21-45.44-17.52,7.89-34.66,16.66-51.37,26.29.02,19.29.99,38.52,2.92,57.64h0Z" style="fill:#fff; isolation:isolate; opacity:.3; stroke-width:0px;"/><path d="M1284.71,577.04c9.55-13.26,19.64-26.1,30.25-38.49,5.43-15.39,11.49-30.54,18.21-45.44-17.52,7.89-34.66,16.66-51.37,26.29.02,19.29.99,38.52,2.92,57.64h0Z" style="fill:#fff; isolation:isolate; opacity:.3; stroke-width:0px;"/><path d="M1284.71,577.04c9.55-13.26,19.64-26.1,30.25-38.49,5.43-15.39,11.49-30.54,18.21-45.44-17.52,7.89-34.66,16.66-51.37,26.29.02,19.29.99,38.52,2.92,57.64h0Z" style="fill:#fff; isolation:isolate; opacity:.3; stroke-width:0px;"/><path d="M1284.71,577.04c9.55-13.26,19.64-26.1,30.25-38.49,5.43-15.39,11.49-30.54,18.21-45.44-17.52,7.89-34.66,16.66-51.37,26.29.02,19.29.99,38.52,2.92,57.64h0Z" style="fill:#fff; isolation:isolate; opacity:.3; stroke-width:0px;"/><path d="M1646.66,673.96c-9.55,13.26-19.64,26.1-30.25,38.49-5.43,15.39-11.49,30.54-18.21,45.44,17.52-7.89,34.66-16.66,51.37-26.29-.02-19.29-.99-38.52-2.92-57.64h0Z" style="fill:#fff; isolation:isolate; opacity:.3; stroke-width:0px;"/><path d="M1646.66,673.96c-9.55,13.26-19.64,26.1-30.25,38.49-5.43,15.39-11.49,30.54-18.21,45.44,17.52-7.89,34.66-16.66,51.37-26.29-.02-19.29-.99-38.52-2.92-57.64h0Z" style="fill:#fff; isolation:isolate; opacity:.3; stroke-width:0px;"/><path d="M1646.66,673.96c-9.55,13.26-19.64,26.1-30.25,38.49-5.43,15.39-11.49,30.54-18.21,45.44,17.52-7.89,34.66-16.66,51.37-26.29-.02-19.29-.99-38.52-2.92-57.64h0Z" style="fill:#fff; isolation:isolate; opacity:.3; stroke-width:0px;"/><path d="M1646.66,673.96c-9.55,13.26-19.64,26.1-30.25,38.49-5.43,15.39-11.49,30.54-18.21,45.44,17.52-7.89,34.66-16.66,51.37-26.29-.02-19.29-.99-38.52-2.92-57.64h0Z" style="fill:#fff; isolation:isolate; opacity:.3; stroke-width:0px;"/><path d="M1616,712.44c10.61-12.39,20.7-25.23,30.25-38.49-1.64-16.26-3.96-32.43-6.96-48.46-5.51,29.54-13.3,58.61-23.29,86.94Z" style="fill:#fff; isolation:isolate; opacity:.3; stroke-width:0px;"/><path d="M1616,712.44c10.61-12.39,20.7-25.23,30.25-38.49-1.64-16.26-3.96-32.43-6.96-48.46-5.51,29.54-13.3,58.61-23.29,86.94Z" style="fill:#fff; isolation:isolate; opacity:.3; stroke-width:0px;"/><path d="M1616,712.44c10.61-12.39,20.7-25.23,30.25-38.49-1.64-16.26-3.96-32.43-6.96-48.46-5.51,29.54-13.3,58.61-23.29,86.94Z" style="fill:#fff; isolation:isolate; opacity:.3; stroke-width:0px;"/><path d="M1616,712.44c10.61-12.39,20.7-25.23,30.25-38.49-1.64-16.26-3.96-32.43-6.96-48.46-5.51,29.54-13.3,58.61-23.29,86.94Z" style="fill:#fff; isolation:isolate; opacity:.3; stroke-width:0px;"/><path d="M1616,712.44c10.61-12.39,20.7-25.23,30.25-38.49-1.64-16.26-3.96-32.43-6.96-48.46-5.51,29.54-13.3,58.61-23.29,86.94Z" style="fill:#fff; isolation:isolate; opacity:.3; stroke-width:0px;"/><path d="M1284.56,577.04c1.64,16.26,3.96,32.42,6.96,48.46,5.51-29.54,13.3-58.61,23.29-86.94-10.61,12.39-20.7,25.23-30.25,38.49Z" style="fill:#fff; isolation:isolate; opacity:.3; stroke-width:0px;"/><path d="M1284.56,577.04c1.64,16.26,3.96,32.42,6.96,48.46,5.51-29.54,13.3-58.61,23.29-86.94-10.61,12.39-20.7,25.23-30.25,38.49Z" style="fill:#fff; isolation:isolate; opacity:.3; stroke-width:0px;"/><path d="M1284.56,577.04c1.64,16.26,3.96,32.42,6.96,48.46,5.51-29.54,13.3-58.61,23.29-86.94-10.61,12.39-20.7,25.23-30.25,38.49Z" style="fill:#fff; isolation:isolate; opacity:.3; stroke-width:0px;"/><path d="M1284.56,577.04c1.64,16.26,3.96,32.42,6.96,48.46,5.51-29.54,13.3-58.61,23.29-86.94-10.61,12.39-20.7,25.23-30.25,38.49Z" style="fill:#fff; isolation:isolate; opacity:.3; stroke-width:0px;"/><path d="M1284.56,577.04c1.64,16.26,3.96,32.42,6.96,48.46,5.51-29.54,13.3-58.61,23.29-86.94-10.61,12.39-20.7,25.23-30.25,38.49Z" style="fill:#fff; isolation:isolate; opacity:.3; stroke-width:0px;"/><path d="M1399.8,380.55c22.67,9.52,44.54,20.55,65.64,32.76,21.1-12.21,42.96-23.24,65.64-32.76-19.57-25.75-41.55-49.95-65.64-72.43-24.09,22.49-46.07,46.69-65.64,72.44h0Z" style="fill:#fff; isolation:isolate; opacity:.3; stroke-width:0px;"/><path d="M1399.8,380.55c22.67,9.52,44.54,20.55,65.64,32.76,21.1-12.21,42.96-23.24,65.64-32.76-19.57-25.75-41.55-49.95-65.64-72.43-24.09,22.49-46.07,46.69-65.64,72.44h0Z" style="fill:#fff; isolation:isolate; opacity:.3; stroke-width:0px;"/><path d="M1530.74,870.45c-22.67-9.52-44.54-20.55-65.64-32.76-21.1,12.21-42.96,23.24-65.64,32.76,19.57,25.75,41.55,49.95,65.64,72.43,24.09-22.49,46.07-46.69,65.64-72.44h0Z" style="fill:#fff; isolation:isolate; opacity:.3; stroke-width:0px;"/><path d="M1530.74,870.45c-22.67-9.52-44.54-20.55-65.64-32.76-21.1,12.21-42.96,23.24-65.64,32.76,19.57,25.75,41.55,49.95,65.64,72.43,24.09-22.49,46.07-46.69,65.64-72.44h0Z" style="fill:#fff; isolation:isolate; opacity:.3; stroke-width:0px;"/><path d="M1514.06,806.47c-15.59,11.23-31.76,21.68-48.46,31.35,21.1,12.21,42.96,23.24,65.64,32.76,14.87-19.58,28.3-40.07,40.47-61.18-19.29-.02-38.52-.99-57.64-2.92h0Z" style="fill:#fff; isolation:isolate; opacity:.3; stroke-width:0px;"/><path d="M1514.06,806.47c-15.59,11.23-31.76,21.68-48.46,31.35,21.1,12.21,42.96,23.24,65.64,32.76,14.87-19.58,28.3-40.07,40.47-61.18-19.29-.02-38.52-.99-57.64-2.92h0Z" style="fill:#fff; isolation:isolate; opacity:.3; stroke-width:0px;"/><path d="M1514.06,806.47c-15.59,11.23-31.76,21.68-48.46,31.35,21.1,12.21,42.96,23.24,65.64,32.76,14.87-19.58,28.3-40.07,40.47-61.18-19.29-.02-38.52-.99-57.64-2.92h0Z" style="fill:#fff; isolation:isolate; opacity:.3; stroke-width:0px;"/><path d="M1417.31,444.53c15.59-11.23,31.76-21.68,48.46-31.35-21.1-12.21-42.96-23.24-65.64-32.76-14.87,19.58-28.3,40.07-40.47,61.18,19.29.02,38.52.99,57.64,2.92h0Z" style="fill:#fff; isolation:isolate; opacity:.3; stroke-width:0px;"/><path d="M1417.31,444.53c15.59-11.23,31.76-21.68,48.46-31.35-21.1-12.21-42.96-23.24-65.64-32.76-14.87,19.58-28.3,40.07-40.47,61.18,19.29.02,38.52.99,57.64,2.92h0Z" style="fill:#fff; isolation:isolate; opacity:.3; stroke-width:0px;"/><path d="M1417.31,444.53c15.59-11.23,31.76-21.68,48.46-31.35-21.1-12.21-42.96-23.24-65.64-32.76-14.87,19.58-28.3,40.07-40.47,61.18,19.29.02,38.52.99,57.64,2.92h0Z" style="fill:#fff; isolation:isolate; opacity:.3; stroke-width:0px;"/><path d="M1378.46,474.55c12.39-10.61,25.23-20.7,38.49-30.25-19.12-1.93-38.35-2.9-57.64-2.92-9.63,16.71-18.4,33.86-26.29,51.37,14.9-6.71,30.06-12.79,45.44-18.21h0Z" style="fill:#fff; isolation:isolate; opacity:.3; stroke-width:0px;"/><path d="M1378.46,474.55c12.39-10.61,25.23-20.7,38.49-30.25-19.12-1.93-38.35-2.9-57.64-2.92-9.63,16.71-18.4,33.86-26.29,51.37,14.9-6.71,30.06-12.79,45.44-18.21h0Z" style="fill:#fff; isolation:isolate; opacity:.3; stroke-width:0px;"/><path d="M1378.46,474.55c12.39-10.61,25.23-20.7,38.49-30.25-19.12-1.93-38.35-2.9-57.64-2.92-9.63,16.71-18.4,33.86-26.29,51.37,14.9-6.71,30.06-12.79,45.44-18.21h0Z" style="fill:#fff; isolation:isolate; opacity:.3; stroke-width:0px;"/><path d="M1378.46,474.55c12.39-10.61,25.23-20.7,38.49-30.25-19.12-1.93-38.35-2.9-57.64-2.92-9.63,16.71-18.4,33.86-26.29,51.37,14.9-6.71,30.06-12.79,45.44-18.21h0Z" style="fill:#fff; isolation:isolate; opacity:.3; stroke-width:0px;"/><path d="M1552.35,776.45c-12.39,10.61-25.23,20.7-38.49,30.25,19.12,1.93,38.35,2.9,57.64,2.92,9.63-16.72,18.4-33.86,26.29-51.37-14.9,6.71-30.06,12.79-45.44,18.21h0Z" style="fill:#fff; isolation:isolate; opacity:.3; stroke-width:0px;"/><path d="M1552.35,776.45c-12.39,10.61-25.23,20.7-38.49,30.25,19.12,1.93,38.35,2.9,57.64,2.92,9.63-16.72,18.4-33.86,26.29-51.37-14.9,6.71-30.06,12.79-45.44,18.21h0Z" style="fill:#fff; isolation:isolate; opacity:.3; stroke-width:0px;"/><path d="M1552.35,776.45c-12.39,10.61-25.23,20.7-38.49,30.25,19.12,1.93,38.35,2.9,57.64,2.92,9.63-16.72,18.4-33.86,26.29-51.37-14.9,6.71-30.06,12.79-45.44,18.21h0Z" style="fill:#fff; isolation:isolate; opacity:.3; stroke-width:0px;"/><path d="M1552.35,776.45c-12.39,10.61-25.23,20.7-38.49,30.25,19.12,1.93,38.35,2.9,57.64,2.92,9.63-16.72,18.4-33.86,26.29-51.37-14.9,6.71-30.06,12.79-45.44,18.21h0Z" style="fill:#fff; isolation:isolate; opacity:.3; stroke-width:0px;"/><path d="M1378.46,474.9c-15.39,5.43-30.54,11.49-45.44,18.21-6.71,14.9-12.79,30.06-18.21,45.44,19.55-22.83,40.82-44.1,63.65-63.65Z" style="fill:#fff; isolation:isolate; opacity:.3; stroke-width:0px;"/><path d="M1378.46,474.9c-15.39,5.43-30.54,11.49-45.44,18.21-6.71,14.9-12.79,30.06-18.21,45.44,19.55-22.83,40.82-44.1,63.65-63.65Z" style="fill:#fff; isolation:isolate; opacity:.3; stroke-width:0px;"/><path d="M1378.46,474.9c-15.39,5.43-30.54,11.49-45.44,18.21-6.71,14.9-12.79,30.06-18.21,45.44,19.55-22.83,40.82-44.1,63.65-63.65Z" style="fill:#fff; isolation:isolate; opacity:.3; stroke-width:0px;"/><path d="M1378.46,474.9c-15.39,5.43-30.54,11.49-45.44,18.21-6.71,14.9-12.79,30.06-18.21,45.44,19.55-22.83,40.82-44.1,63.65-63.65Z" style="fill:#fff; isolation:isolate; opacity:.3; stroke-width:0px;"/><path d="M1378.46,474.9c-15.39,5.43-30.54,11.49-45.44,18.21-6.71,14.9-12.79,30.06-18.21,45.44,19.55-22.83,40.82-44.1,63.65-63.65Z" style="fill:#fff; isolation:isolate; opacity:.3; stroke-width:0px;"/><path d="M1552.35,776.1c15.39-5.43,30.54-11.49,45.44-18.21,6.71-14.9,12.79-30.06,18.21-45.44-19.55,22.83-40.82,44.1-63.65,63.65Z" style="fill:#fff; isolation:isolate; opacity:.3; stroke-width:0px;"/><path d="M1552.35,776.1c15.39-5.43,30.54-11.49,45.44-18.21,6.71-14.9,12.79-30.06,18.21-45.44-19.55,22.83-40.82,44.1-63.65,63.65Z" style="fill:#fff; isolation:isolate; opacity:.3; stroke-width:0px;"/><path d="M1552.35,776.1c15.39-5.43,30.54-11.49,45.44-18.21,6.71-14.9,12.79-30.06,18.21-45.44-19.55,22.83-40.82,44.1-63.65,63.65Z" style="fill:#fff; isolation:isolate; opacity:.3; stroke-width:0px;"/><path d="M1552.35,776.1c15.39-5.43,30.54-11.49,45.44-18.21,6.71-14.9,12.79-30.06,18.21-45.44-19.55,22.83-40.82,44.1-63.65,63.65Z" style="fill:#fff; isolation:isolate; opacity:.3; stroke-width:0px;"/><path d="M1552.35,776.1c15.39-5.43,30.54-11.49,45.44-18.21,6.71-14.9,12.79-30.06,18.21-45.44-19.55,22.83-40.82,44.1-63.65,63.65Z" style="fill:#fff; isolation:isolate; opacity:.3; stroke-width:0px;"/><path d="M1358.93,808.99c12.17,21.13,25.59,41.61,40.47,61.18,22.67-9.52,44.54-20.55,65.64-32.76-16.7-9.67-32.87-20.12-48.46-31.35-19.12,1.93-38.35,2.9-57.64,2.92h0Z" style="fill:#fff; isolation:isolate; opacity:.3; stroke-width:0px;"/><path d="M1358.93,808.99c12.17,21.13,25.59,41.61,40.47,61.18,22.67-9.52,44.54-20.55,65.64-32.76-16.7-9.67-32.87-20.12-48.46-31.35-19.12,1.93-38.35,2.9-57.64,2.92h0Z" style="fill:#fff; isolation:isolate; opacity:.3; stroke-width:0px;"/><path d="M1358.93,808.99c12.17,21.13,25.59,41.61,40.47,61.18,22.67-9.52,44.54-20.55,65.64-32.76-16.7-9.67-32.87-20.12-48.46-31.35-19.12,1.93-38.35,2.9-57.64,2.92h0Z" style="fill:#fff; isolation:isolate; opacity:.3; stroke-width:0px;"/><path d="M1571.6,442.01c-12.17-21.13-25.59-41.61-40.47-61.18-22.67,9.52-44.54,20.55-65.64,32.76,16.7,9.67,32.87,20.12,48.46,31.35,19.12-1.93,38.35-2.9,57.64-2.92h0Z" style="fill:#fff; isolation:isolate; opacity:.3; stroke-width:0px;"/><path d="M1571.6,442.01c-12.17-21.13-25.59-41.61-40.47-61.18-22.67,9.52-44.54,20.55-65.64,32.76,16.7,9.67,32.87,20.12,48.46,31.35,19.12-1.93,38.35-2.9,57.64-2.92h0Z" style="fill:#fff; isolation:isolate; opacity:.3; stroke-width:0px;"/><path d="M1571.6,442.01c-12.17-21.13-25.59-41.61-40.47-61.18-22.67,9.52-44.54,20.55-65.64,32.76,16.7,9.67,32.87,20.12,48.46,31.35,19.12-1.93,38.35-2.9,57.64-2.92h0Z" style="fill:#fff; isolation:isolate; opacity:.3; stroke-width:0px;"/><path d="M1465.41,799.39c-16.04,2.99-32.19,5.31-48.46,6.96,15.59,11.23,31.76,21.68,48.46,31.35,16.7-9.67,32.87-20.12,48.46-31.35-16.26-1.64-32.42-3.96-48.46-6.96Z" style="fill:#fff; isolation:isolate; opacity:.3; stroke-width:0px;"/><path d="M1465.41,799.39c-16.04,2.99-32.19,5.31-48.46,6.96,15.59,11.23,31.76,21.68,48.46,31.35,16.7-9.67,32.87-20.12,48.46-31.35-16.26-1.64-32.42-3.96-48.46-6.96Z" style="fill:#fff; isolation:isolate; opacity:.3; stroke-width:0px;"/><path d="M1465.41,799.39c-16.04,2.99-32.19,5.31-48.46,6.96,15.59,11.23,31.76,21.68,48.46,31.35,16.7-9.67,32.87-20.12,48.46-31.35-16.26-1.64-32.42-3.96-48.46-6.96Z" style="fill:#fff; isolation:isolate; opacity:.3; stroke-width:0px;"/><path d="M1465.41,799.39c-16.04,2.99-32.19,5.31-48.46,6.96,15.59,11.23,31.76,21.68,48.46,31.35,16.7-9.67,32.87-20.12,48.46-31.35-16.26-1.64-32.42-3.96-48.46-6.96Z" style="fill:#fff; isolation:isolate; opacity:.3; stroke-width:0px;"/><path d="M1465.41,451.61c16.04-2.99,32.19-5.31,48.46-6.96-15.59-11.23-31.76-21.68-48.46-31.35-16.7,9.67-32.87,20.12-48.46,31.35,16.26,1.64,32.42,3.96,48.46,6.96Z" style="fill:#fff; isolation:isolate; opacity:.3; stroke-width:0px;"/><path d="M1465.41,451.61c16.04-2.99,32.19-5.31,48.46-6.96-15.59-11.23-31.76-21.68-48.46-31.35-16.7,9.67-32.87,20.12-48.46,31.35,16.26,1.64,32.42,3.96,48.46,6.96Z" style="fill:#fff; isolation:isolate; opacity:.3; stroke-width:0px;"/><path d="M1465.41,451.61c16.04-2.99,32.19-5.31,48.46-6.96-15.59-11.23-31.76-21.68-48.46-31.35-16.7,9.67-32.87,20.12-48.46,31.35,16.26,1.64,32.42,3.96,48.46,6.96Z" style="fill:#fff; isolation:isolate; opacity:.3; stroke-width:0px;"/><path d="M1465.41,451.61c16.04-2.99,32.19-5.31,48.46-6.96-15.59-11.23-31.76-21.68-48.46-31.35-16.7,9.67-32.87,20.12-48.46,31.35,16.26,1.64,32.42,3.96,48.46,6.96Z" style="fill:#fff; isolation:isolate; opacity:.3; stroke-width:0px;"/><path d="M1416.95,444.66c-13.26,9.55-26.1,19.64-38.49,30.25,28.34-9.99,57.4-17.78,86.94-23.29-16.04-2.99-32.19-5.31-48.46-6.96Z" style="fill:#fff; isolation:isolate; opacity:.3; stroke-width:0px;"/><path d="M1416.95,444.66c-13.26,9.55-26.1,19.64-38.49,30.25,28.34-9.99,57.4-17.78,86.94-23.29-16.04-2.99-32.19-5.31-48.46-6.96Z" style="fill:#fff; isolation:isolate; opacity:.3; stroke-width:0px;"/><path d="M1416.95,444.66c-13.26,9.55-26.1,19.64-38.49,30.25,28.34-9.99,57.4-17.78,86.94-23.29-16.04-2.99-32.19-5.31-48.46-6.96Z" style="fill:#fff; isolation:isolate; opacity:.3; stroke-width:0px;"/><path d="M1416.95,444.66c-13.26,9.55-26.1,19.64-38.49,30.25,28.34-9.99,57.4-17.78,86.94-23.29-16.04-2.99-32.19-5.31-48.46-6.96Z" style="fill:#fff; isolation:isolate; opacity:.3; stroke-width:0px;"/><path d="M1416.95,444.66c-13.26,9.55-26.1,19.64-38.49,30.25,28.34-9.99,57.4-17.78,86.94-23.29-16.04-2.99-32.19-5.31-48.46-6.96Z" style="fill:#fff; isolation:isolate; opacity:.3; stroke-width:0px;"/><path d="M1513.86,806.34c13.26-9.55,26.1-19.64,38.49-30.25-28.34,9.99-57.4,17.78-86.94,23.29,16.04,2.99,32.19,5.31,48.46,6.96Z" style="fill:#fff; isolation:isolate; opacity:.3; stroke-width:0px;"/><path d="M1513.86,806.34c13.26-9.55,26.1-19.64,38.49-30.25-28.34,9.99-57.4,17.78-86.94,23.29,16.04,2.99,32.19,5.31,48.46,6.96Z" style="fill:#fff; isolation:isolate; opacity:.3; stroke-width:0px;"/><path d="M1513.86,806.34c13.26-9.55,26.1-19.64,38.49-30.25-28.34,9.99-57.4,17.78-86.94,23.29,16.04,2.99,32.19,5.31,48.46,6.96Z" style="fill:#fff; isolation:isolate; opacity:.3; stroke-width:0px;"/><path d="M1513.86,806.34c13.26-9.55,26.1-19.64,38.49-30.25-28.34,9.99-57.4,17.78-86.94,23.29,16.04,2.99,32.19,5.31,48.46,6.96Z" style="fill:#fff; isolation:isolate; opacity:.3; stroke-width:0px;"/><path d="M1513.86,806.34c13.26-9.55,26.1-19.64,38.49-30.25-28.34,9.99-57.4,17.78-86.94,23.29,16.04,2.99,32.19,5.31,48.46,6.96Z" style="fill:#fff; isolation:isolate; opacity:.3; stroke-width:0px;"/><path d="M1513.86,444.52c13.26,9.55,26.1,19.64,38.49,30.25,15.39,5.43,30.54,11.49,45.44,18.21-7.89-17.51-16.66-34.66-26.29-51.37-19.29.02-38.52.99-57.64,2.92h0Z" style="fill:#fff; isolation:isolate; opacity:.3; stroke-width:0px;"/><path d="M1513.86,444.52c13.26,9.55,26.1,19.64,38.49,30.25,15.39,5.43,30.54,11.49,45.44,18.21-7.89-17.51-16.66-34.66-26.29-51.37-19.29.02-38.52.99-57.64,2.92h0Z" style="fill:#fff; isolation:isolate; opacity:.3; stroke-width:0px;"/><path d="M1513.86,444.52c13.26,9.55,26.1,19.64,38.49,30.25,15.39,5.43,30.54,11.49,45.44,18.21-7.89-17.51-16.66-34.66-26.29-51.37-19.29.02-38.52.99-57.64,2.92h0Z" style="fill:#fff; isolation:isolate; opacity:.3; stroke-width:0px;"/><path d="M1513.86,444.52c13.26,9.55,26.1,19.64,38.49,30.25,15.39,5.43,30.54,11.49,45.44,18.21-7.89-17.51-16.66-34.66-26.29-51.37-19.29.02-38.52.99-57.64,2.92h0Z" style="fill:#fff; isolation:isolate; opacity:.3; stroke-width:0px;"/><path d="M1416.95,806.48c-13.26-9.55-26.1-19.64-38.49-30.25-15.39-5.43-30.54-11.49-45.44-18.21,7.89,17.52,16.66,34.66,26.29,51.37,19.29-.02,38.52-.99,57.64-2.92h0Z" style="fill:#fff; isolation:isolate; opacity:.3; stroke-width:0px;"/><path d="M1416.95,806.48c-13.26-9.55-26.1-19.64-38.49-30.25-15.39-5.43-30.54-11.49-45.44-18.21,7.89,17.52,16.66,34.66,26.29,51.37,19.29-.02,38.52-.99,57.64-2.92h0Z" style="fill:#fff; isolation:isolate; opacity:.3; stroke-width:0px;"/><path d="M1416.95,806.48c-13.26-9.55-26.1-19.64-38.49-30.25-15.39-5.43-30.54-11.49-45.44-18.21,7.89,17.52,16.66,34.66,26.29,51.37,19.29-.02,38.52-.99,57.64-2.92h0Z" style="fill:#fff; isolation:isolate; opacity:.3; stroke-width:0px;"/><path d="M1416.95,806.48c-13.26-9.55-26.1-19.64-38.49-30.25-15.39-5.43-30.54-11.49-45.44-18.21,7.89,17.52,16.66,34.66,26.29,51.37,19.29-.02,38.52-.99,57.64-2.92h0Z" style="fill:#fff; isolation:isolate; opacity:.3; stroke-width:0px;"/><path d="M1416.95,806.34c16.26-1.64,32.42-3.96,48.46-6.96-29.54-5.51-58.61-13.3-86.94-23.29,12.39,10.61,25.23,20.7,38.49,30.25Z" style="fill:#fff; isolation:isolate; opacity:.3; stroke-width:0px;"/><path d="M1416.95,806.34c16.26-1.64,32.42-3.96,48.46-6.96-29.54-5.51-58.61-13.3-86.94-23.29,12.39,10.61,25.23,20.7,38.49,30.25Z" style="fill:#fff; isolation:isolate; opacity:.3; stroke-width:0px;"/><path d="M1416.95,806.34c16.26-1.64,32.42-3.96,48.46-6.96-29.54-5.51-58.61-13.3-86.94-23.29,12.39,10.61,25.23,20.7,38.49,30.25Z" style="fill:#fff; isolation:isolate; opacity:.3; stroke-width:0px;"/><path d="M1416.95,806.34c16.26-1.64,32.42-3.96,48.46-6.96-29.54-5.51-58.61-13.3-86.94-23.29,12.39,10.61,25.23,20.7,38.49,30.25Z" style="fill:#fff; isolation:isolate; opacity:.3; stroke-width:0px;"/><path d="M1416.95,806.34c16.26-1.64,32.42-3.96,48.46-6.96-29.54-5.51-58.61-13.3-86.94-23.29,12.39,10.61,25.23,20.7,38.49,30.25Z" style="fill:#fff; isolation:isolate; opacity:.3; stroke-width:0px;"/><path d="M1513.86,444.66c-16.26,1.64-32.42,3.96-48.46,6.96,29.54,5.51,58.61,13.3,86.94,23.29-12.39-10.61-25.23-20.7-38.49-30.25Z" style="fill:#fff; isolation:isolate; opacity:.3; stroke-width:0px;"/><path d="M1513.86,444.66c-16.26,1.64-32.42,3.96-48.46,6.96,29.54,5.51,58.61,13.3,86.94,23.29-12.39-10.61-25.23-20.7-38.49-30.25Z" style="fill:#fff; isolation:isolate; opacity:.3; stroke-width:0px;"/><path d="M1513.86,444.66c-16.26,1.64-32.42,3.96-48.46,6.96,29.54,5.51,58.61,13.3,86.94,23.29-12.39-10.61-25.23-20.7-38.49-30.25Z" style="fill:#fff; isolation:isolate; opacity:.3; stroke-width:0px;"/><path d="M1513.86,444.66c-16.26,1.64-32.42,3.96-48.46,6.96,29.54,5.51,58.61,13.3,86.94,23.29-12.39-10.61-25.23-20.7-38.49-30.25Z" style="fill:#fff; isolation:isolate; opacity:.3; stroke-width:0px;"/><path d="M1513.86,444.66c-16.26,1.64-32.42,3.96-48.46,6.96,29.54,5.51,58.61,13.3,86.94,23.29-12.39-10.61-25.23-20.7-38.49-30.25Z" style="fill:#fff; isolation:isolate; opacity:.3; stroke-width:0px;"/><path d="M1314.81,712.44c5.43,15.39,11.49,30.54,18.21,45.44,14.9,6.71,30.06,12.79,45.44,18.21-22.83-19.55-44.1-40.82-63.65-63.65Z" style="fill:#fff; isolation:isolate; opacity:.3; stroke-width:0px;"/><path d="M1314.81,712.44c5.43,15.39,11.49,30.54,18.21,45.44,14.9,6.71,30.06,12.79,45.44,18.21-22.83-19.55-44.1-40.82-63.65-63.65Z" style="fill:#fff; isolation:isolate; opacity:.3; stroke-width:0px;"/><path d="M1314.81,712.44c5.43,15.39,11.49,30.54,18.21,45.44,14.9,6.71,30.06,12.79,45.44,18.21-22.83-19.55-44.1-40.82-63.65-63.65Z" style="fill:#fff; isolation:isolate; opacity:.3; stroke-width:0px;"/><path d="M1314.81,712.44c5.43,15.39,11.49,30.54,18.21,45.44,14.9,6.71,30.06,12.79,45.44,18.21-22.83-19.55-44.1-40.82-63.65-63.65Z" style="fill:#fff; isolation:isolate; opacity:.3; stroke-width:0px;"/><path d="M1314.81,712.44c5.43,15.39,11.49,30.54,18.21,45.44,14.9,6.71,30.06,12.79,45.44,18.21-22.83-19.55-44.1-40.82-63.65-63.65Z" style="fill:#fff; isolation:isolate; opacity:.3; stroke-width:0px;"/><path d="M1616,538.56c-5.43-15.39-11.49-30.54-18.21-45.44-14.9-6.71-30.06-12.78-45.44-18.21,22.83,19.55,44.1,40.82,63.65,63.65Z" style="fill:#fff; isolation:isolate; opacity:.3; stroke-width:0px;"/><path d="M1616,538.56c-5.43-15.39-11.49-30.54-18.21-45.44-14.9-6.71-30.06-12.78-45.44-18.21,22.83,19.55,44.1,40.82,63.65,63.65Z" style="fill:#fff; isolation:isolate; opacity:.3; stroke-width:0px;"/><path d="M1616,538.56c-5.43-15.39-11.49-30.54-18.21-45.44-14.9-6.71-30.06-12.78-45.44-18.21,22.83,19.55,44.1,40.82,63.65,63.65Z" style="fill:#fff; isolation:isolate; opacity:.3; stroke-width:0px;"/><path d="M1616,538.56c-5.43-15.39-11.49-30.54-18.21-45.44-14.9-6.71-30.06-12.78-45.44-18.21,22.83,19.55,44.1,40.82,63.65,63.65Z" style="fill:#fff; isolation:isolate; opacity:.3; stroke-width:0px;"/><path d="M1616,538.56c-5.43-15.39-11.49-30.54-18.21-45.44-14.9-6.71-30.06-12.78-45.44-18.21,22.83,19.55,44.1,40.82,63.65,63.65Z" style="fill:#fff; isolation:isolate; opacity:.3; stroke-width:0px;"/><path d="M1616,538.56c-19.55-22.83-40.82-44.1-63.65-63.65-28.34-9.99-57.4-17.78-86.94-23.29-29.54,5.51-58.61,13.3-86.94,23.29-22.83,19.55-44.1,40.82-63.65,63.65-9.99,28.34-17.78,57.4-23.29,86.94,5.51,29.54,13.3,58.61,23.29,86.94,19.55,22.83,40.82,44.1,63.65,63.65,28.34,9.99,57.4,17.78,86.94,23.29,29.54-5.51,58.61-13.3,86.94-23.29,22.83-19.55,44.1-40.82,63.65-63.65,9.99-28.34,17.78-57.4,23.29-86.94-5.51-29.54-13.3-58.61-23.29-86.94Z" style="fill:#fff; isolation:isolate; opacity:.3; stroke-width:0px;"/><path d="M1616,538.56c-19.55-22.83-40.82-44.1-63.65-63.65-28.34-9.99-57.4-17.78-86.94-23.29-29.54,5.51-58.61,13.3-86.94,23.29-22.83,19.55-44.1,40.82-63.65,63.65-9.99,28.34-17.78,57.4-23.29,86.94,5.51,29.54,13.3,58.61,23.29,86.94,19.55,22.83,40.82,44.1,63.65,63.65,28.34,9.99,57.4,17.78,86.94,23.29,29.54-5.51,58.61-13.3,86.94-23.29,22.83-19.55,44.1-40.82,63.65-63.65,9.99-28.34,17.78-57.4,23.29-86.94-5.51-29.54-13.3-58.61-23.29-86.94Z" style="fill:#fff; isolation:isolate; opacity:.3; stroke-width:0px;"/><path d="M1616,538.56c-19.55-22.83-40.82-44.1-63.65-63.65-28.34-9.99-57.4-17.78-86.94-23.29-29.54,5.51-58.61,13.3-86.94,23.29-22.83,19.55-44.1,40.82-63.65,63.65-9.99,28.34-17.78,57.4-23.29,86.94,5.51,29.54,13.3,58.61,23.29,86.94,19.55,22.83,40.82,44.1,63.65,63.65,28.34,9.99,57.4,17.78,86.94,23.29,29.54-5.51,58.61-13.3,86.94-23.29,22.83-19.55,44.1-40.82,63.65-63.65,9.99-28.34,17.78-57.4,23.29-86.94-5.51-29.54-13.3-58.61-23.29-86.94Z" style="fill:#fff; isolation:isolate; opacity:.3; stroke-width:0px;"/><path d="M1616,538.56c-19.55-22.83-40.82-44.1-63.65-63.65-28.34-9.99-57.4-17.78-86.94-23.29-29.54,5.51-58.61,13.3-86.94,23.29-22.83,19.55-44.1,40.82-63.65,63.65-9.99,28.34-17.78,57.4-23.29,86.94,5.51,29.54,13.3,58.61,23.29,86.94,19.55,22.83,40.82,44.1,63.65,63.65,28.34,9.99,57.4,17.78,86.94,23.29,29.54-5.51,58.61-13.3,86.94-23.29,22.83-19.55,44.1-40.82,63.65-63.65,9.99-28.34,17.78-57.4,23.29-86.94-5.51-29.54-13.3-58.61-23.29-86.94Z" style="fill:#fff; isolation:isolate; opacity:.3; stroke-width:0px;"/><path d="M1616,538.56c-19.55-22.83-40.82-44.1-63.65-63.65-28.34-9.99-57.4-17.78-86.94-23.29-29.54,5.51-58.61,13.3-86.94,23.29-22.83,19.55-44.1,40.82-63.65,63.65-9.99,28.34-17.78,57.4-23.29,86.94,5.51,29.54,13.3,58.61,23.29,86.94,19.55,22.83,40.82,44.1,63.65,63.65,28.34,9.99,57.4,17.78,86.94,23.29,29.54-5.51,58.61-13.3,86.94-23.29,22.83-19.55,44.1-40.82,63.65-63.65,9.99-28.34,17.78-57.4,23.29-86.94-5.51-29.54-13.3-58.61-23.29-86.94Z" style="fill:#fff; isolation:isolate; opacity:.3; stroke-width:0px;"/><path d="M1616,538.56c-19.55-22.83-40.82-44.1-63.65-63.65-28.34-9.99-57.4-17.78-86.94-23.29-29.54,5.51-58.61,13.3-86.94,23.29-22.83,19.55-44.1,40.82-63.65,63.65-9.99,28.34-17.78,57.4-23.29,86.94,5.51,29.54,13.3,58.61,23.29,86.94,19.55,22.83,40.82,44.1,63.65,63.65,28.34,9.99,57.4,17.78,86.94,23.29,29.54-5.51,58.61-13.3,86.94-23.29,22.83-19.55,44.1-40.82,63.65-63.65,9.99-28.34,17.78-57.4,23.29-86.94-5.51-29.54-13.3-58.61-23.29-86.94Z" style="fill:#fff; isolation:isolate; opacity:.3; stroke-width:0px;"/><circle cx="1465.41" cy="625.5" r="179.31" style="fill:#fff; stroke-width:0px;"/><path d="M1213.82,191.46c-66.55-15.43-135.78-23.85-207.02-23.85h0c0,71.33,8.42,140.66,23.82,207.3,49.71-15.19,100.09-26.15,150.69-32.57,6.41-50.67,17.36-101.11,32.52-150.89h0Z" style="fill:#4d4d4d; isolation:isolate; opacity:.3; stroke-width:0px;"/><path d="M1714.22,1059.54c66.55,15.43,135.78,23.85,207.02,23.85h0c0-71.33-8.42-140.66-23.82-207.3-49.71,15.19-100.09,26.15-150.69,32.57-6.41,50.67-17.36,101.11-32.52,150.89h0Z" style="fill:#4d4d4d; isolation:isolate; opacity:.3; stroke-width:0px;"/><path d="M1964.62,625.5c-35.47,38.04-73.63,72.75-114.24,103.65,19.75,47.09,35.45,96.25,47.17,146.95,65.34-19.96,129.5-47.33,191.19-82.99h0c-35.62-61.77-77.53-117.6-124.14-167.6h.02Z" style="fill:#4d4d4d; isolation:isolate; opacity:.3; stroke-width:0px;"/><path d="M1077.81,522.08c-19.75-47.09-35.45-96.25-47.17-146.95-65.35,19.96-129.51,47.32-191.2,82.99h0c35.62,61.77,77.53,117.6,124.14,167.6,35.46-38.04,73.63-72.75,114.24-103.64h0Z" style="fill:#4d4d4d; isolation:isolate; opacity:.3; stroke-width:0px;"/><path d="M1174.3,457.87c-.04-38.49,2.14-77.1,7.01-115.63-50.6,6.42-100.97,17.38-150.69,32.57,11.73,50.7,27.44,99.86,47.17,146.95,30.87-23.49,63.18-44.69,96.49-63.89h0Z" style="fill:#4d4d4d; isolation:isolate; opacity:.3; stroke-width:0px;"/><path d="M1174.3,457.87c-.04-38.49,2.14-77.1,7.01-115.63-50.6,6.42-100.97,17.38-150.69,32.57,11.73,50.7,27.44,99.86,47.17,146.95,30.87-23.49,63.18-44.69,96.49-63.89h0Z" style="fill:#4d4d4d; isolation:isolate; opacity:.3; stroke-width:0px;"/><path d="M1753.89,793.03c.04,38.49-2.14,77.1-7.01,115.62,50.6-6.42,100.97-17.38,150.69-32.57-11.72-50.7-27.44-99.86-47.17-146.95-30.87,23.49-63.18,44.69-96.49,63.89h0Z" style="fill:#4d4d4d; isolation:isolate; opacity:.3; stroke-width:0px;"/><path d="M1753.89,793.03c.04,38.49-2.14,77.1-7.01,115.62,50.6-6.42,100.97-17.38,150.69-32.57-11.72-50.7-27.44-99.86-47.17-146.95-30.87,23.49-63.18,44.69-96.49,63.89h0Z" style="fill:#4d4d4d; isolation:isolate; opacity:.3; stroke-width:0px;"/><path d="M1964.62,625.5c46.62-50,88.52-105.83,124.14-167.6h0c-61.69-35.67-125.86-63.03-191.19-82.99-11.72,50.7-27.44,99.86-47.17,146.95,40.61,30.89,78.76,65.6,114.24,103.64h-.02Z" style="fill:#4d4d4d; isolation:isolate; opacity:.3; stroke-width:0px;"/><path d="M963.57,625.5c-46.62,50-88.52,105.83-124.14,167.6h0c61.69,35.67,125.86,63.03,191.19,82.99,11.72-50.7,27.44-99.86,47.17-146.95-40.61-30.89-78.76-65.6-114.24-103.64h.02Z" style="fill:#4d4d4d; isolation:isolate; opacity:.3; stroke-width:0px;"/><path d="M1077.81,729.14c15.01-35.8,32.41-70.32,51.66-103.64-19.26-33.32-36.65-67.85-51.66-103.64-40.61,30.89-78.76,65.6-114.24,103.64,35.47,38.04,73.63,72.75,114.24,103.64Z" style="fill:#4d4d4d; isolation:isolate; opacity:.3; stroke-width:0px;"/><path d="M1077.81,729.14c15.01-35.8,32.41-70.32,51.66-103.64-19.26-33.32-36.65-67.85-51.66-103.64-40.61,30.89-78.76,65.6-114.24,103.64,35.47,38.04,73.63,72.75,114.24,103.64Z" style="fill:#4d4d4d; isolation:isolate; opacity:.3; stroke-width:0px;"/><path d="M1850.16,521.85c-15.01,35.8-32.4,70.33-51.66,103.64,19.26,33.32,36.65,67.85,51.66,103.64,40.61-30.89,78.76-65.61,114.24-103.65-35.47-38.04-73.63-72.75-114.24-103.64h0Z" style="fill:#4d4d4d; isolation:isolate; opacity:.3; stroke-width:0px;"/><path d="M1850.16,521.85c-15.01,35.8-32.4,70.33-51.66,103.64,19.26,33.32,36.65,67.85,51.66,103.64,40.61-30.89,78.76-65.61,114.24-103.65-35.47-38.04-73.63-72.75-114.24-103.64h0Z" style="fill:#4d4d4d; isolation:isolate; opacity:.3; stroke-width:0px;"/><path d="M1174.3,457.87c-33.31,19.22-65.61,40.41-96.49,63.89,15.01,35.8,32.41,70.32,51.66,103.64,15.25-26.37,31.73-51.9,49.43-76.52-3.04-30.19-4.57-60.56-4.6-91.01h0Z" style="fill:#4d4d4d; isolation:isolate; opacity:.3; stroke-width:0px;"/><path d="M1174.3,457.87c-33.31,19.22-65.61,40.41-96.49,63.89,15.01,35.8,32.41,70.32,51.66,103.64,15.25-26.37,31.73-51.9,49.43-76.52-3.04-30.19-4.57-60.56-4.6-91.01h0Z" style="fill:#4d4d4d; isolation:isolate; opacity:.3; stroke-width:0px;"/><path d="M1174.3,457.87c-33.31,19.22-65.61,40.41-96.49,63.89,15.01,35.8,32.41,70.32,51.66,103.64,15.25-26.37,31.73-51.9,49.43-76.52-3.04-30.19-4.57-60.56-4.6-91.01h0Z" style="fill:#4d4d4d; isolation:isolate; opacity:.3; stroke-width:0px;"/><path d="M1749.29,702.23c3.04,30.18,4.57,60.55,4.6,91.01,33.32-19.22,65.61-40.41,96.49-63.89-15.01-35.8-32.41-70.32-51.66-103.64-15.25,26.37-31.73,51.9-49.43,76.52h0Z" style="fill:#4d4d4d; isolation:isolate; opacity:.3; stroke-width:0px;"/><path d="M1749.29,702.23c3.04,30.18,4.57,60.55,4.6,91.01,33.32-19.22,65.61-40.41,96.49-63.89-15.01-35.8-32.41-70.32-51.66-103.64-15.25,26.37-31.73,51.9-49.43,76.52h0Z" style="fill:#4d4d4d; isolation:isolate; opacity:.3; stroke-width:0px;"/><path d="M1749.29,702.23c3.04,30.18,4.57,60.55,4.6,91.01,33.32-19.22,65.61-40.41,96.49-63.89-15.01-35.8-32.41-70.32-51.66-103.64-15.25,26.37-31.73,51.9-49.43,76.52h0Z" style="fill:#4d4d4d; isolation:isolate; opacity:.3; stroke-width:0px;"/><path d="M1030.64,876.1c-15.41,66.64-23.82,135.97-23.82,207.3h0c71.24,0,140.48-8.42,207.02-23.85-15.17-49.78-26.11-100.22-32.53-150.89-50.6-6.42-100.97-17.38-150.69-32.57h0Z" style="fill:#4d4d4d; isolation:isolate; opacity:.3; stroke-width:0px;"/><path d="M1897.56,375.3c15.41-66.64,23.82-135.97,23.82-207.3h0c-71.24,0-140.48,8.42-207.02,23.85,15.17,49.78,26.11,100.22,32.53,150.89,50.6,6.42,100.97,17.38,150.69,32.56h0Z" style="fill:#4d4d4d; isolation:isolate; opacity:.3; stroke-width:0px;"/><path d="M1753.89,457.87c33.32,19.22,65.61,40.41,96.49,63.89,19.75-47.09,35.45-96.25,47.17-146.95-49.71-15.19-100.09-26.15-150.69-32.56,4.87,38.52,7.06,77.13,7.01,115.62h0Z" style="fill:#4d4d4d; isolation:isolate; opacity:.3; stroke-width:0px;"/><path d="M1753.89,457.87c33.32,19.22,65.61,40.41,96.49,63.89,19.75-47.09,35.45-96.25,47.17-146.95-49.71-15.19-100.09-26.15-150.69-32.56,4.87,38.52,7.06,77.13,7.01,115.62h0Z" style="fill:#4d4d4d; isolation:isolate; opacity:.3; stroke-width:0px;"/><path d="M1174.3,793.13c-33.32-19.22-65.61-40.41-96.49-63.89-19.75,47.09-35.45,96.25-47.17,146.95,49.71,15.19,100.09,26.15,150.69,32.57-4.87-38.52-7.06-77.13-7.01-115.63h0Z" style="fill:#4d4d4d; isolation:isolate; opacity:.3; stroke-width:0px;"/><path d="M1174.3,793.13c-33.32-19.22-65.61-40.41-96.49-63.89-19.75,47.09-35.45,96.25-47.17,146.95,49.71,15.19,100.09,26.15,150.69,32.57-4.87-38.52-7.06-77.13-7.01-115.63h0Z" style="fill:#4d4d4d; isolation:isolate; opacity:.3; stroke-width:0px;"/><path d="M1749.29,548.98c17.71,24.62,34.2,50.15,49.43,76.52,19.26-33.32,36.65-67.85,51.66-103.64-30.87-23.49-63.18-44.68-96.49-63.89-.03,30.47-1.57,60.83-4.6,91.02h0Z" style="fill:#4d4d4d; isolation:isolate; opacity:.3; stroke-width:0px;"/><path d="M1749.29,548.98c17.71,24.62,34.2,50.15,49.43,76.52,19.26-33.32,36.65-67.85,51.66-103.64-30.87-23.49-63.18-44.68-96.49-63.89-.03,30.47-1.57,60.83-4.6,91.02h0Z" style="fill:#4d4d4d; isolation:isolate; opacity:.3; stroke-width:0px;"/><path d="M1749.29,548.98c17.71,24.62,34.2,50.15,49.43,76.52,19.26-33.32,36.65-67.85,51.66-103.64-30.87-23.49-63.18-44.68-96.49-63.89-.03,30.47-1.57,60.83-4.6,91.02h0Z" style="fill:#4d4d4d; isolation:isolate; opacity:.3; stroke-width:0px;"/><path d="M1178.9,702.23c-17.71-24.62-34.2-50.15-49.43-76.52-19.26,33.32-36.65,67.85-51.66,103.64,30.87,23.49,63.18,44.68,96.49,63.89.03-30.47,1.57-60.83,4.6-91.01h0Z" style="fill:#4d4d4d; isolation:isolate; opacity:.3; stroke-width:0px;"/><path d="M1178.9,702.23c-17.71-24.62-34.2-50.15-49.43-76.52-19.26,33.32-36.65,67.85-51.66,103.64,30.87,23.49,63.18,44.68,96.49,63.89.03-30.47,1.57-60.83,4.6-91.01h0Z" style="fill:#4d4d4d; isolation:isolate; opacity:.3; stroke-width:0px;"/><path d="M1178.9,702.23c-17.71-24.62-34.2-50.15-49.43-76.52-19.26,33.32-36.65,67.85-51.66,103.64,30.87,23.49,63.18,44.68,96.49,63.89.03-30.47,1.57-60.83,4.6-91.01h0Z" style="fill:#4d4d4d; isolation:isolate; opacity:.3; stroke-width:0px;"/><path d="M1189.86,625.5c-4.72-25.32-8.38-50.84-10.97-76.52-17.71,24.62-34.2,50.15-49.43,76.52,15.25,26.37,31.73,51.9,49.43,76.52,2.59-25.68,6.25-51.2,10.97-76.52Z" style="fill:#4d4d4d; isolation:isolate; opacity:.3; stroke-width:0px;"/><path d="M1189.86,625.5c-4.72-25.32-8.38-50.84-10.97-76.52-17.71,24.62-34.2,50.15-49.43,76.52,15.25,26.37,31.73,51.9,49.43,76.52,2.59-25.68,6.25-51.2,10.97-76.52Z" style="fill:#4d4d4d; isolation:isolate; opacity:.3; stroke-width:0px;"/><path d="M1189.86,625.5c-4.72-25.32-8.38-50.84-10.97-76.52-17.71,24.62-34.2,50.15-49.43,76.52,15.25,26.37,31.73,51.9,49.43,76.52,2.59-25.68,6.25-51.2,10.97-76.52Z" style="fill:#4d4d4d; isolation:isolate; opacity:.3; stroke-width:0px;"/><path d="M1189.86,625.5c-4.72-25.32-8.38-50.84-10.97-76.52-17.71,24.62-34.2,50.15-49.43,76.52,15.25,26.37,31.73,51.9,49.43,76.52,2.59-25.68,6.25-51.2,10.97-76.52Z" style="fill:#4d4d4d; isolation:isolate; opacity:.3; stroke-width:0px;"/><path d="M1738.33,625.5c4.72,25.32,8.38,50.84,10.97,76.52,17.71-24.62,34.2-50.15,49.43-76.52-15.25-26.37-31.73-51.9-49.43-76.52-2.59,25.68-6.25,51.2-10.97,76.52Z" style="fill:#4d4d4d; isolation:isolate; opacity:.3; stroke-width:0px;"/><path d="M1738.33,625.5c4.72,25.32,8.38,50.84,10.97,76.52,17.71-24.62,34.2-50.15,49.43-76.52-15.25-26.37-31.73-51.9-49.43-76.52-2.59,25.68-6.25,51.2-10.97,76.52Z" style="fill:#4d4d4d; isolation:isolate; opacity:.3; stroke-width:0px;"/><path d="M1738.33,625.5c4.72,25.32,8.38,50.84,10.97,76.52,17.71-24.62,34.2-50.15,49.43-76.52-15.25-26.37-31.73-51.9-49.43-76.52-2.59,25.68-6.25,51.2-10.97,76.52Z" style="fill:#4d4d4d; isolation:isolate; opacity:.3; stroke-width:0px;"/><path d="M1738.33,625.5c4.72,25.32,8.38,50.84,10.97,76.52,17.71-24.62,34.2-50.15,49.43-76.52-15.25-26.37-31.73-51.9-49.43-76.52-2.59,25.68-6.25,51.2-10.97,76.52Z" style="fill:#4d4d4d; isolation:isolate; opacity:.3; stroke-width:0px;"/><path d="M1360.59,1012.3c-47.02,19.77-96.13,35.5-146.76,47.24,19.93,65.43,47.26,129.68,82.88,191.45h0c61.69-35.67,117.44-77.63,167.38-124.31-37.99-35.51-72.65-73.72-103.5-114.38h0Z" style="fill:#4d4d4d; isolation:isolate; opacity:.3; stroke-width:0px;"/><path d="M1567.43,238.7c47.02-19.77,96.13-35.5,146.76-47.24-19.93-65.44-47.25-129.69-82.88-191.46h0c-61.69,35.66-117.44,77.63-167.38,124.31,37.99,35.51,72.65,73.72,103.5,114.38h0Z" style="fill:#4d4d4d; isolation:isolate; opacity:.3; stroke-width:0px;"/><path d="M1296.78,915.68c-38.45.04-77-2.14-115.47-7.02,6.41,50.67,17.36,101.11,32.53,150.89,50.63-11.74,99.73-27.47,146.76-47.24-23.45-30.92-44.63-63.27-63.81-96.62h0Z" style="fill:#4d4d4d; isolation:isolate; opacity:.3; stroke-width:0px;"/><path d="M1296.78,915.68c-38.45.04-77-2.14-115.47-7.02,6.41,50.67,17.36,101.11,32.53,150.89,50.63-11.74,99.73-27.47,146.76-47.24-23.45-30.92-44.63-63.27-63.81-96.62h0Z" style="fill:#4d4d4d; isolation:isolate; opacity:.3; stroke-width:0px;"/><path d="M1631.65,335.28c38.45-.04,77,2.14,115.47,7.02-6.41-50.67-17.36-101.11-32.53-150.89-50.63,11.74-99.73,27.47-146.76,47.24,23.45,30.92,44.63,63.26,63.81,96.62h0Z" style="fill:#4d4d4d; isolation:isolate; opacity:.3; stroke-width:0px;"/><path d="M1631.65,335.28c38.45-.04,77,2.14,115.47,7.02-6.41-50.67-17.36-101.11-32.53-150.89-50.63,11.74-99.73,27.47-146.76,47.24,23.45,30.92,44.63,63.26,63.81,96.62h0Z" style="fill:#4d4d4d; isolation:isolate; opacity:.3; stroke-width:0px;"/><path d="M1754.25,457.96c.04-38.49-2.14-77.1-7.01-115.62-38.47-4.88-77.03-7.06-115.47-7.02,15.19,26.4,29.01,53.47,41.46,81.13,27.63,12.46,54.65,26.31,81.02,41.52h0Z" style="fill:#4d4d4d; isolation:isolate; opacity:.3; stroke-width:0px;"/><path d="M1754.25,457.96c.04-38.49-2.14-77.1-7.01-115.62-38.47-4.88-77.03-7.06-115.47-7.02,15.19,26.4,29.01,53.47,41.46,81.13,27.63,12.46,54.65,26.31,81.02,41.52h0Z" style="fill:#4d4d4d; isolation:isolate; opacity:.3; stroke-width:0px;"/><path d="M1754.25,457.96c.04-38.49-2.14-77.1-7.01-115.62-38.47-4.88-77.03-7.06-115.47-7.02,15.19,26.4,29.01,53.47,41.46,81.13,27.63,12.46,54.65,26.31,81.02,41.52h0Z" style="fill:#4d4d4d; isolation:isolate; opacity:.3; stroke-width:0px;"/><path d="M1174.3,793.04c-.04,38.49,2.14,77.1,7.01,115.63,38.47,4.88,77.03,7.06,115.47,7.02-15.19-26.4-29.01-53.47-41.46-81.13-27.63-12.46-54.65-26.31-81.02-41.52h0Z" style="fill:#4d4d4d; isolation:isolate; opacity:.3; stroke-width:0px;"/><path d="M1174.3,793.04c-.04,38.49,2.14,77.1,7.01,115.63,38.47,4.88,77.03,7.06,115.47,7.02-15.19-26.4-29.01-53.47-41.46-81.13-27.63-12.46-54.65-26.31-81.02-41.52h0Z" style="fill:#4d4d4d; isolation:isolate; opacity:.3; stroke-width:0px;"/><path d="M1174.3,793.04c-.04,38.49,2.14,77.1,7.01,115.63,38.47,4.88,77.03,7.06,115.47,7.02-15.19-26.4-29.01-53.47-41.46-81.13-27.63-12.46-54.65-26.31-81.02-41.52h0Z" style="fill:#4d4d4d; isolation:isolate; opacity:.3; stroke-width:0px;"/><path d="M1226.61,763.11c-16.73-19.57-32.64-39.83-47.7-60.77-3.04,30.19-4.57,60.56-4.6,91.01,26.36,15.2,53.39,29.06,81.02,41.52-10.58-23.54-20.16-47.46-28.71-71.76h0Z" style="fill:#4d4d4d; isolation:isolate; opacity:.3; stroke-width:0px;"/><path d="M1226.61,763.11c-16.73-19.57-32.64-39.83-47.7-60.77-3.04,30.19-4.57,60.56-4.6,91.01,26.36,15.2,53.39,29.06,81.02,41.52-10.58-23.54-20.16-47.46-28.71-71.76h0Z" style="fill:#4d4d4d; isolation:isolate; opacity:.3; stroke-width:0px;"/><path d="M1226.61,763.11c-16.73-19.57-32.64-39.83-47.7-60.77-3.04,30.19-4.57,60.56-4.6,91.01,26.36,15.2,53.39,29.06,81.02,41.52-10.58-23.54-20.16-47.46-28.71-71.76h0Z" style="fill:#4d4d4d; isolation:isolate; opacity:.3; stroke-width:0px;"/><path d="M1226.61,763.11c-16.73-19.57-32.64-39.83-47.7-60.77-3.04,30.19-4.57,60.56-4.6,91.01,26.36,15.2,53.39,29.06,81.02,41.52-10.58-23.54-20.16-47.46-28.71-71.76h0Z" style="fill:#4d4d4d; isolation:isolate; opacity:.3; stroke-width:0px;"/><path d="M1701.59,487.89c16.73,19.57,32.64,39.83,47.7,60.78,3.04-30.19,4.57-60.56,4.6-91.02-26.36-15.2-53.39-29.06-81.02-41.52,10.58,23.54,20.16,47.46,28.71,71.76h0Z" style="fill:#4d4d4d; isolation:isolate; opacity:.3; stroke-width:0px;"/><path d="M1701.59,487.89c16.73,19.57,32.64,39.83,47.7,60.78,3.04-30.19,4.57-60.56,4.6-91.02-26.36-15.2-53.39-29.06-81.02-41.52,10.58,23.54,20.16,47.46,28.71,71.76h0Z" style="fill:#4d4d4d; isolation:isolate; opacity:.3; stroke-width:0px;"/><path d="M1701.59,487.89c16.73,19.57,32.64,39.83,47.7,60.78,3.04-30.19,4.57-60.56,4.6-91.02-26.36-15.2-53.39-29.06-81.02-41.52,10.58,23.54,20.16,47.46,28.71,71.76h0Z" style="fill:#4d4d4d; isolation:isolate; opacity:.3; stroke-width:0px;"/><path d="M1701.59,487.89c16.73,19.57,32.64,39.83,47.7,60.78,3.04-30.19,4.57-60.56,4.6-91.02-26.36-15.2-53.39-29.06-81.02-41.52,10.58,23.54,20.16,47.46,28.71,71.76h0Z" style="fill:#4d4d4d; isolation:isolate; opacity:.3; stroke-width:0px;"/><path d="M1178.9,702.02c15.06,20.94,30.97,41.21,47.7,60.77-15.75-44.75-28.05-90.65-36.74-137.29-4.72,25.32-8.38,50.84-10.97,76.52h0Z" style="fill:#4d4d4d; isolation:isolate; opacity:.3; stroke-width:0px;"/><path d="M1178.9,702.02c15.06,20.94,30.97,41.21,47.7,60.77-15.75-44.75-28.05-90.65-36.74-137.29-4.72,25.32-8.38,50.84-10.97,76.52h0Z" style="fill:#4d4d4d; isolation:isolate; opacity:.3; stroke-width:0px;"/><path d="M1178.9,702.02c15.06,20.94,30.97,41.21,47.7,60.77-15.75-44.75-28.05-90.65-36.74-137.29-4.72,25.32-8.38,50.84-10.97,76.52h0Z" style="fill:#4d4d4d; isolation:isolate; opacity:.3; stroke-width:0px;"/><path d="M1178.9,702.02c15.06,20.94,30.97,41.21,47.7,60.77-15.75-44.75-28.05-90.65-36.74-137.29-4.72,25.32-8.38,50.84-10.97,76.52h0Z" style="fill:#4d4d4d; isolation:isolate; opacity:.3; stroke-width:0px;"/><path d="M1178.9,702.02c15.06,20.94,30.97,41.21,47.7,60.77-15.75-44.75-28.05-90.65-36.74-137.29-4.72,25.32-8.38,50.84-10.97,76.52h0Z" style="fill:#4d4d4d; isolation:isolate; opacity:.3; stroke-width:0px;"/><path d="M1749.29,548.98c-15.06-20.94-30.97-41.21-47.7-60.78,15.75,44.75,28.05,90.65,36.74,137.3,4.72-25.32,8.38-50.84,10.97-76.52h0Z" style="fill:#4d4d4d; isolation:isolate; opacity:.3; stroke-width:0px;"/><path d="M1749.29,548.98c-15.06-20.94-30.97-41.21-47.7-60.78,15.75,44.75,28.05,90.65,36.74,137.3,4.72-25.32,8.38-50.84,10.97-76.52h0Z" style="fill:#4d4d4d; isolation:isolate; opacity:.3; stroke-width:0px;"/><path d="M1749.29,548.98c-15.06-20.94-30.97-41.21-47.7-60.78,15.75,44.75,28.05,90.65,36.74,137.3,4.72-25.32,8.38-50.84,10.97-76.52h0Z" style="fill:#4d4d4d; isolation:isolate; opacity:.3; stroke-width:0px;"/><path d="M1749.29,548.98c-15.06-20.94-30.97-41.21-47.7-60.78,15.75,44.75,28.05,90.65,36.74,137.3,4.72-25.32,8.38-50.84,10.97-76.52h0Z" style="fill:#4d4d4d; isolation:isolate; opacity:.3; stroke-width:0px;"/><path d="M1749.29,548.98c-15.06-20.94-30.97-41.21-47.7-60.78,15.75,44.75,28.05,90.65,36.74,137.3,4.72-25.32,8.38-50.84,10.97-76.52h0Z" style="fill:#4d4d4d; isolation:isolate; opacity:.3; stroke-width:0px;"/><path d="M1464.02,124.31C1414.08,77.63,1358.33,35.67,1296.64,0h0c-35.62,61.77-62.95,126.03-82.88,191.45,50.63,11.74,99.73,27.47,146.76,47.24,30.85-40.67,65.52-78.87,103.5-114.39h0Z" style="fill:#4d4d4d; isolation:isolate; opacity:.3; stroke-width:0px;"/><path d="M1464.02,1126.69c49.93,46.68,105.68,88.64,167.38,124.31h0c35.62-61.77,62.95-126.03,82.88-191.45-50.63-11.73-99.73-27.47-146.76-47.24-30.85,40.67-65.52,78.87-103.5,114.39h0Z" style="fill:#4d4d4d; isolation:isolate; opacity:.3; stroke-width:0px;"/><path d="M1631.65,915.68c-19.19,33.36-40.36,65.7-63.81,96.62,47.02,19.77,96.13,35.5,146.76,47.24,15.17-49.78,26.11-100.22,32.52-150.89-38.47,4.88-77.03,7.06-115.47,7.02h0Z" style="fill:#4d4d4d; isolation:isolate; opacity:.3; stroke-width:0px;"/><path d="M1631.65,915.68c-19.19,33.36-40.36,65.7-63.81,96.62,47.02,19.77,96.13,35.5,146.76,47.24,15.17-49.78,26.11-100.22,32.52-150.89-38.47,4.88-77.03,7.06-115.47,7.02h0Z" style="fill:#4d4d4d; isolation:isolate; opacity:.3; stroke-width:0px;"/><path d="M1296.38,335.32c19.19-33.36,40.36-65.7,63.81-96.62-47.02-19.77-96.13-35.5-146.76-47.24-15.17,49.78-26.11,100.22-32.52,150.89,38.47-4.88,77.03-7.06,115.47-7.02h0Z" style="fill:#4d4d4d; isolation:isolate; opacity:.3; stroke-width:0px;"/><path d="M1296.38,335.32c19.19-33.36,40.36-65.7,63.81-96.62-47.02-19.77-96.13-35.5-146.76-47.24-15.17,49.78-26.11,100.22-32.52,150.89,38.47-4.88,77.03-7.06,115.47-7.02h0Z" style="fill:#4d4d4d; isolation:isolate; opacity:.3; stroke-width:0px;"/><path d="M1631.65,915.68c38.45.04,77-2.14,115.47-7.02,4.87-38.52,7.06-77.13,7.01-115.62-26.36,15.2-53.39,29.06-81.02,41.52-12.44,27.66-26.28,54.73-41.46,81.13h0Z" style="fill:#4d4d4d; isolation:isolate; opacity:.3; stroke-width:0px;"/><path d="M1631.65,915.68c38.45.04,77-2.14,115.47-7.02,4.87-38.52,7.06-77.13,7.01-115.62-26.36,15.2-53.39,29.06-81.02,41.52-12.44,27.66-26.28,54.73-41.46,81.13h0Z" style="fill:#4d4d4d; isolation:isolate; opacity:.3; stroke-width:0px;"/><path d="M1631.65,915.68c38.45.04,77-2.14,115.47-7.02,4.87-38.52,7.06-77.13,7.01-115.62-26.36,15.2-53.39,29.06-81.02,41.52-12.44,27.66-26.28,54.73-41.46,81.13h0Z" style="fill:#4d4d4d; isolation:isolate; opacity:.3; stroke-width:0px;"/><path d="M1296.77,335.32c-38.44-.04-77,2.14-115.47,7.02-4.87,38.52-7.06,77.13-7.01,115.63,26.36-15.2,53.39-29.06,81.02-41.52,12.44-27.66,26.28-54.73,41.46-81.13h0Z" style="fill:#4d4d4d; isolation:isolate; opacity:.3; stroke-width:0px;"/><path d="M1296.77,335.32c-38.44-.04-77,2.14-115.47,7.02-4.87,38.52-7.06,77.13-7.01,115.63,26.36-15.2,53.39-29.06,81.02-41.52,12.44-27.66,26.28-54.73,41.46-81.13h0Z" style="fill:#4d4d4d; isolation:isolate; opacity:.3; stroke-width:0px;"/><path d="M1296.77,335.32c-38.44-.04-77,2.14-115.47,7.02-4.87,38.52-7.06,77.13-7.01,115.63,26.36-15.2,53.39-29.06,81.02-41.52,12.44-27.66,26.28-54.73,41.46-81.13h0Z" style="fill:#4d4d4d; isolation:isolate; opacity:.3; stroke-width:0px;"/><path d="M1178.9,548.77c15.06-20.94,30.97-41.21,47.7-60.77,8.56-24.29,18.13-48.22,28.71-71.76-27.63,12.46-54.65,26.31-81.02,41.52.03,30.47,1.57,60.83,4.6,91.01h0Z" style="fill:#4d4d4d; isolation:isolate; opacity:.3; stroke-width:0px;"/><path d="M1178.9,548.77c15.06-20.94,30.97-41.21,47.7-60.77,8.56-24.29,18.13-48.22,28.71-71.76-27.63,12.46-54.65,26.31-81.02,41.52.03,30.47,1.57,60.83,4.6,91.01h0Z" style="fill:#4d4d4d; isolation:isolate; opacity:.3; stroke-width:0px;"/><path d="M1178.9,548.77c15.06-20.94,30.97-41.21,47.7-60.77,8.56-24.29,18.13-48.22,28.71-71.76-27.63,12.46-54.65,26.31-81.02,41.52.03,30.47,1.57,60.83,4.6,91.01h0Z" style="fill:#4d4d4d; isolation:isolate; opacity:.3; stroke-width:0px;"/><path d="M1178.9,548.77c15.06-20.94,30.97-41.21,47.7-60.77,8.56-24.29,18.13-48.22,28.71-71.76-27.63,12.46-54.65,26.31-81.02,41.52.03,30.47,1.57,60.83,4.6,91.01h0Z" style="fill:#4d4d4d; isolation:isolate; opacity:.3; stroke-width:0px;"/><path d="M1749.29,702.23c-15.06,20.94-30.97,41.21-47.7,60.77-8.56,24.29-18.13,48.22-28.71,71.76,27.63-12.46,54.65-26.31,81.02-41.52-.03-30.47-1.57-60.83-4.6-91.01h0Z" style="fill:#4d4d4d; isolation:isolate; opacity:.3; stroke-width:0px;"/><path d="M1749.29,702.23c-15.06,20.94-30.97,41.21-47.7,60.77-8.56,24.29-18.13,48.22-28.71,71.76,27.63-12.46,54.65-26.31,81.02-41.52-.03-30.47-1.57-60.83-4.6-91.01h0Z" style="fill:#4d4d4d; isolation:isolate; opacity:.3; stroke-width:0px;"/><path d="M1749.29,702.23c-15.06,20.94-30.97,41.21-47.7,60.77-8.56,24.29-18.13,48.22-28.71,71.76,27.63-12.46,54.65-26.31,81.02-41.52-.03-30.47-1.57-60.83-4.6-91.01h0Z" style="fill:#4d4d4d; isolation:isolate; opacity:.3; stroke-width:0px;"/><path d="M1749.29,702.23c-15.06,20.94-30.97,41.21-47.7,60.77-8.56,24.29-18.13,48.22-28.71,71.76,27.63-12.46,54.65-26.31,81.02-41.52-.03-30.47-1.57-60.83-4.6-91.01h0Z" style="fill:#4d4d4d; isolation:isolate; opacity:.3; stroke-width:0px;"/><path d="M1701.59,762.79c16.73-19.57,32.64-39.83,47.7-60.77-2.59-25.68-6.25-51.2-10.97-76.52-8.7,46.65-20.98,92.54-36.74,137.29h0Z" style="fill:#4d4d4d; isolation:isolate; opacity:.3; stroke-width:0px;"/><path d="M1701.59,762.79c16.73-19.57,32.64-39.83,47.7-60.77-2.59-25.68-6.25-51.2-10.97-76.52-8.7,46.65-20.98,92.54-36.74,137.29h0Z" style="fill:#4d4d4d; isolation:isolate; opacity:.3; stroke-width:0px;"/><path d="M1701.59,762.79c16.73-19.57,32.64-39.83,47.7-60.77-2.59-25.68-6.25-51.2-10.97-76.52-8.7,46.65-20.98,92.54-36.74,137.29h0Z" style="fill:#4d4d4d; isolation:isolate; opacity:.3; stroke-width:0px;"/><path d="M1701.59,762.79c16.73-19.57,32.64-39.83,47.7-60.77-2.59-25.68-6.25-51.2-10.97-76.52-8.7,46.65-20.98,92.54-36.74,137.29h0Z" style="fill:#4d4d4d; isolation:isolate; opacity:.3; stroke-width:0px;"/><path d="M1701.59,762.79c16.73-19.57,32.64-39.83,47.7-60.77-2.59-25.68-6.25-51.2-10.97-76.52-8.7,46.65-20.98,92.54-36.74,137.29h0Z" style="fill:#4d4d4d; isolation:isolate; opacity:.3; stroke-width:0px;"/><path d="M1178.9,548.98c2.59,25.68,6.25,51.2,10.97,76.52,8.7-46.65,20.98-92.54,36.74-137.29-16.73,19.57-32.64,39.83-47.7,60.77h0Z" style="fill:#4d4d4d; isolation:isolate; opacity:.3; stroke-width:0px;"/><path d="M1178.9,548.98c2.59,25.68,6.25,51.2,10.97,76.52,8.7-46.65,20.98-92.54,36.74-137.29-16.73,19.57-32.64,39.83-47.7,60.77h0Z" style="fill:#4d4d4d; isolation:isolate; opacity:.3; stroke-width:0px;"/><path d="M1178.9,548.98c2.59,25.68,6.25,51.2,10.97,76.52,8.7-46.65,20.98-92.54,36.74-137.29-16.73,19.57-32.64,39.83-47.7,60.77h0Z" style="fill:#4d4d4d; isolation:isolate; opacity:.3; stroke-width:0px;"/><path d="M1178.9,548.98c2.59,25.68,6.25,51.2,10.97,76.52,8.7-46.65,20.98-92.54,36.74-137.29-16.73,19.57-32.64,39.83-47.7,60.77h0Z" style="fill:#4d4d4d; isolation:isolate; opacity:.3; stroke-width:0px;"/><path d="M1178.9,548.98c2.59,25.68,6.25,51.2,10.97,76.52,8.7-46.65,20.98-92.54,36.74-137.29-16.73,19.57-32.64,39.83-47.7,60.77h0Z" style="fill:#4d4d4d; isolation:isolate; opacity:.3; stroke-width:0px;"/><path d="M1360.6,238.7c35.75,15.03,70.24,32.44,103.5,51.72,33.28-19.28,67.75-36.7,103.5-51.72-30.85-40.67-65.52-78.87-103.5-114.38-37.99,35.51-72.65,73.73-103.5,114.39h0Z" style="fill:#4d4d4d; isolation:isolate; opacity:.3; stroke-width:0px;"/><path d="M1360.6,238.7c35.75,15.03,70.24,32.44,103.5,51.72,33.28-19.28,67.75-36.7,103.5-51.72-30.85-40.67-65.52-78.87-103.5-114.38-37.99,35.51-72.65,73.73-103.5,114.39h0Z" style="fill:#4d4d4d; isolation:isolate; opacity:.3; stroke-width:0px;"/><path d="M1567.43,1012.3c-35.75-15.04-70.23-32.45-103.5-51.72-33.28,19.28-67.75,36.7-103.5,51.72,30.85,40.67,65.52,78.87,103.5,114.38,37.99-35.51,72.65-73.73,103.5-114.39h0Z" style="fill:#4d4d4d; isolation:isolate; opacity:.3; stroke-width:0px;"/><path d="M1567.43,1012.3c-35.75-15.04-70.23-32.45-103.5-51.72-33.28,19.28-67.75,36.7-103.5,51.72,30.85,40.67,65.52,78.87,103.5,114.38,37.99-35.51,72.65-73.73,103.5-114.39h0Z" style="fill:#4d4d4d; isolation:isolate; opacity:.3; stroke-width:0px;"/><path d="M1540.51,911.07c-24.59,17.73-50.08,34.24-76.42,49.5,33.28,19.28,67.75,36.7,103.5,51.72,23.45-30.92,44.62-63.26,63.81-96.62-30.42-.03-60.75-1.57-90.9-4.61h0Z" style="fill:#4d4d4d; isolation:isolate; opacity:.3; stroke-width:0px;"/><path d="M1540.51,911.07c-24.59,17.73-50.08,34.24-76.42,49.5,33.28,19.28,67.75,36.7,103.5,51.72,23.45-30.92,44.62-63.26,63.81-96.62-30.42-.03-60.75-1.57-90.9-4.61h0Z" style="fill:#4d4d4d; isolation:isolate; opacity:.3; stroke-width:0px;"/><path d="M1540.51,911.07c-24.59,17.73-50.08,34.24-76.42,49.5,33.28,19.28,67.75,36.7,103.5,51.72,23.45-30.92,44.62-63.26,63.81-96.62-30.42-.03-60.75-1.57-90.9-4.61h0Z" style="fill:#4d4d4d; isolation:isolate; opacity:.3; stroke-width:0px;"/><path d="M1387.68,339.92c24.59-17.73,50.08-34.24,76.42-49.5-33.28-19.28-67.75-36.7-103.5-51.72-23.45,30.92-44.62,63.26-63.81,96.62,30.42.03,60.75,1.57,90.9,4.61h0Z" style="fill:#4d4d4d; isolation:isolate; opacity:.3; stroke-width:0px;"/><path d="M1387.68,339.92c24.59-17.73,50.08-34.24,76.42-49.5-33.28-19.28-67.75-36.7-103.5-51.72-23.45,30.92-44.62,63.26-63.81,96.62,30.42.03,60.75,1.57,90.9,4.61h0Z" style="fill:#4d4d4d; isolation:isolate; opacity:.3; stroke-width:0px;"/><path d="M1387.68,339.92c24.59-17.73,50.08-34.24,76.42-49.5-33.28-19.28-67.75-36.7-103.5-51.72-23.45,30.92-44.62,63.26-63.81,96.62,30.42.03,60.75,1.57,90.9,4.61h0Z" style="fill:#4d4d4d; isolation:isolate; opacity:.3; stroke-width:0px;"/><path d="M1326.98,387.69c19.54-16.76,39.78-32.68,60.69-47.77-30.15-3.04-60.47-4.58-90.9-4.61-15.19,26.4-29.01,53.47-41.46,81.13,23.5-10.6,47.4-20.18,71.67-28.75h0Z" style="fill:#4d4d4d; isolation:isolate; opacity:.3; stroke-width:0px;"/><path d="M1326.98,387.69c19.54-16.76,39.78-32.68,60.69-47.77-30.15-3.04-60.47-4.58-90.9-4.61-15.19,26.4-29.01,53.47-41.46,81.13,23.5-10.6,47.4-20.18,71.67-28.75h0Z" style="fill:#4d4d4d; isolation:isolate; opacity:.3; stroke-width:0px;"/><path d="M1326.98,387.69c19.54-16.76,39.78-32.68,60.69-47.77-30.15-3.04-60.47-4.58-90.9-4.61-15.19,26.4-29.01,53.47-41.46,81.13,23.5-10.6,47.4-20.18,71.67-28.75h0Z" style="fill:#4d4d4d; isolation:isolate; opacity:.3; stroke-width:0px;"/><path d="M1326.98,387.69c19.54-16.76,39.78-32.68,60.69-47.77-30.15-3.04-60.47-4.58-90.9-4.61-15.19,26.4-29.01,53.47-41.46,81.13,23.5-10.6,47.4-20.18,71.67-28.75h0Z" style="fill:#4d4d4d; isolation:isolate; opacity:.3; stroke-width:0px;"/><path d="M1601.22,863.19c-19.54,16.76-39.78,32.68-60.69,47.77,30.15,3.04,60.47,4.58,90.9,4.61,15.19-26.4,29.01-53.47,41.46-81.13-23.5,10.6-47.4,20.18-71.67,28.75h0,0Z" style="fill:#4d4d4d; isolation:isolate; opacity:.3; stroke-width:0px;"/><path d="M1601.22,863.19c-19.54,16.76-39.78,32.68-60.69,47.77,30.15,3.04,60.47,4.58,90.9,4.61,15.19-26.4,29.01-53.47,41.46-81.13-23.5,10.6-47.4,20.18-71.67,28.75h0,0Z" style="fill:#4d4d4d; isolation:isolate; opacity:.3; stroke-width:0px;"/><path d="M1601.22,863.19c-19.54,16.76-39.78,32.68-60.69,47.77,30.15,3.04,60.47,4.58,90.9,4.61,15.19-26.4,29.01-53.47,41.46-81.13-23.5,10.6-47.4,20.18-71.67,28.75h0,0Z" style="fill:#4d4d4d; isolation:isolate; opacity:.3; stroke-width:0px;"/><path d="M1601.22,863.19c-19.54,16.76-39.78,32.68-60.69,47.77,30.15,3.04,60.47,4.58,90.9,4.61,15.19-26.4,29.01-53.47,41.46-81.13-23.5,10.6-47.4,20.18-71.67,28.75h0,0Z" style="fill:#4d4d4d; isolation:isolate; opacity:.3; stroke-width:0px;"/><path d="M1326.98,387.69c-24.26,8.57-48.16,18.16-71.67,28.75-10.58,23.54-20.16,47.46-28.71,71.76,30.82-36.05,64.38-69.65,100.37-100.51h0Z" style="fill:#4d4d4d; isolation:isolate; opacity:.3; stroke-width:0px;"/><path d="M1326.98,387.69c-24.26,8.57-48.16,18.16-71.67,28.75-10.58,23.54-20.16,47.46-28.71,71.76,30.82-36.05,64.38-69.65,100.37-100.51h0Z" style="fill:#4d4d4d; isolation:isolate; opacity:.3; stroke-width:0px;"/><path d="M1326.98,387.69c-24.26,8.57-48.16,18.16-71.67,28.75-10.58,23.54-20.16,47.46-28.71,71.76,30.82-36.05,64.38-69.65,100.37-100.51h0Z" style="fill:#4d4d4d; isolation:isolate; opacity:.3; stroke-width:0px;"/><path d="M1326.98,387.69c-24.26,8.57-48.16,18.16-71.67,28.75-10.58,23.54-20.16,47.46-28.71,71.76,30.82-36.05,64.38-69.65,100.37-100.51h0Z" style="fill:#4d4d4d; isolation:isolate; opacity:.3; stroke-width:0px;"/><path d="M1326.98,387.69c-24.26,8.57-48.16,18.16-71.67,28.75-10.58,23.54-20.16,47.46-28.71,71.76,30.82-36.05,64.38-69.65,100.37-100.51h0Z" style="fill:#4d4d4d; isolation:isolate; opacity:.3; stroke-width:0px;"/><path d="M1601.22,863.31c24.26-8.57,48.16-18.16,71.67-28.75,10.58-23.54,20.16-47.46,28.71-71.76-30.82,36.05-64.38,69.64-100.37,100.51h0Z" style="fill:#4d4d4d; isolation:isolate; opacity:.3; stroke-width:0px;"/><path d="M1601.22,863.31c24.26-8.57,48.16-18.16,71.67-28.75,10.58-23.54,20.16-47.46,28.71-71.76-30.82,36.05-64.38,69.64-100.37,100.51h0Z" style="fill:#4d4d4d; isolation:isolate; opacity:.3; stroke-width:0px;"/><path d="M1601.22,863.31c24.26-8.57,48.16-18.16,71.67-28.75,10.58-23.54,20.16-47.46,28.71-71.76-30.82,36.05-64.38,69.64-100.37,100.51h0Z" style="fill:#4d4d4d; isolation:isolate; opacity:.3; stroke-width:0px;"/><path d="M1601.22,863.31c24.26-8.57,48.16-18.16,71.67-28.75,10.58-23.54,20.16-47.46,28.71-71.76-30.82,36.05-64.38,69.64-100.37,100.51h0Z" style="fill:#4d4d4d; isolation:isolate; opacity:.3; stroke-width:0px;"/><path d="M1601.22,863.31c24.26-8.57,48.16-18.16,71.67-28.75,10.58-23.54,20.16-47.46,28.71-71.76-30.82,36.05-64.38,69.64-100.37,100.51h0Z" style="fill:#4d4d4d; isolation:isolate; opacity:.3; stroke-width:0px;"/><path d="M1296.38,915.68c19.19,33.36,40.36,65.7,63.81,96.62,35.75-15.04,70.23-32.45,103.5-51.72-26.34-15.26-51.83-31.77-76.42-49.5-30.15,3.04-60.47,4.58-90.89,4.61h0Z" style="fill:#4d4d4d; isolation:isolate; opacity:.3; stroke-width:0px;"/><path d="M1296.38,915.68c19.19,33.36,40.36,65.7,63.81,96.62,35.75-15.04,70.23-32.45,103.5-51.72-26.34-15.26-51.83-31.77-76.42-49.5-30.15,3.04-60.47,4.58-90.89,4.61h0Z" style="fill:#4d4d4d; isolation:isolate; opacity:.3; stroke-width:0px;"/><path d="M1296.38,915.68c19.19,33.36,40.36,65.7,63.81,96.62,35.75-15.04,70.23-32.45,103.5-51.72-26.34-15.26-51.83-31.77-76.42-49.5-30.15,3.04-60.47,4.58-90.89,4.61h0Z" style="fill:#4d4d4d; isolation:isolate; opacity:.3; stroke-width:0px;"/><path d="M1631.65,335.32c-19.19-33.36-40.36-65.7-63.81-96.62-35.75,15.04-70.23,32.44-103.5,51.72,26.34,15.26,51.83,31.78,76.42,49.5,30.15-3.04,60.47-4.58,90.89-4.61h0Z" style="fill:#4d4d4d; isolation:isolate; opacity:.3; stroke-width:0px;"/><path d="M1631.65,335.32c-19.19-33.36-40.36-65.7-63.81-96.62-35.75,15.04-70.23,32.44-103.5,51.72,26.34,15.26,51.83,31.78,76.42,49.5,30.15-3.04,60.47-4.58,90.89-4.61h0Z" style="fill:#4d4d4d; isolation:isolate; opacity:.3; stroke-width:0px;"/><path d="M1631.65,335.32c-19.19-33.36-40.36-65.7-63.81-96.62-35.75,15.04-70.23,32.44-103.5,51.72,26.34,15.26,51.83,31.78,76.42,49.5,30.15-3.04,60.47-4.58,90.89-4.61h0Z" style="fill:#4d4d4d; isolation:isolate; opacity:.3; stroke-width:0px;"/><path d="M1464.1,900.09c-25.29,4.73-50.77,8.39-76.42,10.98,24.59,17.73,50.08,34.24,76.42,49.5,26.34-15.26,51.83-31.77,76.42-49.5-25.65-2.59-51.13-6.25-76.42-10.98Z" style="fill:#4d4d4d; isolation:isolate; opacity:.3; stroke-width:0px;"/><path d="M1464.1,900.09c-25.29,4.73-50.77,8.39-76.42,10.98,24.59,17.73,50.08,34.24,76.42,49.5,26.34-15.26,51.83-31.77,76.42-49.5-25.65-2.59-51.13-6.25-76.42-10.98Z" style="fill:#4d4d4d; isolation:isolate; opacity:.3; stroke-width:0px;"/><path d="M1464.1,900.09c-25.29,4.73-50.77,8.39-76.42,10.98,24.59,17.73,50.08,34.24,76.42,49.5,26.34-15.26,51.83-31.77,76.42-49.5-25.65-2.59-51.13-6.25-76.42-10.98Z" style="fill:#4d4d4d; isolation:isolate; opacity:.3; stroke-width:0px;"/><path d="M1464.1,900.09c-25.29,4.73-50.77,8.39-76.42,10.98,24.59,17.73,50.08,34.24,76.42,49.5,26.34-15.26,51.83-31.77,76.42-49.5-25.65-2.59-51.13-6.25-76.42-10.98Z" style="fill:#4d4d4d; isolation:isolate; opacity:.3; stroke-width:0px;"/><path d="M1464.1,350.91c25.29-4.73,50.77-8.39,76.42-10.98-24.59-17.73-50.08-34.24-76.42-49.5-26.34,15.26-51.83,31.78-76.42,49.5,25.65,2.59,51.13,6.25,76.42,10.98Z" style="fill:#4d4d4d; isolation:isolate; opacity:.3; stroke-width:0px;"/><path d="M1464.1,350.91c25.29-4.73,50.77-8.39,76.42-10.98-24.59-17.73-50.08-34.24-76.42-49.5-26.34,15.26-51.83,31.78-76.42,49.5,25.65,2.59,51.13,6.25,76.42,10.98Z" style="fill:#4d4d4d; isolation:isolate; opacity:.3; stroke-width:0px;"/><path d="M1464.1,350.91c25.29-4.73,50.77-8.39,76.42-10.98-24.59-17.73-50.08-34.24-76.42-49.5-26.34,15.26-51.83,31.78-76.42,49.5,25.65,2.59,51.13,6.25,76.42,10.98Z" style="fill:#4d4d4d; isolation:isolate; opacity:.3; stroke-width:0px;"/><path d="M1464.1,350.91c25.29-4.73,50.77-8.39,76.42-10.98-24.59-17.73-50.08-34.24-76.42-49.5-26.34,15.26-51.83,31.78-76.42,49.5,25.65,2.59,51.13,6.25,76.42,10.98Z" style="fill:#4d4d4d; isolation:isolate; opacity:.3; stroke-width:0px;"/><path d="M1387.68,339.92c-20.92,15.08-41.15,31.02-60.69,47.77,44.69-15.79,90.53-28.08,137.11-36.79-25.29-4.73-50.77-8.39-76.42-10.98Z" style="fill:#4d4d4d; isolation:isolate; opacity:.3; stroke-width:0px;"/><path d="M1387.68,339.92c-20.92,15.08-41.15,31.02-60.69,47.77,44.69-15.79,90.53-28.08,137.11-36.79-25.29-4.73-50.77-8.39-76.42-10.98Z" style="fill:#4d4d4d; isolation:isolate; opacity:.3; stroke-width:0px;"/><path d="M1387.68,339.92c-20.92,15.08-41.15,31.02-60.69,47.77,44.69-15.79,90.53-28.08,137.11-36.79-25.29-4.73-50.77-8.39-76.42-10.98Z" style="fill:#4d4d4d; isolation:isolate; opacity:.3; stroke-width:0px;"/><path d="M1387.68,339.92c-20.92,15.08-41.15,31.02-60.69,47.77,44.69-15.79,90.53-28.08,137.11-36.79-25.29-4.73-50.77-8.39-76.42-10.98Z" style="fill:#4d4d4d; isolation:isolate; opacity:.3; stroke-width:0px;"/><path d="M1387.68,339.92c-20.92,15.08-41.15,31.02-60.69,47.77,44.69-15.79,90.53-28.08,137.11-36.79-25.29-4.73-50.77-8.39-76.42-10.98Z" style="fill:#4d4d4d; isolation:isolate; opacity:.3; stroke-width:0px;"/><path d="M1540.51,911.07c20.92-15.08,41.15-31.02,60.69-47.77-44.69,15.78-90.53,28.08-137.11,36.79,25.29,4.73,50.77,8.39,76.42,10.98Z" style="fill:#4d4d4d; isolation:isolate; opacity:.3; stroke-width:0px;"/><path d="M1540.51,911.07c20.92-15.08,41.15-31.02,60.69-47.77-44.69,15.78-90.53,28.08-137.11,36.79,25.29,4.73,50.77,8.39,76.42,10.98Z" style="fill:#4d4d4d; isolation:isolate; opacity:.3; stroke-width:0px;"/><path d="M1540.51,911.07c20.92-15.08,41.15-31.02,60.69-47.77-44.69,15.78-90.53,28.08-137.11,36.79,25.29,4.73,50.77,8.39,76.42,10.98Z" style="fill:#4d4d4d; isolation:isolate; opacity:.3; stroke-width:0px;"/><path d="M1540.51,911.07c20.92-15.08,41.15-31.02,60.69-47.77-44.69,15.78-90.53,28.08-137.11,36.79,25.29,4.73,50.77,8.39,76.42,10.98Z" style="fill:#4d4d4d; isolation:isolate; opacity:.3; stroke-width:0px;"/><path d="M1540.51,911.07c20.92-15.08,41.15-31.02,60.69-47.77-44.69,15.78-90.53,28.08-137.11,36.79,25.29,4.73,50.77,8.39,76.42,10.98Z" style="fill:#4d4d4d; isolation:isolate; opacity:.3; stroke-width:0px;"/><path d="M1540.51,340.27c20.92,15.08,41.15,31.02,60.69,47.77,24.26,8.57,48.16,18.16,71.67,28.75-12.44-27.66-26.28-54.73-41.46-81.13-30.42.03-60.75,1.57-90.89,4.61h0Z" style="fill:#4d4d4d; isolation:isolate; opacity:.3; stroke-width:0px;"/><path d="M1540.51,340.27c20.92,15.08,41.15,31.02,60.69,47.77,24.26,8.57,48.16,18.16,71.67,28.75-12.44-27.66-26.28-54.73-41.46-81.13-30.42.03-60.75,1.57-90.89,4.61h0Z" style="fill:#4d4d4d; isolation:isolate; opacity:.3; stroke-width:0px;"/><path d="M1540.51,340.27c20.92,15.08,41.15,31.02,60.69,47.77,24.26,8.57,48.16,18.16,71.67,28.75-12.44-27.66-26.28-54.73-41.46-81.13-30.42.03-60.75,1.57-90.89,4.61h0Z" style="fill:#4d4d4d; isolation:isolate; opacity:.3; stroke-width:0px;"/><path d="M1540.51,340.27c20.92,15.08,41.15,31.02,60.69,47.77,24.26,8.57,48.16,18.16,71.67,28.75-12.44-27.66-26.28-54.73-41.46-81.13-30.42.03-60.75,1.57-90.89,4.61h0Z" style="fill:#4d4d4d; isolation:isolate; opacity:.3; stroke-width:0px;"/><path d="M1387.68,910.73c-20.92-15.08-41.15-31.02-60.69-47.77-24.26-8.57-48.16-18.16-71.67-28.75,12.44,27.66,26.28,54.73,41.46,81.13,30.42-.03,60.75-1.57,90.89-4.61h0Z" style="fill:#4d4d4d; isolation:isolate; opacity:.3; stroke-width:0px;"/><path d="M1387.68,910.73c-20.92-15.08-41.15-31.02-60.69-47.77-24.26-8.57-48.16-18.16-71.67-28.75,12.44,27.66,26.28,54.73,41.46,81.13,30.42-.03,60.75-1.57,90.89-4.61h0Z" style="fill:#4d4d4d; isolation:isolate; opacity:.3; stroke-width:0px;"/><path d="M1387.68,910.73c-20.92-15.08-41.15-31.02-60.69-47.77-24.26-8.57-48.16-18.16-71.67-28.75,12.44,27.66,26.28,54.73,41.46,81.13,30.42-.03,60.75-1.57,90.89-4.61h0Z" style="fill:#4d4d4d; isolation:isolate; opacity:.3; stroke-width:0px;"/><path d="M1387.68,910.73c-20.92-15.08-41.15-31.02-60.69-47.77-24.26-8.57-48.16-18.16-71.67-28.75,12.44,27.66,26.28,54.73,41.46,81.13,30.42-.03,60.75-1.57,90.89-4.61h0Z" style="fill:#4d4d4d; isolation:isolate; opacity:.3; stroke-width:0px;"/><path d="M1387.68,911.08c25.65-2.59,51.13-6.25,76.42-10.98-46.59-8.71-92.42-21.01-137.11-36.79,19.54,16.76,39.78,32.68,60.69,47.77Z" style="fill:#4d4d4d; isolation:isolate; opacity:.3; stroke-width:0px;"/><path d="M1387.68,911.08c25.65-2.59,51.13-6.25,76.42-10.98-46.59-8.71-92.42-21.01-137.11-36.79,19.54,16.76,39.78,32.68,60.69,47.77Z" style="fill:#4d4d4d; isolation:isolate; opacity:.3; stroke-width:0px;"/><path d="M1387.68,911.08c25.65-2.59,51.13-6.25,76.42-10.98-46.59-8.71-92.42-21.01-137.11-36.79,19.54,16.76,39.78,32.68,60.69,47.77Z" style="fill:#4d4d4d; isolation:isolate; opacity:.3; stroke-width:0px;"/><path d="M1387.68,911.08c25.65-2.59,51.13-6.25,76.42-10.98-46.59-8.71-92.42-21.01-137.11-36.79,19.54,16.76,39.78,32.68,60.69,47.77Z" style="fill:#4d4d4d; isolation:isolate; opacity:.3; stroke-width:0px;"/><path d="M1387.68,911.08c25.65-2.59,51.13-6.25,76.42-10.98-46.59-8.71-92.42-21.01-137.11-36.79,19.54,16.76,39.78,32.68,60.69,47.77Z" style="fill:#4d4d4d; isolation:isolate; opacity:.3; stroke-width:0px;"/><path d="M1540.51,339.92c-25.65,2.59-51.13,6.25-76.42,10.98,46.59,8.71,92.42,21.01,137.11,36.79-19.54-16.76-39.78-32.68-60.69-47.77Z" style="fill:#4d4d4d; isolation:isolate; opacity:.3; stroke-width:0px;"/><path d="M1540.51,339.92c-25.65,2.59-51.13,6.25-76.42,10.98,46.59,8.71,92.42,21.01,137.11,36.79-19.54-16.76-39.78-32.68-60.69-47.77Z" style="fill:#4d4d4d; isolation:isolate; opacity:.3; stroke-width:0px;"/><path d="M1540.51,339.92c-25.65,2.59-51.13,6.25-76.42,10.98,46.59,8.71,92.42,21.01,137.11,36.79-19.54-16.76-39.78-32.68-60.69-47.77Z" style="fill:#4d4d4d; isolation:isolate; opacity:.3; stroke-width:0px;"/><path d="M1540.51,339.92c-25.65,2.59-51.13,6.25-76.42,10.98,46.59,8.71,92.42,21.01,137.11,36.79-19.54-16.76-39.78-32.68-60.69-47.77Z" style="fill:#4d4d4d; isolation:isolate; opacity:.3; stroke-width:0px;"/><path d="M1540.51,339.92c-25.65,2.59-51.13,6.25-76.42,10.98,46.59,8.71,92.42,21.01,137.11,36.79-19.54-16.76-39.78-32.68-60.69-47.77Z" style="fill:#4d4d4d; isolation:isolate; opacity:.3; stroke-width:0px;"/><path d="M1226.61,762.79c8.56,24.29,18.13,48.22,28.71,71.76,23.5,10.6,47.4,20.18,71.67,28.75-36-30.87-69.55-64.46-100.37-100.51h0Z" style="fill:#4d4d4d; isolation:isolate; opacity:.3; stroke-width:0px;"/><path d="M1226.61,762.79c8.56,24.29,18.13,48.22,28.71,71.76,23.5,10.6,47.4,20.18,71.67,28.75-36-30.87-69.55-64.46-100.37-100.51h0Z" style="fill:#4d4d4d; isolation:isolate; opacity:.3; stroke-width:0px;"/><path d="M1226.61,762.79c8.56,24.29,18.13,48.22,28.71,71.76,23.5,10.6,47.4,20.18,71.67,28.75-36-30.87-69.55-64.46-100.37-100.51h0Z" style="fill:#4d4d4d; isolation:isolate; opacity:.3; stroke-width:0px;"/><path d="M1226.61,762.79c8.56,24.29,18.13,48.22,28.71,71.76,23.5,10.6,47.4,20.18,71.67,28.75-36-30.87-69.55-64.46-100.37-100.51h0Z" style="fill:#4d4d4d; isolation:isolate; opacity:.3; stroke-width:0px;"/><path d="M1226.61,762.79c8.56,24.29,18.13,48.22,28.71,71.76,23.5,10.6,47.4,20.18,71.67,28.75-36-30.87-69.55-64.46-100.37-100.51h0Z" style="fill:#4d4d4d; isolation:isolate; opacity:.3; stroke-width:0px;"/><path d="M1701.59,488.2c-8.56-24.29-18.13-48.22-28.71-71.76-23.5-10.6-47.4-20.18-71.67-28.75,36,30.87,69.55,64.46,100.37,100.51h0Z" style="fill:#4d4d4d; isolation:isolate; opacity:.3; stroke-width:0px;"/><path d="M1701.59,488.2c-8.56-24.29-18.13-48.22-28.71-71.76-23.5-10.6-47.4-20.18-71.67-28.75,36,30.87,69.55,64.46,100.37,100.51h0Z" style="fill:#4d4d4d; isolation:isolate; opacity:.3; stroke-width:0px;"/><path d="M1701.59,488.2c-8.56-24.29-18.13-48.22-28.71-71.76-23.5-10.6-47.4-20.18-71.67-28.75,36,30.87,69.55,64.46,100.37,100.51h0Z" style="fill:#4d4d4d; isolation:isolate; opacity:.3; stroke-width:0px;"/><path d="M1701.59,488.2c-8.56-24.29-18.13-48.22-28.71-71.76-23.5-10.6-47.4-20.18-71.67-28.75,36,30.87,69.55,64.46,100.37,100.51h0Z" style="fill:#4d4d4d; isolation:isolate; opacity:.3; stroke-width:0px;"/><path d="M1701.59,488.2c-8.56-24.29-18.13-48.22-28.71-71.76-23.5-10.6-47.4-20.18-71.67-28.75,36,30.87,69.55,64.46,100.37,100.51h0Z" style="fill:#4d4d4d; isolation:isolate; opacity:.3; stroke-width:0px;"/><path d="M1701.71,488.2c-30.82-36.05-64.38-69.64-100.37-100.51-44.69-15.78-90.53-28.08-137.11-36.79-46.59,8.71-92.42,21.01-137.11,36.79-36,30.87-69.55,64.46-100.37,100.51-15.75,44.75-28.05,90.65-36.74,137.29,8.7,46.65,20.98,92.54,36.74,137.29,30.82,36.05,64.38,69.64,100.37,100.51,44.69,15.78,90.53,28.08,137.11,36.79,46.59-8.71,92.42-21.01,137.11-36.79,36-30.87,69.55-64.47,100.37-100.51,15.75-44.75,28.05-90.65,36.74-137.29-8.7-46.65-20.98-92.54-36.74-137.3h0Z" style="fill:#4d4d4d; isolation:isolate; opacity:.3; stroke-width:0px;"/><path d="M1701.71,488.2c-30.82-36.05-64.38-69.64-100.37-100.51-44.69-15.78-90.53-28.08-137.11-36.79-46.59,8.71-92.42,21.01-137.11,36.79-36,30.87-69.55,64.46-100.37,100.51-15.75,44.75-28.05,90.65-36.74,137.29,8.7,46.65,20.98,92.54,36.74,137.29,30.82,36.05,64.38,69.64,100.37,100.51,44.69,15.78,90.53,28.08,137.11,36.79,46.59-8.71,92.42-21.01,137.11-36.79,36-30.87,69.55-64.47,100.37-100.51,15.75-44.75,28.05-90.65,36.74-137.29-8.7-46.65-20.98-92.54-36.74-137.3h0Z" style="fill:#4d4d4d; isolation:isolate; opacity:.3; stroke-width:0px;"/><path d="M1701.71,488.2c-30.82-36.05-64.38-69.64-100.37-100.51-44.69-15.78-90.53-28.08-137.11-36.79-46.59,8.71-92.42,21.01-137.11,36.79-36,30.87-69.55,64.46-100.37,100.51-15.75,44.75-28.05,90.65-36.74,137.29,8.7,46.65,20.98,92.54,36.74,137.29,30.82,36.05,64.38,69.64,100.37,100.51,44.69,15.78,90.53,28.08,137.11,36.79,46.59-8.71,92.42-21.01,137.11-36.79,36-30.87,69.55-64.47,100.37-100.51,15.75-44.75,28.05-90.65,36.74-137.29-8.7-46.65-20.98-92.54-36.74-137.3h0Z" style="fill:#4d4d4d; isolation:isolate; opacity:.3; stroke-width:0px;"/><path d="M1701.71,488.2c-30.82-36.05-64.38-69.64-100.37-100.51-44.69-15.78-90.53-28.08-137.11-36.79-46.59,8.71-92.42,21.01-137.11,36.79-36,30.87-69.55,64.46-100.37,100.51-15.75,44.75-28.05,90.65-36.74,137.29,8.7,46.65,20.98,92.54,36.74,137.29,30.82,36.05,64.38,69.64,100.37,100.51,44.69,15.78,90.53,28.08,137.11,36.79,46.59-8.71,92.42-21.01,137.11-36.79,36-30.87,69.55-64.47,100.37-100.51,15.75-44.75,28.05-90.65,36.74-137.29-8.7-46.65-20.98-92.54-36.74-137.3h0Z" style="fill:#4d4d4d; isolation:isolate; opacity:.3; stroke-width:0px;"/><path d="M1701.71,488.2c-30.82-36.05-64.38-69.64-100.37-100.51-44.69-15.78-90.53-28.08-137.11-36.79-46.59,8.71-92.42,21.01-137.11,36.79-36,30.87-69.55,64.46-100.37,100.51-15.75,44.75-28.05,90.65-36.74,137.29,8.7,46.65,20.98,92.54,36.74,137.29,30.82,36.05,64.38,69.64,100.37,100.51,44.69,15.78,90.53,28.08,137.11,36.79,46.59-8.71,92.42-21.01,137.11-36.79,36-30.87,69.55-64.47,100.37-100.51,15.75-44.75,28.05-90.65,36.74-137.29-8.7-46.65-20.98-92.54-36.74-137.3h0Z" style="fill:#4d4d4d; isolation:isolate; opacity:.3; stroke-width:0px;"/><path d="M1701.71,488.2c-30.82-36.05-64.38-69.64-100.37-100.51-44.69-15.78-90.53-28.08-137.11-36.79-46.59,8.71-92.42,21.01-137.11,36.79-36,30.87-69.55,64.46-100.37,100.51-15.75,44.75-28.05,90.65-36.74,137.29,8.7,46.65,20.98,92.54,36.74,137.29,30.82,36.05,64.38,69.64,100.37,100.51,44.69,15.78,90.53,28.08,137.11,36.79,46.59-8.71,92.42-21.01,137.11-36.79,36-30.87,69.55-64.47,100.37-100.51,15.75-44.75,28.05-90.65,36.74-137.29-8.7-46.65-20.98-92.54-36.74-137.3h0Z" style="fill:#4d4d4d; isolation:isolate; opacity:.3; stroke-width:0px;"/><ellipse cx="1464.1" cy="625.5" rx="282.78" ry="283.16" style="fill:#4d4d4d; stroke-width:0px;"/><g style="isolation:isolate;"><g style="isolation:isolate;"><path d="M382.8,1021.77V398.07l133.11,1.11-290.41,354.19-36.3-41.8h524.7v174.91H102.3L14.3,721.47,414.7,242.97h178.2v778.8h-210.11Z" style="fill:#4d4d4d; stroke-width:0px;"/></g></g><g style="isolation:isolate;"><g style="isolation:isolate;"><path d="M2590.7,983.84V360.14l133.11,1.11-290.41,354.19-36.3-41.8h524.7v174.91h-611.61l-88-165,400.41-478.5h178.2v778.8h-210.11Z" style="fill:#4d4d4d; stroke-width:0px;"/></g></g></svg>