<?xml version="1.0" encoding="UTF-8"?>
<svg id="Calque_1" data-name="Calque 1" xmlns="http://www.w3.org/2000/svg" viewBox="0 0 1500 1500">
  <defs>
    <style>
      .cls-1, .cls-2 {
        fill: #fff;
      }

      .cls-3, .cls-4 {
        fill: #bf6a8c;
      }

      .cls-4, .cls-2 {
        opacity: .3;
      }
    </style>
  </defs>
  <g>
    <g>
      <path class="cls-2" d="m559.72,420.43c-50.6-11.72-103.24-18.11-157.41-18.11h0c0,54.16,6.4,106.8,18.11,157.41,37.8-11.53,76.1-19.85,114.57-24.73,4.88-38.47,13.2-76.77,24.73-114.57Z"/>
      <path class="cls-2" d="m940.28,1079.57c50.6,11.72,103.24,18.11,157.41,18.11h0c0-54.16-6.4-106.8-18.11-157.41-37.8,11.53-76.1,19.85-114.57,24.73-4.88,38.47-13.2,76.77-24.73,114.57Z"/>
      <path class="cls-2" d="m1130.56,750c-26.97,28.88-55.98,55.24-86.86,78.7,15.01,35.75,26.96,73.08,35.87,111.58,49.68-15.16,98.47-35.94,145.37-63.02h0c-27.08-46.91-58.94-89.3-94.39-127.26Z"/>
      <path class="cls-2" d="m456.3,671.3c-15.01-35.75-26.96-73.08-35.87-111.58-49.68,15.15-98.47,35.93-145.37,63.02h0,0c27.08,46.91,58.94,89.3,94.39,127.26,26.97-28.88,55.98-55.24,86.86-78.7Z"/>
      <path class="cls-2" d="m529.66,622.79c-.03-29.23,1.63-58.54,5.33-87.79-38.47,4.88-76.77,13.2-114.57,24.73,8.91,38.5,20.86,75.83,35.87,111.58,23.48-17.83,48.04-33.93,73.36-48.52Z"/>
      <path class="cls-2" d="m529.66,622.79c-.03-29.23,1.63-58.54,5.33-87.79-38.47,4.88-76.77,13.2-114.57,24.73,8.91,38.5,20.86,75.83,35.87,111.58,23.48-17.83,48.04-33.93,73.36-48.52Z"/>
      <path class="cls-2" d="m970.34,877.21c.03,29.23-1.63,58.54-5.33,87.79,38.47-4.88,76.77-13.2,114.57-24.73-8.91-38.5-20.86-75.83-35.87-111.58-23.48,17.84-48.04,33.93-73.36,48.52Z"/>
      <path class="cls-2" d="m970.34,877.21c.03,29.23-1.63,58.54-5.33,87.79,38.47-4.88,76.77-13.2,114.57-24.73-8.91-38.5-20.86-75.83-35.87-111.58-23.48,17.84-48.04,33.93-73.36,48.52Z"/>
      <path class="cls-2" d="m1130.56,750c35.45-37.96,67.31-80.35,94.39-127.26h0,0c-46.91-27.08-95.69-47.86-145.37-63.02-8.91,38.5-20.86,75.83-35.87,111.58,30.88,23.46,59.89,49.81,86.86,78.7Z"/>
      <path class="cls-2" d="m369.44,750c-35.45,37.96-67.31,80.35-94.39,127.26h0,0c46.91,27.08,95.69,47.86,145.37,63.02,8.91-38.5,20.86-75.83,35.87-111.58-30.88-23.46-59.89-49.81-86.86-78.7Z"/>
      <path class="cls-2" d="m456.3,828.7c11.41-27.18,24.64-53.4,39.28-78.7-14.64-25.3-27.86-51.51-39.28-78.7-30.88,23.46-59.89,49.82-86.86,78.7,26.97,28.88,55.98,55.24,86.86,78.7Z"/>
      <path class="cls-2" d="m456.3,828.7c11.41-27.18,24.64-53.4,39.28-78.7-14.64-25.3-27.86-51.51-39.28-78.7-30.88,23.46-59.89,49.82-86.86,78.7,26.97,28.88,55.98,55.24,86.86,78.7Z"/>
      <path class="cls-2" d="m1043.7,671.3c-11.41,27.18-24.64,53.4-39.28,78.7,14.64,25.3,27.86,51.51,39.28,78.7,30.88-23.46,59.89-49.82,86.86-78.7-26.97-28.88-55.98-55.24-86.86-78.7Z"/>
      <path class="cls-2" d="m1043.7,671.3c-11.41,27.18-24.64,53.4-39.28,78.7,14.64,25.3,27.86,51.51,39.28,78.7,30.88-23.46,59.89-49.82,86.86-78.7-26.97-28.88-55.98-55.24-86.86-78.7Z"/>
      <path class="cls-2" d="m529.66,622.79c-25.33,14.59-49.89,30.68-73.36,48.52,11.41,27.18,24.64,53.4,39.28,78.7,11.59-20.02,24.12-39.41,37.59-58.1-2.31-22.92-3.48-45.98-3.5-69.11Z"/>
      <path class="cls-2" d="m529.66,622.79c-25.33,14.59-49.89,30.68-73.36,48.52,11.41,27.18,24.64,53.4,39.28,78.7,11.59-20.02,24.12-39.41,37.59-58.1-2.31-22.92-3.48-45.98-3.5-69.11Z"/>
      <path class="cls-2" d="m529.66,622.79c-25.33,14.59-49.89,30.68-73.36,48.52,11.41,27.18,24.64,53.4,39.28,78.7,11.59-20.02,24.12-39.41,37.59-58.1-2.31-22.92-3.48-45.98-3.5-69.11Z"/>
      <path class="cls-2" d="m966.84,808.1c2.31,22.92,3.48,45.98,3.5,69.11,25.33-14.59,49.89-30.68,73.36-48.52-11.41-27.18-24.64-53.4-39.28-78.7-11.59,20.02-24.12,39.41-37.59,58.1Z"/>
      <path class="cls-2" d="m966.84,808.1c2.31,22.92,3.48,45.98,3.5,69.11,25.33-14.59,49.89-30.68,73.36-48.52-11.41-27.18-24.64-53.4-39.28-78.7-11.59,20.02-24.12,39.41-37.59,58.1Z"/>
      <path class="cls-2" d="m966.84,808.1c2.31,22.92,3.48,45.98,3.5,69.11,25.33-14.59,49.89-30.68,73.36-48.52-11.41-27.18-24.64-53.4-39.28-78.7-11.59,20.02-24.12,39.41-37.59,58.1Z"/>
      <path class="cls-2" d="m420.43,940.28c-11.72,50.6-18.11,103.24-18.11,157.41h0c54.16,0,106.8-6.4,157.41-18.11-11.53-37.8-19.85-76.1-24.73-114.57-38.47-4.88-76.77-13.2-114.57-24.73Z"/>
      <path class="cls-2" d="m1079.57,559.72c11.72-50.6,18.11-103.24,18.11-157.41h0s0,0,0,0c-54.16,0-106.8,6.4-157.41,18.11,11.53,37.8,19.85,76.1,24.73,114.57,38.47,4.87,76.77,13.2,114.57,24.72Z"/>
      <path class="cls-2" d="m970.34,622.79c25.33,14.59,49.89,30.68,73.36,48.51,15.01-35.75,26.96-73.08,35.87-111.58-37.8-11.53-76.1-19.85-114.57-24.72,3.71,29.25,5.36,58.56,5.33,87.79Z"/>
      <path class="cls-2" d="m970.34,622.79c25.33,14.59,49.89,30.68,73.36,48.51,15.01-35.75,26.96-73.08,35.87-111.58-37.8-11.53-76.1-19.85-114.57-24.72,3.71,29.25,5.36,58.56,5.33,87.79Z"/>
      <path class="cls-2" d="m529.66,877.21c-25.33-14.59-49.89-30.68-73.36-48.51-15.01,35.75-26.96,73.08-35.87,111.58,37.8,11.53,76.1,19.85,114.57,24.73-3.71-29.25-5.36-58.56-5.33-87.79Z"/>
      <path class="cls-2" d="m529.66,877.21c-25.33-14.59-49.89-30.68-73.36-48.51-15.01,35.75-26.96,73.08-35.87,111.58,37.8,11.53,76.1,19.85,114.57,24.73-3.71-29.25-5.36-58.56-5.33-87.79Z"/>
      <path class="cls-2" d="m966.84,691.9c13.46,18.69,26,38.08,37.59,58.1,14.64-25.3,27.86-51.51,39.28-78.7-23.48-17.84-48.04-33.93-73.36-48.51-.02,23.13-1.19,46.19-3.5,69.11Z"/>
      <path class="cls-2" d="m966.84,691.9c13.46,18.69,26,38.08,37.59,58.1,14.64-25.3,27.86-51.51,39.28-78.7-23.48-17.84-48.04-33.93-73.36-48.51-.02,23.13-1.19,46.19-3.5,69.11Z"/>
      <path class="cls-2" d="m966.84,691.9c13.46,18.69,26,38.08,37.59,58.1,14.64-25.3,27.86-51.51,39.28-78.7-23.48-17.84-48.04-33.93-73.36-48.51-.02,23.13-1.19,46.19-3.5,69.11Z"/>
      <path class="cls-2" d="m533.16,808.1c-13.46-18.69-26-38.08-37.59-58.1-14.64,25.3-27.86,51.51-39.28,78.7,23.48,17.84,48.04,33.93,73.36,48.51.02-23.13,1.19-46.19,3.5-69.11Z"/>
      <path class="cls-2" d="m533.16,808.1c-13.46-18.69-26-38.08-37.59-58.1-14.64,25.3-27.86,51.51-39.28,78.7,23.48,17.84,48.04,33.93,73.36,48.51.02-23.13,1.19-46.19,3.5-69.11Z"/>
      <path class="cls-2" d="m533.16,808.1c-13.46-18.69-26-38.08-37.59-58.1-14.64,25.3-27.86,51.51-39.28,78.7,23.48,17.84,48.04,33.93,73.36,48.51.02-23.13,1.19-46.19,3.5-69.11Z"/>
      <path class="cls-2" d="m541.5,750c-3.59-19.23-6.37-38.6-8.34-58.1-13.46,18.69-26,38.08-37.59,58.1,11.59,20.02,24.12,39.41,37.59,58.1,1.97-19.5,4.75-38.87,8.34-58.1Z"/>
      <path class="cls-2" d="m541.5,750c-3.59-19.23-6.37-38.6-8.34-58.1-13.46,18.69-26,38.08-37.59,58.1,11.59,20.02,24.12,39.41,37.59,58.1,1.97-19.5,4.75-38.87,8.34-58.1Z"/>
      <path class="cls-2" d="m541.5,750c-3.59-19.23-6.37-38.6-8.34-58.1-13.46,18.69-26,38.08-37.59,58.1,11.59,20.02,24.12,39.41,37.59,58.1,1.97-19.5,4.75-38.87,8.34-58.1Z"/>
      <path class="cls-2" d="m541.5,750c-3.59-19.23-6.37-38.6-8.34-58.1-13.46,18.69-26,38.08-37.59,58.1,11.59,20.02,24.12,39.41,37.59,58.1,1.97-19.5,4.75-38.87,8.34-58.1Z"/>
      <path class="cls-2" d="m958.5,750c3.59,19.23,6.37,38.6,8.34,58.1,13.46-18.69,26-38.08,37.59-58.1-11.59-20.02-24.13-39.41-37.59-58.1-1.97,19.5-4.75,38.87-8.34,58.1Z"/>
      <path class="cls-2" d="m958.5,750c3.59,19.23,6.37,38.6,8.34,58.1,13.46-18.69,26-38.08,37.59-58.1-11.59-20.02-24.13-39.41-37.59-58.1-1.97,19.5-4.75,38.87-8.34,58.1Z"/>
      <path class="cls-2" d="m958.5,750c3.59,19.23,6.37,38.6,8.34,58.1,13.46-18.69,26-38.08,37.59-58.1-11.59-20.02-24.13-39.41-37.59-58.1-1.97,19.5-4.75,38.87-8.34,58.1Z"/>
      <path class="cls-2" d="m958.5,750c3.59,19.23,6.37,38.6,8.34,58.1,13.46-18.69,26-38.08,37.59-58.1-11.59-20.02-24.13-39.41-37.59-58.1-1.97,19.5-4.75,38.87-8.34,58.1Z"/>
      <path class="cls-2" d="m671.3,1043.7c-35.75,15.01-73.08,26.96-111.58,35.87,15.15,49.68,35.94,98.47,63.02,145.37h0s0,0,0,0c46.91-27.08,89.3-58.94,127.26-94.39-28.88-26.97-55.24-55.98-78.7-86.85Z"/>
      <path class="cls-2" d="m828.7,456.3c35.75-15.01,73.08-26.96,111.58-35.87-15.15-49.68-35.94-98.46-63.02-145.37h0s0,0,0,0c-46.91,27.08-89.3,58.94-127.26,94.39,28.88,26.97,55.24,55.98,78.7,86.85Z"/>
      <path class="cls-2" d="m622.79,970.34c-29.23.03-58.54-1.63-87.79-5.33,4.88,38.47,13.2,76.77,24.73,114.57,38.5-8.91,75.83-20.86,111.58-35.87-17.83-23.48-33.93-48.04-48.52-73.36Z"/>
      <path class="cls-2" d="m622.79,970.34c-29.23.03-58.54-1.63-87.79-5.33,4.88,38.47,13.2,76.77,24.73,114.57,38.5-8.91,75.83-20.86,111.58-35.87-17.83-23.48-33.93-48.04-48.52-73.36Z"/>
      <path class="cls-2" d="m877.21,529.66c29.23-.03,58.54,1.63,87.79,5.33-4.88-38.47-13.2-76.77-24.73-114.57-38.5,8.91-75.83,20.86-111.58,35.87,17.83,23.48,33.93,48.04,48.52,73.36Z"/>
      <path class="cls-2" d="m877.21,529.66c29.23-.03,58.54,1.63,87.79,5.33-4.88-38.47-13.2-76.77-24.73-114.57-38.5,8.91-75.83,20.86-111.58,35.87,17.83,23.48,33.93,48.04,48.52,73.36Z"/>
      <path class="cls-2" d="m970.34,622.79c.03-29.23-1.63-58.54-5.33-87.79-29.25-3.71-58.56-5.36-87.79-5.33,11.55,20.05,22.07,40.6,31.52,61.6,21.01,9.46,41.56,19.98,61.6,31.52Z"/>
      <path class="cls-2" d="m970.34,622.79c.03-29.23-1.63-58.54-5.33-87.79-29.25-3.71-58.56-5.36-87.79-5.33,11.55,20.05,22.07,40.6,31.52,61.6,21.01,9.46,41.56,19.98,61.6,31.52Z"/>
      <path class="cls-2" d="m970.34,622.79c.03-29.23-1.63-58.54-5.33-87.79-29.25-3.71-58.56-5.36-87.79-5.33,11.55,20.05,22.07,40.6,31.52,61.6,21.01,9.46,41.56,19.98,61.6,31.52Z"/>
      <path class="cls-2" d="m529.66,877.21c-.03,29.23,1.63,58.54,5.33,87.79,29.25,3.71,58.56,5.36,87.79,5.33-11.55-20.04-22.07-40.6-31.52-61.6-21.01-9.46-41.56-19.98-61.6-31.52Z"/>
      <path class="cls-2" d="m529.66,877.21c-.03,29.23,1.63,58.54,5.33,87.79,29.25,3.71,58.56,5.36,87.79,5.33-11.55-20.04-22.07-40.6-31.52-61.6-21.01-9.46-41.56-19.98-61.6-31.52Z"/>
      <path class="cls-2" d="m529.66,877.21c-.03,29.23,1.63,58.54,5.33,87.79,29.25,3.71,58.56,5.36,87.79,5.33-11.55-20.04-22.07-40.6-31.52-61.6-21.01-9.46-41.56-19.98-61.6-31.52Z"/>
      <path class="cls-2" d="m569.43,854.25c-12.72-14.86-24.82-30.25-36.27-46.15-2.31,22.92-3.48,45.98-3.5,69.11,20.05,11.55,40.6,22.06,61.6,31.52-8.05-17.87-15.33-36.04-21.83-54.49Z"/>
      <path class="cls-2" d="m569.43,854.25c-12.72-14.86-24.82-30.25-36.27-46.15-2.31,22.92-3.48,45.98-3.5,69.11,20.05,11.55,40.6,22.06,61.6,31.52-8.05-17.87-15.33-36.04-21.83-54.49Z"/>
      <path class="cls-2" d="m569.43,854.25c-12.72-14.86-24.82-30.25-36.27-46.15-2.31,22.92-3.48,45.98-3.5,69.11,20.05,11.55,40.6,22.06,61.6,31.52-8.05-17.87-15.33-36.04-21.83-54.49Z"/>
      <path class="cls-2" d="m569.43,854.25c-12.72-14.86-24.82-30.25-36.27-46.15-2.31,22.92-3.48,45.98-3.5,69.11,20.05,11.55,40.6,22.06,61.6,31.52-8.05-17.87-15.33-36.04-21.83-54.49Z"/>
      <path class="cls-2" d="m930.57,645.75c12.72,14.86,24.82,30.25,36.27,46.15,2.31-22.92,3.48-45.98,3.5-69.11-20.05-11.55-40.6-22.06-61.6-31.52,8.05,17.87,15.33,36.04,21.83,54.49Z"/>
      <path class="cls-2" d="m930.57,645.75c12.72,14.86,24.82,30.25,36.27,46.15,2.31-22.92,3.48-45.98,3.5-69.11-20.05-11.55-40.6-22.06-61.6-31.52,8.05,17.87,15.33,36.04,21.83,54.49Z"/>
      <path class="cls-2" d="m930.57,645.75c12.72,14.86,24.82,30.25,36.27,46.15,2.31-22.92,3.48-45.98,3.5-69.11-20.05-11.55-40.6-22.06-61.6-31.52,8.05,17.87,15.33,36.04,21.83,54.49Z"/>
      <path class="cls-2" d="m930.57,645.75c12.72,14.86,24.82,30.25,36.27,46.15,2.31-22.92,3.48-45.98,3.5-69.11-20.05-11.55-40.6-22.06-61.6-31.52,8.05,17.87,15.33,36.04,21.83,54.49Z"/>
      <path class="cls-2" d="m533.16,808.1c11.45,15.9,23.55,31.29,36.27,46.15-11.98-33.98-21.32-68.83-27.93-104.25-3.59,19.23-6.37,38.6-8.34,58.1Z"/>
      <path class="cls-2" d="m533.16,808.1c11.45,15.9,23.55,31.29,36.27,46.15-11.98-33.98-21.32-68.83-27.93-104.25-3.59,19.23-6.37,38.6-8.34,58.1Z"/>
      <path class="cls-2" d="m533.16,808.1c11.45,15.9,23.55,31.29,36.27,46.15-11.98-33.98-21.32-68.83-27.93-104.25-3.59,19.23-6.37,38.6-8.34,58.1Z"/>
      <path class="cls-2" d="m533.16,808.1c11.45,15.9,23.55,31.29,36.27,46.15-11.98-33.98-21.32-68.83-27.93-104.25-3.59,19.23-6.37,38.6-8.34,58.1Z"/>
      <path class="cls-2" d="m533.16,808.1c11.45,15.9,23.55,31.29,36.27,46.15-11.98-33.98-21.32-68.83-27.93-104.25-3.59,19.23-6.37,38.6-8.34,58.1Z"/>
      <path class="cls-2" d="m966.84,691.9c-11.45-15.9-23.55-31.29-36.27-46.15,11.98,33.98,21.32,68.83,27.93,104.25,3.59-19.23,6.37-38.6,8.34-58.1Z"/>
      <path class="cls-2" d="m966.84,691.9c-11.45-15.9-23.55-31.29-36.27-46.15,11.98,33.98,21.32,68.83,27.93,104.25,3.59-19.23,6.37-38.6,8.34-58.1Z"/>
      <path class="cls-2" d="m966.84,691.9c-11.45-15.9-23.55-31.29-36.27-46.15,11.98,33.98,21.32,68.83,27.93,104.25,3.59-19.23,6.37-38.6,8.34-58.1Z"/>
      <path class="cls-2" d="m966.84,691.9c-11.45-15.9-23.55-31.29-36.27-46.15,11.98,33.98,21.32,68.83,27.93,104.25,3.59-19.23,6.37-38.6,8.34-58.1Z"/>
      <path class="cls-2" d="m966.84,691.9c-11.45-15.9-23.55-31.29-36.27-46.15,11.98,33.98,21.32,68.83,27.93,104.25,3.59-19.23,6.37-38.6,8.34-58.1Z"/>
      <path class="cls-2" d="m750,369.44c-37.96-35.45-80.35-67.31-127.26-94.39h0c-27.08,46.91-47.86,95.69-63.02,145.37,38.5,8.91,75.83,20.86,111.58,35.87,23.46-30.88,49.81-59.89,78.7-86.86Z"/>
      <path class="cls-2" d="m750,1130.56c37.96,35.45,80.35,67.31,127.26,94.39h0c27.08-46.91,47.86-95.69,63.02-145.37-38.5-8.91-75.83-20.86-111.58-35.87-23.46,30.88-49.81,59.89-78.7,86.86Z"/>
      <path class="cls-2" d="m877.21,970.34c-14.59,25.33-30.68,49.89-48.52,73.36,35.75,15.01,73.08,26.96,111.58,35.87,11.53-37.8,19.85-76.1,24.73-114.57-29.25,3.71-58.56,5.36-87.79,5.33Z"/>
      <path class="cls-2" d="m877.21,970.34c-14.59,25.33-30.68,49.89-48.52,73.36,35.75,15.01,73.08,26.96,111.58,35.87,11.53-37.8,19.85-76.1,24.73-114.57-29.25,3.71-58.56,5.36-87.79,5.33Z"/>
      <path class="cls-2" d="m622.79,529.66c14.59-25.33,30.68-49.89,48.52-73.36-35.75-15.01-73.08-26.96-111.58-35.87-11.53,37.8-19.85,76.1-24.73,114.57,29.25-3.71,58.56-5.36,87.79-5.33Z"/>
      <path class="cls-2" d="m622.79,529.66c14.59-25.33,30.68-49.89,48.52-73.36-35.75-15.01-73.08-26.96-111.58-35.87-11.53,37.8-19.85,76.1-24.73,114.57,29.25-3.71,58.56-5.36,87.79-5.33Z"/>
      <path class="cls-2" d="m877.21,970.34c29.23.03,58.54-1.63,87.79-5.33,3.71-29.25,5.36-58.56,5.33-87.79-20.05,11.55-40.6,22.06-61.6,31.52-9.46,21.01-19.98,41.56-31.52,61.6Z"/>
      <path class="cls-2" d="m877.21,970.34c29.23.03,58.54-1.63,87.79-5.33,3.71-29.25,5.36-58.56,5.33-87.79-20.05,11.55-40.6,22.06-61.6,31.52-9.46,21.01-19.98,41.56-31.52,61.6Z"/>
      <path class="cls-2" d="m877.21,970.34c29.23.03,58.54-1.63,87.79-5.33,3.71-29.25,5.36-58.56,5.33-87.79-20.05,11.55-40.6,22.06-61.6,31.52-9.46,21.01-19.98,41.56-31.52,61.6Z"/>
      <path class="cls-2" d="m622.79,529.66c-29.23-.03-58.54,1.63-87.79,5.33-3.71,29.25-5.36,58.56-5.33,87.79,20.05-11.55,40.6-22.07,61.6-31.52,9.46-21.01,19.98-41.56,31.52-61.6Z"/>
      <path class="cls-2" d="m622.79,529.66c-29.23-.03-58.54,1.63-87.79,5.33-3.71,29.25-5.36,58.56-5.33,87.79,20.05-11.55,40.6-22.07,61.6-31.52,9.46-21.01,19.98-41.56,31.52-61.6Z"/>
      <path class="cls-2" d="m622.79,529.66c-29.23-.03-58.54,1.63-87.79,5.33-3.71,29.25-5.36,58.56-5.33,87.79,20.05-11.55,40.6-22.07,61.6-31.52,9.46-21.01,19.98-41.56,31.52-61.6Z"/>
      <path class="cls-2" d="m533.16,691.9c11.45-15.9,23.55-31.29,36.27-46.15,6.51-18.45,13.78-36.62,21.83-54.49-21.01,9.46-41.56,19.98-61.6,31.52.02,23.13,1.19,46.19,3.5,69.11Z"/>
      <path class="cls-2" d="m533.16,691.9c11.45-15.9,23.55-31.29,36.27-46.15,6.51-18.45,13.78-36.62,21.83-54.49-21.01,9.46-41.56,19.98-61.6,31.52.02,23.13,1.19,46.19,3.5,69.11Z"/>
      <path class="cls-2" d="m533.16,691.9c11.45-15.9,23.55-31.29,36.27-46.15,6.51-18.45,13.78-36.62,21.83-54.49-21.01,9.46-41.56,19.98-61.6,31.52.02,23.13,1.19,46.19,3.5,69.11Z"/>
      <path class="cls-2" d="m533.16,691.9c11.45-15.9,23.55-31.29,36.27-46.15,6.51-18.45,13.78-36.62,21.83-54.49-21.01,9.46-41.56,19.98-61.6,31.52.02,23.13,1.19,46.19,3.5,69.11Z"/>
      <path class="cls-2" d="m966.84,808.1c-11.45,15.9-23.55,31.29-36.27,46.15-6.51,18.45-13.78,36.62-21.83,54.49,21.01-9.46,41.56-19.98,61.6-31.52-.02-23.13-1.19-46.19-3.5-69.11Z"/>
      <path class="cls-2" d="m966.84,808.1c-11.45,15.9-23.55,31.29-36.27,46.15-6.51,18.45-13.78,36.62-21.83,54.49,21.01-9.46,41.56-19.98,61.6-31.52-.02-23.13-1.19-46.19-3.5-69.11Z"/>
      <path class="cls-2" d="m966.84,808.1c-11.45,15.9-23.55,31.29-36.27,46.15-6.51,18.45-13.78,36.62-21.83,54.49,21.01-9.46,41.56-19.98,61.6-31.52-.02-23.13-1.19-46.19-3.5-69.11Z"/>
      <path class="cls-2" d="m966.84,808.1c-11.45,15.9-23.55,31.29-36.27,46.15-6.51,18.45-13.78,36.62-21.83,54.49,21.01-9.46,41.56-19.98,61.6-31.52-.02-23.13-1.19-46.19-3.5-69.11Z"/>
      <path class="cls-2" d="m930.57,854.25c12.72-14.86,24.82-30.25,36.27-46.15-1.97-19.5-4.75-38.88-8.34-58.1-6.61,35.42-15.95,70.27-27.93,104.25Z"/>
      <path class="cls-2" d="m930.57,854.25c12.72-14.86,24.82-30.25,36.27-46.15-1.97-19.5-4.75-38.88-8.34-58.1-6.61,35.42-15.95,70.27-27.93,104.25Z"/>
      <path class="cls-2" d="m930.57,854.25c12.72-14.86,24.82-30.25,36.27-46.15-1.97-19.5-4.75-38.88-8.34-58.1-6.61,35.42-15.95,70.27-27.93,104.25Z"/>
      <path class="cls-2" d="m930.57,854.25c12.72-14.86,24.82-30.25,36.27-46.15-1.97-19.5-4.75-38.88-8.34-58.1-6.61,35.42-15.95,70.27-27.93,104.25Z"/>
      <path class="cls-2" d="m930.57,854.25c12.72-14.86,24.82-30.25,36.27-46.15-1.97-19.5-4.75-38.88-8.34-58.1-6.61,35.42-15.95,70.27-27.93,104.25Z"/>
      <path class="cls-2" d="m533.16,691.9c1.97,19.5,4.75,38.87,8.34,58.1,6.61-35.42,15.95-70.27,27.93-104.25-12.72,14.86-24.82,30.25-36.27,46.15Z"/>
      <path class="cls-2" d="m533.16,691.9c1.97,19.5,4.75,38.87,8.34,58.1,6.61-35.42,15.95-70.27,27.93-104.25-12.72,14.86-24.82,30.25-36.27,46.15Z"/>
      <path class="cls-2" d="m533.16,691.9c1.97,19.5,4.75,38.87,8.34,58.1,6.61-35.42,15.95-70.27,27.93-104.25-12.72,14.86-24.82,30.25-36.27,46.15Z"/>
      <path class="cls-2" d="m533.16,691.9c1.97,19.5,4.75,38.87,8.34,58.1,6.61-35.42,15.95-70.27,27.93-104.25-12.72,14.86-24.82,30.25-36.27,46.15Z"/>
      <path class="cls-2" d="m533.16,691.9c1.97,19.5,4.75,38.87,8.34,58.1,6.61-35.42,15.95-70.27,27.93-104.25-12.72,14.86-24.82,30.25-36.27,46.15Z"/>
      <path class="cls-2" d="m671.3,456.3c27.18,11.41,53.4,24.64,78.7,39.28,25.3-14.64,51.51-27.86,78.7-39.28-23.46-30.88-49.82-59.89-78.7-86.85-28.88,26.97-55.24,55.98-78.7,86.86Z"/>
      <path class="cls-2" d="m671.3,456.3c27.18,11.41,53.4,24.64,78.7,39.28,25.3-14.64,51.51-27.86,78.7-39.28-23.46-30.88-49.82-59.89-78.7-86.85-28.88,26.97-55.24,55.98-78.7,86.86Z"/>
      <path class="cls-2" d="m828.7,1043.7c-27.18-11.41-53.4-24.64-78.7-39.28-25.3,14.64-51.51,27.86-78.7,39.28,23.46,30.88,49.82,59.89,78.7,86.85,28.88-26.97,55.24-55.98,78.7-86.86Z"/>
      <path class="cls-2" d="m828.7,1043.7c-27.18-11.41-53.4-24.64-78.7-39.28-25.3,14.64-51.51,27.86-78.7,39.28,23.46,30.88,49.82,59.89,78.7,86.85,28.88-26.97,55.24-55.98,78.7-86.86Z"/>
      <path class="cls-2" d="m808.1,966.84c-18.69,13.46-38.08,26-58.1,37.59,25.3,14.64,51.51,27.86,78.7,39.28,17.83-23.48,33.93-48.04,48.52-73.36-23.13-.02-46.19-1.19-69.11-3.5Z"/>
      <path class="cls-2" d="m808.1,966.84c-18.69,13.46-38.08,26-58.1,37.59,25.3,14.64,51.51,27.86,78.7,39.28,17.83-23.48,33.93-48.04,48.52-73.36-23.13-.02-46.19-1.19-69.11-3.5Z"/>
      <path class="cls-2" d="m808.1,966.84c-18.69,13.46-38.08,26-58.1,37.59,25.3,14.64,51.51,27.86,78.7,39.28,17.83-23.48,33.93-48.04,48.52-73.36-23.13-.02-46.19-1.19-69.11-3.5Z"/>
      <path class="cls-2" d="m691.9,533.16c18.69-13.46,38.08-26,58.1-37.59-25.3-14.64-51.51-27.86-78.7-39.28-17.83,23.48-33.93,48.04-48.52,73.36,23.13.02,46.19,1.19,69.11,3.5Z"/>
      <path class="cls-2" d="m691.9,533.16c18.69-13.46,38.08-26,58.1-37.59-25.3-14.64-51.51-27.86-78.7-39.28-17.83,23.48-33.93,48.04-48.52,73.36,23.13.02,46.19,1.19,69.11,3.5Z"/>
      <path class="cls-2" d="m691.9,533.16c18.69-13.46,38.08-26,58.1-37.59-25.3-14.64-51.51-27.86-78.7-39.28-17.83,23.48-33.93,48.04-48.52,73.36,23.13.02,46.19,1.19,69.11,3.5Z"/>
      <path class="cls-2" d="m645.75,569.43c14.86-12.72,30.25-24.82,46.15-36.27-22.92-2.31-45.98-3.48-69.11-3.5-11.55,20.04-22.06,40.6-31.52,61.6,17.87-8.05,36.04-15.33,54.49-21.83Z"/>
      <path class="cls-2" d="m645.75,569.43c14.86-12.72,30.25-24.82,46.15-36.27-22.92-2.31-45.98-3.48-69.11-3.5-11.55,20.04-22.06,40.6-31.52,61.6,17.87-8.05,36.04-15.33,54.49-21.83Z"/>
      <path class="cls-2" d="m645.75,569.43c14.86-12.72,30.25-24.82,46.15-36.27-22.92-2.31-45.98-3.48-69.11-3.5-11.55,20.04-22.06,40.6-31.52,61.6,17.87-8.05,36.04-15.33,54.49-21.83Z"/>
      <path class="cls-2" d="m645.75,569.43c14.86-12.72,30.25-24.82,46.15-36.27-22.92-2.31-45.98-3.48-69.11-3.5-11.55,20.04-22.06,40.6-31.52,61.6,17.87-8.05,36.04-15.33,54.49-21.83Z"/>
      <path class="cls-2" d="m854.25,930.57c-14.86,12.72-30.25,24.82-46.15,36.27,22.92,2.31,45.98,3.48,69.11,3.5,11.55-20.05,22.06-40.6,31.52-61.6-17.87,8.05-36.04,15.33-54.49,21.83Z"/>
      <path class="cls-2" d="m854.25,930.57c-14.86,12.72-30.25,24.82-46.15,36.27,22.92,2.31,45.98,3.48,69.11,3.5,11.55-20.05,22.06-40.6,31.52-61.6-17.87,8.05-36.04,15.33-54.49,21.83Z"/>
      <path class="cls-2" d="m854.25,930.57c-14.86,12.72-30.25,24.82-46.15,36.27,22.92,2.31,45.98,3.48,69.11,3.5,11.55-20.05,22.06-40.6,31.52-61.6-17.87,8.05-36.04,15.33-54.49,21.83Z"/>
      <path class="cls-2" d="m854.25,930.57c-14.86,12.72-30.25,24.82-46.15,36.27,22.92,2.31,45.98,3.48,69.11,3.5,11.55-20.05,22.06-40.6,31.52-61.6-17.87,8.05-36.04,15.33-54.49,21.83Z"/>
      <path class="cls-2" d="m645.75,569.43c-18.45,6.51-36.62,13.78-54.49,21.83-8.05,17.87-15.33,36.04-21.83,54.49,23.44-27.37,48.95-52.88,76.32-76.32Z"/>
      <path class="cls-2" d="m645.75,569.43c-18.45,6.51-36.62,13.78-54.49,21.83-8.05,17.87-15.33,36.04-21.83,54.49,23.44-27.37,48.95-52.88,76.32-76.32Z"/>
      <path class="cls-2" d="m645.75,569.43c-18.45,6.51-36.62,13.78-54.49,21.83-8.05,17.87-15.33,36.04-21.83,54.49,23.44-27.37,48.95-52.88,76.32-76.32Z"/>
      <path class="cls-2" d="m645.75,569.43c-18.45,6.51-36.62,13.78-54.49,21.83-8.05,17.87-15.33,36.04-21.83,54.49,23.44-27.37,48.95-52.88,76.32-76.32Z"/>
      <path class="cls-2" d="m645.75,569.43c-18.45,6.51-36.62,13.78-54.49,21.83-8.05,17.87-15.33,36.04-21.83,54.49,23.44-27.37,48.95-52.88,76.32-76.32Z"/>
      <path class="cls-2" d="m854.25,930.57c18.45-6.51,36.62-13.78,54.49-21.83,8.05-17.87,15.33-36.04,21.83-54.49-23.44,27.37-48.95,52.88-76.32,76.32Z"/>
      <path class="cls-2" d="m854.25,930.57c18.45-6.51,36.62-13.78,54.49-21.83,8.05-17.87,15.33-36.04,21.83-54.49-23.44,27.37-48.95,52.88-76.32,76.32Z"/>
      <path class="cls-2" d="m854.25,930.57c18.45-6.51,36.62-13.78,54.49-21.83,8.05-17.87,15.33-36.04,21.83-54.49-23.44,27.37-48.95,52.88-76.32,76.32Z"/>
      <path class="cls-2" d="m854.25,930.57c18.45-6.51,36.62-13.78,54.49-21.83,8.05-17.87,15.33-36.04,21.83-54.49-23.44,27.37-48.95,52.88-76.32,76.32Z"/>
      <path class="cls-2" d="m854.25,930.57c18.45-6.51,36.62-13.78,54.49-21.83,8.05-17.87,15.33-36.04,21.83-54.49-23.44,27.37-48.95,52.88-76.32,76.32Z"/>
      <path class="cls-2" d="m622.79,970.34c14.59,25.33,30.68,49.89,48.52,73.36,27.18-11.41,53.4-24.64,78.7-39.28-20.02-11.59-39.41-24.12-58.1-37.59-22.92,2.31-45.98,3.48-69.11,3.5Z"/>
      <path class="cls-2" d="m622.79,970.34c14.59,25.33,30.68,49.89,48.52,73.36,27.18-11.41,53.4-24.64,78.7-39.28-20.02-11.59-39.41-24.12-58.1-37.59-22.92,2.31-45.98,3.48-69.11,3.5Z"/>
      <path class="cls-2" d="m622.79,970.34c14.59,25.33,30.68,49.89,48.52,73.36,27.18-11.41,53.4-24.64,78.7-39.28-20.02-11.59-39.41-24.12-58.1-37.59-22.92,2.31-45.98,3.48-69.11,3.5Z"/>
      <path class="cls-2" d="m877.21,529.66c-14.59-25.33-30.68-49.89-48.52-73.36-27.18,11.41-53.4,24.64-78.7,39.28,20.02,11.59,39.41,24.13,58.1,37.59,22.92-2.31,45.98-3.48,69.11-3.5Z"/>
      <path class="cls-2" d="m877.21,529.66c-14.59-25.33-30.68-49.89-48.52-73.36-27.18,11.41-53.4,24.64-78.7,39.28,20.02,11.59,39.41,24.13,58.1,37.59,22.92-2.31,45.98-3.48,69.11-3.5Z"/>
      <path class="cls-2" d="m877.21,529.66c-14.59-25.33-30.68-49.89-48.52-73.36-27.18,11.41-53.4,24.64-78.7,39.28,20.02,11.59,39.41,24.13,58.1,37.59,22.92-2.31,45.98-3.48,69.11-3.5Z"/>
      <path class="cls-2" d="m750,958.5c-19.23,3.59-38.6,6.37-58.1,8.34,18.69,13.46,38.08,26,58.1,37.59,20.02-11.59,39.41-24.12,58.1-37.59-19.5-1.97-38.87-4.75-58.1-8.34Z"/>
      <path class="cls-2" d="m750,958.5c-19.23,3.59-38.6,6.37-58.1,8.34,18.69,13.46,38.08,26,58.1,37.59,20.02-11.59,39.41-24.12,58.1-37.59-19.5-1.97-38.87-4.75-58.1-8.34Z"/>
      <path class="cls-2" d="m750,958.5c-19.23,3.59-38.6,6.37-58.1,8.34,18.69,13.46,38.08,26,58.1,37.59,20.02-11.59,39.41-24.12,58.1-37.59-19.5-1.97-38.87-4.75-58.1-8.34Z"/>
      <path class="cls-2" d="m750,958.5c-19.23,3.59-38.6,6.37-58.1,8.34,18.69,13.46,38.08,26,58.1,37.59,20.02-11.59,39.41-24.12,58.1-37.59-19.5-1.97-38.87-4.75-58.1-8.34Z"/>
      <path class="cls-2" d="m750,541.5c19.23-3.59,38.6-6.37,58.1-8.34-18.69-13.46-38.08-26-58.1-37.59-20.02,11.59-39.41,24.13-58.1,37.59,19.5,1.97,38.87,4.75,58.1,8.34Z"/>
      <path class="cls-2" d="m750,541.5c19.23-3.59,38.6-6.37,58.1-8.34-18.69-13.46-38.08-26-58.1-37.59-20.02,11.59-39.41,24.13-58.1,37.59,19.5,1.97,38.87,4.75,58.1,8.34Z"/>
      <path class="cls-2" d="m750,541.5c19.23-3.59,38.6-6.37,58.1-8.34-18.69-13.46-38.08-26-58.1-37.59-20.02,11.59-39.41,24.13-58.1,37.59,19.5,1.97,38.87,4.75,58.1,8.34Z"/>
      <path class="cls-2" d="m750,541.5c19.23-3.59,38.6-6.37,58.1-8.34-18.69-13.46-38.08-26-58.1-37.59-20.02,11.59-39.41,24.13-58.1,37.59,19.5,1.97,38.87,4.75,58.1,8.34Z"/>
      <path class="cls-2" d="m691.9,533.16c-15.9,11.45-31.29,23.55-46.15,36.27,33.98-11.98,68.83-21.32,104.25-27.93-19.23-3.59-38.6-6.37-58.1-8.34Z"/>
      <path class="cls-2" d="m691.9,533.16c-15.9,11.45-31.29,23.55-46.15,36.27,33.98-11.98,68.83-21.32,104.25-27.93-19.23-3.59-38.6-6.37-58.1-8.34Z"/>
      <path class="cls-2" d="m691.9,533.16c-15.9,11.45-31.29,23.55-46.15,36.27,33.98-11.98,68.83-21.32,104.25-27.93-19.23-3.59-38.6-6.37-58.1-8.34Z"/>
      <path class="cls-2" d="m691.9,533.16c-15.9,11.45-31.29,23.55-46.15,36.27,33.98-11.98,68.83-21.32,104.25-27.93-19.23-3.59-38.6-6.37-58.1-8.34Z"/>
      <path class="cls-2" d="m691.9,533.16c-15.9,11.45-31.29,23.55-46.15,36.27,33.98-11.98,68.83-21.32,104.25-27.93-19.23-3.59-38.6-6.37-58.1-8.34Z"/>
      <path class="cls-2" d="m808.1,966.84c15.9-11.45,31.29-23.55,46.15-36.27-33.98,11.98-68.83,21.32-104.25,27.93,19.23,3.59,38.6,6.37,58.1,8.34Z"/>
      <path class="cls-2" d="m808.1,966.84c15.9-11.45,31.29-23.55,46.15-36.27-33.98,11.98-68.83,21.32-104.25,27.93,19.23,3.59,38.6,6.37,58.1,8.34Z"/>
      <path class="cls-2" d="m808.1,966.84c15.9-11.45,31.29-23.55,46.15-36.27-33.98,11.98-68.83,21.32-104.25,27.93,19.23,3.59,38.6,6.37,58.1,8.34Z"/>
      <path class="cls-2" d="m808.1,966.84c15.9-11.45,31.29-23.55,46.15-36.27-33.98,11.98-68.83,21.32-104.25,27.93,19.23,3.59,38.6,6.37,58.1,8.34Z"/>
      <path class="cls-2" d="m808.1,966.84c15.9-11.45,31.29-23.55,46.15-36.27-33.98,11.98-68.83,21.32-104.25,27.93,19.23,3.59,38.6,6.37,58.1,8.34Z"/>
      <path class="cls-2" d="m808.1,533.16c15.9,11.45,31.29,23.55,46.15,36.27,18.45,6.51,36.62,13.78,54.49,21.83-9.46-21-19.98-41.56-31.52-61.6-23.13.02-46.19,1.19-69.11,3.5Z"/>
      <path class="cls-2" d="m808.1,533.16c15.9,11.45,31.29,23.55,46.15,36.27,18.45,6.51,36.62,13.78,54.49,21.83-9.46-21-19.98-41.56-31.52-61.6-23.13.02-46.19,1.19-69.11,3.5Z"/>
      <path class="cls-2" d="m808.1,533.16c15.9,11.45,31.29,23.55,46.15,36.27,18.45,6.51,36.62,13.78,54.49,21.83-9.46-21-19.98-41.56-31.52-61.6-23.13.02-46.19,1.19-69.11,3.5Z"/>
      <path class="cls-2" d="m808.1,533.16c15.9,11.45,31.29,23.55,46.15,36.27,18.45,6.51,36.62,13.78,54.49,21.83-9.46-21-19.98-41.56-31.52-61.6-23.13.02-46.19,1.19-69.11,3.5Z"/>
      <path class="cls-2" d="m691.9,966.84c-15.9-11.45-31.29-23.55-46.15-36.27-18.45-6.51-36.62-13.78-54.49-21.83,9.46,21.01,19.98,41.56,31.52,61.6,23.13-.02,46.19-1.19,69.11-3.5Z"/>
      <path class="cls-2" d="m691.9,966.84c-15.9-11.45-31.29-23.55-46.15-36.27-18.45-6.51-36.62-13.78-54.49-21.83,9.46,21.01,19.98,41.56,31.52,61.6,23.13-.02,46.19-1.19,69.11-3.5Z"/>
      <path class="cls-2" d="m691.9,966.84c-15.9-11.45-31.29-23.55-46.15-36.27-18.45-6.51-36.62-13.78-54.49-21.83,9.46,21.01,19.98,41.56,31.52,61.6,23.13-.02,46.19-1.19,69.11-3.5Z"/>
      <path class="cls-2" d="m691.9,966.84c-15.9-11.45-31.29-23.55-46.15-36.27-18.45-6.51-36.62-13.78-54.49-21.83,9.46,21.01,19.98,41.56,31.52,61.6,23.13-.02,46.19-1.19,69.11-3.5Z"/>
      <path class="cls-2" d="m691.9,966.84c19.5-1.97,38.87-4.75,58.1-8.34-35.42-6.61-70.27-15.95-104.25-27.93,14.86,12.72,30.25,24.82,46.15,36.27Z"/>
      <path class="cls-2" d="m691.9,966.84c19.5-1.97,38.87-4.75,58.1-8.34-35.42-6.61-70.27-15.95-104.25-27.93,14.86,12.72,30.25,24.82,46.15,36.27Z"/>
      <path class="cls-2" d="m691.9,966.84c19.5-1.97,38.87-4.75,58.1-8.34-35.42-6.61-70.27-15.95-104.25-27.93,14.86,12.72,30.25,24.82,46.15,36.27Z"/>
      <path class="cls-2" d="m691.9,966.84c19.5-1.97,38.87-4.75,58.1-8.34-35.42-6.61-70.27-15.95-104.25-27.93,14.86,12.72,30.25,24.82,46.15,36.27Z"/>
      <path class="cls-2" d="m691.9,966.84c19.5-1.97,38.87-4.75,58.1-8.34-35.42-6.61-70.27-15.95-104.25-27.93,14.86,12.72,30.25,24.82,46.15,36.27Z"/>
      <path class="cls-2" d="m808.1,533.16c-19.5,1.97-38.87,4.75-58.1,8.34,35.42,6.61,70.27,15.95,104.25,27.93-14.86-12.72-30.25-24.82-46.15-36.27Z"/>
      <path class="cls-2" d="m808.1,533.16c-19.5,1.97-38.87,4.75-58.1,8.34,35.42,6.61,70.27,15.95,104.25,27.93-14.86-12.72-30.25-24.82-46.15-36.27Z"/>
      <path class="cls-2" d="m808.1,533.16c-19.5,1.97-38.87,4.75-58.1,8.34,35.42,6.61,70.27,15.95,104.25,27.93-14.86-12.72-30.25-24.82-46.15-36.27Z"/>
      <path class="cls-2" d="m808.1,533.16c-19.5,1.97-38.87,4.75-58.1,8.34,35.42,6.61,70.27,15.95,104.25,27.93-14.86-12.72-30.25-24.82-46.15-36.27Z"/>
      <path class="cls-2" d="m808.1,533.16c-19.5,1.97-38.87,4.75-58.1,8.34,35.42,6.61,70.27,15.95,104.25,27.93-14.86-12.72-30.25-24.82-46.15-36.27Z"/>
      <path class="cls-2" d="m569.43,854.25c6.51,18.45,13.78,36.62,21.83,54.49,17.87,8.05,36.04,15.33,54.49,21.83-27.37-23.44-52.88-48.95-76.32-76.32Z"/>
      <path class="cls-2" d="m569.43,854.25c6.51,18.45,13.78,36.62,21.83,54.49,17.87,8.05,36.04,15.33,54.49,21.83-27.37-23.44-52.88-48.95-76.32-76.32Z"/>
      <path class="cls-2" d="m569.43,854.25c6.51,18.45,13.78,36.62,21.83,54.49,17.87,8.05,36.04,15.33,54.49,21.83-27.37-23.44-52.88-48.95-76.32-76.32Z"/>
      <path class="cls-2" d="m569.43,854.25c6.51,18.45,13.78,36.62,21.83,54.49,17.87,8.05,36.04,15.33,54.49,21.83-27.37-23.44-52.88-48.95-76.32-76.32Z"/>
      <path class="cls-2" d="m569.43,854.25c6.51,18.45,13.78,36.62,21.83,54.49,17.87,8.05,36.04,15.33,54.49,21.83-27.37-23.44-52.88-48.95-76.32-76.32Z"/>
      <path class="cls-2" d="m930.57,645.75c-6.51-18.45-13.78-36.62-21.83-54.49-17.87-8.05-36.04-15.32-54.49-21.83,27.37,23.44,52.88,48.95,76.32,76.32Z"/>
      <path class="cls-2" d="m930.57,645.75c-6.51-18.45-13.78-36.62-21.83-54.49-17.87-8.05-36.04-15.32-54.49-21.83,27.37,23.44,52.88,48.95,76.32,76.32Z"/>
      <path class="cls-2" d="m930.57,645.75c-6.51-18.45-13.78-36.62-21.83-54.49-17.87-8.05-36.04-15.32-54.49-21.83,27.37,23.44,52.88,48.95,76.32,76.32Z"/>
      <path class="cls-2" d="m930.57,645.75c-6.51-18.45-13.78-36.62-21.83-54.49-17.87-8.05-36.04-15.32-54.49-21.83,27.37,23.44,52.88,48.95,76.32,76.32Z"/>
      <path class="cls-2" d="m930.57,645.75c-6.51-18.45-13.78-36.62-21.83-54.49-17.87-8.05-36.04-15.32-54.49-21.83,27.37,23.44,52.88,48.95,76.32,76.32Z"/>
      <path class="cls-2" d="m930.57,645.75c-23.44-27.37-48.95-52.88-76.32-76.32-33.98-11.98-68.83-21.32-104.25-27.93-35.42,6.61-70.27,15.95-104.25,27.93-27.37,23.44-52.88,48.95-76.32,76.32-11.98,33.98-21.32,68.83-27.93,104.25,6.61,35.42,15.95,70.27,27.93,104.25,23.44,27.37,48.95,52.88,76.32,76.32,33.98,11.98,68.83,21.32,104.25,27.93,35.42-6.61,70.27-15.95,104.25-27.93,27.37-23.44,52.88-48.95,76.32-76.32,11.98-33.98,21.32-68.83,27.93-104.25-6.61-35.42-15.95-70.27-27.93-104.25Z"/>
      <path class="cls-2" d="m930.57,645.75c-23.44-27.37-48.95-52.88-76.32-76.32-33.98-11.98-68.83-21.32-104.25-27.93-35.42,6.61-70.27,15.95-104.25,27.93-27.37,23.44-52.88,48.95-76.32,76.32-11.98,33.98-21.32,68.83-27.93,104.25,6.61,35.42,15.95,70.27,27.93,104.25,23.44,27.37,48.95,52.88,76.32,76.32,33.98,11.98,68.83,21.32,104.25,27.93,35.42-6.61,70.27-15.95,104.25-27.93,27.37-23.44,52.88-48.95,76.32-76.32,11.98-33.98,21.32-68.83,27.93-104.25-6.61-35.42-15.95-70.27-27.93-104.25Z"/>
      <path class="cls-2" d="m930.57,645.75c-23.44-27.37-48.95-52.88-76.32-76.32-33.98-11.98-68.83-21.32-104.25-27.93-35.42,6.61-70.27,15.95-104.25,27.93-27.37,23.44-52.88,48.95-76.32,76.32-11.98,33.98-21.32,68.83-27.93,104.25,6.61,35.42,15.95,70.27,27.93,104.25,23.44,27.37,48.95,52.88,76.32,76.32,33.98,11.98,68.83,21.32,104.25,27.93,35.42-6.61,70.27-15.95,104.25-27.93,27.37-23.44,52.88-48.95,76.32-76.32,11.98-33.98,21.32-68.83,27.93-104.25-6.61-35.42-15.95-70.27-27.93-104.25Z"/>
      <path class="cls-2" d="m930.57,645.75c-23.44-27.37-48.95-52.88-76.32-76.32-33.98-11.98-68.83-21.32-104.25-27.93-35.42,6.61-70.27,15.95-104.25,27.93-27.37,23.44-52.88,48.95-76.32,76.32-11.98,33.98-21.32,68.83-27.93,104.25,6.61,35.42,15.95,70.27,27.93,104.25,23.44,27.37,48.95,52.88,76.32,76.32,33.98,11.98,68.83,21.32,104.25,27.93,35.42-6.61,70.27-15.95,104.25-27.93,27.37-23.44,52.88-48.95,76.32-76.32,11.98-33.98,21.32-68.83,27.93-104.25-6.61-35.42-15.95-70.27-27.93-104.25Z"/>
      <path class="cls-2" d="m930.57,645.75c-23.44-27.37-48.95-52.88-76.32-76.32-33.98-11.98-68.83-21.32-104.25-27.93-35.42,6.61-70.27,15.95-104.25,27.93-27.37,23.44-52.88,48.95-76.32,76.32-11.98,33.98-21.32,68.83-27.93,104.25,6.61,35.42,15.95,70.27,27.93,104.25,23.44,27.37,48.95,52.88,76.32,76.32,33.98,11.98,68.83,21.32,104.25,27.93,35.42-6.61,70.27-15.95,104.25-27.93,27.37-23.44,52.88-48.95,76.32-76.32,11.98-33.98,21.32-68.83,27.93-104.25-6.61-35.42-15.95-70.27-27.93-104.25Z"/>
      <path class="cls-2" d="m930.57,645.75c-23.44-27.37-48.95-52.88-76.32-76.32-33.98-11.98-68.83-21.32-104.25-27.93-35.42,6.61-70.27,15.95-104.25,27.93-27.37,23.44-52.88,48.95-76.32,76.32-11.98,33.98-21.32,68.83-27.93,104.25,6.61,35.42,15.95,70.27,27.93,104.25,23.44,27.37,48.95,52.88,76.32,76.32,33.98,11.98,68.83,21.32,104.25,27.93,35.42-6.61,70.27-15.95,104.25-27.93,27.37-23.44,52.88-48.95,76.32-76.32,11.98-33.98,21.32-68.83,27.93-104.25-6.61-35.42-15.95-70.27-27.93-104.25Z"/>
    </g>
    <circle class="cls-1" cx="750" cy="750" r="215"/>
  </g>
  <g>
    <g>
      <path class="cls-4" d="m449.52,229.57c-79.91-18.5-163.03-28.6-248.56-28.6h0c0,85.53,10.1,168.66,28.6,248.56,59.69-18.21,120.17-31.35,180.92-39.05,7.7-60.75,20.84-121.23,39.04-180.92Z"/>
      <path class="cls-4" d="m1050.48,1270.43c79.91,18.5,163.03,28.6,248.56,28.6h0c0-85.53-10.1-168.66-28.6-248.56-59.69,18.21-120.17,31.35-180.92,39.05-7.7,60.75-20.84,121.23-39.04,180.92Z"/>
      <path class="cls-4" d="m1350.95,750c-42.59,45.61-88.4,87.23-137.16,124.28,23.71,56.46,42.57,115.41,56.64,176.2,78.45-23.93,155.49-56.75,229.56-99.51h0c-42.77-74.07-93.08-141.01-149.05-200.96Z"/>
      <path class="cls-4" d="m286.21,625.73c-23.71-56.46-42.57-115.41-56.64-176.2C151.11,473.46,74.07,506.27,0,549.04h0,0c42.77,74.07,93.08,141.01,149.05,200.96,42.58-45.61,88.4-87.23,137.16-124.27Z"/>
      <path class="cls-4" d="m402.06,549.12c-.05-46.15,2.57-92.45,8.42-138.64-60.75,7.7-121.23,20.84-180.92,39.05,14.08,60.79,32.94,119.74,56.64,176.2,37.07-28.16,75.86-53.58,115.85-76.61Z"/>
      <path class="cls-4" d="m402.06,549.12c-.05-46.15,2.57-92.45,8.42-138.64-60.75,7.7-121.23,20.84-180.92,39.05,14.08,60.79,32.94,119.74,56.64,176.2,37.07-28.16,75.86-53.58,115.85-76.61Z"/>
      <path class="cls-4" d="m1097.94,950.88c.05,46.15-2.57,92.45-8.42,138.63,60.75-7.7,121.23-20.84,180.92-39.05-14.07-60.79-32.94-119.74-56.64-176.2-37.07,28.16-75.86,53.58-115.85,76.61Z"/>
      <path class="cls-4" d="m1097.94,950.88c.05,46.15-2.57,92.45-8.42,138.63,60.75-7.7,121.23-20.84,180.92-39.05-14.07-60.79-32.94-119.74-56.64-176.2-37.07,28.16-75.86,53.58-115.85,76.61Z"/>
      <path class="cls-4" d="m1350.95,750c55.97-59.95,106.28-126.89,149.05-200.96h0,0c-74.07-42.77-151.11-75.58-229.56-99.51-14.07,60.79-32.94,119.74-56.64,176.2,48.76,37.04,94.57,78.66,137.16,124.27Z"/>
      <path class="cls-4" d="m149.05,750C93.08,809.95,42.77,876.89,0,950.96h0,0c74.07,42.77,151.11,75.58,229.56,99.51,14.07-60.79,32.94-119.74,56.64-176.2-48.76-37.04-94.57-78.66-137.16-124.27Z"/>
      <path class="cls-4" d="m286.21,874.27c18.02-42.93,38.91-84.32,62.02-124.27-23.12-39.95-44-81.35-62.02-124.27-48.76,37.04-94.57,78.66-137.16,124.27,42.59,45.61,88.4,87.23,137.16,124.27Z"/>
      <path class="cls-4" d="m286.21,874.27c18.02-42.93,38.91-84.32,62.02-124.27-23.12-39.95-44-81.35-62.02-124.27-48.76,37.04-94.57,78.66-137.16,124.27,42.59,45.61,88.4,87.23,137.16,124.27Z"/>
      <path class="cls-4" d="m1213.79,625.72c-18.02,42.93-38.9,84.33-62.02,124.27,23.12,39.95,44,81.35,62.02,124.27,48.76-37.04,94.57-78.67,137.16-124.28-42.59-45.61-88.4-87.23-137.16-124.27Z"/>
      <path class="cls-4" d="m1213.79,625.72c-18.02,42.93-38.9,84.33-62.02,124.27,23.12,39.95,44,81.35,62.02,124.27,48.76-37.04,94.57-78.67,137.16-124.28-42.59-45.61-88.4-87.23-137.16-124.27Z"/>
      <path class="cls-4" d="m402.06,549.12c-39.99,23.04-78.78,48.45-115.85,76.61,18.02,42.93,38.91,84.32,62.02,124.27,18.3-31.62,38.1-62.23,59.35-91.75-3.65-36.2-5.49-72.61-5.53-109.13Z"/>
      <path class="cls-4" d="m402.06,549.12c-39.99,23.04-78.78,48.45-115.85,76.61,18.02,42.93,38.91,84.32,62.02,124.27,18.3-31.62,38.1-62.23,59.35-91.75-3.65-36.2-5.49-72.61-5.53-109.13Z"/>
      <path class="cls-4" d="m402.06,549.12c-39.99,23.04-78.78,48.45-115.85,76.61,18.02,42.93,38.91,84.32,62.02,124.27,18.3-31.62,38.1-62.23,59.35-91.75-3.65-36.2-5.49-72.61-5.53-109.13Z"/>
      <path class="cls-4" d="m1092.42,841.75c3.65,36.19,5.49,72.6,5.53,109.13,40-23.04,78.78-48.45,115.85-76.61-18.02-42.93-38.91-84.32-62.02-124.27-18.3,31.62-38.1,62.23-59.35,91.75Z"/>
      <path class="cls-4" d="m1092.42,841.75c3.65,36.19,5.49,72.6,5.53,109.13,40-23.04,78.78-48.45,115.85-76.61-18.02-42.93-38.91-84.32-62.02-124.27-18.3,31.62-38.1,62.23-59.35,91.75Z"/>
      <path class="cls-4" d="m1092.42,841.75c3.65,36.19,5.49,72.6,5.53,109.13,40-23.04,78.78-48.45,115.85-76.61-18.02-42.93-38.91-84.32-62.02-124.27-18.3,31.62-38.1,62.23-59.35,91.75Z"/>
      <path class="cls-4" d="m229.57,1050.48c-18.5,79.91-28.6,163.03-28.6,248.56h0c85.53,0,168.66-10.1,248.56-28.6-18.21-59.69-31.35-120.17-39.05-180.92-60.75-7.7-121.23-20.84-180.92-39.05Z"/>
      <path class="cls-4" d="m1270.44,449.52c18.5-79.91,28.6-163.03,28.6-248.56h0s0,0,0,0c-85.53,0-168.66,10.1-248.56,28.6,18.21,59.69,31.35,120.17,39.05,180.92,60.75,7.7,121.23,20.84,180.92,39.04Z"/>
      <path class="cls-4" d="m1097.94,549.11c40,23.04,78.78,48.45,115.85,76.61,23.71-56.46,42.57-115.41,56.64-176.2-59.69-18.21-120.17-31.35-180.92-39.04,5.85,46.19,8.47,92.48,8.42,138.63Z"/>
      <path class="cls-4" d="m1097.94,549.11c40,23.04,78.78,48.45,115.85,76.61,23.71-56.46,42.57-115.41,56.64-176.2-59.69-18.21-120.17-31.35-180.92-39.04,5.85,46.19,8.47,92.48,8.42,138.63Z"/>
      <path class="cls-4" d="m402.06,950.89c-40-23.04-78.78-48.45-115.85-76.61-23.71,56.46-42.57,115.41-56.64,176.2,59.69,18.21,120.17,31.35,180.92,39.05-5.85-46.19-8.47-92.48-8.42-138.64Z"/>
      <path class="cls-4" d="m402.06,950.89c-40-23.04-78.78-48.45-115.85-76.61-23.71,56.46-42.57,115.41-56.64,176.2,59.69,18.21,120.17,31.35,180.92,39.05-5.85-46.19-8.47-92.48-8.42-138.64Z"/>
      <path class="cls-4" d="m1092.42,658.25c21.26,29.52,41.06,60.13,59.35,91.75,23.12-39.95,44-81.35,62.02-124.27-37.07-28.16-75.86-53.57-115.85-76.61-.04,36.53-1.88,72.94-5.53,109.14Z"/>
      <path class="cls-4" d="m1092.42,658.25c21.26,29.52,41.06,60.13,59.35,91.75,23.12-39.95,44-81.35,62.02-124.27-37.07-28.16-75.86-53.57-115.85-76.61-.04,36.53-1.88,72.94-5.53,109.14Z"/>
      <path class="cls-4" d="m1092.42,658.25c21.26,29.52,41.06,60.13,59.35,91.75,23.12-39.95,44-81.35,62.02-124.27-37.07-28.16-75.86-53.57-115.85-76.61-.04,36.53-1.88,72.94-5.53,109.14Z"/>
      <path class="cls-4" d="m407.58,841.75c-21.26-29.52-41.06-60.13-59.35-91.75-23.12,39.95-44,81.35-62.02,124.27,37.07,28.16,75.86,53.57,115.85,76.61.04-36.53,1.88-72.94,5.53-109.13Z"/>
      <path class="cls-4" d="m407.58,841.75c-21.26-29.52-41.06-60.13-59.35-91.75-23.12,39.95-44,81.35-62.02,124.27,37.07,28.16,75.86,53.57,115.85,76.61.04-36.53,1.88-72.94,5.53-109.13Z"/>
      <path class="cls-4" d="m407.58,841.75c-21.26-29.52-41.06-60.13-59.35-91.75-23.12,39.95-44,81.35-62.02,124.27,37.07,28.16,75.86,53.57,115.85,76.61.04-36.53,1.88-72.94,5.53-109.13Z"/>
      <path class="cls-4" d="m420.75,750c-5.67-30.36-10.06-60.96-13.17-91.75-21.26,29.52-41.06,60.13-59.35,91.75,18.3,31.62,38.1,62.23,59.35,91.75,3.1-30.79,7.5-61.39,13.17-91.75Z"/>
      <path class="cls-4" d="m420.75,750c-5.67-30.36-10.06-60.96-13.17-91.75-21.26,29.52-41.06,60.13-59.35,91.75,18.3,31.62,38.1,62.23,59.35,91.75,3.1-30.79,7.5-61.39,13.17-91.75Z"/>
      <path class="cls-4" d="m420.75,750c-5.67-30.36-10.06-60.96-13.17-91.75-21.26,29.52-41.06,60.13-59.35,91.75,18.3,31.62,38.1,62.23,59.35,91.75,3.1-30.79,7.5-61.39,13.17-91.75Z"/>
      <path class="cls-4" d="m420.75,750c-5.67-30.36-10.06-60.96-13.17-91.75-21.26,29.52-41.06,60.13-59.35,91.75,18.3,31.62,38.1,62.23,59.35,91.75,3.1-30.79,7.5-61.39,13.17-91.75Z"/>
      <path class="cls-4" d="m1079.25,750c5.67,30.36,10.06,60.96,13.17,91.75,21.26-29.52,41.06-60.13,59.35-91.75-18.3-31.62-38.1-62.23-59.35-91.75-3.1,30.79-7.5,61.39-13.17,91.75Z"/>
      <path class="cls-4" d="m1079.25,750c5.67,30.36,10.06,60.96,13.17,91.75,21.26-29.52,41.06-60.13,59.35-91.75-18.3-31.62-38.1-62.23-59.35-91.75-3.1,30.79-7.5,61.39-13.17,91.75Z"/>
      <path class="cls-4" d="m1079.25,750c5.67,30.36,10.06,60.96,13.17,91.75,21.26-29.52,41.06-60.13,59.35-91.75-18.3-31.62-38.1-62.23-59.35-91.75-3.1,30.79-7.5,61.39-13.17,91.75Z"/>
      <path class="cls-4" d="m1079.25,750c5.67,30.36,10.06,60.96,13.17,91.75,21.26-29.52,41.06-60.13,59.35-91.75-18.3-31.62-38.1-62.23-59.35-91.75-3.1,30.79-7.5,61.39-13.17,91.75Z"/>
      <path class="cls-4" d="m625.73,1213.79c-56.46,23.71-115.41,42.57-176.2,56.64,23.93,78.45,56.75,155.49,99.51,229.56h0s0,0,0,0c74.07-42.77,141.01-93.08,200.96-149.05-45.61-42.58-87.23-88.39-124.27-137.15Z"/>
      <path class="cls-4" d="m874.27,286.21c56.46-23.71,115.41-42.57,176.2-56.64C1026.54,151.11,993.73,74.07,950.96,0h0s0,0,0,0c-74.07,42.76-141.01,93.08-200.96,149.05,45.61,42.58,87.23,88.39,124.27,137.15Z"/>
      <path class="cls-4" d="m549.12,1097.94c-46.16.05-92.45-2.57-138.63-8.42,7.7,60.75,20.84,121.23,39.05,180.92,60.79-14.08,119.74-32.94,176.2-56.64-28.16-37.07-53.58-75.86-76.61-115.85Z"/>
      <path class="cls-4" d="m549.12,1097.94c-46.16.05-92.45-2.57-138.63-8.42,7.7,60.75,20.84,121.23,39.05,180.92,60.79-14.08,119.74-32.94,176.2-56.64-28.16-37.07-53.58-75.86-76.61-115.85Z"/>
      <path class="cls-4" d="m950.88,402.06c46.16-.05,92.45,2.57,138.63,8.42-7.7-60.75-20.84-121.23-39.05-180.92-60.79,14.08-119.74,32.94-176.2,56.64,28.16,37.07,53.58,75.85,76.61,115.85Z"/>
      <path class="cls-4" d="m950.88,402.06c46.16-.05,92.45,2.57,138.63,8.42-7.7-60.75-20.84-121.23-39.05-180.92-60.79,14.08-119.74,32.94-176.2,56.64,28.16,37.07,53.58,75.85,76.61,115.85Z"/>
      <path class="cls-4" d="m1097.94,549.11c.05-46.15-2.57-92.45-8.42-138.63-46.19-5.85-92.48-8.47-138.63-8.42,18.23,31.65,34.84,64.11,49.78,97.28,33.17,14.94,65.62,31.55,97.28,49.78Z"/>
      <path class="cls-4" d="m1097.94,549.11c.05-46.15-2.57-92.45-8.42-138.63-46.19-5.85-92.48-8.47-138.63-8.42,18.23,31.65,34.84,64.11,49.78,97.28,33.17,14.94,65.62,31.55,97.28,49.78Z"/>
      <path class="cls-4" d="m1097.94,549.11c.05-46.15-2.57-92.45-8.42-138.63-46.19-5.85-92.48-8.47-138.63-8.42,18.23,31.65,34.84,64.11,49.78,97.28,33.17,14.94,65.62,31.55,97.28,49.78Z"/>
      <path class="cls-4" d="m402.06,950.89c-.05,46.15,2.57,92.45,8.42,138.64,46.19,5.85,92.48,8.47,138.63,8.42-18.23-31.65-34.84-64.11-49.78-97.28-33.17-14.94-65.62-31.55-97.28-49.78Z"/>
      <path class="cls-4" d="m402.06,950.89c-.05,46.15,2.57,92.45,8.42,138.64,46.19,5.85,92.48,8.47,138.63,8.42-18.23-31.65-34.84-64.11-49.78-97.28-33.17-14.94-65.62-31.55-97.28-49.78Z"/>
      <path class="cls-4" d="m402.06,950.89c-.05,46.15,2.57,92.45,8.42,138.64,46.19,5.85,92.48,8.47,138.63,8.42-18.23-31.65-34.84-64.11-49.78-97.28-33.17-14.94-65.62-31.55-97.28-49.78Z"/>
      <path class="cls-4" d="m464.86,914.62c-20.09-23.46-39.19-47.76-57.28-72.87-3.65,36.2-5.49,72.61-5.53,109.13,31.65,18.23,64.11,34.84,97.28,49.78-12.71-28.22-24.2-56.91-34.47-86.04Z"/>
      <path class="cls-4" d="m464.86,914.62c-20.09-23.46-39.19-47.76-57.28-72.87-3.65,36.2-5.49,72.61-5.53,109.13,31.65,18.23,64.11,34.84,97.28,49.78-12.71-28.22-24.2-56.91-34.47-86.04Z"/>
      <path class="cls-4" d="m464.86,914.62c-20.09-23.46-39.19-47.76-57.28-72.87-3.65,36.2-5.49,72.61-5.53,109.13,31.65,18.23,64.11,34.84,97.28,49.78-12.71-28.22-24.2-56.91-34.47-86.04Z"/>
      <path class="cls-4" d="m464.86,914.62c-20.09-23.46-39.19-47.76-57.28-72.87-3.65,36.2-5.49,72.61-5.53,109.13,31.65,18.23,64.11,34.84,97.28,49.78-12.71-28.22-24.2-56.91-34.47-86.04Z"/>
      <path class="cls-4" d="m1035.14,585.37c20.09,23.46,39.19,47.76,57.28,72.88,3.65-36.2,5.49-72.61,5.53-109.14-31.65-18.23-64.11-34.84-97.28-49.78,12.71,28.22,24.2,56.91,34.47,86.04Z"/>
      <path class="cls-4" d="m1035.14,585.37c20.09,23.46,39.19,47.76,57.28,72.88,3.65-36.2,5.49-72.61,5.53-109.14-31.65-18.23-64.11-34.84-97.28-49.78,12.71,28.22,24.2,56.91,34.47,86.04Z"/>
      <path class="cls-4" d="m1035.14,585.37c20.09,23.46,39.19,47.76,57.28,72.88,3.65-36.2,5.49-72.61,5.53-109.14-31.65-18.23-64.11-34.84-97.28-49.78,12.71,28.22,24.2,56.91,34.47,86.04Z"/>
      <path class="cls-4" d="m1035.14,585.37c20.09,23.46,39.19,47.76,57.28,72.88,3.65-36.2,5.49-72.61,5.53-109.14-31.65-18.23-64.11-34.84-97.28-49.78,12.71,28.22,24.2,56.91,34.47,86.04Z"/>
      <path class="cls-4" d="m407.58,841.75c18.08,25.11,37.19,49.41,57.28,72.87-18.92-53.66-33.67-108.69-44.11-164.62-5.67,30.36-10.06,60.96-13.17,91.75Z"/>
      <path class="cls-4" d="m407.58,841.75c18.08,25.11,37.19,49.41,57.28,72.87-18.92-53.66-33.67-108.69-44.11-164.62-5.67,30.36-10.06,60.96-13.17,91.75Z"/>
      <path class="cls-4" d="m407.58,841.75c18.08,25.11,37.19,49.41,57.28,72.87-18.92-53.66-33.67-108.69-44.11-164.62-5.67,30.36-10.06,60.96-13.17,91.75Z"/>
      <path class="cls-4" d="m407.58,841.75c18.08,25.11,37.19,49.41,57.28,72.87-18.92-53.66-33.67-108.69-44.11-164.62-5.67,30.36-10.06,60.96-13.17,91.75Z"/>
      <path class="cls-4" d="m407.58,841.75c18.08,25.11,37.19,49.41,57.28,72.87-18.92-53.66-33.67-108.69-44.11-164.62-5.67,30.36-10.06,60.96-13.17,91.75Z"/>
      <path class="cls-4" d="m1092.42,658.25c-18.08-25.11-37.19-49.41-57.28-72.88,18.92,53.66,33.67,108.69,44.11,164.63,5.67-30.36,10.06-60.96,13.17-91.75Z"/>
      <path class="cls-4" d="m1092.42,658.25c-18.08-25.11-37.19-49.41-57.28-72.88,18.92,53.66,33.67,108.69,44.11,164.63,5.67-30.36,10.06-60.96,13.17-91.75Z"/>
      <path class="cls-4" d="m1092.42,658.25c-18.08-25.11-37.19-49.41-57.28-72.88,18.92,53.66,33.67,108.69,44.11,164.63,5.67-30.36,10.06-60.96,13.17-91.75Z"/>
      <path class="cls-4" d="m1092.42,658.25c-18.08-25.11-37.19-49.41-57.28-72.88,18.92,53.66,33.67,108.69,44.11,164.63,5.67-30.36,10.06-60.96,13.17-91.75Z"/>
      <path class="cls-4" d="m1092.42,658.25c-18.08-25.11-37.19-49.41-57.28-72.88,18.92,53.66,33.67,108.69,44.11,164.63,5.67-30.36,10.06-60.96,13.17-91.75Z"/>
      <path class="cls-4" d="m750,149.05C690.05,93.08,623.11,42.77,549.04,0h0c-42.77,74.07-75.58,151.11-99.51,229.56,60.79,14.08,119.74,32.94,176.2,56.64,37.04-48.76,78.66-94.57,124.27-137.16Z"/>
      <path class="cls-4" d="m750,1350.95c59.95,55.97,126.89,106.28,200.96,149.05h0c42.77-74.07,75.58-151.11,99.51-229.56-60.79-14.07-119.74-32.94-176.2-56.64-37.04,48.76-78.66,94.57-124.27,137.16Z"/>
      <path class="cls-4" d="m950.89,1097.94c-23.04,40-48.45,78.78-76.61,115.85,56.46,23.71,115.41,42.57,176.2,56.64,18.21-59.69,31.35-120.17,39.04-180.92-46.19,5.85-92.48,8.47-138.63,8.42Z"/>
      <path class="cls-4" d="m950.89,1097.94c-23.04,40-48.45,78.78-76.61,115.85,56.46,23.71,115.41,42.57,176.2,56.64,18.21-59.69,31.35-120.17,39.04-180.92-46.19,5.85-92.48,8.47-138.63,8.42Z"/>
      <path class="cls-4" d="m549.11,402.06c23.04-40,48.45-78.78,76.61-115.85-56.46-23.71-115.41-42.57-176.2-56.64-18.21,59.69-31.35,120.17-39.04,180.92,46.19-5.85,92.48-8.47,138.63-8.42Z"/>
      <path class="cls-4" d="m549.11,402.06c23.04-40,48.45-78.78,76.61-115.85-56.46-23.71-115.41-42.57-176.2-56.64-18.21,59.69-31.35,120.17-39.04,180.92,46.19-5.85,92.48-8.47,138.63-8.42Z"/>
      <path class="cls-4" d="m950.89,1097.94c46.16.05,92.45-2.57,138.63-8.42,5.85-46.19,8.47-92.48,8.42-138.63-31.65,18.23-64.11,34.84-97.28,49.78-14.94,33.17-31.55,65.62-49.78,97.28Z"/>
      <path class="cls-4" d="m950.89,1097.94c46.16.05,92.45-2.57,138.63-8.42,5.85-46.19,8.47-92.48,8.42-138.63-31.65,18.23-64.11,34.84-97.28,49.78-14.94,33.17-31.55,65.62-49.78,97.28Z"/>
      <path class="cls-4" d="m950.89,1097.94c46.16.05,92.45-2.57,138.63-8.42,5.85-46.19,8.47-92.48,8.42-138.63-31.65,18.23-64.11,34.84-97.28,49.78-14.94,33.17-31.55,65.62-49.78,97.28Z"/>
      <path class="cls-4" d="m549.11,402.06c-46.15-.05-92.45,2.57-138.63,8.42-5.85,46.19-8.47,92.48-8.42,138.64,31.65-18.23,64.11-34.84,97.28-49.78,14.94-33.17,31.55-65.62,49.78-97.28Z"/>
      <path class="cls-4" d="m549.11,402.06c-46.15-.05-92.45,2.57-138.63,8.42-5.85,46.19-8.47,92.48-8.42,138.64,31.65-18.23,64.11-34.84,97.28-49.78,14.94-33.17,31.55-65.62,49.78-97.28Z"/>
      <path class="cls-4" d="m549.11,402.06c-46.15-.05-92.45,2.57-138.63,8.42-5.85,46.19-8.47,92.48-8.42,138.64,31.65-18.23,64.11-34.84,97.28-49.78,14.94-33.17,31.55-65.62,49.78-97.28Z"/>
      <path class="cls-4" d="m407.58,658.25c18.08-25.11,37.19-49.41,57.28-72.87,10.27-29.13,21.77-57.82,34.47-86.04-33.17,14.94-65.62,31.55-97.28,49.78.04,36.53,1.88,72.94,5.53,109.13Z"/>
      <path class="cls-4" d="m407.58,658.25c18.08-25.11,37.19-49.41,57.28-72.87,10.27-29.13,21.77-57.82,34.47-86.04-33.17,14.94-65.62,31.55-97.28,49.78.04,36.53,1.88,72.94,5.53,109.13Z"/>
      <path class="cls-4" d="m407.58,658.25c18.08-25.11,37.19-49.41,57.28-72.87,10.27-29.13,21.77-57.82,34.47-86.04-33.17,14.94-65.62,31.55-97.28,49.78.04,36.53,1.88,72.94,5.53,109.13Z"/>
      <path class="cls-4" d="m407.58,658.25c18.08-25.11,37.19-49.41,57.28-72.87,10.27-29.13,21.77-57.82,34.47-86.04-33.17,14.94-65.62,31.55-97.28,49.78.04,36.53,1.88,72.94,5.53,109.13Z"/>
      <path class="cls-4" d="m1092.42,841.75c-18.08,25.11-37.19,49.41-57.28,72.87-10.27,29.13-21.77,57.82-34.47,86.04,33.17-14.94,65.62-31.55,97.28-49.78-.04-36.53-1.88-72.94-5.53-109.13Z"/>
      <path class="cls-4" d="m1092.42,841.75c-18.08,25.11-37.19,49.41-57.28,72.87-10.27,29.13-21.77,57.82-34.47,86.04,33.17-14.94,65.62-31.55,97.28-49.78-.04-36.53-1.88-72.94-5.53-109.13Z"/>
      <path class="cls-4" d="m1092.42,841.75c-18.08,25.11-37.19,49.41-57.28,72.87-10.27,29.13-21.77,57.82-34.47,86.04,33.17-14.94,65.62-31.55,97.28-49.78-.04-36.53-1.88-72.94-5.53-109.13Z"/>
      <path class="cls-4" d="m1092.42,841.75c-18.08,25.11-37.19,49.41-57.28,72.87-10.27,29.13-21.77,57.82-34.47,86.04,33.17-14.94,65.62-31.55,97.28-49.78-.04-36.53-1.88-72.94-5.53-109.13Z"/>
      <path class="cls-4" d="m1035.14,914.62c20.09-23.46,39.19-47.76,57.28-72.87-3.1-30.79-7.5-61.39-13.17-91.75-10.44,55.93-25.19,110.96-44.11,164.62Z"/>
      <path class="cls-4" d="m1035.14,914.62c20.09-23.46,39.19-47.76,57.28-72.87-3.1-30.79-7.5-61.39-13.17-91.75-10.44,55.93-25.19,110.96-44.11,164.62Z"/>
      <path class="cls-4" d="m1035.14,914.62c20.09-23.46,39.19-47.76,57.28-72.87-3.1-30.79-7.5-61.39-13.17-91.75-10.44,55.93-25.19,110.96-44.11,164.62Z"/>
      <path class="cls-4" d="m1035.14,914.62c20.09-23.46,39.19-47.76,57.28-72.87-3.1-30.79-7.5-61.39-13.17-91.75-10.44,55.93-25.19,110.96-44.11,164.62Z"/>
      <path class="cls-4" d="m1035.14,914.62c20.09-23.46,39.19-47.76,57.28-72.87-3.1-30.79-7.5-61.39-13.17-91.75-10.44,55.93-25.19,110.96-44.11,164.62Z"/>
      <path class="cls-4" d="m407.58,658.25c3.1,30.79,7.5,61.39,13.17,91.75,10.44-55.93,25.19-110.96,44.11-164.62-20.09,23.46-39.19,47.76-57.28,72.87Z"/>
      <path class="cls-4" d="m407.58,658.25c3.1,30.79,7.5,61.39,13.17,91.75,10.44-55.93,25.19-110.96,44.11-164.62-20.09,23.46-39.19,47.76-57.28,72.87Z"/>
      <path class="cls-4" d="m407.58,658.25c3.1,30.79,7.5,61.39,13.17,91.75,10.44-55.93,25.19-110.96,44.11-164.62-20.09,23.46-39.19,47.76-57.28,72.87Z"/>
      <path class="cls-4" d="m407.58,658.25c3.1,30.79,7.5,61.39,13.17,91.75,10.44-55.93,25.19-110.96,44.11-164.62-20.09,23.46-39.19,47.76-57.28,72.87Z"/>
      <path class="cls-4" d="m407.58,658.25c3.1,30.79,7.5,61.39,13.17,91.75,10.44-55.93,25.19-110.96,44.11-164.62-20.09,23.46-39.19,47.76-57.28,72.87Z"/>
      <path class="cls-4" d="m625.72,286.21c42.93,18.02,84.33,38.9,124.27,62.02,39.95-23.12,81.34-44,124.27-62.02-37.04-48.76-78.66-94.57-124.27-137.15-45.61,42.58-87.23,88.4-124.27,137.16Z"/>
      <path class="cls-4" d="m625.72,286.21c42.93,18.02,84.33,38.9,124.27,62.02,39.95-23.12,81.34-44,124.27-62.02-37.04-48.76-78.66-94.57-124.27-137.15-45.61,42.58-87.23,88.4-124.27,137.16Z"/>
      <path class="cls-4" d="m874.28,1213.79c-42.93-18.03-84.32-38.91-124.27-62.02-39.95,23.12-81.35,44-124.27,62.02,37.04,48.76,78.66,94.57,124.27,137.15,45.61-42.58,87.23-88.4,124.27-137.16Z"/>
      <path class="cls-4" d="m874.28,1213.79c-42.93-18.03-84.32-38.91-124.27-62.02-39.95,23.12-81.35,44-124.27,62.02,37.04,48.76,78.66,94.57,124.27,137.15,45.61-42.58,87.23-88.4,124.27-137.16Z"/>
      <path class="cls-4" d="m841.75,1092.41c-29.52,21.26-60.13,41.06-91.75,59.35,39.95,23.12,81.35,44,124.27,62.02,28.16-37.07,53.57-75.85,76.61-115.85-36.53-.04-72.94-1.88-109.14-5.53Z"/>
      <path class="cls-4" d="m841.75,1092.41c-29.52,21.26-60.13,41.06-91.75,59.35,39.95,23.12,81.35,44,124.27,62.02,28.16-37.07,53.57-75.85,76.61-115.85-36.53-.04-72.94-1.88-109.14-5.53Z"/>
      <path class="cls-4" d="m841.75,1092.41c-29.52,21.26-60.13,41.06-91.75,59.35,39.95,23.12,81.35,44,124.27,62.02,28.16-37.07,53.57-75.85,76.61-115.85-36.53-.04-72.94-1.88-109.14-5.53Z"/>
      <path class="cls-4" d="m658.25,407.58c29.52-21.26,60.13-41.06,91.75-59.35-39.95-23.12-81.35-44-124.27-62.02-28.16,37.07-53.57,75.85-76.61,115.85,36.53.04,72.94,1.88,109.14,5.53Z"/>
      <path class="cls-4" d="m658.25,407.58c29.52-21.26,60.13-41.06,91.75-59.35-39.95-23.12-81.35-44-124.27-62.02-28.16,37.07-53.57,75.85-76.61,115.85,36.53.04,72.94,1.88,109.14,5.53Z"/>
      <path class="cls-4" d="m658.25,407.58c29.52-21.26,60.13-41.06,91.75-59.35-39.95-23.12-81.35-44-124.27-62.02-28.16,37.07-53.57,75.85-76.61,115.85,36.53.04,72.94,1.88,109.14,5.53Z"/>
      <path class="cls-4" d="m585.37,464.86c23.46-20.09,47.76-39.19,72.87-57.28-36.2-3.65-72.61-5.49-109.14-5.53-18.23,31.65-34.84,64.11-49.78,97.28,28.22-12.71,56.91-24.2,86.04-34.47Z"/>
      <path class="cls-4" d="m585.37,464.86c23.46-20.09,47.76-39.19,72.87-57.28-36.2-3.65-72.61-5.49-109.14-5.53-18.23,31.65-34.84,64.11-49.78,97.28,28.22-12.71,56.91-24.2,86.04-34.47Z"/>
      <path class="cls-4" d="m585.37,464.86c23.46-20.09,47.76-39.19,72.87-57.28-36.2-3.65-72.61-5.49-109.14-5.53-18.23,31.65-34.84,64.11-49.78,97.28,28.22-12.71,56.91-24.2,86.04-34.47Z"/>
      <path class="cls-4" d="m585.37,464.86c23.46-20.09,47.76-39.19,72.87-57.28-36.2-3.65-72.61-5.49-109.14-5.53-18.23,31.65-34.84,64.11-49.78,97.28,28.22-12.71,56.91-24.2,86.04-34.47Z"/>
      <path class="cls-4" d="m914.63,1035.14c-23.46,20.09-47.76,39.19-72.87,57.28,36.2,3.65,72.61,5.49,109.14,5.53,18.23-31.65,34.84-64.11,49.78-97.28-28.22,12.71-56.91,24.2-86.04,34.47Z"/>
      <path class="cls-4" d="m914.63,1035.14c-23.46,20.09-47.76,39.19-72.87,57.28,36.2,3.65,72.61,5.49,109.14,5.53,18.23-31.65,34.84-64.11,49.78-97.28-28.22,12.71-56.91,24.2-86.04,34.47Z"/>
      <path class="cls-4" d="m914.63,1035.14c-23.46,20.09-47.76,39.19-72.87,57.28,36.2,3.65,72.61,5.49,109.14,5.53,18.23-31.65,34.84-64.11,49.78-97.28-28.22,12.71-56.91,24.2-86.04,34.47Z"/>
      <path class="cls-4" d="m914.63,1035.14c-23.46,20.09-47.76,39.19-72.87,57.28,36.2,3.65,72.61,5.49,109.14,5.53,18.23-31.65,34.84-64.11,49.78-97.28-28.22,12.71-56.91,24.2-86.04,34.47Z"/>
      <path class="cls-4" d="m585.37,464.86c-29.13,10.27-57.82,21.77-86.04,34.47-12.71,28.22-24.2,56.91-34.47,86.04,37.01-43.22,77.3-83.51,120.51-120.51Z"/>
      <path class="cls-4" d="m585.37,464.86c-29.13,10.27-57.82,21.77-86.04,34.47-12.71,28.22-24.2,56.91-34.47,86.04,37.01-43.22,77.3-83.51,120.51-120.51Z"/>
      <path class="cls-4" d="m585.37,464.86c-29.13,10.27-57.82,21.77-86.04,34.47-12.71,28.22-24.2,56.91-34.47,86.04,37.01-43.22,77.3-83.51,120.51-120.51Z"/>
      <path class="cls-4" d="m585.37,464.86c-29.13,10.27-57.82,21.77-86.04,34.47-12.71,28.22-24.2,56.91-34.47,86.04,37.01-43.22,77.3-83.51,120.51-120.51Z"/>
      <path class="cls-4" d="m585.37,464.86c-29.13,10.27-57.82,21.77-86.04,34.47-12.71,28.22-24.2,56.91-34.47,86.04,37.01-43.22,77.3-83.51,120.51-120.51Z"/>
      <path class="cls-4" d="m914.63,1035.14c29.13-10.27,57.82-21.77,86.04-34.47,12.71-28.22,24.2-56.91,34.47-86.04-37.01,43.22-77.29,83.5-120.51,120.51Z"/>
      <path class="cls-4" d="m914.63,1035.14c29.13-10.27,57.82-21.77,86.04-34.47,12.71-28.22,24.2-56.91,34.47-86.04-37.01,43.22-77.29,83.5-120.51,120.51Z"/>
      <path class="cls-4" d="m914.63,1035.14c29.13-10.27,57.82-21.77,86.04-34.47,12.71-28.22,24.2-56.91,34.47-86.04-37.01,43.22-77.29,83.5-120.51,120.51Z"/>
      <path class="cls-4" d="m914.63,1035.14c29.13-10.27,57.82-21.77,86.04-34.47,12.71-28.22,24.2-56.91,34.47-86.04-37.01,43.22-77.29,83.5-120.51,120.51Z"/>
      <path class="cls-4" d="m914.63,1035.14c29.13-10.27,57.82-21.77,86.04-34.47,12.71-28.22,24.2-56.91,34.47-86.04-37.01,43.22-77.29,83.5-120.51,120.51Z"/>
      <path class="cls-4" d="m549.12,1097.94c23.04,40,48.45,78.78,76.61,115.85,42.93-18.03,84.32-38.91,124.27-62.02-31.62-18.3-62.23-38.09-91.75-59.35-36.2,3.65-72.61,5.49-109.13,5.53Z"/>
      <path class="cls-4" d="m549.12,1097.94c23.04,40,48.45,78.78,76.61,115.85,42.93-18.03,84.32-38.91,124.27-62.02-31.62-18.3-62.23-38.09-91.75-59.35-36.2,3.65-72.61,5.49-109.13,5.53Z"/>
      <path class="cls-4" d="m549.12,1097.94c23.04,40,48.45,78.78,76.61,115.85,42.93-18.03,84.32-38.91,124.27-62.02-31.62-18.3-62.23-38.09-91.75-59.35-36.2,3.65-72.61,5.49-109.13,5.53Z"/>
      <path class="cls-4" d="m950.88,402.06c-23.04-40-48.45-78.78-76.61-115.85-42.93,18.03-84.32,38.9-124.27,62.02,31.62,18.3,62.23,38.1,91.75,59.35,36.2-3.65,72.61-5.49,109.13-5.53Z"/>
      <path class="cls-4" d="m950.88,402.06c-23.04-40-48.45-78.78-76.61-115.85-42.93,18.03-84.32,38.9-124.27,62.02,31.62,18.3,62.23,38.1,91.75,59.35,36.2-3.65,72.61-5.49,109.13-5.53Z"/>
      <path class="cls-4" d="m950.88,402.06c-23.04-40-48.45-78.78-76.61-115.85-42.93,18.03-84.32,38.9-124.27,62.02,31.62,18.3,62.23,38.1,91.75,59.35,36.2-3.65,72.61-5.49,109.13-5.53Z"/>
      <path class="cls-4" d="m750,1079.25c-30.36,5.67-60.96,10.06-91.75,13.17,29.52,21.26,60.13,41.06,91.75,59.35,31.62-18.3,62.23-38.09,91.75-59.35-30.79-3.1-61.39-7.5-91.75-13.17Z"/>
      <path class="cls-4" d="m750,1079.25c-30.36,5.67-60.96,10.06-91.75,13.17,29.52,21.26,60.13,41.06,91.75,59.35,31.62-18.3,62.23-38.09,91.75-59.35-30.79-3.1-61.39-7.5-91.75-13.17Z"/>
      <path class="cls-4" d="m750,1079.25c-30.36,5.67-60.96,10.06-91.75,13.17,29.52,21.26,60.13,41.06,91.75,59.35,31.62-18.3,62.23-38.09,91.75-59.35-30.79-3.1-61.39-7.5-91.75-13.17Z"/>
      <path class="cls-4" d="m750,1079.25c-30.36,5.67-60.96,10.06-91.75,13.17,29.52,21.26,60.13,41.06,91.75,59.35,31.62-18.3,62.23-38.09,91.75-59.35-30.79-3.1-61.39-7.5-91.75-13.17Z"/>
      <path class="cls-4" d="m750,420.75c30.36-5.67,60.96-10.06,91.75-13.17-29.52-21.26-60.13-41.06-91.75-59.35-31.62,18.3-62.23,38.1-91.75,59.35,30.79,3.11,61.39,7.5,91.75,13.17Z"/>
      <path class="cls-4" d="m750,420.75c30.36-5.67,60.96-10.06,91.75-13.17-29.52-21.26-60.13-41.06-91.75-59.35-31.62,18.3-62.23,38.1-91.75,59.35,30.79,3.11,61.39,7.5,91.75,13.17Z"/>
      <path class="cls-4" d="m750,420.75c30.36-5.67,60.96-10.06,91.75-13.17-29.52-21.26-60.13-41.06-91.75-59.35-31.62,18.3-62.23,38.1-91.75,59.35,30.79,3.11,61.39,7.5,91.75,13.17Z"/>
      <path class="cls-4" d="m750,420.75c30.36-5.67,60.96-10.06,91.75-13.17-29.52-21.26-60.13-41.06-91.75-59.35-31.62,18.3-62.23,38.1-91.75,59.35,30.79,3.11,61.39,7.5,91.75,13.17Z"/>
      <path class="cls-4" d="m658.25,407.58c-25.11,18.08-49.41,37.19-72.87,57.28,53.66-18.93,108.69-33.67,164.62-44.11-30.36-5.67-60.96-10.06-91.75-13.17Z"/>
      <path class="cls-4" d="m658.25,407.58c-25.11,18.08-49.41,37.19-72.87,57.28,53.66-18.93,108.69-33.67,164.62-44.11-30.36-5.67-60.96-10.06-91.75-13.17Z"/>
      <path class="cls-4" d="m658.25,407.58c-25.11,18.08-49.41,37.19-72.87,57.28,53.66-18.93,108.69-33.67,164.62-44.11-30.36-5.67-60.96-10.06-91.75-13.17Z"/>
      <path class="cls-4" d="m658.25,407.58c-25.11,18.08-49.41,37.19-72.87,57.28,53.66-18.93,108.69-33.67,164.62-44.11-30.36-5.67-60.96-10.06-91.75-13.17Z"/>
      <path class="cls-4" d="m658.25,407.58c-25.11,18.08-49.41,37.19-72.87,57.28,53.66-18.93,108.69-33.67,164.62-44.11-30.36-5.67-60.96-10.06-91.75-13.17Z"/>
      <path class="cls-4" d="m841.75,1092.41c25.11-18.08,49.41-37.19,72.87-57.28-53.66,18.92-108.69,33.67-164.62,44.11,30.36,5.67,60.96,10.06,91.75,13.17Z"/>
      <path class="cls-4" d="m841.75,1092.41c25.11-18.08,49.41-37.19,72.87-57.28-53.66,18.92-108.69,33.67-164.62,44.11,30.36,5.67,60.96,10.06,91.75,13.17Z"/>
      <path class="cls-4" d="m841.75,1092.41c25.11-18.08,49.41-37.19,72.87-57.28-53.66,18.92-108.69,33.67-164.62,44.11,30.36,5.67,60.96,10.06,91.75,13.17Z"/>
      <path class="cls-4" d="m841.75,1092.41c25.11-18.08,49.41-37.19,72.87-57.28-53.66,18.92-108.69,33.67-164.62,44.11,30.36,5.67,60.96,10.06,91.75,13.17Z"/>
      <path class="cls-4" d="m841.75,1092.41c25.11-18.08,49.41-37.19,72.87-57.28-53.66,18.92-108.69,33.67-164.62,44.11,30.36,5.67,60.96,10.06,91.75,13.17Z"/>
      <path class="cls-4" d="m841.75,407.58c25.11,18.08,49.41,37.19,72.87,57.28,29.13,10.27,57.82,21.77,86.04,34.47-14.94-33.17-31.55-65.62-49.78-97.28-36.53.04-72.94,1.88-109.13,5.53Z"/>
      <path class="cls-4" d="m841.75,407.58c25.11,18.08,49.41,37.19,72.87,57.28,29.13,10.27,57.82,21.77,86.04,34.47-14.94-33.17-31.55-65.62-49.78-97.28-36.53.04-72.94,1.88-109.13,5.53Z"/>
      <path class="cls-4" d="m841.75,407.58c25.11,18.08,49.41,37.19,72.87,57.28,29.13,10.27,57.82,21.77,86.04,34.47-14.94-33.17-31.55-65.62-49.78-97.28-36.53.04-72.94,1.88-109.13,5.53Z"/>
      <path class="cls-4" d="m841.75,407.58c25.11,18.08,49.41,37.19,72.87,57.28,29.13,10.27,57.82,21.77,86.04,34.47-14.94-33.17-31.55-65.62-49.78-97.28-36.53.04-72.94,1.88-109.13,5.53Z"/>
      <path class="cls-4" d="m658.25,1092.42c-25.11-18.08-49.41-37.19-72.87-57.28-29.13-10.27-57.82-21.77-86.04-34.47,14.94,33.17,31.55,65.62,49.78,97.28,36.53-.04,72.94-1.88,109.13-5.53Z"/>
      <path class="cls-4" d="m658.25,1092.42c-25.11-18.08-49.41-37.19-72.87-57.28-29.13-10.27-57.82-21.77-86.04-34.47,14.94,33.17,31.55,65.62,49.78,97.28,36.53-.04,72.94-1.88,109.13-5.53Z"/>
      <path class="cls-4" d="m658.25,1092.42c-25.11-18.08-49.41-37.19-72.87-57.28-29.13-10.27-57.82-21.77-86.04-34.47,14.94,33.17,31.55,65.62,49.78,97.28,36.53-.04,72.94-1.88,109.13-5.53Z"/>
      <path class="cls-4" d="m658.25,1092.42c-25.11-18.08-49.41-37.19-72.87-57.28-29.13-10.27-57.82-21.77-86.04-34.47,14.94,33.17,31.55,65.62,49.78,97.28,36.53-.04,72.94-1.88,109.13-5.53Z"/>
      <path class="cls-4" d="m658.25,1092.42c30.79-3.1,61.39-7.5,91.75-13.17-55.93-10.44-110.96-25.19-164.62-44.11,23.46,20.09,47.76,39.19,72.87,57.28Z"/>
      <path class="cls-4" d="m658.25,1092.42c30.79-3.1,61.39-7.5,91.75-13.17-55.93-10.44-110.96-25.19-164.62-44.11,23.46,20.09,47.76,39.19,72.87,57.28Z"/>
      <path class="cls-4" d="m658.25,1092.42c30.79-3.1,61.39-7.5,91.75-13.17-55.93-10.44-110.96-25.19-164.62-44.11,23.46,20.09,47.76,39.19,72.87,57.28Z"/>
      <path class="cls-4" d="m658.25,1092.42c30.79-3.1,61.39-7.5,91.75-13.17-55.93-10.44-110.96-25.19-164.62-44.11,23.46,20.09,47.76,39.19,72.87,57.28Z"/>
      <path class="cls-4" d="m658.25,1092.42c30.79-3.1,61.39-7.5,91.75-13.17-55.93-10.44-110.96-25.19-164.62-44.11,23.46,20.09,47.76,39.19,72.87,57.28Z"/>
      <path class="cls-4" d="m841.75,407.58c-30.79,3.1-61.39,7.5-91.75,13.17,55.93,10.44,110.96,25.19,164.62,44.11-23.46-20.09-47.76-39.19-72.87-57.28Z"/>
      <path class="cls-4" d="m841.75,407.58c-30.79,3.1-61.39,7.5-91.75,13.17,55.93,10.44,110.96,25.19,164.62,44.11-23.46-20.09-47.76-39.19-72.87-57.28Z"/>
      <path class="cls-4" d="m841.75,407.58c-30.79,3.1-61.39,7.5-91.75,13.17,55.93,10.44,110.96,25.19,164.62,44.11-23.46-20.09-47.76-39.19-72.87-57.28Z"/>
      <path class="cls-4" d="m841.75,407.58c-30.79,3.1-61.39,7.5-91.75,13.17,55.93,10.44,110.96,25.19,164.62,44.11-23.46-20.09-47.76-39.19-72.87-57.28Z"/>
      <path class="cls-4" d="m841.75,407.58c-30.79,3.1-61.39,7.5-91.75,13.17,55.93,10.44,110.96,25.19,164.62,44.11-23.46-20.09-47.76-39.19-72.87-57.28Z"/>
      <path class="cls-4" d="m464.86,914.62c10.27,29.13,21.77,57.82,34.47,86.04,28.22,12.71,56.91,24.2,86.04,34.47-43.22-37.01-83.5-77.29-120.51-120.51Z"/>
      <path class="cls-4" d="m464.86,914.62c10.27,29.13,21.77,57.82,34.47,86.04,28.22,12.71,56.91,24.2,86.04,34.47-43.22-37.01-83.5-77.29-120.51-120.51Z"/>
      <path class="cls-4" d="m464.86,914.62c10.27,29.13,21.77,57.82,34.47,86.04,28.22,12.71,56.91,24.2,86.04,34.47-43.22-37.01-83.5-77.29-120.51-120.51Z"/>
      <path class="cls-4" d="m464.86,914.62c10.27,29.13,21.77,57.82,34.47,86.04,28.22,12.71,56.91,24.2,86.04,34.47-43.22-37.01-83.5-77.29-120.51-120.51Z"/>
      <path class="cls-4" d="m464.86,914.62c10.27,29.13,21.77,57.82,34.47,86.04,28.22,12.71,56.91,24.2,86.04,34.47-43.22-37.01-83.5-77.29-120.51-120.51Z"/>
      <path class="cls-4" d="m1035.14,585.37c-10.27-29.13-21.77-57.82-34.47-86.04-28.22-12.71-56.91-24.2-86.04-34.47,43.22,37.01,83.5,77.29,120.51,120.51Z"/>
      <path class="cls-4" d="m1035.14,585.37c-10.27-29.13-21.77-57.82-34.47-86.04-28.22-12.71-56.91-24.2-86.04-34.47,43.22,37.01,83.5,77.29,120.51,120.51Z"/>
      <path class="cls-4" d="m1035.14,585.37c-10.27-29.13-21.77-57.82-34.47-86.04-28.22-12.71-56.91-24.2-86.04-34.47,43.22,37.01,83.5,77.29,120.51,120.51Z"/>
      <path class="cls-4" d="m1035.14,585.37c-10.27-29.13-21.77-57.82-34.47-86.04-28.22-12.71-56.91-24.2-86.04-34.47,43.22,37.01,83.5,77.29,120.51,120.51Z"/>
      <path class="cls-4" d="m1035.14,585.37c-10.27-29.13-21.77-57.82-34.47-86.04-28.22-12.71-56.91-24.2-86.04-34.47,43.22,37.01,83.5,77.29,120.51,120.51Z"/>
      <path class="cls-4" d="m1035.14,585.37c-37.01-43.22-77.3-83.5-120.51-120.51-53.66-18.92-108.69-33.67-164.62-44.11-55.93,10.44-110.96,25.19-164.62,44.11-43.22,37.01-83.5,77.29-120.51,120.51-18.92,53.66-33.67,108.69-44.11,164.62,10.44,55.93,25.19,110.96,44.11,164.62,37.01,43.22,77.3,83.5,120.51,120.51,53.66,18.92,108.69,33.67,164.62,44.11,55.93-10.44,110.96-25.19,164.62-44.11,43.22-37.01,83.5-77.3,120.51-120.51,18.92-53.66,33.67-108.69,44.11-164.62-10.44-55.93-25.19-110.96-44.11-164.63Z"/>
      <path class="cls-4" d="m1035.14,585.37c-37.01-43.22-77.3-83.5-120.51-120.51-53.66-18.92-108.69-33.67-164.62-44.11-55.93,10.44-110.96,25.19-164.62,44.11-43.22,37.01-83.5,77.29-120.51,120.51-18.92,53.66-33.67,108.69-44.11,164.62,10.44,55.93,25.19,110.96,44.11,164.62,37.01,43.22,77.3,83.5,120.51,120.51,53.66,18.92,108.69,33.67,164.62,44.11,55.93-10.44,110.96-25.19,164.62-44.11,43.22-37.01,83.5-77.3,120.51-120.51,18.92-53.66,33.67-108.69,44.11-164.62-10.44-55.93-25.19-110.96-44.11-164.63Z"/>
      <path class="cls-4" d="m1035.14,585.37c-37.01-43.22-77.3-83.5-120.51-120.51-53.66-18.92-108.69-33.67-164.62-44.11-55.93,10.44-110.96,25.19-164.62,44.11-43.22,37.01-83.5,77.29-120.51,120.51-18.92,53.66-33.67,108.69-44.11,164.62,10.44,55.93,25.19,110.96,44.11,164.62,37.01,43.22,77.3,83.5,120.51,120.51,53.66,18.92,108.69,33.67,164.62,44.11,55.93-10.44,110.96-25.19,164.62-44.11,43.22-37.01,83.5-77.3,120.51-120.51,18.92-53.66,33.67-108.69,44.11-164.62-10.44-55.93-25.19-110.96-44.11-164.63Z"/>
      <path class="cls-4" d="m1035.14,585.37c-37.01-43.22-77.3-83.5-120.51-120.51-53.66-18.92-108.69-33.67-164.62-44.11-55.93,10.44-110.96,25.19-164.62,44.11-43.22,37.01-83.5,77.29-120.51,120.51-18.92,53.66-33.67,108.69-44.11,164.62,10.44,55.93,25.19,110.96,44.11,164.62,37.01,43.22,77.3,83.5,120.51,120.51,53.66,18.92,108.69,33.67,164.62,44.11,55.93-10.44,110.96-25.19,164.62-44.11,43.22-37.01,83.5-77.3,120.51-120.51,18.92-53.66,33.67-108.69,44.11-164.62-10.44-55.93-25.19-110.96-44.11-164.63Z"/>
      <path class="cls-4" d="m1035.14,585.37c-37.01-43.22-77.3-83.5-120.51-120.51-53.66-18.92-108.69-33.67-164.62-44.11-55.93,10.44-110.96,25.19-164.62,44.11-43.22,37.01-83.5,77.29-120.51,120.51-18.92,53.66-33.67,108.69-44.11,164.62,10.44,55.93,25.19,110.96,44.11,164.62,37.01,43.22,77.3,83.5,120.51,120.51,53.66,18.92,108.69,33.67,164.62,44.11,55.93-10.44,110.96-25.19,164.62-44.11,43.22-37.01,83.5-77.3,120.51-120.51,18.92-53.66,33.67-108.69,44.11-164.62-10.44-55.93-25.19-110.96-44.11-164.63Z"/>
      <path class="cls-4" d="m1035.14,585.37c-37.01-43.22-77.3-83.5-120.51-120.51-53.66-18.92-108.69-33.67-164.62-44.11-55.93,10.44-110.96,25.19-164.62,44.11-43.22,37.01-83.5,77.29-120.51,120.51-18.92,53.66-33.67,108.69-44.11,164.62,10.44,55.93,25.19,110.96,44.11,164.62,37.01,43.22,77.3,83.5,120.51,120.51,53.66,18.92,108.69,33.67,164.62,44.11,55.93-10.44,110.96-25.19,164.62-44.11,43.22-37.01,83.5-77.3,120.51-120.51,18.92-53.66,33.67-108.69,44.11-164.62-10.44-55.93-25.19-110.96-44.11-164.63Z"/>
    </g>
    <circle class="cls-3" cx="750" cy="750" r="339.52"/>
  </g>
</svg>