<?xml version="1.0" encoding="UTF-8"?>
<svg id="Calque_1" data-name="Calque 1" xmlns="http://www.w3.org/2000/svg" viewBox="0 0 1500 1500">
  <defs>
    <style>
      .cls-1 {
        fill: #f2f2f2;
        opacity: .5;
      }
    </style>
  </defs>
  <path class="cls-1" d="m1075.21,1390.33c8.11,14.05,26.08,18.87,40.13,10.75l15.85-9.15c14.05-8.11,18.87-26.08,10.75-40.13l-137.65-238.42c-20.97,14.7-43.27,27.64-66.69,38.59l137.61,238.35Z"/>
  <path class="cls-1" d="m424.79,109.67c-8.11-14.05-26.08-18.87-40.13-10.75l-15.85,9.15c-14.05,8.11-18.87,26.08-10.75,40.13l137.65,238.42c20.97-14.7,43.27-27.64,66.69-38.59l-137.62-238.36Z"/>
  <path class="cls-1" d="m1351.8,1141.94c14.05,8.11,32.02,3.3,40.13-10.75l9.15-15.85c8.11-14.05,3.3-32.02-10.75-40.13l-238.35-137.61c-10.95,23.42-23.89,45.72-38.59,66.69l238.42,137.65Z"/>
  <path class="cls-1" d="m148.2,358.06c-14.05-8.11-32.02-3.3-40.13,10.75l-9.15,15.85c-8.11,14.05-3.3,32.02,10.75,40.13l238.36,137.62c10.95-23.42,23.89-45.72,38.59-66.69l-238.42-137.65Z"/>
  <path class="cls-1" d="m1467.15,711.47h-275.31c1.09,12.7,1.66,25.55,1.66,38.53s-.56,25.83-1.66,38.53h275.31c16.23,0,29.38-13.15,29.38-29.38v-18.3c0-16.22-13.15-29.38-29.38-29.38Z"/>
  <path class="cls-1" d="m308.17,711.47H32.85c-16.22,0-29.38,13.15-29.38,29.38v18.3c0,16.22,13.15,29.38,29.38,29.38h275.32c-1.09-12.7-1.66-25.55-1.66-38.53s.56-25.83,1.66-38.53Z"/>
  <path class="cls-1" d="m1390.33,424.79c14.05-8.11,18.87-26.08,10.75-40.13l-9.15-15.85c-8.11-14.05-26.08-18.87-40.13-10.75l-238.41,137.65c14.7,20.97,27.64,43.27,38.59,66.69l238.35-137.61Z"/>
  <path class="cls-1" d="m109.67,1075.21c-14.05,8.11-18.87,26.08-10.75,40.13l9.15,15.85c8.11,14.05,26.08,18.87,40.13,10.75l238.42-137.65c-14.7-20.97-27.64-43.27-38.59-66.69l-238.36,137.62Z"/>
  <path class="cls-1" d="m1141.94,148.2c8.11-14.05,3.3-32.02-10.75-40.13l-15.85-9.15c-14.05-8.11-32.02-3.3-40.13,10.75l-137.61,238.35c23.42,10.95,45.72,23.89,66.69,38.59l137.65-238.42Z"/>
  <path class="cls-1" d="m358.06,1351.8c-8.11,14.05-3.3,32.02,10.75,40.13l15.85,9.15c14.05,8.11,32.02,3.3,40.13-10.75l137.62-238.36c-23.42-10.95-45.72-23.89-66.69-38.59l-137.65,238.42Z"/>
  <path class="cls-1" d="m788.53,308.17V32.85c0-16.22-13.15-29.38-29.38-29.38h-18.3c-16.22,0-29.38,13.15-29.38,29.38v275.31c12.7-1.09,25.55-1.66,38.53-1.66s25.83.56,38.52,1.66Z"/>
  <path class="cls-1" d="m711.47,1191.83v275.31c0,16.23,13.15,29.38,29.38,29.38h18.3c16.22,0,29.38-13.15,29.38-29.38v-275.31c-12.7,1.09-25.54,1.66-38.52,1.66s-25.83-.56-38.53-1.66Z"/>
  <path class="cls-1" d="m1004.29,1113.39c42.41-29.73,79.37-66.69,109.1-109.1l-258.13-149.03,149.03,258.13Z"/>
  <path class="cls-1" d="m711.47,308.17c-52.89,4.55-103.12,18.38-149.07,39.86l149.07,258.19v-298.05Z"/>
  <path class="cls-1" d="m1151.98,937.6c21.48-45.95,35.31-96.18,39.86-149.07h-298.05l258.2,149.07Z"/>
  <path class="cls-1" d="m937.6,348.02c-45.95-21.48-96.18-35.31-149.07-39.86v298.05l149.07-258.19Z"/>
  <path class="cls-1" d="m495.71,386.62c-42.4,29.73-79.37,66.69-109.09,109.1l258.12,149.03-149.03-258.12Z"/>
  <path class="cls-1" d="m1191.84,711.47c-4.55-52.89-18.38-103.12-39.86-149.07l-258.2,149.07h298.06Z"/>
  <path class="cls-1" d="m1113.39,495.71c-29.73-42.41-66.69-79.37-109.1-109.1l-149.03,258.13,258.13-149.03Z"/>
  <path class="cls-1" d="m386.62,1004.28c29.73,42.41,66.69,79.37,109.09,109.1l149.03-258.12-258.12,149.03Z"/>
  <path class="cls-1" d="m788.53,1191.83c52.89-4.55,103.12-18.38,149.07-39.86l-149.07-258.19v298.05Z"/>
  <path class="cls-1" d="m562.41,1151.97c45.94,21.48,96.18,35.31,149.07,39.86v-298.05l-149.07,258.19Z"/>
  <path class="cls-1" d="m308.17,788.53c4.55,52.89,18.38,103.12,39.86,149.06l258.19-149.06h-298.04Z"/>
  <path class="cls-1" d="m348.03,562.41c-21.48,45.94-35.31,96.18-39.86,149.06h298.04l-258.19-149.06Z"/>
  <path class="cls-1" d="m788.53,816.73v77.05l149.07,258.19c23.42-10.95,45.72-23.89,66.69-38.59l-149.03-258.13-66.73-38.53Z"/>
  <path class="cls-1" d="m788.53,816.73v77.05l149.07,258.19c23.42-10.95,45.72-23.89,66.69-38.59l-149.03-258.13-66.73-38.53Z"/>
  <path class="cls-1" d="m711.47,683.27v-77.05l-149.07-258.19c-23.42,10.95-45.72,23.89-66.69,38.59l149.03,258.12,66.73,38.53Z"/>
  <path class="cls-1" d="m711.47,683.27v-77.05l-149.07-258.19c-23.42,10.95-45.72,23.89-66.69,38.59l149.03,258.12,66.73,38.53Z"/>
  <path class="cls-1" d="m816.73,788.53l38.53,66.73,258.13,149.03c14.7-20.97,27.64-43.27,38.59-66.69l-258.2-149.07h-77.05Z"/>
  <path class="cls-1" d="m816.73,788.53l38.53,66.73,258.13,149.03c14.7-20.97,27.64-43.27,38.59-66.69l-258.2-149.07h-77.05Z"/>
  <polygon class="cls-1" points="788.53 816.73 855.26 855.26 816.73 788.53 788.53 788.53 788.53 816.73"/>
  <polygon class="cls-1" points="788.53 816.73 855.26 855.26 816.73 788.53 788.53 788.53 788.53 816.73"/>
  <polygon class="cls-1" points="788.53 816.73 855.26 855.26 816.73 788.53 788.53 788.53 788.53 816.73"/>
  <path class="cls-1" d="m683.27,711.47l-38.53-66.73-258.12-149.03c-14.7,20.97-27.64,43.27-38.59,66.69l258.19,149.06h77.05Z"/>
  <path class="cls-1" d="m683.27,711.47l-38.53-66.73-258.12-149.03c-14.7,20.97-27.64,43.27-38.59,66.69l258.19,149.06h77.05Z"/>
  <polygon class="cls-1" points="711.47 683.27 644.74 644.74 683.27 711.47 711.47 711.47 711.47 683.27"/>
  <polygon class="cls-1" points="711.47 683.27 644.74 644.74 683.27 711.47 711.47 711.47 711.47 683.27"/>
  <polygon class="cls-1" points="711.47 683.27 644.74 644.74 683.27 711.47 711.47 711.47 711.47 683.27"/>
  <path class="cls-1" d="m1191.84,711.47h-298.06l-66.73,38.53,66.73,38.53h298.05c1.09-12.7,1.66-25.55,1.66-38.53s-.56-25.83-1.66-38.53Z"/>
  <path class="cls-1" d="m1191.84,711.47h-298.06l-66.73,38.53,66.73,38.53h298.05c1.09-12.7,1.66-25.55,1.66-38.53s-.56-25.83-1.66-38.53Z"/>
  <polygon class="cls-1" points="816.73 788.53 893.79 788.53 827.05 750 802.63 764.1 816.73 788.53"/>
  <polygon class="cls-1" points="816.73 788.53 893.79 788.53 827.05 750 802.63 764.1 816.73 788.53"/>
  <polygon class="cls-1" points="816.73 788.53 893.79 788.53 827.05 750 802.63 764.1 816.73 788.53"/>
  <path class="cls-1" d="m794.71,768.68c-2.32,1.34-4.74,2.32-7.21,2.97.67,2.46,1.04,5.06,1.04,7.73v9.15h28.2l-14.1-24.43-7.92,4.57Z"/>
  <path class="cls-1" d="m794.71,768.68c-2.32,1.34-4.74,2.32-7.21,2.97.67,2.46,1.04,5.06,1.04,7.73v9.15h28.2l-14.1-24.43-7.92,4.57Z"/>
  <path class="cls-1" d="m794.71,768.68c-2.32,1.34-4.74,2.32-7.21,2.97.67,2.46,1.04,5.06,1.04,7.73v9.15h28.2l-14.1-24.43-7.92,4.57Z"/>
  <path class="cls-1" d="m794.71,768.68c-2.32,1.34-4.74,2.32-7.21,2.97.67,2.46,1.04,5.06,1.04,7.73v9.15h28.2l-14.1-24.43-7.92,4.57Z"/>
  <path class="cls-1" d="m672.95,750l-66.73-38.53h-298.04c-1.09,12.7-1.66,25.55-1.66,38.53s.56,25.83,1.66,38.53h298.04l66.73-38.53Z"/>
  <path class="cls-1" d="m672.95,750l-66.73-38.53h-298.04c-1.09,12.7-1.66,25.55-1.66,38.53s.56,25.83,1.66,38.53h298.04l66.73-38.53Z"/>
  <polygon class="cls-1" points="683.27 711.47 606.21 711.47 672.95 750 697.37 735.9 683.27 711.47"/>
  <polygon class="cls-1" points="683.27 711.47 606.21 711.47 672.95 750 697.37 735.9 683.27 711.47"/>
  <polygon class="cls-1" points="683.27 711.47 606.21 711.47 672.95 750 697.37 735.9 683.27 711.47"/>
  <path class="cls-1" d="m705.29,731.32c2.32-1.34,4.74-2.32,7.21-2.97-.67-2.46-1.04-5.06-1.04-7.73v-9.15h-28.2l14.1,24.43,7.92-4.57Z"/>
  <path class="cls-1" d="m705.29,731.32c2.32-1.34,4.74-2.32,7.21-2.97-.67-2.46-1.04-5.06-1.04-7.73v-9.15h-28.2l14.1,24.43,7.92-4.57Z"/>
  <path class="cls-1" d="m705.29,731.32c2.32-1.34,4.74-2.32,7.21-2.97-.67-2.46-1.04-5.06-1.04-7.73v-9.15h-28.2l14.1,24.43,7.92-4.57Z"/>
  <path class="cls-1" d="m705.29,731.32c2.32-1.34,4.74-2.32,7.21-2.97-.67-2.46-1.04-5.06-1.04-7.73v-9.15h-28.2l14.1,24.43,7.92-4.57Z"/>
  <path class="cls-1" d="m816.73,711.47h77.05l258.2-149.07c-10.95-23.42-23.89-45.72-38.59-66.69l-258.13,149.03-38.53,66.73Z"/>
  <path class="cls-1" d="m816.73,711.47h77.05l258.2-149.07c-10.95-23.42-23.89-45.72-38.59-66.69l-258.13,149.03-38.53,66.73Z"/>
  <polygon class="cls-1" points="802.63 735.9 827.05 750 893.78 711.47 816.73 711.47 802.63 735.9"/>
  <polygon class="cls-1" points="802.63 735.9 827.05 750 893.78 711.47 816.73 711.47 802.63 735.9"/>
  <polygon class="cls-1" points="802.63 735.9 827.05 750 893.78 711.47 816.73 711.47 802.63 735.9"/>
  <path class="cls-1" d="m798.05,743.82c-1.34,2.32-2.95,4.38-4.76,6.18,1.81,1.8,3.42,3.86,4.76,6.18l4.57,7.92,24.43-14.1-24.43-14.1-4.57,7.92Z"/>
  <path class="cls-1" d="m798.05,743.82c-1.34,2.32-2.95,4.38-4.76,6.18,1.81,1.8,3.42,3.86,4.76,6.18l4.57,7.92,24.43-14.1-24.43-14.1-4.57,7.92Z"/>
  <path class="cls-1" d="m798.05,743.82c-1.34,2.32-2.95,4.38-4.76,6.18,1.81,1.8,3.42,3.86,4.76,6.18l4.57,7.92,24.43-14.1-24.43-14.1-4.57,7.92Z"/>
  <path class="cls-1" d="m798.05,743.82c-1.34,2.32-2.95,4.38-4.76,6.18,1.81,1.8,3.42,3.86,4.76,6.18l4.57,7.92,24.43-14.1-24.43-14.1-4.57,7.92Z"/>
  <path class="cls-1" d="m787.49,771.65c2.47-.65,4.9-1.63,7.21-2.97l7.92-4.57-4.57-7.92c-1.34-2.32-2.95-4.38-4.76-6.18-3.97,3.94-8.93,6.59-14.22,7.79,3.99,3.69,6.96,8.46,8.43,13.86Z"/>
  <path class="cls-1" d="m787.49,771.65c2.47-.65,4.9-1.63,7.21-2.97l7.92-4.57-4.57-7.92c-1.34-2.32-2.95-4.38-4.76-6.18-3.97,3.94-8.93,6.59-14.22,7.79,3.99,3.69,6.96,8.46,8.43,13.86Z"/>
  <path class="cls-1" d="m787.49,771.65c2.47-.65,4.9-1.63,7.21-2.97l7.92-4.57-4.57-7.92c-1.34-2.32-2.95-4.38-4.76-6.18-3.97,3.94-8.93,6.59-14.22,7.79,3.99,3.69,6.96,8.46,8.43,13.86Z"/>
  <path class="cls-1" d="m787.49,771.65c2.47-.65,4.9-1.63,7.21-2.97l7.92-4.57-4.57-7.92c-1.34-2.32-2.95-4.38-4.76-6.18-3.97,3.94-8.93,6.59-14.22,7.79,3.99,3.69,6.96,8.46,8.43,13.86Z"/>
  <path class="cls-1" d="m787.49,771.65c2.47-.65,4.9-1.63,7.21-2.97l7.92-4.57-4.57-7.92c-1.34-2.32-2.95-4.38-4.76-6.18-3.97,3.94-8.93,6.59-14.22,7.79,3.99,3.69,6.96,8.46,8.43,13.86Z"/>
  <path class="cls-1" d="m683.27,788.53h-77.05l-258.19,149.06c10.95,23.42,23.89,45.72,38.59,66.69l258.12-149.03,38.53-66.73Z"/>
  <path class="cls-1" d="m683.27,788.53h-77.05l-258.19,149.06c10.95,23.42,23.89,45.72,38.59,66.69l258.12-149.03,38.53-66.73Z"/>
  <polygon class="cls-1" points="672.95 750 606.21 788.53 683.27 788.53 697.37 764.1 672.95 750"/>
  <polygon class="cls-1" points="672.95 750 606.21 788.53 683.27 788.53 697.37 764.1 672.95 750"/>
  <polygon class="cls-1" points="672.95 750 606.21 788.53 683.27 788.53 697.37 764.1 672.95 750"/>
  <path class="cls-1" d="m701.95,756.18c1.34-2.32,2.95-4.38,4.76-6.18-1.81-1.8-3.42-3.86-4.76-6.18l-4.57-7.92-24.43,14.1,24.43,14.1,4.57-7.92Z"/>
  <path class="cls-1" d="m701.95,756.18c1.34-2.32,2.95-4.38,4.76-6.18-1.81-1.8-3.42-3.86-4.76-6.18l-4.57-7.92-24.43,14.1,24.43,14.1,4.57-7.92Z"/>
  <path class="cls-1" d="m701.95,756.18c1.34-2.32,2.95-4.38,4.76-6.18-1.81-1.8-3.42-3.86-4.76-6.18l-4.57-7.92-24.43,14.1,24.43,14.1,4.57-7.92Z"/>
  <path class="cls-1" d="m701.95,756.18c1.34-2.32,2.95-4.38,4.76-6.18-1.81-1.8-3.42-3.86-4.76-6.18l-4.57-7.92-24.43,14.1,24.43,14.1,4.57-7.92Z"/>
  <path class="cls-1" d="m712.51,728.35c-2.47.65-4.9,1.63-7.21,2.97l-7.92,4.57,4.57,7.92c1.34,2.32,2.95,4.38,4.76,6.18,3.97-3.94,8.93-6.59,14.23-7.79-3.99-3.69-6.96-8.46-8.43-13.86Z"/>
  <path class="cls-1" d="m712.51,728.35c-2.47.65-4.9,1.63-7.21,2.97l-7.92,4.57,4.57,7.92c1.34,2.32,2.95,4.38,4.76,6.18,3.97-3.94,8.93-6.59,14.23-7.79-3.99-3.69-6.96-8.46-8.43-13.86Z"/>
  <path class="cls-1" d="m712.51,728.35c-2.47.65-4.9,1.63-7.21,2.97l-7.92,4.57,4.57,7.92c1.34,2.32,2.95,4.38,4.76,6.18,3.97-3.94,8.93-6.59,14.23-7.79-3.99-3.69-6.96-8.46-8.43-13.86Z"/>
  <path class="cls-1" d="m712.51,728.35c-2.47.65-4.9,1.63-7.21,2.97l-7.92,4.57,4.57,7.92c1.34,2.32,2.95,4.38,4.76,6.18,3.97-3.94,8.93-6.59,14.23-7.79-3.99-3.69-6.96-8.46-8.43-13.86Z"/>
  <path class="cls-1" d="m712.51,728.35c-2.47.65-4.9,1.63-7.21,2.97l-7.92,4.57,4.57,7.92c1.34,2.32,2.95,4.38,4.76,6.18,3.97-3.94,8.93-6.59,14.23-7.79-3.99-3.69-6.96-8.46-8.43-13.86Z"/>
  <path class="cls-1" d="m788.53,683.27l66.73-38.53,149.03-258.13c-20.97-14.7-43.27-27.64-66.69-38.59l-149.07,258.19v77.05Z"/>
  <path class="cls-1" d="m788.53,683.27l66.73-38.53,149.03-258.13c-20.97-14.7-43.27-27.64-66.69-38.59l-149.07,258.19v77.05Z"/>
  <polygon class="cls-1" points="816.73 711.47 855.26 644.74 788.53 683.27 788.53 711.47 816.73 711.47"/>
  <polygon class="cls-1" points="816.73 711.47 855.26 644.74 788.53 683.27 788.53 711.47 816.73 711.47"/>
  <polygon class="cls-1" points="816.73 711.47 855.26 644.74 788.53 683.27 788.53 711.47 816.73 711.47"/>
  <path class="cls-1" d="m788.53,720.62c0,2.68-.36,5.27-1.04,7.73,2.47.65,4.9,1.63,7.21,2.97l7.92,4.57,14.1-24.43h-28.2v9.15Z"/>
  <path class="cls-1" d="m788.53,720.62c0,2.68-.36,5.27-1.04,7.73,2.47.65,4.9,1.63,7.21,2.97l7.92,4.57,14.1-24.43h-28.2v9.15Z"/>
  <path class="cls-1" d="m788.53,720.62c0,2.68-.36,5.27-1.04,7.73,2.47.65,4.9,1.63,7.21,2.97l7.92,4.57,14.1-24.43h-28.2v9.15Z"/>
  <path class="cls-1" d="m788.53,720.62c0,2.68-.36,5.27-1.04,7.73,2.47.65,4.9,1.63,7.21,2.97l7.92,4.57,14.1-24.43h-28.2v9.15Z"/>
  <path class="cls-1" d="m787.49,728.35c-1.47,5.4-4.43,10.17-8.43,13.86,5.3,1.19,10.26,3.85,14.22,7.79,1.81-1.8,3.42-3.86,4.76-6.18l4.57-7.92-7.92-4.57c-2.32-1.34-4.74-2.32-7.21-2.97Z"/>
  <path class="cls-1" d="m787.49,728.35c-1.47,5.4-4.43,10.17-8.43,13.86,5.3,1.19,10.26,3.85,14.22,7.79,1.81-1.8,3.42-3.86,4.76-6.18l4.57-7.92-7.92-4.57c-2.32-1.34-4.74-2.32-7.21-2.97Z"/>
  <path class="cls-1" d="m787.49,728.35c-1.47,5.4-4.43,10.17-8.43,13.86,5.3,1.19,10.26,3.85,14.22,7.79,1.81-1.8,3.42-3.86,4.76-6.18l4.57-7.92-7.92-4.57c-2.32-1.34-4.74-2.32-7.21-2.97Z"/>
  <path class="cls-1" d="m787.49,728.35c-1.47,5.4-4.43,10.17-8.43,13.86,5.3,1.19,10.26,3.85,14.22,7.79,1.81-1.8,3.42-3.86,4.76-6.18l4.57-7.92-7.92-4.57c-2.32-1.34-4.74-2.32-7.21-2.97Z"/>
  <path class="cls-1" d="m787.49,728.35c-1.47,5.4-4.43,10.17-8.43,13.86,5.3,1.19,10.26,3.85,14.22,7.79,1.81-1.8,3.42-3.86,4.76-6.18l4.57-7.92-7.92-4.57c-2.32-1.34-4.74-2.32-7.21-2.97Z"/>
  <path class="cls-1" d="m759.15,750c7.69,0,14.68,2.96,19.92,7.79,5.3-1.19,10.26-3.85,14.22-7.79-3.97-3.94-8.93-6.59-14.22-7.79-5.24,4.83-12.23,7.79-19.92,7.79Z"/>
  <path class="cls-1" d="m759.15,750c7.69,0,14.68,2.96,19.92,7.79,5.3-1.19,10.26-3.85,14.22-7.79-3.97-3.94-8.93-6.59-14.22-7.79-5.24,4.83-12.23,7.79-19.92,7.79Z"/>
  <path class="cls-1" d="m759.15,750c7.69,0,14.68,2.96,19.92,7.79,5.3-1.19,10.26-3.85,14.22-7.79-3.97-3.94-8.93-6.59-14.22-7.79-5.24,4.83-12.23,7.79-19.92,7.79Z"/>
  <path class="cls-1" d="m759.15,750c7.69,0,14.68,2.96,19.92,7.79,5.3-1.19,10.26-3.85,14.22-7.79-3.97-3.94-8.93-6.59-14.22-7.79-5.24,4.83-12.23,7.79-19.92,7.79Z"/>
  <path class="cls-1" d="m759.15,750c7.69,0,14.68,2.96,19.92,7.79,5.3-1.19,10.26-3.85,14.22-7.79-3.97-3.94-8.93-6.59-14.22-7.79-5.24,4.83-12.23,7.79-19.92,7.79Z"/>
  <path class="cls-1" d="m759.15,750c7.69,0,14.68,2.96,19.92,7.79,5.3-1.19,10.26-3.85,14.22-7.79-3.97-3.94-8.93-6.59-14.22-7.79-5.24,4.83-12.23,7.79-19.92,7.79Z"/>
  <path class="cls-1" d="m711.47,816.73l-66.73,38.53-149.03,258.12c20.97,14.7,43.27,27.64,66.69,38.59l149.07-258.19v-77.05Z"/>
  <path class="cls-1" d="m711.47,816.73l-66.73,38.53-149.03,258.12c20.97,14.7,43.27,27.64,66.69,38.59l149.07-258.19v-77.05Z"/>
  <polygon class="cls-1" points="683.27 788.53 644.74 855.26 711.47 816.73 711.47 788.53 683.27 788.53"/>
  <polygon class="cls-1" points="683.27 788.53 644.74 855.26 711.47 816.73 711.47 788.53 683.27 788.53"/>
  <polygon class="cls-1" points="683.27 788.53 644.74 855.26 711.47 816.73 711.47 788.53 683.27 788.53"/>
  <path class="cls-1" d="m711.47,779.38c0-2.68.36-5.27,1.04-7.73-2.47-.65-4.9-1.63-7.21-2.97l-7.92-4.57-14.1,24.43h28.2v-9.15Z"/>
  <path class="cls-1" d="m711.47,779.38c0-2.68.36-5.27,1.04-7.73-2.47-.65-4.9-1.63-7.21-2.97l-7.92-4.57-14.1,24.43h28.2v-9.15Z"/>
  <path class="cls-1" d="m711.47,779.38c0-2.68.36-5.27,1.04-7.73-2.47-.65-4.9-1.63-7.21-2.97l-7.92-4.57-14.1,24.43h28.2v-9.15Z"/>
  <path class="cls-1" d="m711.47,779.38c0-2.68.36-5.27,1.04-7.73-2.47-.65-4.9-1.63-7.21-2.97l-7.92-4.57-14.1,24.43h28.2v-9.15Z"/>
  <path class="cls-1" d="m720.93,757.79c-5.3-1.19-10.26-3.85-14.23-7.79-1.81,1.8-3.42,3.86-4.76,6.18l-4.57,7.92,7.92,4.57c2.32,1.34,4.74,2.32,7.21,2.97,1.47-5.4,4.43-10.17,8.43-13.86Z"/>
  <path class="cls-1" d="m720.93,757.79c-5.3-1.19-10.26-3.85-14.23-7.79-1.81,1.8-3.42,3.86-4.76,6.18l-4.57,7.92,7.92,4.57c2.32,1.34,4.74,2.32,7.21,2.97,1.47-5.4,4.43-10.17,8.43-13.86Z"/>
  <path class="cls-1" d="m720.93,757.79c-5.3-1.19-10.26-3.85-14.23-7.79-1.81,1.8-3.42,3.86-4.76,6.18l-4.57,7.92,7.92,4.57c2.32,1.34,4.74,2.32,7.21,2.97,1.47-5.4,4.43-10.17,8.43-13.86Z"/>
  <path class="cls-1" d="m720.93,757.79c-5.3-1.19-10.26-3.85-14.23-7.79-1.81,1.8-3.42,3.86-4.76,6.18l-4.57,7.92,7.92,4.57c2.32,1.34,4.74,2.32,7.21,2.97,1.47-5.4,4.43-10.17,8.43-13.86Z"/>
  <path class="cls-1" d="m720.93,757.79c-5.3-1.19-10.26-3.85-14.23-7.79-1.81,1.8-3.42,3.86-4.76,6.18l-4.57,7.92,7.92,4.57c2.32,1.34,4.74,2.32,7.21,2.97,1.47-5.4,4.43-10.17,8.43-13.86Z"/>
  <path class="cls-1" d="m740.85,750c-7.69,0-14.68-2.96-19.92-7.79-5.3,1.19-10.26,3.85-14.23,7.79,3.97,3.94,8.93,6.59,14.23,7.79,5.24-4.83,12.23-7.79,19.92-7.79Z"/>
  <path class="cls-1" d="m740.85,750c-7.69,0-14.68-2.96-19.92-7.79-5.3,1.19-10.26,3.85-14.23,7.79,3.97,3.94,8.93,6.59,14.23,7.79,5.24-4.83,12.23-7.79,19.92-7.79Z"/>
  <path class="cls-1" d="m740.85,750c-7.69,0-14.68-2.96-19.92-7.79-5.3,1.19-10.26,3.85-14.23,7.79,3.97,3.94,8.93,6.59,14.23,7.79,5.24-4.83,12.23-7.79,19.92-7.79Z"/>
  <path class="cls-1" d="m740.85,750c-7.69,0-14.68-2.96-19.92-7.79-5.3,1.19-10.26,3.85-14.23,7.79,3.97,3.94,8.93,6.59,14.23,7.79,5.24-4.83,12.23-7.79,19.92-7.79Z"/>
  <path class="cls-1" d="m740.85,750c-7.69,0-14.68-2.96-19.92-7.79-5.3,1.19-10.26,3.85-14.23,7.79,3.97,3.94,8.93,6.59,14.23,7.79,5.24-4.83,12.23-7.79,19.92-7.79Z"/>
  <path class="cls-1" d="m740.85,750c-7.69,0-14.68-2.96-19.92-7.79-5.3,1.19-10.26,3.85-14.23,7.79,3.97,3.94,8.93,6.59,14.23,7.79,5.24-4.83,12.23-7.79,19.92-7.79Z"/>
  <path class="cls-1" d="m750,672.95l38.53-66.73v-298.05c-12.7-1.09-25.54-1.66-38.52-1.66s-25.83.56-38.53,1.66v298.05l38.53,66.73Z"/>
  <path class="cls-1" d="m750,672.95l38.53-66.73v-298.05c-12.7-1.09-25.54-1.66-38.52-1.66s-25.83.56-38.53,1.66v298.05l38.53,66.73Z"/>
  <polygon class="cls-1" points="750 672.95 711.47 606.21 711.47 683.27 735.9 697.37 750 672.95"/>
  <polygon class="cls-1" points="750 672.95 711.47 606.21 711.47 683.27 735.9 697.37 750 672.95"/>
  <polygon class="cls-1" points="750 672.95 711.47 606.21 711.47 683.27 735.9 697.37 750 672.95"/>
  <path class="cls-1" d="m720.62,711.47c2.68,0,5.27.37,7.73,1.04.65-2.47,1.63-4.9,2.97-7.21l4.57-7.92-24.43-14.1v28.2h9.15Z"/>
  <path class="cls-1" d="m720.62,711.47c2.68,0,5.27.37,7.73,1.04.65-2.47,1.63-4.9,2.97-7.21l4.57-7.92-24.43-14.1v28.2h9.15Z"/>
  <path class="cls-1" d="m720.62,711.47c2.68,0,5.27.37,7.73,1.04.65-2.47,1.63-4.9,2.97-7.21l4.57-7.92-24.43-14.1v28.2h9.15Z"/>
  <path class="cls-1" d="m720.62,711.47c2.68,0,5.27.37,7.73,1.04.65-2.47,1.63-4.9,2.97-7.21l4.57-7.92-24.43-14.1v28.2h9.15Z"/>
  <path class="cls-1" d="m728.72,728.72c-1.61-5.19-1.79-10.81-.37-16.21-2.46-.67-5.05-1.04-7.73-1.04h-9.15v9.15c0,2.68.36,5.27,1.04,7.73,5.41-1.43,11.03-1.25,16.21.37Z"/>
  <path class="cls-1" d="m728.72,728.72c-1.61-5.19-1.79-10.81-.37-16.21-2.46-.67-5.05-1.04-7.73-1.04h-9.15v9.15c0,2.68.36,5.27,1.04,7.73,5.41-1.43,11.03-1.25,16.21.37Z"/>
  <path class="cls-1" d="m728.72,728.72c-1.61-5.19-1.79-10.81-.37-16.21-2.46-.67-5.05-1.04-7.73-1.04h-9.15v9.15c0,2.68.36,5.27,1.04,7.73,5.41-1.43,11.03-1.25,16.21.37Z"/>
  <path class="cls-1" d="m728.72,728.72c-1.61-5.19-1.79-10.81-.37-16.21-2.46-.67-5.05-1.04-7.73-1.04h-9.15v9.15c0,2.68.36,5.27,1.04,7.73,5.41-1.43,11.03-1.25,16.21.37Z"/>
  <path class="cls-1" d="m728.72,728.72c-1.61-5.19-1.79-10.81-.37-16.21-2.46-.67-5.05-1.04-7.73-1.04h-9.15v9.15c0,2.68.36,5.27,1.04,7.73,5.41-1.43,11.03-1.25,16.21.37Z"/>
  <path class="cls-1" d="m720.93,742.21c6.95-1.57,14.49-.63,21.14,3.21-6.66-3.84-11.24-9.9-13.35-16.7-5.19-1.61-10.81-1.79-16.21-.37,1.47,5.4,4.43,10.17,8.43,13.86Z"/>
  <path class="cls-1" d="m720.93,742.21c6.95-1.57,14.49-.63,21.14,3.21-6.66-3.84-11.24-9.9-13.35-16.7-5.19-1.61-10.81-1.79-16.21-.37,1.47,5.4,4.43,10.17,8.43,13.86Z"/>
  <path class="cls-1" d="m720.93,742.21c6.95-1.57,14.49-.63,21.14,3.21-6.66-3.84-11.24-9.9-13.35-16.7-5.19-1.61-10.81-1.79-16.21-.37,1.47,5.4,4.43,10.17,8.43,13.86Z"/>
  <path class="cls-1" d="m720.93,742.21c6.95-1.57,14.49-.63,21.14,3.21-6.66-3.84-11.24-9.9-13.35-16.7-5.19-1.61-10.81-1.79-16.21-.37,1.47,5.4,4.43,10.17,8.43,13.86Z"/>
  <path class="cls-1" d="m720.93,742.21c6.95-1.57,14.49-.63,21.14,3.21-6.66-3.84-11.24-9.9-13.35-16.7-5.19-1.61-10.81-1.79-16.21-.37,1.47,5.4,4.43,10.17,8.43,13.86Z"/>
  <path class="cls-1" d="m720.93,742.21c6.95-1.57,14.49-.63,21.14,3.21-6.66-3.84-11.24-9.9-13.35-16.7-5.19-1.61-10.81-1.79-16.21-.37,1.47,5.4,4.43,10.17,8.43,13.86Z"/>
  <polygon class="cls-1" points="788.53 683.27 788.53 606.21 750 672.95 764.1 697.37 788.53 683.27"/>
  <polygon class="cls-1" points="788.53 683.27 788.53 606.21 750 672.95 764.1 697.37 788.53 683.27"/>
  <polygon class="cls-1" points="788.53 683.27 788.53 606.21 750 672.95 764.1 697.37 788.53 683.27"/>
  <path class="cls-1" d="m743.82,701.95c2.32,1.34,4.38,2.95,6.18,4.76,1.8-1.81,3.86-3.42,6.18-4.76l7.92-4.57-14.1-24.43-14.1,24.43,7.92,4.57Z"/>
  <path class="cls-1" d="m743.82,701.95c2.32,1.34,4.38,2.95,6.18,4.76,1.8-1.81,3.86-3.42,6.18-4.76l7.92-4.57-14.1-24.43-14.1,24.43,7.92,4.57Z"/>
  <path class="cls-1" d="m743.82,701.95c2.32,1.34,4.38,2.95,6.18,4.76,1.8-1.81,3.86-3.42,6.18-4.76l7.92-4.57-14.1-24.43-14.1,24.43,7.92,4.57Z"/>
  <path class="cls-1" d="m743.82,701.95c2.32,1.34,4.38,2.95,6.18,4.76,1.8-1.81,3.86-3.42,6.18-4.76l7.92-4.57-14.1-24.43-14.1,24.43,7.92,4.57Z"/>
  <path class="cls-1" d="m742.21,720.93c1.19-5.3,3.85-10.26,7.79-14.23-1.8-1.81-3.86-3.42-6.18-4.76l-7.92-4.57-4.57,7.92c-1.34,2.32-2.32,4.74-2.97,7.21,5.4,1.47,10.17,4.43,13.86,8.42Z"/>
  <path class="cls-1" d="m742.21,720.93c1.19-5.3,3.85-10.26,7.79-14.23-1.8-1.81-3.86-3.42-6.18-4.76l-7.92-4.57-4.57,7.92c-1.34,2.32-2.32,4.74-2.97,7.21,5.4,1.47,10.17,4.43,13.86,8.42Z"/>
  <path class="cls-1" d="m742.21,720.93c1.19-5.3,3.85-10.26,7.79-14.23-1.8-1.81-3.86-3.42-6.18-4.76l-7.92-4.57-4.57,7.92c-1.34,2.32-2.32,4.74-2.97,7.21,5.4,1.47,10.17,4.43,13.86,8.42Z"/>
  <path class="cls-1" d="m742.21,720.93c1.19-5.3,3.85-10.26,7.79-14.23-1.8-1.81-3.86-3.42-6.18-4.76l-7.92-4.57-4.57,7.92c-1.34,2.32-2.32,4.74-2.97,7.21,5.4,1.47,10.17,4.43,13.86,8.42Z"/>
  <path class="cls-1" d="m742.21,720.93c1.19-5.3,3.85-10.26,7.79-14.23-1.8-1.81-3.86-3.42-6.18-4.76l-7.92-4.57-4.57,7.92c-1.34,2.32-2.32,4.74-2.97,7.21,5.4,1.47,10.17,4.43,13.86,8.42Z"/>
  <path class="cls-1" d="m728.72,728.72c6.8,2.12,12.86,6.7,16.7,13.35-3.84-6.66-4.78-14.19-3.21-21.14-3.68-3.99-8.46-6.96-13.86-8.42-1.43,5.41-1.25,11.03.37,16.21Z"/>
  <path class="cls-1" d="m728.72,728.72c6.8,2.12,12.86,6.7,16.7,13.35-3.84-6.66-4.78-14.19-3.21-21.14-3.68-3.99-8.46-6.96-13.86-8.42-1.43,5.41-1.25,11.03.37,16.21Z"/>
  <path class="cls-1" d="m728.72,728.72c6.8,2.12,12.86,6.7,16.7,13.35-3.84-6.66-4.78-14.19-3.21-21.14-3.68-3.99-8.46-6.96-13.86-8.42-1.43,5.41-1.25,11.03.37,16.21Z"/>
  <path class="cls-1" d="m728.72,728.72c6.8,2.12,12.86,6.7,16.7,13.35-3.84-6.66-4.78-14.19-3.21-21.14-3.68-3.99-8.46-6.96-13.86-8.42-1.43,5.41-1.25,11.03.37,16.21Z"/>
  <path class="cls-1" d="m728.72,728.72c6.8,2.12,12.86,6.7,16.7,13.35-3.84-6.66-4.78-14.19-3.21-21.14-3.68-3.99-8.46-6.96-13.86-8.42-1.43,5.41-1.25,11.03.37,16.21Z"/>
  <path class="cls-1" d="m728.72,728.72c6.8,2.12,12.86,6.7,16.7,13.35-3.84-6.66-4.78-14.19-3.21-21.14-3.68-3.99-8.46-6.96-13.86-8.42-1.43,5.41-1.25,11.03.37,16.21Z"/>
  <polygon class="cls-1" points="750 750 745.43 742.08 750 750 750 750"/>
  <polygon class="cls-1" points="750 750 745.43 742.08 750 750 750 750"/>
  <polygon class="cls-1" points="750 750 745.43 742.08 750 750 750 750"/>
  <polygon class="cls-1" points="750 750 745.43 742.08 750 750 750 750"/>
  <polygon class="cls-1" points="750 750 745.43 742.08 750 750 750 750"/>
  <polygon class="cls-1" points="750 750 745.43 742.08 750 750 750 750"/>
  <path class="cls-1" d="m768.68,705.29c1.34,2.32,2.32,4.74,2.97,7.21,2.46-.67,5.06-1.04,7.73-1.04h9.15v-28.2l-24.43,14.1,4.57,7.92Z"/>
  <path class="cls-1" d="m768.68,705.29c1.34,2.32,2.32,4.74,2.97,7.21,2.46-.67,5.06-1.04,7.73-1.04h9.15v-28.2l-24.43,14.1,4.57,7.92Z"/>
  <path class="cls-1" d="m768.68,705.29c1.34,2.32,2.32,4.74,2.97,7.21,2.46-.67,5.06-1.04,7.73-1.04h9.15v-28.2l-24.43,14.1,4.57,7.92Z"/>
  <path class="cls-1" d="m768.68,705.29c1.34,2.32,2.32,4.74,2.97,7.21,2.46-.67,5.06-1.04,7.73-1.04h9.15v-28.2l-24.43,14.1,4.57,7.92Z"/>
  <path class="cls-1" d="m771.65,712.51c-.65-2.47-1.63-4.9-2.97-7.21l-4.57-7.92-7.92,4.57c-2.32,1.34-4.38,2.95-6.18,4.76,3.94,3.97,6.59,8.93,7.79,14.23,3.68-3.99,8.46-6.96,13.86-8.42Z"/>
  <path class="cls-1" d="m771.65,712.51c-.65-2.47-1.63-4.9-2.97-7.21l-4.57-7.92-7.92,4.57c-2.32,1.34-4.38,2.95-6.18,4.76,3.94,3.97,6.59,8.93,7.79,14.23,3.68-3.99,8.46-6.96,13.86-8.42Z"/>
  <path class="cls-1" d="m771.65,712.51c-.65-2.47-1.63-4.9-2.97-7.21l-4.57-7.92-7.92,4.57c-2.32,1.34-4.38,2.95-6.18,4.76,3.94,3.97,6.59,8.93,7.79,14.23,3.68-3.99,8.46-6.96,13.86-8.42Z"/>
  <path class="cls-1" d="m771.65,712.51c-.65-2.47-1.63-4.9-2.97-7.21l-4.57-7.92-7.92,4.57c-2.32,1.34-4.38,2.95-6.18,4.76,3.94,3.97,6.59,8.93,7.79,14.23,3.68-3.99,8.46-6.96,13.86-8.42Z"/>
  <path class="cls-1" d="m771.65,712.51c-.65-2.47-1.63-4.9-2.97-7.21l-4.57-7.92-7.92,4.57c-2.32,1.34-4.38,2.95-6.18,4.76,3.94,3.97,6.59,8.93,7.79,14.23,3.68-3.99,8.46-6.96,13.86-8.42Z"/>
  <path class="cls-1" d="m750,740.85c0-7.69,2.96-14.68,7.79-19.92-1.2-5.3-3.85-10.26-7.79-14.23-3.94,3.97-6.59,8.93-7.79,14.23,4.83,5.24,7.79,12.23,7.79,19.92Z"/>
  <path class="cls-1" d="m750,740.85c0-7.69,2.96-14.68,7.79-19.92-1.2-5.3-3.85-10.26-7.79-14.23-3.94,3.97-6.59,8.93-7.79,14.23,4.83,5.24,7.79,12.23,7.79,19.92Z"/>
  <path class="cls-1" d="m750,740.85c0-7.69,2.96-14.68,7.79-19.92-1.2-5.3-3.85-10.26-7.79-14.23-3.94,3.97-6.59,8.93-7.79,14.23,4.83,5.24,7.79,12.23,7.79,19.92Z"/>
  <path class="cls-1" d="m750,740.85c0-7.69,2.96-14.68,7.79-19.92-1.2-5.3-3.85-10.26-7.79-14.23-3.94,3.97-6.59,8.93-7.79,14.23,4.83,5.24,7.79,12.23,7.79,19.92Z"/>
  <path class="cls-1" d="m750,740.85c0-7.69,2.96-14.68,7.79-19.92-1.2-5.3-3.85-10.26-7.79-14.23-3.94,3.97-6.59,8.93-7.79,14.23,4.83,5.24,7.79,12.23,7.79,19.92Z"/>
  <path class="cls-1" d="m750,740.85c0-7.69,2.96-14.68,7.79-19.92-1.2-5.3-3.85-10.26-7.79-14.23-3.94,3.97-6.59,8.93-7.79,14.23,4.83,5.24,7.79,12.23,7.79,19.92Z"/>
  <path class="cls-1" d="m771.28,728.72c5.19-1.61,10.81-1.79,16.21-.37.67-2.46,1.04-5.06,1.04-7.73v-9.15h-9.15c-2.68,0-5.27.37-7.73,1.04,1.43,5.41,1.25,11.03-.37,16.21Z"/>
  <path class="cls-1" d="m771.28,728.72c5.19-1.61,10.81-1.79,16.21-.37.67-2.46,1.04-5.06,1.04-7.73v-9.15h-9.15c-2.68,0-5.27.37-7.73,1.04,1.43,5.41,1.25,11.03-.37,16.21Z"/>
  <path class="cls-1" d="m771.28,728.72c5.19-1.61,10.81-1.79,16.21-.37.67-2.46,1.04-5.06,1.04-7.73v-9.15h-9.15c-2.68,0-5.27.37-7.73,1.04,1.43,5.41,1.25,11.03-.37,16.21Z"/>
  <path class="cls-1" d="m771.28,728.72c5.19-1.61,10.81-1.79,16.21-.37.67-2.46,1.04-5.06,1.04-7.73v-9.15h-9.15c-2.68,0-5.27.37-7.73,1.04,1.43,5.41,1.25,11.03-.37,16.21Z"/>
  <path class="cls-1" d="m771.28,728.72c5.19-1.61,10.81-1.79,16.21-.37.67-2.46,1.04-5.06,1.04-7.73v-9.15h-9.15c-2.68,0-5.27.37-7.73,1.04,1.43,5.41,1.25,11.03-.37,16.21Z"/>
  <path class="cls-1" d="m757.79,720.93c1.57,6.95.63,14.49-3.21,21.14,3.84-6.66,9.9-11.24,16.7-13.35,1.61-5.19,1.79-10.81.37-16.21-5.4,1.47-10.17,4.43-13.86,8.42Z"/>
  <path class="cls-1" d="m757.79,720.93c1.57,6.95.63,14.49-3.21,21.14,3.84-6.66,9.9-11.24,16.7-13.35,1.61-5.19,1.79-10.81.37-16.21-5.4,1.47-10.17,4.43-13.86,8.42Z"/>
  <path class="cls-1" d="m757.79,720.93c1.57,6.95.63,14.49-3.21,21.14,3.84-6.66,9.9-11.24,16.7-13.35,1.61-5.19,1.79-10.81.37-16.21-5.4,1.47-10.17,4.43-13.86,8.42Z"/>
  <path class="cls-1" d="m757.79,720.93c1.57,6.95.63,14.49-3.21,21.14,3.84-6.66,9.9-11.24,16.7-13.35,1.61-5.19,1.79-10.81.37-16.21-5.4,1.47-10.17,4.43-13.86,8.42Z"/>
  <path class="cls-1" d="m757.79,720.93c1.57,6.95.63,14.49-3.21,21.14,3.84-6.66,9.9-11.24,16.7-13.35,1.61-5.19,1.79-10.81.37-16.21-5.4,1.47-10.17,4.43-13.86,8.42Z"/>
  <path class="cls-1" d="m757.79,720.93c1.57,6.95.63,14.49-3.21,21.14,3.84-6.66,9.9-11.24,16.7-13.35,1.61-5.19,1.79-10.81.37-16.21-5.4,1.47-10.17,4.43-13.86,8.42Z"/>
  <path class="cls-1" d="m771.28,728.72c-2.12,6.8-6.7,12.86-13.35,16.7,6.66-3.84,14.19-4.78,21.14-3.21,3.99-3.69,6.96-8.46,8.43-13.86-5.41-1.43-11.03-1.25-16.21.37Z"/>
  <path class="cls-1" d="m771.28,728.72c-2.12,6.8-6.7,12.86-13.35,16.7,6.66-3.84,14.19-4.78,21.14-3.21,3.99-3.69,6.96-8.46,8.43-13.86-5.41-1.43-11.03-1.25-16.21.37Z"/>
  <path class="cls-1" d="m771.28,728.72c-2.12,6.8-6.7,12.86-13.35,16.7,6.66-3.84,14.19-4.78,21.14-3.21,3.99-3.69,6.96-8.46,8.43-13.86-5.41-1.43-11.03-1.25-16.21.37Z"/>
  <path class="cls-1" d="m771.28,728.72c-2.12,6.8-6.7,12.86-13.35,16.7,6.66-3.84,14.19-4.78,21.14-3.21,3.99-3.69,6.96-8.46,8.43-13.86-5.41-1.43-11.03-1.25-16.21.37Z"/>
  <path class="cls-1" d="m771.28,728.72c-2.12,6.8-6.7,12.86-13.35,16.7,6.66-3.84,14.19-4.78,21.14-3.21,3.99-3.69,6.96-8.46,8.43-13.86-5.41-1.43-11.03-1.25-16.21.37Z"/>
  <path class="cls-1" d="m771.28,728.72c-2.12,6.8-6.7,12.86-13.35,16.7,6.66-3.84,14.19-4.78,21.14-3.21,3.99-3.69,6.96-8.46,8.43-13.86-5.41-1.43-11.03-1.25-16.21.37Z"/>
  <path class="cls-1" d="m757.92,745.43l-7.92,4.57h9.15c7.69,0,14.68-2.96,19.92-7.79-6.95-1.57-14.49-.63-21.14,3.21Z"/>
  <path class="cls-1" d="m757.92,745.43l-7.92,4.57h9.15c7.69,0,14.68-2.96,19.92-7.79-6.95-1.57-14.49-.63-21.14,3.21Z"/>
  <path class="cls-1" d="m757.92,745.43l-7.92,4.57h9.15c7.69,0,14.68-2.96,19.92-7.79-6.95-1.57-14.49-.63-21.14,3.21Z"/>
  <path class="cls-1" d="m757.92,745.43l-7.92,4.57h9.15c7.69,0,14.68-2.96,19.92-7.79-6.95-1.57-14.49-.63-21.14,3.21Z"/>
  <path class="cls-1" d="m757.92,745.43l-7.92,4.57h9.15c7.69,0,14.68-2.96,19.92-7.79-6.95-1.57-14.49-.63-21.14,3.21Z"/>
  <path class="cls-1" d="m757.92,745.43l-7.92,4.57h9.15c7.69,0,14.68-2.96,19.92-7.79-6.95-1.57-14.49-.63-21.14,3.21Z"/>
  <path class="cls-1" d="m757.92,745.43l-7.92,4.57h9.15c7.69,0,14.68-2.96,19.92-7.79-6.95-1.57-14.49-.63-21.14,3.21Z"/>
  <path class="cls-1" d="m750,750l7.92-4.57c6.66-3.84,11.24-9.9,13.35-16.7-6.8,2.12-12.86,6.7-16.7,13.35l-4.57,7.92h0Z"/>
  <path class="cls-1" d="m750,750l7.92-4.57c6.66-3.84,11.24-9.9,13.35-16.7-6.8,2.12-12.86,6.7-16.7,13.35l-4.57,7.92h0Z"/>
  <path class="cls-1" d="m750,750l7.92-4.57c6.66-3.84,11.24-9.9,13.35-16.7-6.8,2.12-12.86,6.7-16.7,13.35l-4.57,7.92h0Z"/>
  <path class="cls-1" d="m750,750l7.92-4.57c6.66-3.84,11.24-9.9,13.35-16.7-6.8,2.12-12.86,6.7-16.7,13.35l-4.57,7.92h0Z"/>
  <path class="cls-1" d="m750,750l7.92-4.57c6.66-3.84,11.24-9.9,13.35-16.7-6.8,2.12-12.86,6.7-16.7,13.35l-4.57,7.92h0Z"/>
  <path class="cls-1" d="m750,750l7.92-4.57c6.66-3.84,11.24-9.9,13.35-16.7-6.8,2.12-12.86,6.7-16.7,13.35l-4.57,7.92h0Z"/>
  <path class="cls-1" d="m750,750l7.92-4.57c6.66-3.84,11.24-9.9,13.35-16.7-6.8,2.12-12.86,6.7-16.7,13.35l-4.57,7.92h0Z"/>
  <path class="cls-1" d="m750,750l4.57-7.92c3.84-6.66,4.78-14.19,3.21-21.14-4.83,5.24-7.79,12.23-7.79,19.92v9.15h0Z"/>
  <path class="cls-1" d="m750,750l4.57-7.92c3.84-6.66,4.78-14.19,3.21-21.14-4.83,5.24-7.79,12.23-7.79,19.92v9.15h0Z"/>
  <path class="cls-1" d="m750,750l4.57-7.92c3.84-6.66,4.78-14.19,3.21-21.14-4.83,5.24-7.79,12.23-7.79,19.92v9.15h0Z"/>
  <path class="cls-1" d="m750,750l4.57-7.92c3.84-6.66,4.78-14.19,3.21-21.14-4.83,5.24-7.79,12.23-7.79,19.92v9.15h0Z"/>
  <path class="cls-1" d="m750,750l4.57-7.92c3.84-6.66,4.78-14.19,3.21-21.14-4.83,5.24-7.79,12.23-7.79,19.92v9.15h0Z"/>
  <path class="cls-1" d="m750,750l4.57-7.92c3.84-6.66,4.78-14.19,3.21-21.14-4.83,5.24-7.79,12.23-7.79,19.92v9.15h0Z"/>
  <path class="cls-1" d="m750,750l4.57-7.92c3.84-6.66,4.78-14.19,3.21-21.14-4.83,5.24-7.79,12.23-7.79,19.92v9.15h0Z"/>
  <path class="cls-1" d="m750,740.85c0-7.69-2.96-14.68-7.79-19.92-1.57,6.95-.63,14.49,3.21,21.14l4.57,7.92v-9.15Z"/>
  <path class="cls-1" d="m750,740.85c0-7.69-2.96-14.68-7.79-19.92-1.57,6.95-.63,14.49,3.21,21.14l4.57,7.92v-9.15Z"/>
  <path class="cls-1" d="m750,740.85c0-7.69-2.96-14.68-7.79-19.92-1.57,6.95-.63,14.49,3.21,21.14l4.57,7.92v-9.15Z"/>
  <path class="cls-1" d="m750,740.85c0-7.69-2.96-14.68-7.79-19.92-1.57,6.95-.63,14.49,3.21,21.14l4.57,7.92v-9.15Z"/>
  <path class="cls-1" d="m750,740.85c0-7.69-2.96-14.68-7.79-19.92-1.57,6.95-.63,14.49,3.21,21.14l4.57,7.92v-9.15Z"/>
  <path class="cls-1" d="m750,740.85c0-7.69-2.96-14.68-7.79-19.92-1.57,6.95-.63,14.49,3.21,21.14l4.57,7.92v-9.15Z"/>
  <path class="cls-1" d="m750,740.85c0-7.69-2.96-14.68-7.79-19.92-1.57,6.95-.63,14.49,3.21,21.14l4.57,7.92v-9.15Z"/>
  <path class="cls-1" d="m750,750l-4.57-7.92c-3.84-6.66-9.9-11.24-16.7-13.35,2.12,6.8,6.7,12.86,13.35,16.7l7.92,4.57h0Z"/>
  <path class="cls-1" d="m750,750l-4.57-7.92c-3.84-6.66-9.9-11.24-16.7-13.35,2.12,6.8,6.7,12.86,13.35,16.7l7.92,4.57h0Z"/>
  <path class="cls-1" d="m750,750l-4.57-7.92c-3.84-6.66-9.9-11.24-16.7-13.35,2.12,6.8,6.7,12.86,13.35,16.7l7.92,4.57h0Z"/>
  <path class="cls-1" d="m750,750l-4.57-7.92c-3.84-6.66-9.9-11.24-16.7-13.35,2.12,6.8,6.7,12.86,13.35,16.7l7.92,4.57h0Z"/>
  <path class="cls-1" d="m750,750l-4.57-7.92c-3.84-6.66-9.9-11.24-16.7-13.35,2.12,6.8,6.7,12.86,13.35,16.7l7.92,4.57h0Z"/>
  <path class="cls-1" d="m750,750l-4.57-7.92c-3.84-6.66-9.9-11.24-16.7-13.35,2.12,6.8,6.7,12.86,13.35,16.7l7.92,4.57h0Z"/>
  <path class="cls-1" d="m750,750l-4.57-7.92c-3.84-6.66-9.9-11.24-16.7-13.35,2.12,6.8,6.7,12.86,13.35,16.7l7.92,4.57h0Z"/>
  <path class="cls-1" d="m750,750l-7.92-4.57c-6.66-3.84-14.19-4.78-21.14-3.21,5.24,4.83,12.23,7.79,19.92,7.79h9.15Z"/>
  <path class="cls-1" d="m750,750l-7.92-4.57c-6.66-3.84-14.19-4.78-21.14-3.21,5.24,4.83,12.23,7.79,19.92,7.79h9.15Z"/>
  <path class="cls-1" d="m750,750l-7.92-4.57c-6.66-3.84-14.19-4.78-21.14-3.21,5.24,4.83,12.23,7.79,19.92,7.79h9.15Z"/>
  <path class="cls-1" d="m750,750l-7.92-4.57c-6.66-3.84-14.19-4.78-21.14-3.21,5.24,4.83,12.23,7.79,19.92,7.79h9.15Z"/>
  <path class="cls-1" d="m750,750l-7.92-4.57c-6.66-3.84-14.19-4.78-21.14-3.21,5.24,4.83,12.23,7.79,19.92,7.79h9.15Z"/>
  <path class="cls-1" d="m750,750l-7.92-4.57c-6.66-3.84-14.19-4.78-21.14-3.21,5.24,4.83,12.23,7.79,19.92,7.79h9.15Z"/>
  <path class="cls-1" d="m750,750l-7.92-4.57c-6.66-3.84-14.19-4.78-21.14-3.21,5.24,4.83,12.23,7.79,19.92,7.79h9.15Z"/>
  <path class="cls-1" d="m750,827.05l-38.53,66.73v298.05c12.7,1.09,25.55,1.66,38.53,1.66s25.83-.56,38.52-1.66v-298.05l-38.53-66.73Z"/>
  <path class="cls-1" d="m750,827.05l-38.53,66.73v298.05c12.7,1.09,25.55,1.66,38.53,1.66s25.83-.56,38.52-1.66v-298.05l-38.53-66.73Z"/>
  <polygon class="cls-1" points="750 827.05 788.53 893.79 788.53 816.73 764.1 802.63 750 827.05"/>
  <polygon class="cls-1" points="750 827.05 788.53 893.79 788.53 816.73 764.1 802.63 750 827.05"/>
  <polygon class="cls-1" points="750 827.05 788.53 893.79 788.53 816.73 764.1 802.63 750 827.05"/>
  <path class="cls-1" d="m779.38,788.53c-2.68,0-5.27-.37-7.73-1.04-.65,2.47-1.63,4.9-2.97,7.21l-4.57,7.92,24.43,14.1v-28.2h-9.15Z"/>
  <path class="cls-1" d="m779.38,788.53c-2.68,0-5.27-.37-7.73-1.04-.65,2.47-1.63,4.9-2.97,7.21l-4.57,7.92,24.43,14.1v-28.2h-9.15Z"/>
  <path class="cls-1" d="m779.38,788.53c-2.68,0-5.27-.37-7.73-1.04-.65,2.47-1.63,4.9-2.97,7.21l-4.57,7.92,24.43,14.1v-28.2h-9.15Z"/>
  <path class="cls-1" d="m779.38,788.53c-2.68,0-5.27-.37-7.73-1.04-.65,2.47-1.63,4.9-2.97,7.21l-4.57,7.92,24.43,14.1v-28.2h-9.15Z"/>
  <path class="cls-1" d="m771.28,771.28c1.61,5.19,1.79,10.81.37,16.21,2.46.67,5.06,1.04,7.73,1.04h9.15v-9.15c0-2.68-.36-5.27-1.04-7.73-5.41,1.43-11.03,1.25-16.21-.37Z"/>
  <path class="cls-1" d="m771.28,771.28c1.61,5.19,1.79,10.81.37,16.21,2.46.67,5.06,1.04,7.73,1.04h9.15v-9.15c0-2.68-.36-5.27-1.04-7.73-5.41,1.43-11.03,1.25-16.21-.37Z"/>
  <path class="cls-1" d="m771.28,771.28c1.61,5.19,1.79,10.81.37,16.21,2.46.67,5.06,1.04,7.73,1.04h9.15v-9.15c0-2.68-.36-5.27-1.04-7.73-5.41,1.43-11.03,1.25-16.21-.37Z"/>
  <path class="cls-1" d="m771.28,771.28c1.61,5.19,1.79,10.81.37,16.21,2.46.67,5.06,1.04,7.73,1.04h9.15v-9.15c0-2.68-.36-5.27-1.04-7.73-5.41,1.43-11.03,1.25-16.21-.37Z"/>
  <path class="cls-1" d="m771.28,771.28c1.61,5.19,1.79,10.81.37,16.21,2.46.67,5.06,1.04,7.73,1.04h9.15v-9.15c0-2.68-.36-5.27-1.04-7.73-5.41,1.43-11.03,1.25-16.21-.37Z"/>
  <path class="cls-1" d="m779.07,757.79c-6.95,1.57-14.49.63-21.14-3.21,6.66,3.84,11.24,9.9,13.35,16.7,5.19,1.61,10.81,1.79,16.21.37-1.47-5.4-4.43-10.17-8.43-13.86Z"/>
  <path class="cls-1" d="m779.07,757.79c-6.95,1.57-14.49.63-21.14-3.21,6.66,3.84,11.24,9.9,13.35,16.7,5.19,1.61,10.81,1.79,16.21.37-1.47-5.4-4.43-10.17-8.43-13.86Z"/>
  <path class="cls-1" d="m779.07,757.79c-6.95,1.57-14.49.63-21.14-3.21,6.66,3.84,11.24,9.9,13.35,16.7,5.19,1.61,10.81,1.79,16.21.37-1.47-5.4-4.43-10.17-8.43-13.86Z"/>
  <path class="cls-1" d="m779.07,757.79c-6.95,1.57-14.49.63-21.14-3.21,6.66,3.84,11.24,9.9,13.35,16.7,5.19,1.61,10.81,1.79,16.21.37-1.47-5.4-4.43-10.17-8.43-13.86Z"/>
  <path class="cls-1" d="m779.07,757.79c-6.95,1.57-14.49.63-21.14-3.21,6.66,3.84,11.24,9.9,13.35,16.7,5.19,1.61,10.81,1.79,16.21.37-1.47-5.4-4.43-10.17-8.43-13.86Z"/>
  <path class="cls-1" d="m779.07,757.79c-6.95,1.57-14.49.63-21.14-3.21,6.66,3.84,11.24,9.9,13.35,16.7,5.19,1.61,10.81,1.79,16.21.37-1.47-5.4-4.43-10.17-8.43-13.86Z"/>
  <path class="cls-1" d="m750,750l7.92,4.57c6.66,3.84,14.19,4.78,21.14,3.21-5.24-4.83-12.23-7.79-19.92-7.79h-9.15Z"/>
  <path class="cls-1" d="m750,750l7.92,4.57c6.66,3.84,14.19,4.78,21.14,3.21-5.24-4.83-12.23-7.79-19.92-7.79h-9.15Z"/>
  <path class="cls-1" d="m750,750l7.92,4.57c6.66,3.84,14.19,4.78,21.14,3.21-5.24-4.83-12.23-7.79-19.92-7.79h-9.15Z"/>
  <path class="cls-1" d="m750,750l7.92,4.57c6.66,3.84,14.19,4.78,21.14,3.21-5.24-4.83-12.23-7.79-19.92-7.79h-9.15Z"/>
  <path class="cls-1" d="m750,750l7.92,4.57c6.66,3.84,14.19,4.78,21.14,3.21-5.24-4.83-12.23-7.79-19.92-7.79h-9.15Z"/>
  <path class="cls-1" d="m750,750l7.92,4.57c6.66,3.84,14.19,4.78,21.14,3.21-5.24-4.83-12.23-7.79-19.92-7.79h-9.15Z"/>
  <path class="cls-1" d="m750,750l7.92,4.57c6.66,3.84,14.19,4.78,21.14,3.21-5.24-4.83-12.23-7.79-19.92-7.79h-9.15Z"/>
  <polygon class="cls-1" points="711.47 816.73 711.47 893.79 750 827.05 735.9 802.63 711.47 816.73"/>
  <polygon class="cls-1" points="711.47 816.73 711.47 893.79 750 827.05 735.9 802.63 711.47 816.73"/>
  <polygon class="cls-1" points="711.47 816.73 711.47 893.79 750 827.05 735.9 802.63 711.47 816.73"/>
  <path class="cls-1" d="m756.18,798.05c-2.32-1.34-4.38-2.95-6.18-4.76-1.8,1.81-3.86,3.42-6.18,4.76l-7.92,4.57,14.1,24.43,14.1-24.43-7.92-4.57Z"/>
  <path class="cls-1" d="m756.18,798.05c-2.32-1.34-4.38-2.95-6.18-4.76-1.8,1.81-3.86,3.42-6.18,4.76l-7.92,4.57,14.1,24.43,14.1-24.43-7.92-4.57Z"/>
  <path class="cls-1" d="m756.18,798.05c-2.32-1.34-4.38-2.95-6.18-4.76-1.8,1.81-3.86,3.42-6.18,4.76l-7.92,4.57,14.1,24.43,14.1-24.43-7.92-4.57Z"/>
  <path class="cls-1" d="m756.18,798.05c-2.32-1.34-4.38-2.95-6.18-4.76-1.8,1.81-3.86,3.42-6.18,4.76l-7.92,4.57,14.1,24.43,14.1-24.43-7.92-4.57Z"/>
  <path class="cls-1" d="m757.79,779.07c-1.2,5.3-3.85,10.26-7.79,14.23,1.8,1.81,3.86,3.42,6.18,4.76l7.92,4.57,4.57-7.92c1.34-2.32,2.32-4.74,2.97-7.21-5.4-1.47-10.17-4.43-13.86-8.42Z"/>
  <path class="cls-1" d="m757.79,779.07c-1.2,5.3-3.85,10.26-7.79,14.23,1.8,1.81,3.86,3.42,6.18,4.76l7.92,4.57,4.57-7.92c1.34-2.32,2.32-4.74,2.97-7.21-5.4-1.47-10.17-4.43-13.86-8.42Z"/>
  <path class="cls-1" d="m757.79,779.07c-1.2,5.3-3.85,10.26-7.79,14.23,1.8,1.81,3.86,3.42,6.18,4.76l7.92,4.57,4.57-7.92c1.34-2.32,2.32-4.74,2.97-7.21-5.4-1.47-10.17-4.43-13.86-8.42Z"/>
  <path class="cls-1" d="m757.79,779.07c-1.2,5.3-3.85,10.26-7.79,14.23,1.8,1.81,3.86,3.42,6.18,4.76l7.92,4.57,4.57-7.92c1.34-2.32,2.32-4.74,2.97-7.21-5.4-1.47-10.17-4.43-13.86-8.42Z"/>
  <path class="cls-1" d="m757.79,779.07c-1.2,5.3-3.85,10.26-7.79,14.23,1.8,1.81,3.86,3.42,6.18,4.76l7.92,4.57,4.57-7.92c1.34-2.32,2.32-4.74,2.97-7.21-5.4-1.47-10.17-4.43-13.86-8.42Z"/>
  <path class="cls-1" d="m771.28,771.28c-6.8-2.12-12.86-6.7-16.7-13.35l-4.57-7.92h0l4.57,7.92c3.84,6.66,4.78,14.19,3.21,21.14,3.68,3.99,8.46,6.96,13.86,8.42,1.43-5.41,1.25-11.03-.37-16.21Z"/>
  <path class="cls-1" d="m771.28,771.28c-6.8-2.12-12.86-6.7-16.7-13.35l-4.57-7.92h0l4.57,7.92c3.84,6.66,4.78,14.19,3.21,21.14,3.68,3.99,8.46,6.96,13.86,8.42,1.43-5.41,1.25-11.03-.37-16.21Z"/>
  <path class="cls-1" d="m771.28,771.28c-6.8-2.12-12.86-6.7-16.7-13.35l-4.57-7.92h0l4.57,7.92c3.84,6.66,4.78,14.19,3.21,21.14,3.68,3.99,8.46,6.96,13.86,8.42,1.43-5.41,1.25-11.03-.37-16.21Z"/>
  <path class="cls-1" d="m771.28,771.28c-6.8-2.12-12.86-6.7-16.7-13.35l-4.57-7.92h0l4.57,7.92c3.84,6.66,4.78,14.19,3.21,21.14,3.68,3.99,8.46,6.96,13.86,8.42,1.43-5.41,1.25-11.03-.37-16.21Z"/>
  <path class="cls-1" d="m771.28,771.28c-6.8-2.12-12.86-6.7-16.7-13.35l-4.57-7.92h0l4.57,7.92c3.84,6.66,4.78,14.19,3.21,21.14,3.68,3.99,8.46,6.96,13.86,8.42,1.43-5.41,1.25-11.03-.37-16.21Z"/>
  <path class="cls-1" d="m771.28,771.28c-6.8-2.12-12.86-6.7-16.7-13.35l-4.57-7.92h0l4.57,7.92c3.84,6.66,4.78,14.19,3.21,21.14,3.68,3.99,8.46,6.96,13.86,8.42,1.43-5.41,1.25-11.03-.37-16.21Z"/>
  <path class="cls-1" d="m754.57,757.92c3.84,6.66,9.9,11.24,16.7,13.35-2.12-6.8-6.7-12.86-13.35-16.7l-7.92-4.57,4.57,7.92Z"/>
  <path class="cls-1" d="m754.57,757.92c3.84,6.66,9.9,11.24,16.7,13.35-2.12-6.8-6.7-12.86-13.35-16.7l-7.92-4.57,4.57,7.92Z"/>
  <path class="cls-1" d="m754.57,757.92c3.84,6.66,9.9,11.24,16.7,13.35-2.12-6.8-6.7-12.86-13.35-16.7l-7.92-4.57,4.57,7.92Z"/>
  <path class="cls-1" d="m754.57,757.92c3.84,6.66,9.9,11.24,16.7,13.35-2.12-6.8-6.7-12.86-13.35-16.7l-7.92-4.57,4.57,7.92Z"/>
  <path class="cls-1" d="m754.57,757.92c3.84,6.66,9.9,11.24,16.7,13.35-2.12-6.8-6.7-12.86-13.35-16.7l-7.92-4.57,4.57,7.92Z"/>
  <path class="cls-1" d="m754.57,757.92c3.84,6.66,9.9,11.24,16.7,13.35-2.12-6.8-6.7-12.86-13.35-16.7l-7.92-4.57,4.57,7.92Z"/>
  <path class="cls-1" d="m754.57,757.92c3.84,6.66,9.9,11.24,16.7,13.35-2.12-6.8-6.7-12.86-13.35-16.7l-7.92-4.57,4.57,7.92Z"/>
  <path class="cls-1" d="m731.32,794.71c-1.34-2.32-2.32-4.74-2.97-7.21-2.46.67-5.05,1.04-7.73,1.04h-9.15v28.2l24.43-14.1-4.57-7.92Z"/>
  <path class="cls-1" d="m731.32,794.71c-1.34-2.32-2.32-4.74-2.97-7.21-2.46.67-5.05,1.04-7.73,1.04h-9.15v28.2l24.43-14.1-4.57-7.92Z"/>
  <path class="cls-1" d="m731.32,794.71c-1.34-2.32-2.32-4.74-2.97-7.21-2.46.67-5.05,1.04-7.73,1.04h-9.15v28.2l24.43-14.1-4.57-7.92Z"/>
  <path class="cls-1" d="m731.32,794.71c-1.34-2.32-2.32-4.74-2.97-7.21-2.46.67-5.05,1.04-7.73,1.04h-9.15v28.2l24.43-14.1-4.57-7.92Z"/>
  <path class="cls-1" d="m728.35,787.49c.65,2.47,1.63,4.9,2.97,7.21l4.57,7.92,7.92-4.57c2.32-1.34,4.38-2.95,6.18-4.76-3.94-3.97-6.59-8.93-7.79-14.23-3.68,3.99-8.46,6.96-13.86,8.42Z"/>
  <path class="cls-1" d="m728.35,787.49c.65,2.47,1.63,4.9,2.97,7.21l4.57,7.92,7.92-4.57c2.32-1.34,4.38-2.95,6.18-4.76-3.94-3.97-6.59-8.93-7.79-14.23-3.68,3.99-8.46,6.96-13.86,8.42Z"/>
  <path class="cls-1" d="m728.35,787.49c.65,2.47,1.63,4.9,2.97,7.21l4.57,7.92,7.92-4.57c2.32-1.34,4.38-2.95,6.18-4.76-3.94-3.97-6.59-8.93-7.79-14.23-3.68,3.99-8.46,6.96-13.86,8.42Z"/>
  <path class="cls-1" d="m728.35,787.49c.65,2.47,1.63,4.9,2.97,7.21l4.57,7.92,7.92-4.57c2.32-1.34,4.38-2.95,6.18-4.76-3.94-3.97-6.59-8.93-7.79-14.23-3.68,3.99-8.46,6.96-13.86,8.42Z"/>
  <path class="cls-1" d="m728.35,787.49c.65,2.47,1.63,4.9,2.97,7.21l4.57,7.92,7.92-4.57c2.32-1.34,4.38-2.95,6.18-4.76-3.94-3.97-6.59-8.93-7.79-14.23-3.68,3.99-8.46,6.96-13.86,8.42Z"/>
  <path class="cls-1" d="m750,759.15c0,7.69-2.96,14.68-7.79,19.92,1.2,5.3,3.85,10.26,7.79,14.23,3.94-3.97,6.59-8.93,7.79-14.23-4.83-5.24-7.79-12.23-7.79-19.92Z"/>
  <path class="cls-1" d="m750,759.15c0,7.69-2.96,14.68-7.79,19.92,1.2,5.3,3.85,10.26,7.79,14.23,3.94-3.97,6.59-8.93,7.79-14.23-4.83-5.24-7.79-12.23-7.79-19.92Z"/>
  <path class="cls-1" d="m750,759.15c0,7.69-2.96,14.68-7.79,19.92,1.2,5.3,3.85,10.26,7.79,14.23,3.94-3.97,6.59-8.93,7.79-14.23-4.83-5.24-7.79-12.23-7.79-19.92Z"/>
  <path class="cls-1" d="m750,759.15c0,7.69-2.96,14.68-7.79,19.92,1.2,5.3,3.85,10.26,7.79,14.23,3.94-3.97,6.59-8.93,7.79-14.23-4.83-5.24-7.79-12.23-7.79-19.92Z"/>
  <path class="cls-1" d="m750,759.15c0,7.69-2.96,14.68-7.79,19.92,1.2,5.3,3.85,10.26,7.79,14.23,3.94-3.97,6.59-8.93,7.79-14.23-4.83-5.24-7.79-12.23-7.79-19.92Z"/>
  <path class="cls-1" d="m750,759.15c0,7.69-2.96,14.68-7.79,19.92,1.2,5.3,3.85,10.26,7.79,14.23,3.94-3.97,6.59-8.93,7.79-14.23-4.83-5.24-7.79-12.23-7.79-19.92Z"/>
  <path class="cls-1" d="m750,759.15c0,7.69,2.96,14.68,7.79,19.92,1.57-6.95.63-14.49-3.21-21.14l-4.57-7.92h0v9.15Z"/>
  <path class="cls-1" d="m750,759.15c0,7.69,2.96,14.68,7.79,19.92,1.57-6.95.63-14.49-3.21-21.14l-4.57-7.92h0v9.15Z"/>
  <path class="cls-1" d="m750,759.15c0,7.69,2.96,14.68,7.79,19.92,1.57-6.95.63-14.49-3.21-21.14l-4.57-7.92h0v9.15Z"/>
  <path class="cls-1" d="m750,759.15c0,7.69,2.96,14.68,7.79,19.92,1.57-6.95.63-14.49-3.21-21.14l-4.57-7.92h0v9.15Z"/>
  <path class="cls-1" d="m750,759.15c0,7.69,2.96,14.68,7.79,19.92,1.57-6.95.63-14.49-3.21-21.14l-4.57-7.92h0v9.15Z"/>
  <path class="cls-1" d="m750,759.15c0,7.69,2.96,14.68,7.79,19.92,1.57-6.95.63-14.49-3.21-21.14l-4.57-7.92h0v9.15Z"/>
  <path class="cls-1" d="m750,759.15c0,7.69,2.96,14.68,7.79,19.92,1.57-6.95.63-14.49-3.21-21.14l-4.57-7.92h0v9.15Z"/>
  <path class="cls-1" d="m728.72,771.28c-5.19,1.61-10.81,1.79-16.21.37-.67,2.46-1.04,5.06-1.04,7.73v9.15h9.15c2.68,0,5.27-.37,7.73-1.04-1.43-5.41-1.25-11.03.37-16.21Z"/>
  <path class="cls-1" d="m728.72,771.28c-5.19,1.61-10.81,1.79-16.21.37-.67,2.46-1.04,5.06-1.04,7.73v9.15h9.15c2.68,0,5.27-.37,7.73-1.04-1.43-5.41-1.25-11.03.37-16.21Z"/>
  <path class="cls-1" d="m728.72,771.28c-5.19,1.61-10.81,1.79-16.21.37-.67,2.46-1.04,5.06-1.04,7.73v9.15h9.15c2.68,0,5.27-.37,7.73-1.04-1.43-5.41-1.25-11.03.37-16.21Z"/>
  <path class="cls-1" d="m728.72,771.28c-5.19,1.61-10.81,1.79-16.21.37-.67,2.46-1.04,5.06-1.04,7.73v9.15h9.15c2.68,0,5.27-.37,7.73-1.04-1.43-5.41-1.25-11.03.37-16.21Z"/>
  <path class="cls-1" d="m728.72,771.28c-5.19,1.61-10.81,1.79-16.21.37-.67,2.46-1.04,5.06-1.04,7.73v9.15h9.15c2.68,0,5.27-.37,7.73-1.04-1.43-5.41-1.25-11.03.37-16.21Z"/>
  <path class="cls-1" d="m742.21,779.07c-1.57-6.95-.63-14.49,3.21-21.14-3.84,6.66-9.9,11.24-16.7,13.35-1.61,5.19-1.79,10.81-.37,16.21,5.4-1.47,10.17-4.43,13.86-8.42Z"/>
  <path class="cls-1" d="m742.21,779.07c-1.57-6.95-.63-14.49,3.21-21.14-3.84,6.66-9.9,11.24-16.7,13.35-1.61,5.19-1.79,10.81-.37,16.21,5.4-1.47,10.17-4.43,13.86-8.42Z"/>
  <path class="cls-1" d="m742.21,779.07c-1.57-6.95-.63-14.49,3.21-21.14-3.84,6.66-9.9,11.24-16.7,13.35-1.61,5.19-1.79,10.81-.37,16.21,5.4-1.47,10.17-4.43,13.86-8.42Z"/>
  <path class="cls-1" d="m742.21,779.07c-1.57-6.95-.63-14.49,3.21-21.14-3.84,6.66-9.9,11.24-16.7,13.35-1.61,5.19-1.79,10.81-.37,16.21,5.4-1.47,10.17-4.43,13.86-8.42Z"/>
  <path class="cls-1" d="m742.21,779.07c-1.57-6.95-.63-14.49,3.21-21.14-3.84,6.66-9.9,11.24-16.7,13.35-1.61,5.19-1.79,10.81-.37,16.21,5.4-1.47,10.17-4.43,13.86-8.42Z"/>
  <path class="cls-1" d="m742.21,779.07c-1.57-6.95-.63-14.49,3.21-21.14-3.84,6.66-9.9,11.24-16.7,13.35-1.61,5.19-1.79,10.81-.37,16.21,5.4-1.47,10.17-4.43,13.86-8.42Z"/>
  <path class="cls-1" d="m750,750l-4.57,7.92c-3.84,6.66-4.78,14.19-3.21,21.14,4.83-5.24,7.79-12.23,7.79-19.92v-9.15h0Z"/>
  <path class="cls-1" d="m750,750l-4.57,7.92c-3.84,6.66-4.78,14.19-3.21,21.14,4.83-5.24,7.79-12.23,7.79-19.92v-9.15h0Z"/>
  <path class="cls-1" d="m750,750l-4.57,7.92c-3.84,6.66-4.78,14.19-3.21,21.14,4.83-5.24,7.79-12.23,7.79-19.92v-9.15h0Z"/>
  <path class="cls-1" d="m750,750l-4.57,7.92c-3.84,6.66-4.78,14.19-3.21,21.14,4.83-5.24,7.79-12.23,7.79-19.92v-9.15h0Z"/>
  <path class="cls-1" d="m750,750l-4.57,7.92c-3.84,6.66-4.78,14.19-3.21,21.14,4.83-5.24,7.79-12.23,7.79-19.92v-9.15h0Z"/>
  <path class="cls-1" d="m750,750l-4.57,7.92c-3.84,6.66-4.78,14.19-3.21,21.14,4.83-5.24,7.79-12.23,7.79-19.92v-9.15h0Z"/>
  <path class="cls-1" d="m750,750l-4.57,7.92c-3.84,6.66-4.78,14.19-3.21,21.14,4.83-5.24,7.79-12.23,7.79-19.92v-9.15h0Z"/>
  <path class="cls-1" d="m728.72,771.28c2.12-6.8,6.7-12.86,13.35-16.7-6.66,3.84-14.19,4.78-21.14,3.21-3.99,3.69-6.96,8.46-8.43,13.86,5.41,1.43,11.03,1.25,16.21-.37Z"/>
  <path class="cls-1" d="m728.72,771.28c2.12-6.8,6.7-12.86,13.35-16.7-6.66,3.84-14.19,4.78-21.14,3.21-3.99,3.69-6.96,8.46-8.43,13.86,5.41,1.43,11.03,1.25,16.21-.37Z"/>
  <path class="cls-1" d="m728.72,771.28c2.12-6.8,6.7-12.86,13.35-16.7-6.66,3.84-14.19,4.78-21.14,3.21-3.99,3.69-6.96,8.46-8.43,13.86,5.41,1.43,11.03,1.25,16.21-.37Z"/>
  <path class="cls-1" d="m728.72,771.28c2.12-6.8,6.7-12.86,13.35-16.7-6.66,3.84-14.19,4.78-21.14,3.21-3.99,3.69-6.96,8.46-8.43,13.86,5.41,1.43,11.03,1.25,16.21-.37Z"/>
  <path class="cls-1" d="m728.72,771.28c2.12-6.8,6.7-12.86,13.35-16.7-6.66,3.84-14.19,4.78-21.14,3.21-3.99,3.69-6.96,8.46-8.43,13.86,5.41,1.43,11.03,1.25,16.21-.37Z"/>
  <path class="cls-1" d="m728.72,771.28c2.12-6.8,6.7-12.86,13.35-16.7-6.66,3.84-14.19,4.78-21.14,3.21-3.99,3.69-6.96,8.46-8.43,13.86,5.41,1.43,11.03,1.25,16.21-.37Z"/>
  <path class="cls-1" d="m742.08,754.57c-6.66,3.84-11.24,9.9-13.35,16.7,6.8-2.12,12.86-6.7,16.7-13.35l4.57-7.92-7.92,4.57Z"/>
  <path class="cls-1" d="m742.08,754.57c-6.66,3.84-11.24,9.9-13.35,16.7,6.8-2.12,12.86-6.7,16.7-13.35l4.57-7.92-7.92,4.57Z"/>
  <path class="cls-1" d="m742.08,754.57c-6.66,3.84-11.24,9.9-13.35,16.7,6.8-2.12,12.86-6.7,16.7-13.35l4.57-7.92-7.92,4.57Z"/>
  <path class="cls-1" d="m742.08,754.57c-6.66,3.84-11.24,9.9-13.35,16.7,6.8-2.12,12.86-6.7,16.7-13.35l4.57-7.92-7.92,4.57Z"/>
  <path class="cls-1" d="m742.08,754.57c-6.66,3.84-11.24,9.9-13.35,16.7,6.8-2.12,12.86-6.7,16.7-13.35l4.57-7.92-7.92,4.57Z"/>
  <path class="cls-1" d="m742.08,754.57c-6.66,3.84-11.24,9.9-13.35,16.7,6.8-2.12,12.86-6.7,16.7-13.35l4.57-7.92-7.92,4.57Z"/>
  <path class="cls-1" d="m742.08,754.57c-6.66,3.84-11.24,9.9-13.35,16.7,6.8-2.12,12.86-6.7,16.7-13.35l4.57-7.92-7.92,4.57Z"/>
  <path class="cls-1" d="m750,750h-9.15c-7.69,0-14.68,2.96-19.92,7.79,6.95,1.57,14.49.63,21.14-3.21l7.92-4.57h0Z"/>
  <path class="cls-1" d="m750,750h-9.15c-7.69,0-14.68,2.96-19.92,7.79,6.95,1.57,14.49.63,21.14-3.21l7.92-4.57h0Z"/>
  <path class="cls-1" d="m750,750h-9.15c-7.69,0-14.68,2.96-19.92,7.79,6.95,1.57,14.49.63,21.14-3.21l7.92-4.57h0Z"/>
  <path class="cls-1" d="m750,750h-9.15c-7.69,0-14.68,2.96-19.92,7.79,6.95,1.57,14.49.63,21.14-3.21l7.92-4.57h0Z"/>
  <path class="cls-1" d="m750,750h-9.15c-7.69,0-14.68,2.96-19.92,7.79,6.95,1.57,14.49.63,21.14-3.21l7.92-4.57h0Z"/>
  <path class="cls-1" d="m750,750h-9.15c-7.69,0-14.68,2.96-19.92,7.79,6.95,1.57,14.49.63,21.14-3.21l7.92-4.57h0Z"/>
  <path class="cls-1" d="m750,750h-9.15c-7.69,0-14.68,2.96-19.92,7.79,6.95,1.57,14.49.63,21.14-3.21l7.92-4.57h0Z"/>
</svg>