<?xml version="1.0" encoding="UTF-8"?>
<svg id="Calque_1" data-name="Calque 1" xmlns="http://www.w3.org/2000/svg" viewBox="0 0 1500 1500">
  <defs>
    <style>
      .cls-1 {
        fill: #f2f2f2;
        opacity: .5;
      }
    </style>
  </defs>
  <path class="cls-1" d="m750,750l216.51-375h0C1062.73,208.33,942.45,0,750,0h0c-192.45,0-312.73,208.33-216.51,375h0s216.51,375,216.51,375Z"/>
  <path class="cls-1" d="m750,750l-216.51,375h0c-96.22,166.67,24.06,375,216.51,375h0c192.45,0,312.73-208.33,216.51-375h0s-216.51-375-216.51-375Z"/>
  <path class="cls-1" d="m750,750l375-216.51h0c166.67-96.23,375,24.06,375,216.51h0c0,192.45-208.33,312.73-375,216.51h0s-375-216.51-375-216.51Z"/>
  <path class="cls-1" d="m750,750l-375-216.51h0C208.33,437.27,0,557.55,0,750h0c0,192.45,208.33,312.73,375,216.51h0s375-216.51,375-216.51Z"/>
</svg>