<?xml version="1.0" encoding="UTF-8"?>
<svg id="Calque_1" data-name="Calque 1" xmlns="http://www.w3.org/2000/svg" viewBox="0 0 4000 4000">
  <defs>
    <style>
      .cls-1 {
        opacity: .3;
      }
    </style>
  </defs>
  <g>
    <path class="cls-1" d="m1546.83,1215.09c-120.51-27.9-245.88-43.13-374.88-43.13h0c0,129,15.23,254.36,43.14,374.88,90.02-27.46,181.24-47.28,272.86-58.89,11.61-91.62,31.43-182.84,58.89-272.85Z"/>
    <path class="cls-1" d="m2453.17,2784.91c120.51,27.9,245.88,43.14,374.88,43.14h0c0-129-15.23-254.36-43.14-374.88-90.02,27.46-181.24,47.28-272.86,58.89-11.61,91.62-31.43,182.84-58.89,272.85Z"/>
    <path class="cls-1" d="m2906.34,1999.99c-64.23,68.79-133.32,131.56-206.85,187.43,35.75,85.15,64.2,174.06,85.43,265.74,118.32-36.09,234.51-85.59,346.22-150.09h0c-64.5-111.72-140.37-212.67-224.8-303.09Z"/>
    <path class="cls-1" d="m1300.52,1812.58c-35.75-85.15-64.2-174.06-85.43-265.74-118.32,36.09-234.51,85.58-346.22,150.08h0,0c64.5,111.71,140.37,212.67,224.8,303.09,64.23-68.79,133.32-131.56,206.85-187.43Z"/>
    <path class="cls-1" d="m1475.24,1697.03c-.07-69.61,3.87-139.43,12.7-209.09-91.62,11.61-182.84,31.43-272.86,58.89,21.23,91.68,49.68,180.59,85.43,265.74,55.91-42.47,114.4-80.8,174.72-115.55Z"/>
    <path class="cls-1" d="m1475.24,1697.03c-.07-69.61,3.87-139.43,12.7-209.09-91.62,11.61-182.84,31.43-272.86,58.89,21.23,91.68,49.68,180.59,85.43,265.74,55.91-42.47,114.4-80.8,174.72-115.55Z"/>
    <path class="cls-1" d="m2524.76,2302.97c.07,69.61-3.87,139.43-12.7,209.09,91.62-11.61,182.84-31.43,272.86-58.89-21.23-91.68-49.68-180.6-85.43-265.74-55.91,42.48-114.4,80.8-174.72,115.55Z"/>
    <path class="cls-1" d="m2524.76,2302.97c.07,69.61-3.87,139.43-12.7,209.09,91.62-11.61,182.84-31.43,272.86-58.89-21.23-91.68-49.68-180.6-85.43-265.74-55.91,42.48-114.4,80.8-174.72,115.55Z"/>
    <path class="cls-1" d="m2906.34,1999.99c84.42-90.41,160.29-191.37,224.79-303.09h0,0c-111.71-64.5-227.9-113.99-346.22-150.08-21.23,91.68-49.68,180.59-85.43,265.74,73.54,55.86,142.63,118.64,206.86,187.42Z"/>
    <path class="cls-1" d="m1093.66,2000c-84.42,90.41-160.3,191.37-224.79,303.09h0,0c111.71,64.5,227.9,113.99,346.22,150.08,21.23-91.68,49.67-180.59,85.43-265.74-73.54-55.86-142.63-118.64-206.86-187.42Z"/>
    <path class="cls-1" d="m1300.52,2187.43c27.18-64.74,58.68-127.18,93.54-187.42-34.87-60.25-66.36-122.68-93.54-187.43-73.54,55.86-142.63,118.64-206.85,187.43,64.23,68.79,133.32,131.56,206.86,187.42Z"/>
    <path class="cls-1" d="m1300.52,2187.43c27.18-64.74,58.68-127.18,93.54-187.42-34.87-60.25-66.36-122.68-93.54-187.43-73.54,55.86-142.63,118.64-206.85,187.43,64.23,68.79,133.32,131.56,206.86,187.42Z"/>
    <path class="cls-1" d="m2699.48,1812.57c-27.18,64.74-58.67,127.18-93.54,187.43,34.87,60.25,66.36,122.68,93.54,187.43,73.54-55.87,142.63-118.64,206.85-187.43-64.23-68.79-133.32-131.56-206.86-187.42Z"/>
    <path class="cls-1" d="m2699.48,1812.57c-27.18,64.74-58.67,127.18-93.54,187.43,34.87,60.25,66.36,122.68,93.54,187.43,73.54-55.87,142.63-118.64,206.85-187.43-64.23-68.79-133.32-131.56-206.86-187.42Z"/>
    <path class="cls-1" d="m1475.24,1697.03c-60.32,34.74-118.81,73.07-174.72,115.55,27.18,64.74,58.68,127.18,93.54,187.43,27.6-47.69,57.46-93.86,89.52-138.38-5.5-54.59-8.28-109.5-8.34-164.59Z"/>
    <path class="cls-1" d="m1475.24,1697.03c-60.32,34.74-118.81,73.07-174.72,115.55,27.18,64.74,58.68,127.18,93.54,187.43,27.6-47.69,57.46-93.86,89.52-138.38-5.5-54.59-8.28-109.5-8.34-164.59Z"/>
    <path class="cls-1" d="m1475.24,1697.03c-60.32,34.74-118.81,73.07-174.72,115.55,27.18,64.74,58.68,127.18,93.54,187.43,27.6-47.69,57.46-93.86,89.52-138.38-5.5-54.59-8.28-109.5-8.34-164.59Z"/>
    <path class="cls-1" d="m2516.42,2138.37c5.5,54.59,8.28,109.5,8.34,164.59,60.32-34.74,118.81-73.07,174.72-115.55-27.18-64.74-58.68-127.18-93.54-187.43-27.59,47.69-57.46,93.85-89.52,138.38Z"/>
    <path class="cls-1" d="m2516.42,2138.37c5.5,54.59,8.28,109.5,8.34,164.59,60.32-34.74,118.81-73.07,174.72-115.55-27.18-64.74-58.68-127.18-93.54-187.43-27.59,47.69-57.46,93.85-89.52,138.38Z"/>
    <path class="cls-1" d="m2516.42,2138.37c5.5,54.59,8.28,109.5,8.34,164.59,60.32-34.74,118.81-73.07,174.72-115.55-27.18-64.74-58.68-127.18-93.54-187.43-27.59,47.69-57.46,93.85-89.52,138.38Z"/>
    <path class="cls-1" d="m1215.09,2453.17c-27.9,120.51-43.13,245.88-43.13,374.88h0c129,0,254.36-15.23,374.88-43.14-27.46-90.02-47.28-181.24-58.89-272.85-91.62-11.61-182.84-31.43-272.85-58.89Z"/>
    <path class="cls-1" d="m2784.91,1546.83c27.9-120.51,43.13-245.88,43.13-374.88h0s0,0,0,0c-129,0-254.36,15.24-374.88,43.14,27.46,90.02,47.28,181.24,58.89,272.86,91.62,11.61,182.84,31.43,272.86,58.88Z"/>
    <path class="cls-1" d="m2524.76,1697.03c60.32,34.74,118.81,73.07,174.72,115.54,35.75-85.15,64.2-174.06,85.43-265.74-90.02-27.46-181.24-47.28-272.86-58.88,8.83,69.66,12.77,139.48,12.7,209.09Z"/>
    <path class="cls-1" d="m2524.76,1697.03c60.32,34.74,118.81,73.07,174.72,115.54,35.75-85.15,64.2-174.06,85.43-265.74-90.02-27.46-181.24-47.28-272.86-58.88,8.83,69.66,12.77,139.48,12.7,209.09Z"/>
    <path class="cls-1" d="m1475.24,2302.97c-60.32-34.74-118.81-73.07-174.72-115.54-35.75,85.15-64.2,174.06-85.43,265.74,90.02,27.46,181.24,47.28,272.85,58.89-8.83-69.66-12.77-139.48-12.7-209.09Z"/>
    <path class="cls-1" d="m1475.24,2302.97c-60.32-34.74-118.81-73.07-174.72-115.54-35.75,85.15-64.2,174.06-85.43,265.74,90.02,27.46,181.24,47.28,272.85,58.89-8.83-69.66-12.77-139.48-12.7-209.09Z"/>
    <path class="cls-1" d="m2516.42,1861.62c32.06,44.52,61.92,90.69,89.52,138.37,34.87-60.25,66.36-122.69,93.54-187.43-55.91-42.48-114.4-80.8-174.72-115.54-.06,55.09-2.83,110.01-8.33,164.6Z"/>
    <path class="cls-1" d="m2516.42,1861.62c32.06,44.52,61.92,90.69,89.52,138.37,34.87-60.25,66.36-122.69,93.54-187.43-55.91-42.48-114.4-80.8-174.72-115.54-.06,55.09-2.83,110.01-8.33,164.6Z"/>
    <path class="cls-1" d="m2516.42,1861.62c32.06,44.52,61.92,90.69,89.52,138.37,34.87-60.25,66.36-122.69,93.54-187.43-55.91-42.48-114.4-80.8-174.72-115.54-.06,55.09-2.83,110.01-8.33,164.6Z"/>
    <path class="cls-1" d="m1483.58,2138.38c-32.06-44.52-61.92-90.69-89.52-138.37-34.87,60.25-66.36,122.68-93.54,187.42,55.91,42.48,114.4,80.8,174.72,115.54.06-55.09,2.83-110.01,8.33-164.59Z"/>
    <path class="cls-1" d="m1483.58,2138.38c-32.06-44.52-61.92-90.69-89.52-138.37-34.87,60.25-66.36,122.68-93.54,187.42,55.91,42.48,114.4,80.8,174.72,115.54.06-55.09,2.83-110.01,8.33-164.59Z"/>
    <path class="cls-1" d="m1483.58,2138.38c-32.06-44.52-61.92-90.69-89.52-138.37-34.87,60.25-66.36,122.68-93.54,187.42,55.91,42.48,114.4,80.8,174.72,115.54.06-55.09,2.83-110.01,8.33-164.59Z"/>
    <path class="cls-1" d="m1503.43,2000c-8.55-45.79-15.18-91.94-19.86-138.38-32.06,44.52-61.92,90.69-89.52,138.38,27.6,47.68,57.46,93.85,89.52,138.37,4.68-46.44,11.31-92.58,19.86-138.38Z"/>
    <path class="cls-1" d="m1503.43,2000c-8.55-45.79-15.18-91.94-19.86-138.38-32.06,44.52-61.92,90.69-89.52,138.38,27.6,47.68,57.46,93.85,89.52,138.37,4.68-46.44,11.31-92.58,19.86-138.38Z"/>
    <path class="cls-1" d="m1503.43,2000c-8.55-45.79-15.18-91.94-19.86-138.38-32.06,44.52-61.92,90.69-89.52,138.38,27.6,47.68,57.46,93.85,89.52,138.37,4.68-46.44,11.31-92.58,19.86-138.38Z"/>
    <path class="cls-1" d="m1503.43,2000c-8.55-45.79-15.18-91.94-19.86-138.38-32.06,44.52-61.92,90.69-89.52,138.38,27.6,47.68,57.46,93.85,89.52,138.37,4.68-46.44,11.31-92.58,19.86-138.38Z"/>
    <path class="cls-1" d="m2496.57,2000c8.55,45.79,15.18,91.94,19.86,138.38,32.06-44.52,61.92-90.69,89.52-138.38-27.6-47.68-57.46-93.85-89.52-138.37-4.68,46.44-11.31,92.58-19.86,138.38Z"/>
    <path class="cls-1" d="m2496.57,2000c8.55,45.79,15.18,91.94,19.86,138.38,32.06-44.52,61.92-90.69,89.52-138.38-27.6-47.68-57.46-93.85-89.52-138.37-4.68,46.44-11.31,92.58-19.86,138.38Z"/>
    <path class="cls-1" d="m2496.57,2000c8.55,45.79,15.18,91.94,19.86,138.38,32.06-44.52,61.92-90.69,89.52-138.38-27.6-47.68-57.46-93.85-89.52-138.37-4.68,46.44-11.31,92.58-19.86,138.38Z"/>
    <path class="cls-1" d="m2496.57,2000c8.55,45.79,15.18,91.94,19.86,138.38,32.06-44.52,61.92-90.69,89.52-138.38-27.6-47.68-57.46-93.85-89.52-138.37-4.68,46.44-11.31,92.58-19.86,138.38Z"/>
    <path class="cls-1" d="m1812.58,2699.48c-85.15,35.75-174.06,64.2-265.74,85.43,36.09,118.32,85.59,234.51,150.08,346.22h0s0,0,0,0c111.71-64.5,212.67-140.37,303.08-224.8-68.79-64.23-131.56-133.32-187.43-206.85Z"/>
    <path class="cls-1" d="m2187.42,1300.52c85.15-35.75,174.06-64.2,265.74-85.43-36.09-118.32-85.59-234.5-150.08-346.22h0s0,0,0,0c-111.71,64.5-212.67,140.37-303.08,224.8,68.79,64.23,131.56,133.32,187.43,206.85Z"/>
    <path class="cls-1" d="m1697.03,2524.76c-69.61.07-139.43-3.87-209.09-12.7,11.61,91.62,31.43,182.84,58.89,272.85,91.68-21.23,180.59-49.68,265.74-85.43-42.48-55.91-80.8-114.4-115.55-174.73Z"/>
    <path class="cls-1" d="m1697.03,2524.76c-69.61.07-139.43-3.87-209.09-12.7,11.61,91.62,31.43,182.84,58.89,272.85,91.68-21.23,180.59-49.68,265.74-85.43-42.48-55.91-80.8-114.4-115.55-174.73Z"/>
    <path class="cls-1" d="m2302.97,1475.24c69.61-.07,139.43,3.87,209.09,12.7-11.61-91.62-31.43-182.84-58.89-272.86-91.68,21.23-180.59,49.68-265.74,85.43,42.48,55.91,80.8,114.4,115.55,174.72Z"/>
    <path class="cls-1" d="m2302.97,1475.24c69.61-.07,139.43,3.87,209.09,12.7-11.61-91.62-31.43-182.84-58.89-272.86-91.68,21.23-180.59,49.68-265.74,85.43,42.48,55.91,80.8,114.4,115.55,174.72Z"/>
    <path class="cls-1" d="m2524.76,1697.03c.07-69.61-3.87-139.43-12.7-209.09-69.66-8.83-139.48-12.77-209.09-12.7,27.5,47.74,52.55,96.68,75.08,146.71,50.03,22.53,98.97,47.58,146.71,75.08Z"/>
    <path class="cls-1" d="m2524.76,1697.03c.07-69.61-3.87-139.43-12.7-209.09-69.66-8.83-139.48-12.77-209.09-12.7,27.5,47.74,52.55,96.68,75.08,146.71,50.03,22.53,98.97,47.58,146.71,75.08Z"/>
    <path class="cls-1" d="m2524.76,1697.03c.07-69.61-3.87-139.43-12.7-209.09-69.66-8.83-139.48-12.77-209.09-12.7,27.5,47.74,52.55,96.68,75.08,146.71,50.03,22.53,98.97,47.58,146.71,75.08Z"/>
    <path class="cls-1" d="m1475.24,2302.97c-.07,69.61,3.87,139.43,12.7,209.09,69.66,8.83,139.48,12.77,209.09,12.7-27.5-47.74-52.55-96.68-75.08-146.71-50.03-22.53-98.97-47.58-146.71-75.08Z"/>
    <path class="cls-1" d="m1475.24,2302.97c-.07,69.61,3.87,139.43,12.7,209.09,69.66,8.83,139.48,12.77,209.09,12.7-27.5-47.74-52.55-96.68-75.08-146.71-50.03-22.53-98.97-47.58-146.71-75.08Z"/>
    <path class="cls-1" d="m1475.24,2302.97c-.07,69.61,3.87,139.43,12.7,209.09,69.66,8.83,139.48,12.77,209.09,12.7-27.5-47.74-52.55-96.68-75.08-146.71-50.03-22.53-98.97-47.58-146.71-75.08Z"/>
    <path class="cls-1" d="m1569.96,2248.28c-30.3-35.38-59.11-72.04-86.38-109.91-5.5,54.59-8.28,109.5-8.33,164.59,47.74,27.5,96.68,52.55,146.71,75.08-19.16-42.56-36.5-85.83-51.99-129.76Z"/>
    <path class="cls-1" d="m1569.96,2248.28c-30.3-35.38-59.11-72.04-86.38-109.91-5.5,54.59-8.28,109.5-8.33,164.59,47.74,27.5,96.68,52.55,146.71,75.08-19.16-42.56-36.5-85.83-51.99-129.76Z"/>
    <path class="cls-1" d="m1569.96,2248.28c-30.3-35.38-59.11-72.04-86.38-109.91-5.5,54.59-8.28,109.5-8.33,164.59,47.74,27.5,96.68,52.55,146.71,75.08-19.16-42.56-36.5-85.83-51.99-129.76Z"/>
    <path class="cls-1" d="m1569.96,2248.28c-30.3-35.38-59.11-72.04-86.38-109.91-5.5,54.59-8.28,109.5-8.33,164.59,47.74,27.5,96.68,52.55,146.71,75.08-19.16-42.56-36.5-85.83-51.99-129.76Z"/>
    <path class="cls-1" d="m2430.04,1751.71c30.3,35.38,59.11,72.04,86.38,109.91,5.5-54.59,8.28-109.5,8.33-164.6-47.74-27.5-96.68-52.55-146.71-75.08,19.16,42.56,36.5,85.83,51.99,129.76Z"/>
    <path class="cls-1" d="m2430.04,1751.71c30.3,35.38,59.11,72.04,86.38,109.91,5.5-54.59,8.28-109.5,8.33-164.6-47.74-27.5-96.68-52.55-146.71-75.08,19.16,42.56,36.5,85.83,51.99,129.76Z"/>
    <path class="cls-1" d="m2430.04,1751.71c30.3,35.38,59.11,72.04,86.38,109.91,5.5-54.59,8.28-109.5,8.33-164.6-47.74-27.5-96.68-52.55-146.71-75.08,19.16,42.56,36.5,85.83,51.99,129.76Z"/>
    <path class="cls-1" d="m2430.04,1751.71c30.3,35.38,59.11,72.04,86.38,109.91,5.5-54.59,8.28-109.5,8.33-164.6-47.74-27.5-96.68-52.55-146.71-75.08,19.16,42.56,36.5,85.83,51.99,129.76Z"/>
    <path class="cls-1" d="m1483.58,2138.38c27.27,37.87,56.08,74.52,86.38,109.91-28.54-80.93-50.78-163.93-66.53-248.28-8.55,45.79-15.17,91.94-19.86,138.38Z"/>
    <path class="cls-1" d="m1483.58,2138.38c27.27,37.87,56.08,74.52,86.38,109.91-28.54-80.93-50.78-163.93-66.53-248.28-8.55,45.79-15.17,91.94-19.86,138.38Z"/>
    <path class="cls-1" d="m1483.58,2138.38c27.27,37.87,56.08,74.52,86.38,109.91-28.54-80.93-50.78-163.93-66.53-248.28-8.55,45.79-15.17,91.94-19.86,138.38Z"/>
    <path class="cls-1" d="m1483.58,2138.38c27.27,37.87,56.08,74.52,86.38,109.91-28.54-80.93-50.78-163.93-66.53-248.28-8.55,45.79-15.17,91.94-19.86,138.38Z"/>
    <path class="cls-1" d="m1483.58,2138.38c27.27,37.87,56.08,74.52,86.38,109.91-28.54-80.93-50.78-163.93-66.53-248.28-8.55,45.79-15.17,91.94-19.86,138.38Z"/>
    <path class="cls-1" d="m2516.42,1861.62c-27.27-37.87-56.08-74.53-86.38-109.91,28.54,80.93,50.78,163.93,66.53,248.29,8.55-45.79,15.17-91.94,19.86-138.38Z"/>
    <path class="cls-1" d="m2516.42,1861.62c-27.27-37.87-56.08-74.53-86.38-109.91,28.54,80.93,50.78,163.93,66.53,248.29,8.55-45.79,15.17-91.94,19.86-138.38Z"/>
    <path class="cls-1" d="m2516.42,1861.62c-27.27-37.87-56.08-74.53-86.38-109.91,28.54,80.93,50.78,163.93,66.53,248.29,8.55-45.79,15.17-91.94,19.86-138.38Z"/>
    <path class="cls-1" d="m2516.42,1861.62c-27.27-37.87-56.08-74.53-86.38-109.91,28.54,80.93,50.78,163.93,66.53,248.29,8.55-45.79,15.17-91.94,19.86-138.38Z"/>
    <path class="cls-1" d="m2516.42,1861.62c-27.27-37.87-56.08-74.53-86.38-109.91,28.54,80.93,50.78,163.93,66.53,248.29,8.55-45.79,15.17-91.94,19.86-138.38Z"/>
    <path class="cls-1" d="m2000,1093.66c-90.42-84.42-191.37-160.3-303.09-224.8h0c-64.5,111.71-113.99,227.9-150.08,346.22,91.68,21.23,180.59,49.67,265.74,85.43,55.86-73.54,118.64-142.63,187.42-206.86Z"/>
    <path class="cls-1" d="m2000,2906.34c90.42,84.42,191.37,160.3,303.09,224.79h0c64.5-111.71,113.99-227.9,150.08-346.22-91.69-21.23-180.59-49.67-265.74-85.43-55.86,73.54-118.64,142.63-187.42,206.86Z"/>
    <path class="cls-1" d="m2302.97,2524.76c-34.74,60.32-73.07,118.81-115.54,174.72,85.15,35.75,174.06,64.2,265.74,85.43,27.46-90.02,47.28-181.24,58.89-272.85-69.66,8.83-139.47,12.77-209.09,12.7Z"/>
    <path class="cls-1" d="m2302.97,2524.76c-34.74,60.32-73.07,118.81-115.54,174.72,85.15,35.75,174.06,64.2,265.74,85.43,27.46-90.02,47.28-181.24,58.89-272.85-69.66,8.83-139.47,12.77-209.09,12.7Z"/>
    <path class="cls-1" d="m1697.03,1475.24c34.74-60.32,73.07-118.81,115.54-174.72-85.15-35.76-174.06-64.2-265.74-85.43-27.46,90.02-47.28,181.24-58.89,272.85,69.66-8.83,139.48-12.77,209.09-12.7Z"/>
    <path class="cls-1" d="m1697.03,1475.24c34.74-60.32,73.07-118.81,115.54-174.72-85.15-35.76-174.06-64.2-265.74-85.43-27.46,90.02-47.28,181.24-58.89,272.85,69.66-8.83,139.48-12.77,209.09-12.7Z"/>
    <path class="cls-1" d="m2302.97,2524.76c69.61.07,139.43-3.88,209.09-12.7,8.83-69.66,12.77-139.48,12.7-209.09-47.74,27.5-96.68,52.55-146.71,75.08-22.53,50.03-47.58,98.97-75.08,146.71Z"/>
    <path class="cls-1" d="m2302.97,2524.76c69.61.07,139.43-3.88,209.09-12.7,8.83-69.66,12.77-139.48,12.7-209.09-47.74,27.5-96.68,52.55-146.71,75.08-22.53,50.03-47.58,98.97-75.08,146.71Z"/>
    <path class="cls-1" d="m2302.97,2524.76c69.61.07,139.43-3.88,209.09-12.7,8.83-69.66,12.77-139.48,12.7-209.09-47.74,27.5-96.68,52.55-146.71,75.08-22.53,50.03-47.58,98.97-75.08,146.71Z"/>
    <path class="cls-1" d="m1697.03,1475.24c-69.61-.07-139.43,3.88-209.09,12.7-8.83,69.66-12.77,139.48-12.7,209.09,47.74-27.5,96.68-52.55,146.71-75.08,22.53-50.03,47.58-98.97,75.08-146.71Z"/>
    <path class="cls-1" d="m1697.03,1475.24c-69.61-.07-139.43,3.88-209.09,12.7-8.83,69.66-12.77,139.48-12.7,209.09,47.74-27.5,96.68-52.55,146.71-75.08,22.53-50.03,47.58-98.97,75.08-146.71Z"/>
    <path class="cls-1" d="m1697.03,1475.24c-69.61-.07-139.43,3.88-209.09,12.7-8.83,69.66-12.77,139.48-12.7,209.09,47.74-27.5,96.68-52.55,146.71-75.08,22.53-50.03,47.58-98.97,75.08-146.71Z"/>
    <path class="cls-1" d="m1483.58,1861.63c27.27-37.87,56.08-74.52,86.38-109.91,15.49-43.93,32.83-87.21,51.99-129.77-50.03,22.53-98.97,47.58-146.71,75.08.06,55.09,2.83,110.01,8.34,164.59Z"/>
    <path class="cls-1" d="m1483.58,1861.63c27.27-37.87,56.08-74.52,86.38-109.91,15.49-43.93,32.83-87.21,51.99-129.77-50.03,22.53-98.97,47.58-146.71,75.08.06,55.09,2.83,110.01,8.34,164.59Z"/>
    <path class="cls-1" d="m1483.58,1861.63c27.27-37.87,56.08-74.52,86.38-109.91,15.49-43.93,32.83-87.21,51.99-129.77-50.03,22.53-98.97,47.58-146.71,75.08.06,55.09,2.83,110.01,8.34,164.59Z"/>
    <path class="cls-1" d="m1483.58,1861.63c27.27-37.87,56.08-74.52,86.38-109.91,15.49-43.93,32.83-87.21,51.99-129.77-50.03,22.53-98.97,47.58-146.71,75.08.06,55.09,2.83,110.01,8.34,164.59Z"/>
    <path class="cls-1" d="m2516.42,2138.37c-27.27,37.87-56.09,74.52-86.38,109.91-15.49,43.93-32.83,87.21-51.99,129.76,50.03-22.53,98.97-47.58,146.71-75.08-.06-55.1-2.83-110.01-8.34-164.59Z"/>
    <path class="cls-1" d="m2516.42,2138.37c-27.27,37.87-56.09,74.52-86.38,109.91-15.49,43.93-32.83,87.21-51.99,129.76,50.03-22.53,98.97-47.58,146.71-75.08-.06-55.1-2.83-110.01-8.34-164.59Z"/>
    <path class="cls-1" d="m2516.42,2138.37c-27.27,37.87-56.09,74.52-86.38,109.91-15.49,43.93-32.83,87.21-51.99,129.76,50.03-22.53,98.97-47.58,146.71-75.08-.06-55.1-2.83-110.01-8.34-164.59Z"/>
    <path class="cls-1" d="m2516.42,2138.37c-27.27,37.87-56.09,74.52-86.38,109.91-15.49,43.93-32.83,87.21-51.99,129.76,50.03-22.53,98.97-47.58,146.71-75.08-.06-55.1-2.83-110.01-8.34-164.59Z"/>
    <path class="cls-1" d="m2430.04,2248.28c30.3-35.38,59.11-72.03,86.38-109.91-4.68-46.44-11.31-92.59-19.86-138.38-15.75,84.36-37.99,167.35-66.53,248.28Z"/>
    <path class="cls-1" d="m2430.04,2248.28c30.3-35.38,59.11-72.03,86.38-109.91-4.68-46.44-11.31-92.59-19.86-138.38-15.75,84.36-37.99,167.35-66.53,248.28Z"/>
    <path class="cls-1" d="m2430.04,2248.28c30.3-35.38,59.11-72.03,86.38-109.91-4.68-46.44-11.31-92.59-19.86-138.38-15.75,84.36-37.99,167.35-66.53,248.28Z"/>
    <path class="cls-1" d="m2430.04,2248.28c30.3-35.38,59.11-72.03,86.38-109.91-4.68-46.44-11.31-92.59-19.86-138.38-15.75,84.36-37.99,167.35-66.53,248.28Z"/>
    <path class="cls-1" d="m2430.04,2248.28c30.3-35.38,59.11-72.03,86.38-109.91-4.68-46.44-11.31-92.59-19.86-138.38-15.75,84.36-37.99,167.35-66.53,248.28Z"/>
    <path class="cls-1" d="m1483.58,1861.63c4.68,46.44,11.31,92.58,19.86,138.38,15.75-84.36,37.99-167.35,66.53-248.28-30.3,35.38-59.11,72.03-86.38,109.91Z"/>
    <path class="cls-1" d="m1483.58,1861.63c4.68,46.44,11.31,92.58,19.86,138.38,15.75-84.36,37.99-167.35,66.53-248.28-30.3,35.38-59.11,72.03-86.38,109.91Z"/>
    <path class="cls-1" d="m1483.58,1861.63c4.68,46.44,11.31,92.58,19.86,138.38,15.75-84.36,37.99-167.35,66.53-248.28-30.3,35.38-59.11,72.03-86.38,109.91Z"/>
    <path class="cls-1" d="m1483.58,1861.63c4.68,46.44,11.31,92.58,19.86,138.38,15.75-84.36,37.99-167.35,66.53-248.28-30.3,35.38-59.11,72.03-86.38,109.91Z"/>
    <path class="cls-1" d="m1483.58,1861.63c4.68,46.44,11.31,92.58,19.86,138.38,15.75-84.36,37.99-167.35,66.53-248.28-30.3,35.38-59.11,72.03-86.38,109.91Z"/>
    <path class="cls-1" d="m1812.57,1300.52c64.74,27.18,127.18,58.67,187.43,93.54,60.25-34.87,122.68-66.36,187.42-93.54-55.87-73.54-118.64-142.63-187.43-206.85-68.79,64.23-131.56,133.32-187.42,206.86Z"/>
    <path class="cls-1" d="m1812.57,1300.52c64.74,27.18,127.18,58.67,187.43,93.54,60.25-34.87,122.68-66.36,187.42-93.54-55.87-73.54-118.64-142.63-187.43-206.85-68.79,64.23-131.56,133.32-187.42,206.86Z"/>
    <path class="cls-1" d="m2187.43,2699.48c-64.74-27.19-127.18-58.68-187.43-93.54-60.25,34.87-122.68,66.36-187.43,93.54,55.87,73.54,118.64,142.63,187.43,206.85,68.79-64.23,131.56-133.32,187.42-206.86Z"/>
    <path class="cls-1" d="m2187.43,2699.48c-64.74-27.19-127.18-58.68-187.43-93.54-60.25,34.87-122.68,66.36-187.43,93.54,55.87,73.54,118.64,142.63,187.43,206.85,68.79-64.23,131.56-133.32,187.42-206.86Z"/>
    <path class="cls-1" d="m2138.38,2516.42c-44.52,32.06-90.69,61.92-138.37,89.52,60.25,34.87,122.68,66.36,187.43,93.54,42.48-55.91,80.8-114.4,115.54-174.72-55.09-.06-110.01-2.83-164.6-8.34Z"/>
    <path class="cls-1" d="m2138.38,2516.42c-44.52,32.06-90.69,61.92-138.37,89.52,60.25,34.87,122.68,66.36,187.43,93.54,42.48-55.91,80.8-114.4,115.54-174.72-55.09-.06-110.01-2.83-164.6-8.34Z"/>
    <path class="cls-1" d="m2138.38,2516.42c-44.52,32.06-90.69,61.92-138.37,89.52,60.25,34.87,122.68,66.36,187.43,93.54,42.48-55.91,80.8-114.4,115.54-174.72-55.09-.06-110.01-2.83-164.6-8.34Z"/>
    <path class="cls-1" d="m1861.62,1483.58c44.52-32.06,90.69-61.92,138.38-89.52-60.25-34.87-122.69-66.36-187.43-93.54-42.48,55.91-80.8,114.4-115.54,174.72,55.09.06,110.01,2.83,164.6,8.33Z"/>
    <path class="cls-1" d="m1861.62,1483.58c44.52-32.06,90.69-61.92,138.38-89.52-60.25-34.87-122.69-66.36-187.43-93.54-42.48,55.91-80.8,114.4-115.54,174.72,55.09.06,110.01,2.83,164.6,8.33Z"/>
    <path class="cls-1" d="m1861.62,1483.58c44.52-32.06,90.69-61.92,138.38-89.52-60.25-34.87-122.69-66.36-187.43-93.54-42.48,55.91-80.8,114.4-115.54,174.72,55.09.06,110.01,2.83,164.6,8.33Z"/>
    <path class="cls-1" d="m1751.72,1569.96c35.38-30.3,72.03-59.11,109.91-86.38-54.59-5.5-109.5-8.28-164.6-8.33-27.5,47.74-52.55,96.68-75.08,146.71,42.56-19.16,85.83-36.5,129.76-51.99Z"/>
    <path class="cls-1" d="m1751.72,1569.96c35.38-30.3,72.03-59.11,109.91-86.38-54.59-5.5-109.5-8.28-164.6-8.33-27.5,47.74-52.55,96.68-75.08,146.71,42.56-19.16,85.83-36.5,129.76-51.99Z"/>
    <path class="cls-1" d="m1751.72,1569.96c35.38-30.3,72.03-59.11,109.91-86.38-54.59-5.5-109.5-8.28-164.6-8.33-27.5,47.74-52.55,96.68-75.08,146.71,42.56-19.16,85.83-36.5,129.76-51.99Z"/>
    <path class="cls-1" d="m1751.72,1569.96c35.38-30.3,72.03-59.11,109.91-86.38-54.59-5.5-109.5-8.28-164.6-8.33-27.5,47.74-52.55,96.68-75.08,146.71,42.56-19.16,85.83-36.5,129.76-51.99Z"/>
    <path class="cls-1" d="m2248.28,2430.04c-35.38,30.3-72.03,59.11-109.91,86.38,54.59,5.5,109.5,8.28,164.6,8.34,27.5-47.74,52.55-96.68,75.08-146.71-42.56,19.17-85.83,36.5-129.76,51.99Z"/>
    <path class="cls-1" d="m2248.28,2430.04c-35.38,30.3-72.03,59.11-109.91,86.38,54.59,5.5,109.5,8.28,164.6,8.34,27.5-47.74,52.55-96.68,75.08-146.71-42.56,19.17-85.83,36.5-129.76,51.99Z"/>
    <path class="cls-1" d="m2248.28,2430.04c-35.38,30.3-72.03,59.11-109.91,86.38,54.59,5.5,109.5,8.28,164.6,8.34,27.5-47.74,52.55-96.68,75.08-146.71-42.56,19.17-85.83,36.5-129.76,51.99Z"/>
    <path class="cls-1" d="m2248.28,2430.04c-35.38,30.3-72.03,59.11-109.91,86.38,54.59,5.5,109.5,8.28,164.6,8.34,27.5-47.74,52.55-96.68,75.08-146.71-42.56,19.17-85.83,36.5-129.76,51.99Z"/>
    <path class="cls-1" d="m1751.72,1569.96c-43.93,15.49-87.21,32.83-129.76,51.99-19.16,42.56-36.5,85.84-51.99,129.77,55.82-65.18,116.57-125.94,181.76-181.76Z"/>
    <path class="cls-1" d="m1751.72,1569.96c-43.93,15.49-87.21,32.83-129.76,51.99-19.16,42.56-36.5,85.84-51.99,129.77,55.82-65.18,116.57-125.94,181.76-181.76Z"/>
    <path class="cls-1" d="m1751.72,1569.96c-43.93,15.49-87.21,32.83-129.76,51.99-19.16,42.56-36.5,85.84-51.99,129.77,55.82-65.18,116.57-125.94,181.76-181.76Z"/>
    <path class="cls-1" d="m1751.72,1569.96c-43.93,15.49-87.21,32.83-129.76,51.99-19.16,42.56-36.5,85.84-51.99,129.77,55.82-65.18,116.57-125.94,181.76-181.76Z"/>
    <path class="cls-1" d="m1751.72,1569.96c-43.93,15.49-87.21,32.83-129.76,51.99-19.16,42.56-36.5,85.84-51.99,129.77,55.82-65.18,116.57-125.94,181.76-181.76Z"/>
    <path class="cls-1" d="m2248.28,2430.04c43.93-15.49,87.21-32.83,129.76-51.99,19.16-42.56,36.5-85.83,51.99-129.76-55.82,65.18-116.57,125.94-181.76,181.76Z"/>
    <path class="cls-1" d="m2248.28,2430.04c43.93-15.49,87.21-32.83,129.76-51.99,19.16-42.56,36.5-85.83,51.99-129.76-55.82,65.18-116.57,125.94-181.76,181.76Z"/>
    <path class="cls-1" d="m2248.28,2430.04c43.93-15.49,87.21-32.83,129.76-51.99,19.16-42.56,36.5-85.83,51.99-129.76-55.82,65.18-116.57,125.94-181.76,181.76Z"/>
    <path class="cls-1" d="m2248.28,2430.04c43.93-15.49,87.21-32.83,129.76-51.99,19.16-42.56,36.5-85.83,51.99-129.76-55.82,65.18-116.57,125.94-181.76,181.76Z"/>
    <path class="cls-1" d="m2248.28,2430.04c43.93-15.49,87.21-32.83,129.76-51.99,19.16-42.56,36.5-85.83,51.99-129.76-55.82,65.18-116.57,125.94-181.76,181.76Z"/>
    <path class="cls-1" d="m1697.03,2524.76c34.74,60.32,73.07,118.81,115.55,174.73,64.74-27.19,127.18-58.68,187.43-93.54-47.68-27.6-93.85-57.45-138.38-89.52-54.59,5.51-109.5,8.28-164.59,8.33Z"/>
    <path class="cls-1" d="m1697.03,2524.76c34.74,60.32,73.07,118.81,115.55,174.73,64.74-27.19,127.18-58.68,187.43-93.54-47.68-27.6-93.85-57.45-138.38-89.52-54.59,5.51-109.5,8.28-164.59,8.33Z"/>
    <path class="cls-1" d="m1697.03,2524.76c34.74,60.32,73.07,118.81,115.55,174.73,64.74-27.19,127.18-58.68,187.43-93.54-47.68-27.6-93.85-57.45-138.38-89.52-54.59,5.51-109.5,8.28-164.59,8.33Z"/>
    <path class="cls-1" d="m2302.97,1475.24c-34.74-60.32-73.07-118.81-115.55-174.72-64.74,27.19-127.18,58.67-187.42,93.54,47.68,27.6,93.85,57.46,138.38,89.52,54.59-5.5,109.5-8.28,164.59-8.34Z"/>
    <path class="cls-1" d="m2302.97,1475.24c-34.74-60.32-73.07-118.81-115.55-174.72-64.74,27.19-127.18,58.67-187.42,93.54,47.68,27.6,93.85,57.46,138.38,89.52,54.59-5.5,109.5-8.28,164.59-8.34Z"/>
    <path class="cls-1" d="m2302.97,1475.24c-34.74-60.32-73.07-118.81-115.55-174.72-64.74,27.19-127.18,58.67-187.42,93.54,47.68,27.6,93.85,57.46,138.38,89.52,54.59-5.5,109.5-8.28,164.59-8.34Z"/>
    <path class="cls-1" d="m2000,2496.57c-45.79,8.55-91.94,15.18-138.38,19.86,44.52,32.06,90.69,61.92,138.38,89.52,47.68-27.6,93.85-57.45,138.37-89.52-46.44-4.68-92.58-11.31-138.37-19.86Z"/>
    <path class="cls-1" d="m2000,2496.57c-45.79,8.55-91.94,15.18-138.38,19.86,44.52,32.06,90.69,61.92,138.38,89.52,47.68-27.6,93.85-57.45,138.37-89.52-46.44-4.68-92.58-11.31-138.37-19.86Z"/>
    <path class="cls-1" d="m2000,2496.57c-45.79,8.55-91.94,15.18-138.38,19.86,44.52,32.06,90.69,61.92,138.38,89.52,47.68-27.6,93.85-57.45,138.37-89.52-46.44-4.68-92.58-11.31-138.37-19.86Z"/>
    <path class="cls-1" d="m2000,2496.57c-45.79,8.55-91.94,15.18-138.38,19.86,44.52,32.06,90.69,61.92,138.38,89.52,47.68-27.6,93.85-57.45,138.37-89.52-46.44-4.68-92.58-11.31-138.37-19.86Z"/>
    <path class="cls-1" d="m2000,1503.43c45.79-8.55,91.94-15.18,138.38-19.86-44.52-32.06-90.69-61.92-138.38-89.52-47.68,27.6-93.85,57.46-138.38,89.52,46.44,4.68,92.58,11.31,138.38,19.86Z"/>
    <path class="cls-1" d="m2000,1503.43c45.79-8.55,91.94-15.18,138.38-19.86-44.52-32.06-90.69-61.92-138.38-89.52-47.68,27.6-93.85,57.46-138.38,89.52,46.44,4.68,92.58,11.31,138.38,19.86Z"/>
    <path class="cls-1" d="m2000,1503.43c45.79-8.55,91.94-15.18,138.38-19.86-44.52-32.06-90.69-61.92-138.38-89.52-47.68,27.6-93.85,57.46-138.38,89.52,46.44,4.68,92.58,11.31,138.38,19.86Z"/>
    <path class="cls-1" d="m2000,1503.43c45.79-8.55,91.94-15.18,138.38-19.86-44.52-32.06-90.69-61.92-138.38-89.52-47.68,27.6-93.85,57.46-138.38,89.52,46.44,4.68,92.58,11.31,138.38,19.86Z"/>
    <path class="cls-1" d="m1861.62,1483.58c-37.87,27.27-74.52,56.08-109.91,86.38,80.93-28.54,163.92-50.78,248.28-66.53-45.79-8.55-91.94-15.17-138.38-19.86Z"/>
    <path class="cls-1" d="m1861.62,1483.58c-37.87,27.27-74.52,56.08-109.91,86.38,80.93-28.54,163.92-50.78,248.28-66.53-45.79-8.55-91.94-15.17-138.38-19.86Z"/>
    <path class="cls-1" d="m1861.62,1483.58c-37.87,27.27-74.52,56.08-109.91,86.38,80.93-28.54,163.92-50.78,248.28-66.53-45.79-8.55-91.94-15.17-138.38-19.86Z"/>
    <path class="cls-1" d="m1861.62,1483.58c-37.87,27.27-74.52,56.08-109.91,86.38,80.93-28.54,163.92-50.78,248.28-66.53-45.79-8.55-91.94-15.17-138.38-19.86Z"/>
    <path class="cls-1" d="m1861.62,1483.58c-37.87,27.27-74.52,56.08-109.91,86.38,80.93-28.54,163.92-50.78,248.28-66.53-45.79-8.55-91.94-15.17-138.38-19.86Z"/>
    <path class="cls-1" d="m2138.38,2516.42c37.87-27.27,74.52-56.08,109.91-86.38-80.93,28.54-163.92,50.78-248.28,66.53,45.79,8.55,91.94,15.17,138.37,19.86Z"/>
    <path class="cls-1" d="m2138.38,2516.42c37.87-27.27,74.52-56.08,109.91-86.38-80.93,28.54-163.92,50.78-248.28,66.53,45.79,8.55,91.94,15.17,138.37,19.86Z"/>
    <path class="cls-1" d="m2138.38,2516.42c37.87-27.27,74.52-56.08,109.91-86.38-80.93,28.54-163.92,50.78-248.28,66.53,45.79,8.55,91.94,15.17,138.37,19.86Z"/>
    <path class="cls-1" d="m2138.38,2516.42c37.87-27.27,74.52-56.08,109.91-86.38-80.93,28.54-163.92,50.78-248.28,66.53,45.79,8.55,91.94,15.17,138.37,19.86Z"/>
    <path class="cls-1" d="m2138.38,2516.42c37.87-27.27,74.52-56.08,109.91-86.38-80.93,28.54-163.92,50.78-248.28,66.53,45.79,8.55,91.94,15.17,138.37,19.86Z"/>
    <path class="cls-1" d="m2138.37,1483.58c37.87,27.27,74.53,56.08,109.91,86.38,43.93,15.49,87.21,32.83,129.76,51.99-22.53-50.03-47.58-98.97-75.08-146.71-55.09.06-110.01,2.83-164.59,8.34Z"/>
    <path class="cls-1" d="m2138.37,1483.58c37.87,27.27,74.53,56.08,109.91,86.38,43.93,15.49,87.21,32.83,129.76,51.99-22.53-50.03-47.58-98.97-75.08-146.71-55.09.06-110.01,2.83-164.59,8.34Z"/>
    <path class="cls-1" d="m2138.37,1483.58c37.87,27.27,74.53,56.08,109.91,86.38,43.93,15.49,87.21,32.83,129.76,51.99-22.53-50.03-47.58-98.97-75.08-146.71-55.09.06-110.01,2.83-164.59,8.34Z"/>
    <path class="cls-1" d="m2138.37,1483.58c37.87,27.27,74.53,56.08,109.91,86.38,43.93,15.49,87.21,32.83,129.76,51.99-22.53-50.03-47.58-98.97-75.08-146.71-55.09.06-110.01,2.83-164.59,8.34Z"/>
    <path class="cls-1" d="m1861.63,2516.42c-37.87-27.27-74.52-56.09-109.91-86.38-43.93-15.49-87.21-32.83-129.77-51.99,22.53,50.03,47.58,98.97,75.08,146.71,55.09-.06,110.01-2.83,164.59-8.33Z"/>
    <path class="cls-1" d="m1861.63,2516.42c-37.87-27.27-74.52-56.09-109.91-86.38-43.93-15.49-87.21-32.83-129.77-51.99,22.53,50.03,47.58,98.97,75.08,146.71,55.09-.06,110.01-2.83,164.59-8.33Z"/>
    <path class="cls-1" d="m1861.63,2516.42c-37.87-27.27-74.52-56.09-109.91-86.38-43.93-15.49-87.21-32.83-129.77-51.99,22.53,50.03,47.58,98.97,75.08,146.71,55.09-.06,110.01-2.83,164.59-8.33Z"/>
    <path class="cls-1" d="m1861.63,2516.42c-37.87-27.27-74.52-56.09-109.91-86.38-43.93-15.49-87.21-32.83-129.77-51.99,22.53,50.03,47.58,98.97,75.08,146.71,55.09-.06,110.01-2.83,164.59-8.33Z"/>
    <path class="cls-1" d="m1861.63,2516.42c46.44-4.68,92.58-11.31,138.38-19.86-84.36-15.75-167.35-37.99-248.28-66.53,35.38,30.3,72.03,59.11,109.91,86.38Z"/>
    <path class="cls-1" d="m1861.63,2516.42c46.44-4.68,92.58-11.31,138.38-19.86-84.36-15.75-167.35-37.99-248.28-66.53,35.38,30.3,72.03,59.11,109.91,86.38Z"/>
    <path class="cls-1" d="m1861.63,2516.42c46.44-4.68,92.58-11.31,138.38-19.86-84.36-15.75-167.35-37.99-248.28-66.53,35.38,30.3,72.03,59.11,109.91,86.38Z"/>
    <path class="cls-1" d="m1861.63,2516.42c46.44-4.68,92.58-11.31,138.38-19.86-84.36-15.75-167.35-37.99-248.28-66.53,35.38,30.3,72.03,59.11,109.91,86.38Z"/>
    <path class="cls-1" d="m1861.63,2516.42c46.44-4.68,92.58-11.31,138.38-19.86-84.36-15.75-167.35-37.99-248.28-66.53,35.38,30.3,72.03,59.11,109.91,86.38Z"/>
    <path class="cls-1" d="m2138.37,1483.58c-46.44,4.68-92.58,11.31-138.38,19.86,84.36,15.75,167.35,37.99,248.28,66.52-35.38-30.3-72.03-59.11-109.91-86.38Z"/>
    <path class="cls-1" d="m2138.37,1483.58c-46.44,4.68-92.58,11.31-138.38,19.86,84.36,15.75,167.35,37.99,248.28,66.52-35.38-30.3-72.03-59.11-109.91-86.38Z"/>
    <path class="cls-1" d="m2138.37,1483.58c-46.44,4.68-92.58,11.31-138.38,19.86,84.36,15.75,167.35,37.99,248.28,66.52-35.38-30.3-72.03-59.11-109.91-86.38Z"/>
    <path class="cls-1" d="m2138.37,1483.58c-46.44,4.68-92.58,11.31-138.38,19.86,84.36,15.75,167.35,37.99,248.28,66.52-35.38-30.3-72.03-59.11-109.91-86.38Z"/>
    <path class="cls-1" d="m2138.37,1483.58c-46.44,4.68-92.58,11.31-138.38,19.86,84.36,15.75,167.35,37.99,248.28,66.52-35.38-30.3-72.03-59.11-109.91-86.38Z"/>
    <path class="cls-1" d="m1569.96,2248.28c15.49,43.93,32.83,87.21,51.99,129.76,42.56,19.16,85.84,36.5,129.77,51.99-65.18-55.82-125.94-116.57-181.76-181.76Z"/>
    <path class="cls-1" d="m1569.96,2248.28c15.49,43.93,32.83,87.21,51.99,129.76,42.56,19.16,85.84,36.5,129.77,51.99-65.18-55.82-125.94-116.57-181.76-181.76Z"/>
    <path class="cls-1" d="m1569.96,2248.28c15.49,43.93,32.83,87.21,51.99,129.76,42.56,19.16,85.84,36.5,129.77,51.99-65.18-55.82-125.94-116.57-181.76-181.76Z"/>
    <path class="cls-1" d="m1569.96,2248.28c15.49,43.93,32.83,87.21,51.99,129.76,42.56,19.16,85.84,36.5,129.77,51.99-65.18-55.82-125.94-116.57-181.76-181.76Z"/>
    <path class="cls-1" d="m1569.96,2248.28c15.49,43.93,32.83,87.21,51.99,129.76,42.56,19.16,85.84,36.5,129.77,51.99-65.18-55.82-125.94-116.57-181.76-181.76Z"/>
    <path class="cls-1" d="m2430.04,1751.71c-15.49-43.93-32.83-87.21-51.99-129.76-42.56-19.16-85.83-36.5-129.76-51.99,65.18,55.82,125.94,116.57,181.76,181.76Z"/>
    <path class="cls-1" d="m2430.04,1751.71c-15.49-43.93-32.83-87.21-51.99-129.76-42.56-19.16-85.83-36.5-129.76-51.99,65.18,55.82,125.94,116.57,181.76,181.76Z"/>
    <path class="cls-1" d="m2430.04,1751.71c-15.49-43.93-32.83-87.21-51.99-129.76-42.56-19.16-85.83-36.5-129.76-51.99,65.18,55.82,125.94,116.57,181.76,181.76Z"/>
    <path class="cls-1" d="m2430.04,1751.71c-15.49-43.93-32.83-87.21-51.99-129.76-42.56-19.16-85.83-36.5-129.76-51.99,65.18,55.82,125.94,116.57,181.76,181.76Z"/>
    <path class="cls-1" d="m2430.04,1751.71c-15.49-43.93-32.83-87.21-51.99-129.76-42.56-19.16-85.83-36.5-129.76-51.99,65.18,55.82,125.94,116.57,181.76,181.76Z"/>
    <path class="cls-1" d="m2430.04,1751.71c-55.82-65.18-116.57-125.94-181.76-181.76-80.93-28.54-163.93-50.78-248.28-66.52-84.36,15.75-167.35,37.98-248.28,66.53-65.18,55.82-125.94,116.57-181.76,181.76-28.54,80.93-50.78,163.93-66.53,248.28,15.75,84.36,37.99,167.35,66.53,248.28,55.82,65.18,116.58,125.94,181.76,181.76,80.93,28.54,163.93,50.78,248.28,66.53,84.36-15.75,167.35-37.99,248.28-66.53,65.18-55.82,125.94-116.58,181.76-181.76,28.54-80.93,50.78-163.93,66.53-248.28-15.75-84.36-37.99-167.35-66.53-248.29Z"/>
    <path class="cls-1" d="m2430.04,1751.71c-55.82-65.18-116.57-125.94-181.76-181.76-80.93-28.54-163.93-50.78-248.28-66.52-84.36,15.75-167.35,37.98-248.28,66.53-65.18,55.82-125.94,116.57-181.76,181.76-28.54,80.93-50.78,163.93-66.53,248.28,15.75,84.36,37.99,167.35,66.53,248.28,55.82,65.18,116.58,125.94,181.76,181.76,80.93,28.54,163.93,50.78,248.28,66.53,84.36-15.75,167.35-37.99,248.28-66.53,65.18-55.82,125.94-116.58,181.76-181.76,28.54-80.93,50.78-163.93,66.53-248.28-15.75-84.36-37.99-167.35-66.53-248.29Z"/>
    <path class="cls-1" d="m2430.04,1751.71c-55.82-65.18-116.57-125.94-181.76-181.76-80.93-28.54-163.93-50.78-248.28-66.52-84.36,15.75-167.35,37.98-248.28,66.53-65.18,55.82-125.94,116.57-181.76,181.76-28.54,80.93-50.78,163.93-66.53,248.28,15.75,84.36,37.99,167.35,66.53,248.28,55.82,65.18,116.58,125.94,181.76,181.76,80.93,28.54,163.93,50.78,248.28,66.53,84.36-15.75,167.35-37.99,248.28-66.53,65.18-55.82,125.94-116.58,181.76-181.76,28.54-80.93,50.78-163.93,66.53-248.28-15.75-84.36-37.99-167.35-66.53-248.29Z"/>
    <path class="cls-1" d="m2430.04,1751.71c-55.82-65.18-116.57-125.94-181.76-181.76-80.93-28.54-163.93-50.78-248.28-66.52-84.36,15.75-167.35,37.98-248.28,66.53-65.18,55.82-125.94,116.57-181.76,181.76-28.54,80.93-50.78,163.93-66.53,248.28,15.75,84.36,37.99,167.35,66.53,248.28,55.82,65.18,116.58,125.94,181.76,181.76,80.93,28.54,163.93,50.78,248.28,66.53,84.36-15.75,167.35-37.99,248.28-66.53,65.18-55.82,125.94-116.58,181.76-181.76,28.54-80.93,50.78-163.93,66.53-248.28-15.75-84.36-37.99-167.35-66.53-248.29Z"/>
    <path class="cls-1" d="m2430.04,1751.71c-55.82-65.18-116.57-125.94-181.76-181.76-80.93-28.54-163.93-50.78-248.28-66.52-84.36,15.75-167.35,37.98-248.28,66.53-65.18,55.82-125.94,116.57-181.76,181.76-28.54,80.93-50.78,163.93-66.53,248.28,15.75,84.36,37.99,167.35,66.53,248.28,55.82,65.18,116.58,125.94,181.76,181.76,80.93,28.54,163.93,50.78,248.28,66.53,84.36-15.75,167.35-37.99,248.28-66.53,65.18-55.82,125.94-116.58,181.76-181.76,28.54-80.93,50.78-163.93,66.53-248.28-15.75-84.36-37.99-167.35-66.53-248.29Z"/>
    <path class="cls-1" d="m2430.04,1751.71c-55.82-65.18-116.57-125.94-181.76-181.76-80.93-28.54-163.93-50.78-248.28-66.52-84.36,15.75-167.35,37.98-248.28,66.53-65.18,55.82-125.94,116.57-181.76,181.76-28.54,80.93-50.78,163.93-66.53,248.28,15.75,84.36,37.99,167.35,66.53,248.28,55.82,65.18,116.58,125.94,181.76,181.76,80.93,28.54,163.93,50.78,248.28,66.53,84.36-15.75,167.35-37.99,248.28-66.53,65.18-55.82,125.94-116.58,181.76-181.76,28.54-80.93,50.78-163.93,66.53-248.28-15.75-84.36-37.99-167.35-66.53-248.29Z"/>
  </g>
  <circle cx="2000" cy="1999.99" r="512.05"/>
</svg>